<?xml version="1.0" encoding="utf-8"?>
<!-- Generator: Adobe Illustrator 24.3.0, SVG Export Plug-In . SVG Version: 6.00 Build 0)  -->
<svg version="1.1" id="Layer_1" xmlns="http://www.w3.org/2000/svg" xmlns:xlink="http://www.w3.org/1999/xlink" x="0px" y="0px"
	 viewBox="0 0 689.5 679.6" style="enable-background:new 0 0 689.5 679.6;" xml:space="preserve">
<style type="text/css">
	.st0{fill:#252525;}
	.st1{fill:#FFFFFF;}
	.st2{fill:none;stroke:#2F3075;stroke-miterlimit:10;}
</style>
<g>
	<path class="st0" d="M398.2,160.1c0,0,0,350.1,0,354.4c-4.1,0-101.5,0-105.6,0c0-4.3,0-354.4,0-354.4h-4.4v358.7h114.4V160.1H398.2
		z"/>
	<path class="st0" d="M39.4,259.9c-6.8,25.9-10.2,52.8-10.2,80c0,174,141.6,315.6,315.6,315.6V651C173.1,651,33.5,511.4,33.5,339.8
		c0-26.8,3.4-53.3,10.1-78.9C79.2,124.1,203.1,28.5,344.8,28.5c142.6,0,266.6,96.4,301.7,234.3c6.4,25,9.6,50.9,9.6,77
		C656,511.4,516.4,651,344.8,651v4.4c174,0,315.6-141.6,315.6-315.6c0-26.5-3.3-52.7-9.7-78.1C615.1,121.9,489.3,24.2,344.8,24.2
		C201.1,24.2,75.5,121.1,39.4,259.9z"/>
	<path class="st0" d="M344.8,653.2c173.1,0,313.4-140.2,313.4-313.4c0-26.8-3.4-53.9-9.6-78.7h-1.3h-69.5
		c41.2,106.4-18.6,190.2-24.5,201.6c-60.2,115.9-188.8,119-188.8,119c2.2-23.3,48.3-35.9,51.9-45.4c0-4.4,0-21.7,0-21.7H273V537
		c2.1,10.3,47.5,26.5,49.8,44.8c-169.4-25-253.2-166.1-210.4-320.6H41.8h-0.3c-6.6,25.3-10.2,51.2-10.2,78.7
		C31.3,513,171.6,653.2,344.8,653.2"/>
	<path class="st0" d="M345,382.1c25.9,0,47-21,47-47s-21-47-47-47c-25.9,0-46.9,21-46.9,47C298.1,361,319.1,382.1,345,382.1z"/>
	<path class="st0" d="M345,268.1c25.9,0,47-21,47-46.9s-21-46.9-47-46.9c-25.9,0-46.9,21-46.9,46.9S319.1,268.1,345,268.1z"/>
	<path class="st0" d="M345,495.3c25.9,0,47-21,47-47c0-25.9-21-46.9-47-46.9c-25.9,0-46.9,21-46.9,46.9
		C298.1,474.3,319.1,495.3,345,495.3z"/>
	<path class="st0" d="M278.7,160.3v2.2h132.7v-2.2c0-28-29.8-50.7-66.4-50.7C308.4,109.7,278.7,132.4,278.7,160.3 M345,114
		c33.2,0,59.8,19.7,61.4,44.2c-5.2,0-117.6,0-122.8,0C285.3,133.7,311.9,114,345,114z"/>
	<polygon class="st0" points="563.6,170.7 558.3,174.8 565.3,184.2 558.2,189.6 551.1,180.1 545.5,184.3 552.9,194.3 545.8,199.7 
		532,181.2 564.5,156.9 578.3,175.4 571.1,180.7 	"/>
	<polygon class="st0" points="542.8,145.7 537.8,150.3 545.8,158.8 539.2,164.9 531.3,156.4 519.6,167.3 512.5,159.6 542.1,131.8 
		558,148.9 551.5,155 	"/>
	<polygon class="st0" points="506.2,153.9 498.3,146.9 525.2,116.4 533.1,123.4 	"/>
	<polygon class="st0" points="489.2,128.7 499.6,136.1 494.3,143.3 475.5,129.8 499.1,96.8 507.7,102.9 	"/>
	<path class="st0" d="M463.9,88.7c-1.4-2.7-3-4.3-5.2-5.4c-2.3-1-4.7-0.4-5.5,1.3c-0.5,1.2-0.1,2.5,1.2,4c0.4,0.4,0.7,0.7,3.6,3.2
		c5.6,4.8,6.9,9,4.5,14.4c-3.7,8.3-11.3,10.9-20.4,6.8c-4.5-2-8.4-5.5-11-10l7.6-5.9c1.8,3.9,4,6.3,6.8,7.6c2.8,1.3,5.3,0.6,6.3-1.5
		c0.9-2,0-3.5-3.9-6.9c-3.7-3.1-5-4.5-5.8-6.3c-1.1-2.4-1-5.3,0.4-8.5c3.4-7.5,10.7-10.2,18.2-6.9c3.9,1.7,7.6,4.7,10.4,8.2
		L463.9,88.7z"/>
	<polygon class="st0" points="423.7,104.7 413.6,101.6 426,62.8 436,66 	"/>
	<polygon class="st0" points="385.5,63.1 384.5,69.7 396.3,71.5 395,80.4 383.3,78.6 382.3,85.6 394.7,87.3 393.4,96.2 370.6,93 
		376.3,52.7 399.2,56 397.9,64.8 	"/>
	<polygon class="st0" points="321.1,52.5 331.6,52.1 351.9,76.2 351.1,51.4 361.5,51.1 363,91.6 352.5,92 332.2,67.9 333.1,92.7 
		322.5,93.1 	"/>
	<polygon class="st0" points="314.9,94.6 304.5,96.1 298.5,55.9 308.9,54.3 	"/>
	<polygon class="st0" points="284.7,91 297,88.1 299.1,96.8 276.5,102.2 267,62.7 277.3,60.2 	"/>
	<path class="st0" d="M252.6,110.4l-9.9,3.7l-14.3-38l15.6-5.9c4.5-1.6,7.4-1.8,10.7-0.4c3.3,1.4,5.8,4,7.3,7.9
		c3.2,8.4,0.4,14.6-8.1,17.7l-6.2,2.3L252.6,110.4 M248,88.6c3.8-1.4,4.9-3.6,3.6-6.9c-1.1-3.1-3.6-3.9-7.1-2.6l-3.3,1.3l3.6,9.5
		L248,88.6z"/>
	<polygon class="st0" points="235.4,117.9 226,122.7 207.5,86.5 216.9,81.7 	"/>
	<path class="st0" d="M205.5,103.1c-3.7-1.1-7.1-0.7-10.1,1.4c-5.3,3.4-6.5,9.9-2.9,15.3c3.5,5.2,9.9,6.5,15.1,3.1
		c2.9-2,4.6-4.7,5.3-8.6l6.9,10.4c-3.2,4.2-4.4,5.3-6.7,6.9c-10.2,6.8-23.2,4.3-29.9-5.6c-6.6-9.9-3.9-23.1,6.1-29.7
		c2.6-1.8,5.1-2.7,9.1-3.6L205.5,103.1z"/>
	<path class="st0" d="M167.4,126.2c-3,0.2-5.2,0.9-7,2.6c-1.9,1.6-2.3,4.1-1,5.6c0.8,1,2.2,1.1,4.2,0.5c0.6-0.2,1-0.4,4.4-2
		c6.6-3.1,11.1-2.6,15,1.8c6.1,6.8,5.3,14.7-2.2,21.3c-3.7,3.3-8.4,5.4-13.6,6l-2.2-9.4c4.2-0.1,7.4-1,9.7-3.1
		c2.4-2.1,2.7-4.6,1.2-6.3c-1.5-1.6-3.2-1.5-7.9,0.7c-4.3,2.1-6.2,2.6-8.2,2.7c-2.7,0-5.2-1.2-7.5-3.9c-5.4-6.1-5-13.9,1.2-19.5
		c3.2-2.8,7.3-5,11.8-6.1L167.4,126.2z"/>
	
		<rect x="142" y="139.1" transform="matrix(0.6691 -0.7431 0.7431 0.6691 -69.6994 162.1763)" class="st0" width="10.5" height="40.6"/>
	<path class="st0" d="M100.5,187.5l8.9-12.9c6.1-8.8,19.1-11.1,28.1-5c9,6.2,11.5,19.1,5.4,28l-8.9,12.8L100.5,187.5 M134,194.8
		c4-5.8,2.8-12.1-2.8-16.1c-5.6-3.8-12-2.6-15.9,3.1l-1.4,2l18.7,12.9L134,194.8z"/>
	<polygon class="st1" points="625.9,304.4 611.2,305.6 610.8,300.3 648.4,297.2 648.8,302.6 631.3,304 632.5,319 650,317.6 
		650.4,322.9 612.9,325.9 612.4,320.6 627.2,319.5 	"/>
	<path class="st1" d="M621,337.2c-2.9,1.5-3.8,2.7-3.9,5.2c-0.1,2.8,1.9,5.1,4.6,5.3c1.2,0,2.3-0.5,3.2-1.6s0.7-0.7,3-5.6
		c2.7-5.5,6.2-8,11.2-7.9c7.1,0.2,12.1,5.1,12,11.4c-0.2,6.3-4.4,10.3-11.5,11l-1.1-5.3c2.2-0.2,3.2-0.4,4.1-0.9
		c1.8-0.8,3-2.8,3.1-5c0.1-3.3-2.5-5.8-6.1-5.9c-2.1,0-3.8,0.7-5.1,2.3c-0.5,0.8-1.1,1.6-1.5,2.5l-0.5,1.2l-0.6,1.1l-0.5,1.1
		c-2.3,4.8-5.5,7-9.7,6.9c-5.8-0.2-9.9-4.8-9.7-10.8c0.1-4.2,2.1-7,6.6-9.3L621,337.2z"/>
	<polygon class="st1" points="615.5,373 624.5,374.2 626.2,360.6 631.5,361.3 629.8,374.8 642.2,376.4 644,362.4 649.3,363.1 
		646.9,382.3 609.5,377.7 611.9,358.4 617.2,359.1 	"/>
	<path class="st1" d="M602.5,409.6l1.7-7.1c1.4-5.9,3.2-9.1,6.6-11.8c4.4-3.5,10.2-4.6,16.4-3.1s10.7,5.1,13.1,10.4
		c1.9,4,2.1,7.2,0.6,13.3l-1.7,7L602.5,409.6 M635.8,409.6c0.9-4.2,0.8-6.9-0.5-9.8c-1.7-3.5-5-6.1-9.4-7.1c-4.3-1-8.6-0.2-11.6,2.2
		c-2.4,1.8-3.8,4.3-4.7,8.5l-0.6,2.3l26.3,6.3L635.8,409.6z"/>
	<path class="st1" d="M620,445.6l7.2,6.9l-2,5.3l-31.5-30.3l43.4-1.7l-2,5.4l-9.9,0.3L620,445.6 M605.7,432.1l10.1,9.5l3.7-9.9
		L605.7,432.1z"/>
	<polygon class="st1" points="613.3,469.5 617.9,460.3 622.7,462.7 615.8,476.6 582,459.8 584.3,455.1 	"/>
	<path class="st1" d="M595,474.7l1.4,0.9c4.2,2.7,6.6,5.3,8,8.8c2.1,4.9,1.7,10.6-1.2,15c-5.3,8.3-17,10.3-26,4.5
		c-9.3-5.9-12.2-17.4-6.6-26.2c3-4.7,7.2-7.1,14.1-7.8l1.3,5.3c-5.3,0.2-8.6,1.9-11,5.6c-3.9,6.2-1.7,14.3,5.1,18.7
		c6.5,4.2,15,2.8,18.8-3.1c2.8-4.4,1.8-10.8-2.5-14l-4.7,7.3l-4.6-2.9L595,474.7z"/>
	<polygon class="st1" points="535.8,519.9 574.2,519.3 554.4,502.2 557.9,498.2 588.2,524.3 549.7,524.9 569.7,542.2 566.2,546.2 	
		"/>
	<path class="st1" d="M536.4,561.4l3.2,9.4l-4.3,3.8l-13.7-41.5l39.2,18.9l-4.4,3.8l-8.9-4.4L536.4,561.4 M530,542.7l4.5,13.2l8-7.1
		L530,542.7z"/>
	<path class="st1" d="M492.2,558.8l4.3-3.1c3.5-2.4,5.7-3.3,8-3.3c3.1,0,6.3,2,8.4,4.8c1.5,2.2,2.1,4.5,1.6,7.2
		c3.8-1,7.8,0.6,10.3,4.2c1.9,2.6,2.5,5.7,1.9,8.7c-0.7,3-2.1,4.8-6,7.6l-6.5,4.7L492.2,558.8 M507.3,568.1c3.1-2.3,3.6-5,1.5-7.9
		s-4.8-3.3-7.7-1.3l-1.5,1.1l6.3,8.9L507.3,568.1 M518,580.3c3.7-2.6,4.6-5.7,2.6-8.6c-2.3-3.2-5.4-3.3-9.6-0.4l-2.2,1.6l6.6,9.3
		L518,580.3z"/>
	<polygon class="st1" points="468,578.9 472.2,587 482.7,581.6 485.1,586.4 474.7,591.7 482.9,607.7 478.2,610.1 460.9,576.6 
		476.5,568.6 478.9,573.4 	"/>
	<path class="st1" d="M462.8,597c3.8,10.1-0.8,21.2-10.3,24.8c-9.7,3.7-20.2-1.6-24-11.8s0.8-21.4,10.4-25
		C448.2,581.5,459,586.9,462.8,597 M433.4,608.1c2.8,7.4,10.4,11.2,17.2,8.7c6.7-2.6,10-10.5,7.2-17.8c-2.8-7.7-10.3-11.4-17.1-8.9
		C433.7,592.6,430.6,600.5,433.4,608.1z"/>
	<polygon class="st1" points="373.6,599.2 403.5,623.3 399.2,597.4 404.4,596.5 411.1,636.1 381.1,612 385.4,638 380.2,638.8 	"/>
	<path class="st1" d="M369.3,621.2c0.2,10.8-7.8,19.7-17.9,20c-10.3,0.2-18.6-8.2-18.8-19.1c-0.2-10.9,7.8-19.9,18-20.1
		C360.7,601.7,369.2,610.4,369.3,621.2 M338,621.8c0.2,7.9,6.1,14.1,13.3,13.9c7.2-0.2,12.9-6.6,12.8-14.4
		c-0.2-8.1-5.9-14.2-13.3-14.1C343.4,607.5,337.8,613.8,338,621.8z"/>
	<polygon class="st1" points="323.3,639.7 318,639.3 320.9,601.7 326.2,602.1 	"/>
	<polygon class="st1" points="303.5,637.7 298.2,636.9 302.9,604.9 294.9,603.7 295.6,598.4 316.8,601.5 316.1,606.8 308.1,605.7 	
		"/>
	<path class="st1" d="M267.3,621.1l-6,8l-5.5-1.3l26.4-34.9l6.7,43l-5.6-1.4l-1.4-9.8L267.3,621.1 M279,605.2l-8.3,11.1l10.3,2.5
		L279,605.2z"/>
	<polygon class="st1" points="250.2,625.5 245.1,623.8 257.2,588 262.2,589.7 	"/>
	<path class="st1" d="M248.1,594.4c-1.9-4.1-3.9-6.2-7.1-7.6c-6.6-2.9-14.3,0.8-17.4,8.1c-3.2,7.4-0.5,15.2,6.3,18.2
		c3,1.3,6,1.2,10.3-0.3l-2.7,6.3c-3.6,0.5-6.8,0.2-9.8-1.1c-9.4-4.1-13.4-15.1-8.9-25.3c4.2-9.7,15.4-14.6,24.5-10.7
		c3.4,1.5,5.4,3.1,7.5,6.3L248.1,594.4z"/>
	<path class="st1" d="M213.1,590.2c-5.5,9.2-17.1,12.6-25.7,7.4c-8.8-5.3-11.4-16.8-5.8-26.1c5.6-9.4,17.2-12.7,25.9-7.4
		C216.1,569.1,218.6,580.9,213.1,590.2 M186.2,574c-4.1,6.8-2.3,15.2,4,18.9c6.2,3.7,14.4,1.3,18.3-5.4c4.2-7,2.6-15.2-3.7-19
		C198.4,564.7,190.4,567.1,186.2,574z"/>
	<path class="st1" d="M179.7,556.2c0.5-3.3,0.1-4.7-1.8-6.2c-2.2-1.8-5.3-1.5-6.9,0.6c-0.7,0.9-1,2.1-0.6,3.4
		c0.3,1.4,0.1,0.9,2.7,5.7c2.9,5.5,2.8,9.7-0.3,13.7c-4.3,5.5-11.2,6.7-16.2,2.7c-4.9-3.8-5.6-9.6-2.1-15.7l5,2.3
		c-1.2,1.9-1.6,2.7-1.8,3.8c-0.4,2,0.4,4.1,2.1,5.4c2.6,2.1,6.1,1.4,8.3-1.3c1.4-1.7,1.7-3.5,1.2-5.5c-0.3-0.9-0.6-1.9-1.1-2.7
		l-0.6-1.1l-0.5-1l-0.6-1.1c-2.5-4.7-2.4-8.6,0.2-11.9c3.6-4.6,9.7-5.2,14.5-1.4c3.3,2.6,4.4,5.9,3.5,10.8L179.7,556.2z"/>
	<path class="st1" d="M159,539.1c0.8-3.2,0.5-4.7-1.3-6.3c-2.1-2-5-2-6.9-0.1c-0.9,0.9-1.3,2-1,3.4c0.2,1.4,0,0.9,2.1,6
		c2.4,5.7,1.8,9.9-1.6,13.6c-4.9,5.1-11.9,5.6-16.5,1.2c-4.5-4.3-4.7-10.1-0.5-15.9l4.8,2.8c-1.4,1.8-1.9,2.5-2.1,3.6
		c-0.6,2,0,4.1,1.6,5.6c2.4,2.3,6,2.1,8.5-0.5c1.5-1.6,2.1-3.3,1.7-5.3c-0.2-1-0.5-1.9-0.8-2.8l-0.5-1.2l-0.4-1.1l-0.4-1.2
		c-2-4.9-1.5-8.8,1.4-11.8c4-4.2,10.2-4.2,14.6,0c3,2.8,3.8,6.3,2.5,11.1L159,539.1z"/>
	<path class="st1" d="M113.4,519.8l-9.6,2.9l-3.7-4.3l41.9-12.5l-20,38.6l-3.7-4.4l4.6-8.7L113.4,519.8 M132.2,514l-13.3,4.1
		l6.8,8.1L132.2,514z"/>
	<path class="st1" d="M113.5,486.9c0.9-4.4,0.5-7.4-1.2-10.3c-3.6-6.2-11.9-7.9-18.9-3.8c-6.9,4.1-9.3,12-5.6,18.4
		c1.7,2.8,4.1,4.5,8.4,5.8l-5.9,3.5c-3.2-1.6-5.6-3.8-7.2-6.6c-5.2-8.9-1.8-20.1,7.8-25.8c9.1-5.3,21-2.6,26.1,5.9
		c1.8,3.2,2.5,5.6,2.4,9.5L113.5,486.9z"/>
	<polygon class="st1" points="70.8,469.6 68.5,464.8 102.5,448.5 104.8,453.3 	"/>
	<polygon class="st1" points="62.6,451.5 60.6,446.6 90.6,434.5 87.6,427 92.6,425 100.6,444.9 95.6,446.8 92.7,439.4 	"/>
	<polygon class="st1" points="82.6,410.9 74,413.6 77.9,426.6 72.8,428.2 68.8,415.1 56.8,418.7 60.9,432.1 55.8,433.7 50.1,415.2 
		86.2,404.3 91.8,422.8 86.7,424.4 	"/>
	<path class="st1" d="M80.7,378.3l1,5.2c0.8,4.1,0.7,6.6-0.3,8.6c-1.3,2.7-4.4,5-7.8,5.6c-2.6,0.5-4.9,0.1-7.2-1.5
		c-0.7,3.8-3.8,6.8-8.1,7.7c-3.2,0.6-6.2,0-8.6-1.9c-2.5-1.9-3.6-4-4.5-8.5l-1.6-7.9L80.7,378.3 M66.1,388.3c0.7,3.7,3,5.3,6.5,4.5
		c3.4-0.7,4.9-3,4.3-6.5l-0.4-1.8l-10.8,2.1L66.1,388.3 M50.6,393.1c0.9,4.4,3.3,6.5,6.8,5.8c3.9-0.7,5.2-3.6,4.3-8.6l-0.5-2.6
		L50,389.9L50.6,393.1z"/>
	<path class="st1" d="M49.3,353.2l-9.5-3.1l-0.5-5.7l41.5,13.9l-38.5,20l-0.5-5.8l8.8-4.4L49.3,353.2 M68,359.3l-13.2-4.4l0.9,10.6
		L68,359.3z"/>
	<rect x="39.6" y="332.5" class="st1" width="37.8" height="5.3"/>
	<path class="st1" d="M79.4,299.5l-0.6,7.3c-0.5,6-1.8,9.4-4.8,12.6c-3.8,4.1-9.4,6-15.8,5.5c-6.3-0.5-11.3-3.4-14.5-8.3
		c-2.5-3.8-3.1-6.8-2.6-13.1l0.6-7.2L79.4,299.5 M46.5,304.5c-0.3,4.3,0.2,6.9,1.9,9.5c2.2,3.3,6,5.3,10.4,5.7
		c4.3,0.4,8.5-1,11.1-3.9c2.1-2.1,3.1-4.8,3.4-9l0.2-2.4l-26.9-2.3L46.5,304.5z"/>
</g>
<circle class="st2" cx="344.7" cy="339.8" r="315.6"/>
</svg>
