<?xml version="1.0" encoding="utf-8"?>
<!-- Generator: Adobe Illustrator 24.3.0, SVG Export Plug-In . SVG Version: 6.00 Build 0)  -->
<svg version="1.1" id="Layer_1" xmlns="http://www.w3.org/2000/svg" xmlns:xlink="http://www.w3.org/1999/xlink" x="0px" y="0px"
	 viewBox="0 0 84.5 80.2" style="enable-background:new 0 0 84.5 80.2;" xml:space="preserve">
<style type="text/css">
	.st0{fill:#252525;}
	.st1{fill:#F6F6F6;}
	.st2{fill:#252525;stroke:#FFCE00;stroke-width:2.591732e-03;}
	.st3{fill:#878787;stroke:#DADADA;stroke-width:2.591732e-03;}
</style>
<g>
	<ellipse class="st0" cx="42.3" cy="40.1" rx="35" ry="35"/>
	<path class="st1" d="M74,40.1c0,17.7-14.2,32-31.7,32s-31.7-14.3-31.7-32s14.2-32,31.7-32C59.8,8.1,74,22.4,74,40.1z"/>
	<g>
		<g id="g3879" transform="matrix(0.06171364,0,0,0.06171364,19.920107,9.6938707)">
			<g id="g3062" transform="translate(-10.255616,-165.11542)">
				<g id="g3047" transform="translate(-314,0)">
					<g id="g3041">
						<path id="path3037" class="st0" d="M553.2,814.6c244.1-156.1,366.2-288,445.3-402.9C971.2,547.6,823,693.3,576.7,846.9
							c-6.7,4.3-12.8,9.3-18.8,14.5c-1.6,1.4-8.3,3.6-10.3,4.2c-19.2,6.1-42.3,38.4-77.5,43.4c-1.7,21.4-21.1,33.3-35.5,33.3
							c-38.9,67.9-101.6-21.1-22.2-26.7c10.3-30.8,43.2-27.3,44.4-24.4c20.4-34.8,43.8-38.7,66.6-55.5L553.2,814.6z"/>
						<path id="rect3039" class="st0" d="M531.1,784.4l65.5,89.6c4.9,6.7,3.4,16.1-3.3,20.9l0,0c-6.7,4.9-16.1,3.4-20.9-3.2
							L506.9,802c-4.9-6.7-3.4-16.1,3.2-20.9l0,0C516.8,776.2,526.2,777.7,531.1,784.4z"/>
						<path id="path3854" class="st0" d="M819.5,814.6c-244.1-156.1-366.2-288-445.3-402.9C401.4,547.6,549.7,693.3,796,846.9
							c6.7,4.3,12.8,9.3,18.8,14.5c1.6,1.4,8.3,3.6,10.3,4.2c19.2,6.1,42.3,38.4,77.5,43.4c1.7,21.4,21.1,33.3,35.5,33.3
							c38.9,67.9,101.6-21.1,22.2-26.7c-10.3-30.8-43.2-27.3-44.4-24.4c-20.4-34.8-43.8-38.7-66.6-55.5L819.5,814.6z"/>
						<path id="rect3856" class="st0" d="M841.6,784.4L776.1,874c-4.9,6.7-3.4,16.1,3.3,20.9l0,0c6.7,4.9,16.1,3.4,20.9-3.2
							l65.5-89.6c4.9-6.7,3.4-16.1-3.2-20.9l0,0C855.9,776.2,846.5,777.7,841.6,784.4z"/>
					</g>
				</g>
				<path id="path3060" class="st0" d="M238.8,841c8.5,13.1-6.1,37.6-32.6,54.8s-54.8,20.5-63.3,7.5c-8.5-13.1,6.1-37.6,32.6-54.8
					C202,831.3,230.3,827.9,238.8,841L238.8,841z"/>
				<path id="path3858" class="st0" d="M505.9,841c-8.5,13.1,6.1,37.6,32.6,54.8c26.5,17.2,54.8,20.5,63.3,7.5
					c8.5-13.1-6.1-37.6-32.6-54.8C542.7,831.3,514.3,827.9,505.9,841L505.9,841z"/>
			</g>
		</g>
		<g>
			<path id="_125609632" class="st2" d="M42.2,29.3c-0.2-0.1-0.4-0.2-0.6-0.4c-0.1-0.1-0.7-0.3-0.1-1.7c0.9-2.2,3-5.6,5.2-7.3
				L42.2,29.3L42.2,29.3z"/>
			<path id="_125594880" class="st3" d="M42.2,29.3c0.5,0.3,1.3,0.8,2.2-1.1c1.1-2.1,2.3-4.9,2.2-8.3L42.2,29.3z"/>
			<path id="_116914736" class="st2" d="M42.6,29.1c-0.2-0.2-0.2,0-0.3-0.2c-0.1-0.1-0.6-1,0.4-2.1c1.6-1.8,5-4.5,7.7-5.3L42.6,29.1
				L42.6,29.1z"/>
			<path id="_125479936" class="st3" d="M42.6,29.1c0.4,0.4,1,1.2,2.9-0.6c1.8-1.6,4.1-4.2,4.8-7.1L42.6,29.1z"/>
			<path id="_125284296" class="st2" d="M43,29.9c-0.2,0.1-0.1,0.2-0.3,0.2s-1.2,0.2-1.8-1.2c-1-2.2-2.2-6.3-2-9.1L43,29.9L43,29.9z
				"/>
			<path id="_125284336" class="st3" d="M43,29.9c0.5-0.2,1.5-0.5,0.6-2.9c-0.8-2.2-2.3-5.4-4.7-7.2L43,29.9L43,29.9z"/>
			<path id="_129736672" class="st2" d="M42.5,29.1c-0.2,0.2-0.4,0.3-0.6,0.4c-0.2,0.1-0.5,0.5-1.6-0.5c-1.7-1.7-4.2-4.8-5-7.5
				L42.5,29.1L42.5,29.1z"/>
			<path id="_124035040" class="st3" d="M42.5,29.1c0.4-0.4,1.2-0.9-0.3-2.5c-1.6-1.8-3.8-3.9-6.9-5L42.5,29.1L42.5,29.1z"/>
			<path id="_100815240" class="st3" d="M41,27.9c-0.5-0.2-1.1-0.6-1.8-0.9c-1.3-0.6-4.8-1.7-7.4-1.9l9.3,4.3
				C41,28.7,41,28.1,41,27.9L41,27.9z"/>
			<path id="_24584688" class="st2" d="M42.7,30.9V18.6c-1.5,2.4-1.9,6.8-1.8,9.2c0,0.8,0,1.2,0.2,1.6L31.8,25
				c1.2,2,4.4,3.9,4.7,4.1c1.2,1,2.2,1.2,2.7,1.2s2.6-0.1,2.8-0.1c0.3,0,0.5,0.2,0.5,0.4c0,0.2,0,0.3,0,0.3H42.7L42.7,30.9z"/>
			<path id="_95478192" class="st3" d="M43,30.9c0,0,0-0.2,0-0.3c0-0.2,0.2-0.4,0.5-0.4c0.2,0,2.3,0.1,2.8,0.1s1.5-0.2,2.7-1.2
				c0.2-0.2,3.4-2.2,4.7-4.1l-9.3,4.3c0.1-0.4,0.1-0.8,0.2-1.6c0.1-2.4-0.3-6.8-1.8-9.2v12.4H43L43,30.9z"/>
			<path id="_101019448" class="st2" d="M44.5,27.9c0.5-0.2,1.1-0.6,1.8-0.9c1.3-0.6,4.8-1.7,7.4-1.9l-9.3,4.3
				C44.5,28.7,44.4,28.1,44.5,27.9L44.5,27.9z"/>
		</g>
	</g>
</g>
</svg>
