<?xml version="1.0" encoding="utf-8"?>
<!-- Generator: Adobe Illustrator 24.3.0, SVG Export Plug-In . SVG Version: 6.00 Build 0)  -->
<svg version="1.1" id="Layer_1" xmlns="http://www.w3.org/2000/svg" xmlns:xlink="http://www.w3.org/1999/xlink" x="0px" y="0px"
	 viewBox="0 0 79.1 76.9" style="enable-background:new 0 0 79.1 76.9;" xml:space="preserve">
<style type="text/css">
	.st0{fill:#F6F6F6;}
	.st1{stroke:#FFCE00;stroke-width:2.591732e-03;}
	.st2{fill:#878787;stroke:#DADADA;stroke-width:2.591732e-03;}
	.st3{fill:#FFCE00;}
	.st4{fill:#03694B;}
	.st5{fill:#FFCE00;stroke:#FFCE00;stroke-width:2.591732e-03;}
	.st6{fill:#BBA215;stroke:#FFCE00;stroke-width:2.591732e-03;}
</style>
<g>
	<ellipse transform="matrix(0.2185 -0.9758 0.9758 0.2185 -6.6184 68.6628)" class="st3" cx="39.6" cy="38.5" rx="35" ry="35"/>
	<path class="st4" d="M71.3,38.5c0,17.7-14.2,32-31.7,32c-17.5,0-31.7-14.3-31.7-32c0-17.7,14.2-32,31.7-32
		C57.1,6.5,71.3,20.8,71.3,38.5z"/>
	<g>
		<g id="g3879_1_" transform="matrix(0.06171364,0,0,0.06171364,19.920107,9.6938707)">
			<g id="g3062_1_" transform="translate(-10.255616,-165.11542)">
				<g id="g3047_1_" transform="translate(-314,0)">
					<g id="g3041_1_">
						<path id="path3037_1_" class="st3" d="M509.3,788c244.1-156.1,366.2-288,445.3-402.9C927.4,521,779.1,666.7,532.8,820.3
							c-6.7,4.3-12.8,9.3-18.8,14.5c-1.6,1.4-8.3,3.6-10.3,4.2c-19.2,6.1-42.3,38.4-77.5,43.4c-1.7,21.4-21.1,33.3-35.5,33.3
							c-38.9,67.9-101.6-21.1-22.2-26.7c10.3-30.8,43.2-27.3,44.4-24.4c20.4-34.8,43.8-38.7,66.6-55.5L509.3,788z"/>
						<path id="rect3039_1_" class="st3" d="M487.2,757.8l65.5,89.6c4.9,6.7,3.4,16.1-3.3,20.9l0,0c-6.7,4.9-16.1,3.4-20.9-3.2
							L463,775.4c-4.9-6.7-3.4-16.1,3.2-20.9l0,0C472.9,749.6,482.3,751.1,487.2,757.8z"/>
						<path id="path3854_1_" class="st3" d="M775.6,788C531.5,631.9,409.4,500,330.3,385.2C357.6,521,505.8,666.7,752.1,820.3
							c6.7,4.3,12.8,9.3,18.8,14.5c1.6,1.4,8.3,3.6,10.3,4.2c19.2,6.1,42.3,38.4,77.5,43.4c1.7,21.4,21.1,33.3,35.5,33.3
							c38.9,67.9,101.6-21.1,22.2-26.7c-10.3-30.8-43.2-27.3-44.4-24.4c-20.4-34.8-43.8-38.7-66.6-55.5L775.6,788z"/>
						<path id="rect3856_1_" class="st3" d="M797.7,757.8l-65.5,89.6c-4.9,6.7-3.4,16.1,3.3,20.9l0,0c6.7,4.9,16.1,3.4,20.9-3.2
							l65.5-89.6c4.9-6.7,3.4-16.1-3.2-20.9l0,0C812,749.6,802.6,751.1,797.7,757.8z"/>
					</g>
				</g>
				<path id="path3060_1_" class="st3" d="M194.9,814.4c8.5,13.1-6.1,37.6-32.6,54.8c-26.5,17.2-54.8,20.5-63.3,7.5
					c-8.5-13.1,6.1-37.6,32.6-54.8C158.1,804.7,186.4,801.3,194.9,814.4L194.9,814.4z"/>
				<path id="path3858_1_" class="st3" d="M462,814.4c-8.5,13.1,6.1,37.6,32.6,54.8c26.5,17.2,54.8,20.5,63.3,7.5
					c8.5-13.1-6.1-37.6-32.6-54.8C498.8,804.7,470.5,801.3,462,814.4L462,814.4z"/>
			</g>
		</g>
		<g>
			<path id="_125609632_1_" class="st5" d="M39.5,27.6c-0.2-0.1-0.4-0.2-0.6-0.4c-0.1-0.1-0.7-0.3-0.1-1.7c0.9-2.2,3-5.6,5.2-7.3
				L39.5,27.6L39.5,27.6z"/>
			<path id="_125594880_1_" class="st6" d="M39.5,27.6c0.5,0.3,1.3,0.8,2.2-1.1c1.1-2.1,2.3-4.9,2.2-8.3L39.5,27.6z"/>
			<path id="_116914736_1_" class="st5" d="M39.9,27.4c-0.2-0.2-0.2,0-0.3-0.2c-0.1-0.1-0.6-1,0.4-2.1c1.6-1.8,5-4.5,7.7-5.3
				L39.9,27.4L39.9,27.4z"/>
			<path id="_125479936_1_" class="st6" d="M39.9,27.4c0.4,0.4,1,1.2,2.9-0.6c1.8-1.6,4.1-4.2,4.8-7.1L39.9,27.4z"/>
			<path id="_125284296_1_" class="st5" d="M40.3,28.3c-0.2,0.1-0.1,0.2-0.3,0.2c-0.2,0-1.2,0.2-1.8-1.2c-1-2.2-2.2-6.3-2-9.1
				L40.3,28.3L40.3,28.3z"/>
			<path id="_125284336_1_" class="st6" d="M40.3,28.3c0.5-0.2,1.5-0.5,0.6-2.9c-0.8-2.2-2.3-5.4-4.7-7.2L40.3,28.3L40.3,28.3z"/>
			<path id="_129736672_1_" class="st5" d="M39.8,27.5c-0.2,0.2-0.4,0.3-0.6,0.4c-0.2,0.1-0.5,0.5-1.6-0.5c-1.7-1.7-4.2-4.8-5-7.5
				L39.8,27.5L39.8,27.5z"/>
			<path id="_124035040_1_" class="st6" d="M39.8,27.5c0.4-0.4,1.2-0.9-0.3-2.5c-1.6-1.8-3.8-3.9-6.9-5L39.8,27.5L39.8,27.5z"/>
			<path id="_100815240_1_" class="st6" d="M38.3,26.2c-0.5-0.2-1.1-0.6-1.8-0.9c-1.3-0.6-4.8-1.7-7.4-1.9l9.3,4.3
				C38.2,27.1,38.3,26.5,38.3,26.2L38.3,26.2z"/>
			<path id="_24584688_1_" class="st5" d="M40,29.3V16.9c-1.5,2.4-1.9,6.8-1.8,9.2c0,0.8,0,1.2,0.2,1.6l-9.3-4.3
				c1.2,2,4.4,3.9,4.7,4.1c1.2,1,2.2,1.2,2.7,1.2c0.5,0,2.6-0.1,2.8-0.1c0.3,0,0.5,0.2,0.5,0.4c0,0.2,0,0.3,0,0.3L40,29.3L40,29.3z"
				/>
			<path id="_95478192_1_" class="st6" d="M40.3,29.3c0,0,0-0.2,0-0.3c0-0.2,0.2-0.4,0.5-0.4c0.2,0,2.3,0.1,2.8,0.1
				c0.5,0,1.5-0.2,2.7-1.2c0.2-0.2,3.4-2.2,4.7-4.1l-9.3,4.3c0.1-0.4,0.1-0.8,0.2-1.6c0.1-2.4-0.3-6.8-1.8-9.2v12.4L40.3,29.3
				L40.3,29.3z"/>
			<path id="_101019448_1_" class="st5" d="M41.8,26.2c0.5-0.2,1.1-0.6,1.8-0.9c1.3-0.6,4.8-1.7,7.4-1.9l-9.3,4.3
				C41.8,27.1,41.7,26.5,41.8,26.2L41.8,26.2z"/>
		</g>
	</g>
</g>
</svg>
