<?xml version="1.0" encoding="utf-8"?>
<!-- Generator: Adobe Illustrator 24.3.0, SVG Export Plug-In . SVG Version: 6.00 Build 0)  -->
<svg version="1.1" id="Layer_1" xmlns="http://www.w3.org/2000/svg" xmlns:xlink="http://www.w3.org/1999/xlink" x="0px" y="0px"
	 viewBox="0 0 702.3 679.6" style="enable-background:new 0 0 702.3 679.6;" xml:space="preserve">
<style type="text/css">
	.st0{fill:#FFFFFF;}
	.st1{fill:none;stroke:#2F3075;stroke-miterlimit:10;}
	.st2{fill:#2F3075;}
	.st3{fill:#FCE500;}
	.st4{fill:#D92629;}
	.st5{fill:#059E4D;}
</style>
<g>
	<path class="st2" d="M404.6,160.1c0,0,0,350.1,0,354.4c-4.1,0-101.5,0-105.6,0c0-4.3,0-354.4,0-354.4h-4.4v358.7H409V160.1H404.6z"
		/>
	<path class="st2" d="M45.8,259.9c-6.8,25.9-10.2,52.8-10.2,80c0,174,141.6,315.6,315.6,315.6V651C179.5,651,39.9,511.4,39.9,339.8
		c0-26.8,3.4-53.3,10.1-78.9C85.6,124.1,209.5,28.5,351.2,28.5c142.6,0,266.6,96.4,301.7,234.3c6.4,25,9.6,50.9,9.6,77
		c0,171.6-139.6,311.2-311.2,311.2v4.4c174,0,315.6-141.6,315.6-315.6c0-26.5-3.3-52.7-9.7-78.1C621.5,121.9,495.7,24.2,351.2,24.2
		C207.5,24.2,81.9,121.1,45.8,259.9z"/>
	<path class="st2" d="M351.2,653.2c173.1,0,313.4-140.2,313.4-313.4c0-26.8-3.4-53.9-9.6-78.7h-1.3h-69.5
		c41.2,106.4-18.6,190.2-24.5,201.6c-60.2,115.9-188.8,119-188.8,119c2.2-23.3,48.3-35.9,51.9-45.4c0-4.4,0-21.7,0-21.7H279.4V537
		c2.1,10.3,47.5,26.5,49.8,44.8C159.8,556.8,76,415.7,118.8,261.2H48.2h-0.3c-6.6,25.3-10.2,51.2-10.2,78.7
		C37.7,513,178,653.2,351.2,653.2"/>
	<path class="st3" d="M351.4,382.1c25.9,0,47-21,47-47c0-26-21-47-47-47c-25.9,0-46.9,21-46.9,47C304.5,361,325.5,382.1,351.4,382.1
		z"/>
	<path class="st4" d="M351.4,268.1c25.9,0,47-21,47-46.9c0-25.9-21-46.9-47-46.9c-25.9,0-46.9,21-46.9,46.9
		C304.5,247.1,325.5,268.1,351.4,268.1z"/>
	<path class="st5" d="M351.4,495.3c25.9,0,47-21,47-47c0-25.9-21-46.9-47-46.9c-25.9,0-46.9,21-46.9,46.9
		C304.5,474.3,325.5,495.3,351.4,495.3z"/>
	<path class="st2" d="M285.1,160.3v2.2h132.7v-2.2c0-28-29.8-50.7-66.4-50.7C314.8,109.7,285.1,132.4,285.1,160.3 M351.4,114
		c33.2,0,59.8,19.7,61.4,44.2c-5.2,0-117.6,0-122.8,0C291.7,133.7,318.3,114,351.4,114z"/>
	<polygon class="st2" points="570,170.7 564.7,174.8 571.7,184.2 564.6,189.6 557.5,180.1 551.9,184.3 559.3,194.3 552.2,199.7 
		538.4,181.2 570.9,156.9 584.7,175.4 577.5,180.7 	"/>
	<polygon class="st2" points="549.2,145.7 544.2,150.3 552.2,158.8 545.6,164.9 537.7,156.4 526,167.3 518.9,159.6 548.5,131.8 
		564.4,148.9 557.9,155 	"/>
	<polygon class="st2" points="512.6,153.9 504.7,146.9 531.6,116.4 539.5,123.4 	"/>
	<polygon class="st2" points="495.7,128.7 506,136.1 500.7,143.3 481.9,129.8 505.5,96.8 514.1,102.9 	"/>
	<path class="st2" d="M470.3,88.7c-1.4-2.7-3-4.3-5.2-5.4c-2.3-1-4.7-0.4-5.5,1.3c-0.5,1.2-0.1,2.5,1.2,4c0.4,0.4,0.7,0.7,3.6,3.2
		c5.6,4.8,6.9,9,4.5,14.4c-3.7,8.3-11.3,10.9-20.4,6.8c-4.5-2-8.4-5.5-11-10l7.6-5.9c1.8,3.9,4,6.3,6.8,7.6c2.8,1.3,5.3,0.6,6.3-1.5
		c0.9-2,0-3.5-3.9-6.9c-3.7-3.1-5-4.5-5.8-6.3c-1.1-2.4-1-5.3,0.4-8.5c3.4-7.5,10.7-10.2,18.2-6.9c3.9,1.7,7.6,4.7,10.4,8.2
		L470.3,88.7z"/>
	<polygon class="st2" points="430.1,104.7 420,101.6 432.4,62.8 442.4,66 	"/>
	<polygon class="st2" points="391.9,63.1 390.9,69.7 402.7,71.5 401.4,80.4 389.7,78.6 388.7,85.6 401.1,87.3 399.8,96.2 377,93 
		382.7,52.7 405.6,56 404.3,64.8 	"/>
	<polygon class="st2" points="327.5,52.5 338,52.1 358.3,76.2 357.5,51.4 367.9,51.1 369.4,91.6 358.9,92 338.6,67.9 339.5,92.7 
		328.9,93.1 	"/>
	<polygon class="st2" points="321.3,94.6 310.9,96.1 304.9,55.9 315.3,54.3 	"/>
	<polygon class="st2" points="291.1,91 303.4,88.1 305.5,96.8 282.9,102.2 273.4,62.7 283.7,60.2 	"/>
	<path class="st2" d="M259,110.4l-9.9,3.7l-14.3-38l15.6-5.9c4.5-1.6,7.4-1.8,10.7-0.4c3.3,1.4,5.8,4,7.3,7.9
		c3.2,8.4,0.4,14.6-8.1,17.7l-6.2,2.3L259,110.4 M254.4,88.6c3.8-1.4,4.9-3.6,3.6-6.9c-1.1-3.1-3.6-3.9-7.1-2.6l-3.3,1.3l3.6,9.5
		L254.4,88.6z"/>
	<polygon class="st2" points="241.8,117.9 232.4,122.7 213.9,86.5 223.3,81.7 	"/>
	<path class="st2" d="M211.9,103.1c-3.7-1.1-7.1-0.7-10.1,1.4c-5.3,3.4-6.5,9.9-2.9,15.3c3.5,5.2,9.9,6.5,15.1,3.1
		c2.9-2,4.6-4.7,5.3-8.6l6.9,10.4c-3.2,4.2-4.4,5.3-6.7,6.9c-10.2,6.8-23.2,4.3-29.9-5.6c-6.6-9.9-3.9-23.1,6.1-29.7
		c2.6-1.8,5.1-2.7,9.1-3.6L211.9,103.1z"/>
	<path class="st2" d="M173.8,126.2c-3,0.2-5.2,0.9-7,2.6c-1.9,1.6-2.3,4.1-1,5.6c0.8,1,2.2,1.1,4.2,0.5c0.6-0.2,1-0.4,4.4-2
		c6.6-3.1,11.1-2.6,15,1.8c6.1,6.8,5.3,14.7-2.2,21.3c-3.7,3.3-8.4,5.4-13.6,6l-2.2-9.4c4.2-0.1,7.4-1,9.7-3.1
		c2.4-2.1,2.7-4.6,1.2-6.3c-1.5-1.6-3.2-1.5-7.9,0.7c-4.3,2.1-6.2,2.6-8.2,2.7c-2.7,0-5.2-1.2-7.5-3.9c-5.4-6.1-5-13.9,1.2-19.5
		c3.2-2.8,7.3-5,11.8-6.1L173.8,126.2z"/>
	
		<rect x="148.4" y="139.1" transform="matrix(0.6691 -0.7431 0.7431 0.6691 -67.5779 166.8869)" class="st2" width="10.5" height="40.6"/>
	<path class="st2" d="M106.9,187.5l8.9-12.9c6.1-8.8,19.1-11.1,28.1-5c9,6.2,11.5,19.1,5.4,28l-8.9,12.8L106.9,187.5 M140.4,194.8
		c4-5.8,2.8-12.1-2.8-16.1c-5.6-3.8-12-2.6-15.9,3.1l-1.4,2l18.7,12.9L140.4,194.8z"/>
	<polygon class="st0" points="632.3,304.4 617.6,305.6 617.2,300.3 654.8,297.2 655.2,302.6 637.7,304 638.9,319 656.4,317.6 
		656.8,322.9 619.3,325.9 618.8,320.6 633.6,319.5 	"/>
	<path class="st0" d="M627.4,337.2c-2.9,1.5-3.8,2.7-3.9,5.2c-0.1,2.8,1.9,5.1,4.6,5.3c1.2,0,2.3-0.5,3.2-1.6c0.9-1.1,0.7-0.7,3-5.6
		c2.7-5.5,6.2-8,11.2-7.9c7.1,0.2,12.1,5.1,12,11.4c-0.2,6.3-4.4,10.3-11.5,11l-1.1-5.3c2.2-0.2,3.2-0.4,4.1-0.9
		c1.8-0.8,3-2.8,3.1-5c0.1-3.3-2.5-5.8-6.1-5.9c-2.1,0-3.8,0.7-5.1,2.3c-0.5,0.8-1.1,1.6-1.5,2.5l-0.5,1.2l-0.6,1.1l-0.5,1.1
		c-2.3,4.8-5.5,7-9.7,6.9c-5.8-0.2-9.9-4.8-9.7-10.8c0.1-4.2,2.1-7,6.6-9.3L627.4,337.2z"/>
	<polygon class="st0" points="621.9,373 630.9,374.2 632.6,360.6 637.9,361.3 636.2,374.8 648.6,376.4 650.4,362.4 655.7,363.1 
		653.3,382.3 615.9,377.7 618.3,358.4 623.6,359.1 	"/>
	<path class="st0" d="M608.9,409.6l1.7-7.1c1.4-5.9,3.2-9.1,6.6-11.8c4.4-3.5,10.2-4.6,16.4-3.1c6.2,1.5,10.7,5.1,13.1,10.4
		c1.9,4,2.1,7.2,0.6,13.3l-1.7,7L608.9,409.6 M642.2,409.6c0.9-4.2,0.8-6.9-0.5-9.8c-1.7-3.5-5-6.1-9.4-7.1c-4.3-1-8.6-0.2-11.6,2.2
		c-2.4,1.8-3.8,4.3-4.7,8.5l-0.6,2.3l26.3,6.3L642.2,409.6z"/>
	<path class="st0" d="M626.4,445.6l7.2,6.9l-2,5.3l-31.5-30.3l43.4-1.7l-2,5.4l-9.9,0.3L626.4,445.6 M612.1,432.1l10.1,9.5l3.7-9.9
		L612.1,432.1z"/>
	<polygon class="st0" points="619.7,469.5 624.3,460.3 629.1,462.7 622.2,476.6 588.4,459.8 590.8,455.1 	"/>
	<path class="st0" d="M601.4,474.7l1.4,0.9c4.2,2.7,6.6,5.3,8,8.8c2.1,4.9,1.7,10.6-1.2,15c-5.3,8.3-17,10.3-26,4.5
		c-9.3-5.9-12.2-17.4-6.6-26.2c3-4.7,7.2-7.1,14.1-7.8l1.3,5.3c-5.3,0.2-8.6,1.9-11,5.6c-3.9,6.2-1.7,14.3,5.1,18.7
		c6.5,4.2,15,2.8,18.8-3.1c2.8-4.4,1.8-10.8-2.5-14l-4.7,7.3l-4.6-2.9L601.4,474.7z"/>
	<polygon class="st0" points="542.2,519.9 580.6,519.3 560.8,502.2 564.3,498.2 594.6,524.3 556.1,524.9 576.1,542.2 572.6,546.2 	
		"/>
	<path class="st0" d="M542.8,561.4l3.2,9.4l-4.3,3.8L528,533.1l39.2,18.9l-4.4,3.8l-8.9-4.4L542.8,561.4 M536.4,542.7l4.5,13.2
		l8-7.1L536.4,542.7z"/>
	<path class="st0" d="M498.6,558.8l4.3-3.1c3.5-2.4,5.7-3.3,8-3.3c3.1,0,6.3,2,8.4,4.8c1.5,2.2,2.1,4.5,1.6,7.2
		c3.8-1,7.8,0.6,10.3,4.2c1.9,2.6,2.5,5.7,1.9,8.7c-0.7,3-2.1,4.8-6,7.6l-6.5,4.7L498.6,558.8 M513.7,568.1c3.1-2.3,3.6-5,1.5-7.9
		c-2.1-2.9-4.8-3.3-7.7-1.3l-1.5,1.1l6.3,8.9L513.7,568.1 M524.4,580.3c3.7-2.6,4.6-5.7,2.6-8.6c-2.3-3.2-5.4-3.3-9.6-0.4l-2.2,1.6
		l6.6,9.3L524.4,580.3z"/>
	<polygon class="st0" points="474.4,578.9 478.6,587 489.1,581.6 491.5,586.4 481.1,591.7 489.3,607.7 484.6,610.1 467.3,576.6 
		482.9,568.6 485.3,573.4 	"/>
	<path class="st0" d="M469.2,597c3.8,10.1-0.8,21.2-10.3,24.8c-9.7,3.7-20.2-1.6-24-11.8c-3.8-10.2,0.8-21.4,10.4-25
		C454.6,581.5,465.4,586.9,469.2,597 M439.8,608.1c2.8,7.4,10.4,11.2,17.2,8.7c6.7-2.6,10-10.5,7.2-17.8
		c-2.8-7.7-10.3-11.4-17.1-8.9C440.1,592.6,437,600.5,439.8,608.1z"/>
	<polygon class="st0" points="380,599.2 409.9,623.3 405.6,597.4 410.8,596.5 417.5,636.1 387.5,612 391.8,638 386.6,638.8 	"/>
	<path class="st0" d="M375.7,621.2c0.2,10.8-7.8,19.7-17.9,20c-10.3,0.2-18.6-8.2-18.8-19.1c-0.2-10.9,7.8-19.9,18-20.1
		C367.1,601.7,375.6,610.4,375.7,621.2 M344.4,621.8c0.2,7.9,6.1,14.1,13.3,13.9c7.2-0.2,12.9-6.6,12.8-14.4
		c-0.2-8.1-5.9-14.2-13.3-14.1C349.8,607.5,344.2,613.8,344.4,621.8z"/>
	<polygon class="st0" points="329.7,639.7 324.4,639.3 327.3,601.7 332.6,602.1 	"/>
	<polygon class="st0" points="309.9,637.7 304.6,636.9 309.3,604.9 301.3,603.7 302,598.4 323.2,601.5 322.5,606.8 314.5,605.7 	"/>
	<path class="st0" d="M273.7,621.1l-6,8l-5.5-1.3l26.4-34.9l6.7,43l-5.6-1.4l-1.4-9.8L273.7,621.1 M285.4,605.2l-8.3,11.1l10.3,2.5
		L285.4,605.2z"/>
	<polygon class="st0" points="256.6,625.5 251.5,623.8 263.6,588 268.6,589.7 	"/>
	<path class="st0" d="M254.5,594.4c-1.9-4.1-3.9-6.2-7.1-7.6c-6.6-2.9-14.3,0.8-17.4,8.1c-3.2,7.4-0.5,15.2,6.3,18.2
		c3,1.3,6,1.2,10.3-0.3l-2.7,6.3c-3.6,0.5-6.8,0.2-9.8-1.1c-9.4-4.1-13.4-15.1-8.9-25.3c4.2-9.7,15.4-14.6,24.5-10.7
		c3.4,1.5,5.4,3.1,7.5,6.3L254.5,594.4z"/>
	<path class="st0" d="M219.5,590.2c-5.5,9.2-17.1,12.6-25.7,7.4c-8.8-5.3-11.4-16.8-5.8-26.1c5.6-9.4,17.2-12.7,25.9-7.4
		C222.5,569.1,225.1,580.9,219.5,590.2 M192.6,574c-4.1,6.8-2.3,15.2,4,18.9c6.2,3.7,14.4,1.3,18.3-5.4c4.2-7,2.6-15.2-3.7-19
		C204.8,564.7,196.8,567.1,192.6,574z"/>
	<path class="st0" d="M186.1,556.2c0.5-3.3,0.1-4.7-1.8-6.2c-2.2-1.8-5.3-1.5-6.9,0.6c-0.7,0.9-1,2.1-0.6,3.4
		c0.3,1.4,0.1,0.9,2.7,5.7c2.9,5.5,2.8,9.7-0.3,13.7c-4.3,5.5-11.2,6.7-16.2,2.7c-4.9-3.8-5.6-9.6-2.1-15.7l5,2.3
		c-1.2,1.9-1.6,2.7-1.8,3.8c-0.4,2,0.4,4.1,2.1,5.4c2.6,2.1,6.1,1.4,8.3-1.3c1.4-1.7,1.7-3.5,1.2-5.5c-0.3-0.9-0.6-1.9-1.1-2.7
		l-0.6-1.1l-0.5-1l-0.6-1.1c-2.5-4.7-2.4-8.6,0.2-11.9c3.6-4.6,9.7-5.2,14.5-1.4c3.3,2.6,4.4,5.9,3.5,10.8L186.1,556.2z"/>
	<path class="st0" d="M165.4,539.1c0.8-3.2,0.5-4.7-1.3-6.3c-2.1-2-5-2-6.9-0.1c-0.9,0.9-1.3,2-1,3.4c0.2,1.4,0,0.9,2.1,6
		c2.4,5.7,1.8,9.9-1.6,13.6c-4.9,5.1-11.9,5.6-16.5,1.2c-4.5-4.3-4.7-10.1-0.5-15.9l4.8,2.8c-1.4,1.8-1.9,2.5-2.1,3.6
		c-0.6,2,0,4.1,1.6,5.6c2.4,2.3,6,2.1,8.5-0.5c1.5-1.6,2.1-3.3,1.7-5.3c-0.2-1-0.5-1.9-0.8-2.8l-0.5-1.2l-0.4-1.1l-0.4-1.2
		c-2-4.9-1.5-8.8,1.4-11.8c4-4.2,10.2-4.2,14.6,0c3,2.8,3.8,6.3,2.5,11.1L165.4,539.1z"/>
	<path class="st0" d="M119.8,519.8l-9.6,2.9l-3.7-4.3l41.9-12.5l-20,38.6l-3.7-4.4l4.6-8.7L119.8,519.8 M138.6,514l-13.3,4.1
		l6.8,8.1L138.6,514z"/>
	<path class="st0" d="M119.9,486.9c0.9-4.4,0.5-7.4-1.2-10.3c-3.6-6.2-11.9-7.9-18.9-3.8c-6.9,4.1-9.3,12-5.6,18.4
		c1.7,2.8,4.1,4.5,8.4,5.8l-5.9,3.5c-3.2-1.6-5.6-3.8-7.2-6.6c-5.2-8.9-1.8-20.1,7.8-25.8c9.1-5.3,21-2.6,26.1,5.9
		c1.8,3.2,2.5,5.6,2.4,9.5L119.9,486.9z"/>
	<polygon class="st0" points="77.2,469.6 74.9,464.8 108.9,448.5 111.2,453.3 	"/>
	<polygon class="st0" points="69,451.5 67,446.6 97,434.5 94,427 99,425 107,444.9 102,446.8 99.1,439.4 	"/>
	<polygon class="st0" points="89,410.9 80.4,413.6 84.3,426.6 79.2,428.2 75.2,415.1 63.2,418.7 67.3,432.1 62.2,433.7 56.5,415.2 
		92.6,404.3 98.2,422.8 93.1,424.4 	"/>
	<path class="st0" d="M87.1,378.3l1,5.2c0.8,4.1,0.7,6.6-0.3,8.6c-1.3,2.7-4.4,5-7.8,5.6c-2.6,0.5-4.9,0.1-7.2-1.5
		c-0.7,3.8-3.8,6.8-8.1,7.7c-3.2,0.6-6.2,0-8.6-1.9c-2.5-1.9-3.6-4-4.5-8.5l-1.6-7.9L87.1,378.3 M72.6,388.3c0.7,3.7,3,5.3,6.5,4.5
		c3.4-0.7,4.9-3,4.3-6.5l-0.4-1.8l-10.8,2.1L72.6,388.3 M57,393.1c0.9,4.4,3.3,6.5,6.8,5.8c3.9-0.7,5.2-3.6,4.3-8.6l-0.5-2.6
		l-11.2,2.3L57,393.1z"/>
	<path class="st0" d="M55.7,353.2l-9.5-3.1l-0.5-5.7l41.5,13.9l-38.5,20l-0.5-5.8l8.8-4.4L55.7,353.2 M74.4,359.3l-13.2-4.4
		l0.9,10.6L74.4,359.3z"/>
	<rect x="46" y="332.5" class="st0" width="37.8" height="5.3"/>
	<path class="st0" d="M85.8,299.5l-0.6,7.3c-0.5,6-1.8,9.4-4.8,12.6c-3.8,4.1-9.4,6-15.8,5.5c-6.3-0.5-11.3-3.4-14.5-8.3
		c-2.5-3.8-3.1-6.8-2.6-13.1l0.6-7.2L85.8,299.5 M52.9,304.5c-0.3,4.3,0.2,6.9,1.9,9.5c2.2,3.3,6,5.3,10.4,5.7
		c4.3,0.4,8.5-1,11.1-3.9c2.1-2.1,3.1-4.8,3.4-9l0.2-2.4l-26.9-2.3L52.9,304.5z"/>
</g>
<circle class="st1" cx="351.2" cy="339.8" r="315.6"/>
</svg>
