<?xml version="1.0" encoding="utf-8"?>
<!-- Generator: Adobe Illustrator 24.3.0, SVG Export Plug-In . SVG Version: 6.00 Build 0)  -->
<svg version="1.1" id="Layer_1" xmlns="http://www.w3.org/2000/svg" xmlns:xlink="http://www.w3.org/1999/xlink" x="0px" y="0px"
	 viewBox="0 0 68.2 82.1" style="enable-background:new 0 0 68.2 82.1;" xml:space="preserve">
<style type="text/css">
	.st0{fill:#252525;}
	.st1{fill:#575756;}
	.st2{fill:#FFFFFF;}
</style>
<g id="g734" transform="matrix(0.23085948,0,0,0.23085948,-45.733822,7.5465628)">
	<g id="g612">
		<g id="path582">
			<path class="st0" d="M345.9,44.9l-6,10.3l-3.8,106.6c-0.5,13.5-5.4,26.5-19.3,21.3c-17-6.3-30.5-23.2-27.6-51.5
				c3.4,0.7,5.9,2.1,8,3.5c0.2-8.3-1.2-16.8-4.7-25.4c-7.3,3.9-14.1,10.5-18.3,19.9c2.4-0.5,4.8-0.5,7.1,0.2
				c-7.7,22.4,0.9,44.1,10.7,54.1c8.3,8.5,15.1,10.5,22.5,12.7c13.7,4,23.5,9.7,31.3,16.3c7.8-6.7,17.6-12.4,31.3-16.3
				c7.4-2.2,14.2-4.1,22.5-12.7c9.8-10,18.4-31.7,10.7-54.1c2.3-0.8,4.7-0.7,7.1-0.2c-4.2-9.4-11-16-18.3-19.9
				c-3.5,8.6-4.9,17.1-4.7,25.4c2.1-1.5,4.6-2.8,8-3.5c2.9,28.3-10.5,45.2-27.6,51.5c-13.8,5.1-18.8-7.8-19.3-21.3l-3.8-106.6
				L345.9,44.9z"/>
			<path class="st1" d="M345.9,213.9l-0.5-0.4c-8.5-7.3-18.6-12.6-31-16.2c-7.4-2.2-14.4-4.2-22.8-12.9
				c-10.5-10.7-18.3-32.2-11.2-54.1c-1.8-0.4-3.7-0.5-6,0l-1.4,0.3l0.6-1.3c5-11.2,12.9-17.2,18.6-20.3l0.7-0.4l0.3,0.8
				c3.4,8.3,4.9,16.7,4.7,25.7v1.4l-1.1-0.8c-2.2-1.6-4.4-2.6-6.9-3.2c-2.2,24.1,7.9,42.7,27.2,49.9c2,0.7,3.8,1.1,5.5,1.1
				c10.8,0,12.6-15.2,12.8-21.8l3.8-106.8l6.7-11.5l6.7,11.5v0.2l3.8,106.6c0.2,6.5,2,21.8,12.8,21.8c1.7,0,3.5-0.4,5.5-1.1
				c19.3-7.1,29.4-25.7,27.2-49.9c-2.4,0.6-4.6,1.7-6.9,3.2l-1.1,0.8v-1.4c-0.2-9,1.4-17.4,4.7-25.7l0.3-0.8l0.7,0.4
				c5.7,3.1,13.6,9,18.6,20.3l0.6,1.3l-1.4-0.3c-2.4-0.4-4.3-0.4-6,0c7.2,22-0.7,43.4-11.1,54.1c-8.4,8.7-15.4,10.7-22.8,12.9
				c-12.4,3.6-22.5,8.9-31,16.2L345.9,213.9z M277.6,128.5c1.4,0,2.7,0.2,4,0.6l0.7,0.2l-0.2,0.7c-7.1,20.7,0,42.5,10.6,53.4
				c8.2,8.4,14.7,10.3,22.2,12.5c12.4,3.6,22.5,8.8,31.1,16.1c8.6-7.2,18.7-12.5,31.1-16.1c7.5-2.2,14-4.1,22.2-12.5
				c10.6-10.9,17.6-32.7,10.6-53.4l-0.2-0.7l0.7-0.2c1.8-0.6,3.8-0.8,6.1-0.5c-4.6-9.6-11.4-15-16.7-17.9c-2.9,7.4-4.4,15-4.3,23
				c2.3-1.4,4.5-2.4,7.1-2.9l0.8-0.2l0.1,0.8c2.6,25.3-7.9,44.8-28,52.3c-2.1,0.8-4.1,1.2-6,1.2c-8.5,0-13.7-8.5-14.3-23.2
				l-3.8-106.4l-5.2-9l-5.2,9l-3.8,106.4c-0.5,14.7-5.7,23.2-14.3,23.2c-1.8,0-3.9-0.4-6-1.2c-20.2-7.5-30.7-27-28-52.3l0.1-0.8
				l0.8,0.2c2.5,0.5,4.8,1.5,7.1,2.9c0-8-1.4-15.6-4.3-23c-5.2,2.9-12,8.3-16.7,17.9C276.2,128.6,276.9,128.5,277.6,128.5z"/>
		</g>
		<g id="g588">
			<g id="path584">
				<path class="st0" d="M321.8,33l-7.5,5.9l-2.5,5.9l-1.7,7.5l0.3,8.1l1.9,7.6l3.4,5.8l5,5.8l5.7,5.2l7.7,5.4l6.4,5.2l6.7,4.5
					l7.5,6.9l4.1,4.6l3.5,5.3l2.1,3.8l1.2,4.3l-0.1,4.1l-0.4,4.1l-2.3,6.1l-2.9,4.3l-4.1,4.4l-3.6,2.9l-2.4,2.5l-16.7,12.4
					l-21.5,17.2l2.4,2.7l0.2,5l3.8-2.1l4.9-3.7l4.3-3.2l3.3-3.2l4.5-3.3l7.3-5.6l4.3-2.9l3.7-3.7l3.5-1.9l4.9-4.2l2.9-2.4l4.4-4.9
					l2.7-4.2l2.6-4.2l2.1-6.2l0.8-6l-0.8-5.5l-1.7-6.1l-2.5-4.8l-2.6-4.2l-7.2-8l-4.5-4.1l-8-6.3l-3.9-2.9l-9.1-6.8l-3.3-2.6
					l-6.3-5.9l-2.8-3.9l-2.4-4.6l0.3-1.9l-1.4-4.6l0.3-3.8l0.9-3.8l1.9-4.6L321.8,33z"/>
			</g>
			<g id="path586">
				<path class="st0" d="M320.4,45.8c0.6-0.2,1.3-0.6,1.6-1.1c0.3-0.5,0.5-1.1,0.4-1.7c-0.1-0.5-0.3-1.1-0.6-1.6
					c-0.3-0.5-0.8-0.9-1.3-1.2c-0.8-0.5-1.7-0.6-2.6-0.8c-0.4-0.1-0.9-0.2-1.3-0.4c-0.4-0.2-0.8-0.4-1.1-0.8c-0.3-0.4-0.5-1-0.6-1.5
					c0-0.6,0.1-1.2,0.4-1.8c0.4-0.7,0.9-1.3,1.5-1.7c0.6-0.4,1.4-0.7,2.1-0.7 M318.9,49.7c0.6-0.3,1.1-0.9,1.4-1.4
					c0.2-0.5,0.3-1.1,0.1-1.7c-0.2-0.5-0.5-1-0.9-1.4c-0.4-0.4-0.9-0.8-1.5-1c-0.9-0.3-1.7-0.3-2.7-0.3c-0.4,0-0.9,0-1.3-0.1
					s-0.9-0.3-1.2-0.6c-0.4-0.3-0.7-0.8-0.8-1.4c-0.1-0.6-0.1-1.2,0.1-1.8c0.2-0.7,0.6-1.4,1.2-2c0.6-0.5,1.2-0.9,1.9-1 M318.2,53.7
					c0.5-0.3,0.9-0.9,1.1-1.4l0,0v-0.1c0.1-0.5,0.1-1.2-0.2-1.7c-0.3-0.5-0.7-0.9-1.1-1.2c-0.5-0.3-1.1-0.6-1.7-0.7
					c-0.9-0.1-1.8,0-2.7,0.2c-0.4,0.1-0.9,0.1-1.4,0.1s-0.9-0.1-1.3-0.3c-0.5-0.3-0.8-0.7-1.1-1.3c-0.2-0.5-0.3-1.2-0.2-1.8
					c0.1-0.8,0.4-1.5,0.8-2.2c0.5-0.6,1.1-1.1,1.7-1.4 M318.4,57.9c0.5-0.5,0.7-1.2,0.8-1.8c0-0.6-0.1-1.1-0.5-1.6
					c-0.3-0.4-0.8-0.8-1.4-1c-0.5-0.2-1.2-0.4-1.8-0.3c-0.9,0-1.7,0.4-2.6,0.7c-0.4,0.2-0.9,0.3-1.3,0.4c-0.4,0.1-0.9,0.1-1.3-0.1
					c-0.5-0.2-1-0.5-1.3-1s-0.5-1.1-0.6-1.7c0-0.2,0-0.4,0-0.6c0-0.6,0.2-1.2,0.4-1.7c0.3-0.7,0.8-1.3,1.4-1.7 M319.4,62
					c0.4-0.5,0.4-1.5,0.3-1.9c-0.1-0.6-0.4-1.1-0.9-1.5c-0.4-0.3-0.9-0.6-1.5-0.8c-0.6-0.1-1.2-0.2-1.8,0c-0.9,0.2-1.6,0.7-2.4,1.1
					c-0.4,0.2-0.8,0.4-1.2,0.6c-0.4,0.1-0.9,0.2-1.3,0.2c-0.5-0.1-1-0.4-1.4-0.8s-0.7-1-0.9-1.6c-0.2-0.8-0.2-1.6,0-2.3
					c0.2-0.8,0.6-1.4,1.1-1.9 M320.8,65.8c0.3-0.6,0.2-1.4,0-1.9s-0.6-1-1.1-1.3c-0.5-0.3-1-0.4-1.6-0.5c-0.6,0-1.2,0.1-1.8,0.3
					c-0.8,0.4-1.5,1-2.2,1.6c-0.3,0.3-0.7,0.6-1.1,0.8c-0.4,0.2-0.8,0.4-1.3,0.4s-1.1-0.2-1.6-0.5s-0.9-0.8-1.1-1.4
					c-0.3-0.7-0.5-1.5-0.4-2.3c0.1-0.8,0.3-1.5,0.7-2.1 M323.1,69.4c0.1-0.6,0-1.5-0.3-2c-0.2-0.4-0.6-0.8-1.1-1l0,0
					c-0.1,0-0.2-0.1-0.3-0.1c-0.5-0.2-1.1-0.2-1.7-0.2c-0.6,0.1-1.2,0.3-1.7,0.6c-0.8,0.5-1.3,1.2-1.9,1.9c-0.3,0.3-0.6,0.7-0.9,1
					c-0.3,0.3-0.7,0.5-1.2,0.6s-1.1,0-1.6-0.2c-0.5-0.3-1-0.7-1.4-1.2c-0.5-0.6-0.7-1.4-0.8-2.2c-0.1-0.8,0-1.5,0.4-2.2 M325.8,72.7
					c0-0.7-0.2-1.5-0.5-2c-0.4-0.5-0.9-0.8-1.6-1c-0.5-0.1-1.1-0.1-1.7,0.1s-1.1,0.5-1.5,0.9c-0.7,0.6-1.1,1.4-1.5,2.2
					c-0.2,0.4-0.5,0.8-0.8,1.1c-0.3,0.3-0.6,0.6-1.1,0.8c-0.5,0.2-1.1,0.2-1.6,0.1c-0.6-0.2-1.1-0.5-1.5-0.9c-0.6-0.5-1-1.2-1.2-1.9
					c0-0.2-0.1-0.3-0.1-0.5c-0.1-0.6-0.1-1.2,0.1-1.7 M329.3,75.9c0-0.7-0.4-1.6-0.8-2c-0.4-0.5-1.1-0.8-1.7-0.9s-1.2,0-1.7,0.3
					c-0.5,0.2-1,0.6-1.4,1.1c-0.6,0.7-0.9,1.6-1.2,2.4c-0.2,0.4-0.4,0.8-0.6,1.2c-0.3,0.4-0.6,0.7-1,0.9c-0.5,0.3-1,0.4-1.6,0.3
					c-0.6-0.1-1.1-0.3-1.6-0.6c-0.6-0.4-1.1-1-1.4-1.7c-0.3-0.7-0.4-1.4-0.4-2.1 M332.9,78.9c0-0.3-0.2-0.8-0.3-1.1
					c-0.2-0.3-0.4-0.7-0.6-0.9c-0.5-0.5-1.2-0.8-1.8-0.8c-0.6,0-1.2,0.1-1.7,0.4s-1,0.7-1.3,1.2c-0.5,0.8-0.7,1.6-1,2.5
					c-0.1,0.4-0.3,0.9-0.5,1.3s-0.5,0.8-0.9,1c-0.4,0.3-1,0.5-1.5,0.4c-0.6,0-1.1-0.2-1.6-0.5c-0.6-0.3-1.1-0.9-1.5-1.5
					c-0.4-0.6-0.6-1.3-0.6-2 M336.9,81.9c-0.1-0.7-0.5-1.6-1.1-2c-0.5-0.5-1.2-0.8-1.9-0.8c-0.6,0-1.2,0.1-1.7,0.4s-1,0.7-1.3,1.3
					c-0.5,0.8-0.6,1.7-0.9,2.5c-0.1,0.4-0.3,0.9-0.5,1.3c-0.2,0.4-0.5,0.8-0.8,1c-0.4,0.3-1,0.5-1.5,0.5c-0.4,0-0.7,0-1.1-0.1
					c-0.2,0-0.3-0.1-0.5-0.2c-0.6-0.3-1.2-0.7-1.6-1.3s-0.6-1.2-0.7-1.9 M340.8,84.9c-0.1-0.7-0.5-1.5-1-2s-1.3-0.8-2-0.8
					c-0.6,0-1.2,0.2-1.7,0.5s-0.9,0.8-1.3,1.3c-0.5,0.8-0.6,1.7-0.8,2.6c-0.1,0.4-0.2,0.9-0.4,1.3c-0.2,0.4-0.5,0.8-0.8,1.1
					c-0.4,0.3-0.9,0.5-1.5,0.6c-0.5,0-1.1-0.1-1.6-0.3c-0.6-0.3-1.1-0.7-1.5-1.2c-0.4-0.5-0.6-1.2-0.7-1.8 M344.9,87.8
					c-0.1-0.7-0.6-1.5-1.1-2s-1.3-0.8-2-0.8c-0.6,0-1.2,0.2-1.7,0.5s-0.9,0.8-1.2,1.3c-0.4,0.8-0.6,1.7-0.8,2.6
					c-0.1,0.4-0.2,0.9-0.4,1.3c-0.2,0.4-0.5,0.8-0.8,1.1c-0.4,0.3-0.9,0.5-1.5,0.6c-0.5,0-1.1-0.1-1.6-0.3c-0.6-0.3-1.1-0.7-1.5-1.2
					s-0.6-1.2-0.7-1.8 M348.9,90.8c-0.1-0.7-0.5-1.5-1.1-2c-0.5-0.5-1.3-0.8-2-0.8c-0.6,0-1.2,0.2-1.7,0.5s-0.9,0.8-1.2,1.3
					c-0.4,0.8-0.6,1.7-0.8,2.6c-0.1,0.4-0.2,0.9-0.4,1.3c-0.2,0.4-0.5,0.8-0.8,1.1c-0.4,0.3-0.9,0.5-1.5,0.6c-0.5,0-1.1,0-1.6-0.3
					c-0.6-0.3-1.1-0.7-1.5-1.2s-0.6-1.1-0.7-1.8 M352.9,94c-0.1-0.7-0.5-1.5-1.1-2.1c-0.5-0.5-1.3-0.8-2-0.8c-0.6,0-1.2,0.1-1.7,0.4
					s-1,0.8-1.3,1.3c-0.5,0.8-0.6,1.7-0.8,2.6c-0.1,0.4-0.3,0.9-0.5,1.3s-0.5,0.8-0.8,1c-0.4,0.3-0.9,0.5-1.5,0.6
					c-0.5,0-1.1-0.1-1.5-0.3c-0.6-0.3-1.1-0.7-1.5-1.2s-0.6-1.1-0.7-1.8 M356.8,97.3c-0.1-0.7-0.4-1.6-0.9-2.1
					c-0.5-0.5-1.3-0.9-2-0.9c-0.6,0-1.2,0.1-1.8,0.4c-0.5,0.3-1,0.7-1.3,1.2c-0.5,0.8-0.7,1.7-0.9,2.5c-0.1,0.4-0.3,0.9-0.5,1.2
					c-0.2,0.4-0.5,0.8-0.9,1c-0.4,0.3-0.9,0.5-1.5,0.5c-0.5,0-1-0.1-1.5-0.3c-0.6-0.3-1.1-0.7-1.4-1.2c-0.4-0.5-0.6-1.1-0.7-1.8
					 M360.7,100.9c0-0.7-0.3-1.7-0.9-2.3c-0.5-0.6-1.2-0.9-2-1c-0.2,0-0.4,0-0.6,0l0,0c-0.4,0-0.8,0.1-1.2,0.3
					c-0.5,0.3-1,0.7-1.3,1.2c-0.5,0.7-0.7,1.7-1,2.5c0,0,0,0,0,0.1l0,0c-0.1,0.4-0.3,0.8-0.5,1.2c-0.2,0.4-0.5,0.7-0.9,1
					c-0.2,0.2-0.5,0.3-0.8,0.4c-0.2,0.1-0.5,0.1-0.7,0.1c-0.5,0-1-0.1-1.5-0.3c-0.6-0.3-1-0.7-1.4-1.2c-0.3-0.5-0.6-1.2-0.6-1.8
					 M364.5,104.8c0-0.8-0.3-1.7-0.8-2.4c-0.5-0.6-1.2-1.1-1.9-1.2c-0.6-0.1-1.3-0.1-1.8,0.2c-0.6,0.2-1,0.6-1.4,1.1
					c-0.5,0.7-0.8,1.6-1.1,2.4c-0.2,0.4-0.4,0.8-0.6,1.2c-0.3,0.4-0.6,0.7-1,0.9c-0.5,0.3-1,0.4-1.5,0.4s-1-0.1-1.5-0.4
					c-0.5-0.3-1-0.7-1.3-1.3c-0.2-0.4-0.4-0.8-0.4-1.2c0-0.2-0.1-0.4-0.1-0.6 M367.8,109c0.1-0.8-0.1-1.7-0.5-2.4
					c-0.4-0.7-1.1-1.2-1.8-1.4c-0.6-0.2-1.3-0.2-1.8,0c-0.6,0.2-1.1,0.5-1.5,1c-0.6,0.7-0.9,1.6-1.3,2.3c-0.2,0.4-0.4,0.8-0.7,1.1
					c-0.3,0.3-0.6,0.6-1,0.8c-0.5,0.2-1,0.3-1.5,0.3s-1-0.2-1.4-0.5c-0.5-0.3-0.9-0.8-1.2-1.3c-0.3-0.5-0.4-1.2-0.4-1.8
					 M370.6,113.9c0.2-0.8,0.2-1.8-0.2-2.5c-0.2-0.4-0.5-0.8-0.8-1.1s-0.6-0.5-0.9-0.6c-0.6-0.3-1.3-0.3-1.9-0.2
					c-0.6,0.1-1.1,0.4-1.6,0.8c-0.6,0.6-1.1,1.4-1.6,2.2c-0.3,0.4-0.5,0.7-0.9,1c-0.3,0.3-0.7,0.6-1.1,0.7c-0.5,0.2-1,0.2-1.5,0.1
					s-0.9-0.3-1.3-0.6c-0.5-0.4-0.8-0.8-1-1.4c-0.2-0.5-0.3-1.2-0.2-1.8 M372.9,119.2c0.3-0.7,0.4-1.8,0.1-2.6
					c-0.3-0.8-0.8-1.5-1.5-2c-0.6-0.4-1.2-0.5-1.8-0.5c-0.6,0-1.2,0.3-1.7,0.6c-0.7,0.5-1.3,1.3-1.9,1.9c-0.3,0.3-0.6,0.6-1,0.9
					s-0.8,0.5-1.2,0.6c-0.5,0.1-1.1,0.1-1.5-0.1c-0.5-0.1-0.9-0.4-1.2-0.7c-0.4-0.4-0.6-0.8-0.7-1.3v-0.1c-0.1-0.6-0.1-1.2,0.1-1.8
					 M374.1,125c0.4-0.7,0.7-1.8,0.6-2.7c-0.1-0.9-0.5-1.7-1.1-2.2c-0.5-0.5-1.1-0.7-1.7-0.8c-0.6-0.1-1.2,0.1-1.8,0.3
					c-0.8,0.4-1.5,1.1-2.2,1.6c-0.4,0.3-0.7,0.5-1.1,0.7s-0.8,0.3-1.3,0.3s-1.1-0.1-1.5-0.3c-0.4-0.2-0.8-0.5-1.1-0.9
					c-0.3-0.4-0.5-0.9-0.6-1.5c0-0.5,0.1-1.1,0.3-1.7 M374.3,130.7c0.5-0.5,0.9-1.2,1-2l0,0c0-0.1,0-0.2,0-0.2
					c0.1-0.9-0.2-1.8-0.7-2.5c-0.4-0.6-0.9-1-1.5-1.1c-0.6-0.2-1.2-0.2-1.8,0c-0.8,0.2-1.6,0.8-2.4,1.2c-0.4,0.2-0.8,0.4-1.2,0.5
					c-0.4,0.1-0.9,0.1-1.3,0.1c-0.5-0.1-1-0.3-1.4-0.6c-0.4-0.3-0.7-0.6-0.9-1c-0.2-0.5-0.3-1-0.3-1.5c0.1-0.5,0.3-1.1,0.6-1.6
					 M373,136.6c0.7-0.4,1.4-1.3,1.6-2.1s0.2-1.8-0.1-2.5c-0.3-0.6-0.7-1.1-1.3-1.4c-0.5-0.3-1.1-0.4-1.7-0.4
					c-0.9,0-1.8,0.4-2.6,0.6c-0.4,0.1-0.9,0.2-1.3,0.2s-0.9,0-1.3-0.2c-0.5-0.2-0.9-0.5-1.2-0.8c-0.3-0.3-0.5-0.7-0.6-1.1
					c0-0.1-0.1-0.2-0.1-0.3c0-0.4,0-0.8,0.1-1.1c0.2-0.5,0.5-1,0.9-1.4 M371,142c0.7-0.3,1.5-1,1.9-1.8s0.5-1.7,0.3-2.5
					c-0.1-0.7-0.5-1.2-1-1.6c-0.5-0.4-1-0.6-1.6-0.7c-0.9-0.1-1.8,0.1-2.7,0.1c-0.5,0-0.9,0-1.3,0c-0.4-0.1-0.9-0.2-1.3-0.4
					c-0.4-0.3-0.8-0.7-1.1-1.1c-0.2-0.4-0.4-0.9-0.4-1.3c0-0.5,0.1-1,0.4-1.5c0.3-0.4,0.7-0.9,1.2-1.2 M367.9,146.8
					c0.7-0.2,1.7-0.8,2.2-1.4c0.5-0.7,0.8-1.5,0.7-2.3c0-0.5-0.2-0.9-0.4-1.3c-0.1-0.2-0.2-0.3-0.3-0.4c-0.4-0.5-0.9-0.8-1.5-1
					c-0.5-0.2-1.1-0.2-1.6-0.3l0,0c-0.4,0-0.7,0-1-0.1c-0.4,0-0.9-0.1-1.3-0.3c-0.4-0.1-0.8-0.4-1.2-0.7c-0.4-0.3-0.7-0.8-0.8-1.2
					l0,0c0,0,0,0,0-0.1c-0.2-0.5-0.2-0.9-0.2-1.4c0.1-0.5,0.3-1,0.6-1.4c0.4-0.4,0.8-0.7,1.4-1 M364.5,151.2
					c0.8-0.1,1.7-0.6,2.3-1.2c0.6-0.6,0.9-1.4,1-2.2c0-0.7-0.1-1.3-0.4-1.8c-0.3-0.5-0.8-0.9-1.3-1.2c-0.8-0.4-1.7-0.5-2.6-0.7
					c-0.4-0.1-0.9-0.2-1.3-0.4s-0.8-0.5-1.1-0.8c-0.3-0.4-0.6-0.9-0.6-1.4c-0.1-0.5,0-1,0.1-1.4c0.2-0.5,0.5-1,0.9-1.4
					c0.4-0.3,0.9-0.6,1.5-0.7c0,0,0,0,0.1,0 M360.7,155.1c0.7,0,1.7-0.4,2.3-1c0.3-0.2,0.5-0.5,0.7-0.8c0.2-0.4,0.4-0.7,0.5-1.1
					c0.1-0.6,0-1.3-0.2-1.8c-0.3-0.6-0.7-1-1.2-1.4c-0.7-0.5-1.7-0.7-2.5-1.1c-0.4-0.2-0.8-0.3-1.2-0.6c-0.4-0.2-0.7-0.6-1-0.9
					c-0.3-0.4-0.4-1-0.5-1.5c0-0.5,0.1-1,0.3-1.4c0.2-0.5,0.6-1,1.1-1.3s1.1-0.5,1.7-0.5 M356.7,158.5c0.7,0.1,1.6-0.3,2.2-0.7
					s1.1-1.1,1.3-1.8c0.2-0.6,0.1-1.3-0.1-1.8c-0.2-0.6-0.6-1.1-1-1.5c-0.7-0.6-1.6-0.9-2.4-1.3c-0.4-0.2-0.8-0.4-1.1-0.7
					c-0.4-0.3-0.7-0.6-0.9-1c-0.2-0.5-0.3-1-0.3-1.5s0.2-1,0.4-1.4c0.3-0.4,0.6-0.8,1-1.1l0,0c0.1,0,0.2-0.1,0.2-0.1
					c0.5-0.3,1.1-0.4,1.8-0.4 M352.7,161.5c0.7,0.1,1.5-0.1,2.1-0.5c0.6-0.4,1.1-1,1.3-1.7c0.2-0.6,0.2-1.2,0-1.8s-0.5-1.1-0.9-1.5
					c-0.6-0.6-1.5-1-2.3-1.4c-0.4-0.2-0.8-0.5-1.1-0.8c-0.3-0.3-0.6-0.7-0.8-1.1c-0.2-0.5-0.3-1-0.2-1.5c0.1-0.5,0.3-1,0.6-1.4
					c0.4-0.5,0.9-0.9,1.4-1.1c0.6-0.2,1.2-0.3,1.8-0.2 M348.6,164.5c0.7,0.1,1.5,0,2.1-0.4c0.1,0,0.1-0.1,0.2-0.1l0,0
					c0.5-0.4,0.9-0.9,1.1-1.5s0.2-1.2,0.1-1.8c-0.2-0.6-0.5-1.1-0.9-1.6c-0.6-0.6-1.5-1.1-2.2-1.5c-0.4-0.2-0.8-0.5-1.1-0.8
					c-0.3-0.3-0.6-0.7-0.8-1.1c-0.2-0.5-0.2-1-0.1-1.6c0.1-0.5,0.3-1,0.7-1.4c0.4-0.5,0.9-0.9,1.5-1.1c0.6-0.2,1.2-0.3,1.9-0.2
					 M344.7,167.5c0.7,0.1,1.5-0.1,2.1-0.4c0.6-0.4,1.1-1,1.3-1.7c0.2-0.6,0.2-1.2,0-1.8s-0.5-1.1-0.9-1.6c-0.6-0.7-1.4-1.1-2.2-1.5
					c-0.4-0.2-0.8-0.5-1.1-0.8c-0.3-0.3-0.6-0.7-0.8-1.1c-0.2-0.5-0.2-1-0.1-1.6c0.1-0.5,0.4-1,0.7-1.4c0.2-0.2,0.4-0.4,0.7-0.6
					c0.3-0.2,0.6-0.4,0.9-0.5c0.6-0.2,1.3-0.3,1.9-0.2 M340.8,170.5c0.7,0.1,1.6-0.1,2.2-0.5s1-1,1.3-1.7c0.2-0.6,0.2-1.2,0-1.8
					s-0.5-1.1-0.9-1.5c-0.6-0.6-1.5-1-2.2-1.5c-0.4-0.2-0.8-0.5-1.1-0.8c-0.3-0.3-0.6-0.7-0.8-1.1c-0.2-0.5-0.2-1-0.1-1.6
					c0.1-0.5,0.4-1,0.7-1.4c0.4-0.5,1-0.9,1.6-1.1c0.6-0.2,1.3-0.3,1.9-0.2 M336.9,173.6c0.7,0.1,1.5-0.1,2.1-0.5s1-1,1.2-1.7
					c0.2-0.6,0.2-1.2,0-1.8s-0.5-1.1-0.9-1.5c-0.6-0.6-1.5-1-2.3-1.5c-0.4-0.2-0.8-0.5-1.1-0.8s-0.6-0.7-0.8-1.1
					c-0.2-0.5-0.3-1-0.2-1.6c0.1-0.5,0.3-1,0.7-1.4c0.4-0.5,1-0.9,1.6-1.2c0.6-0.2,1.3-0.3,1.9-0.2 M333,176.7
					c0.7,0.1,1.5-0.1,2.1-0.5c0.6-0.4,1-1,1.2-1.7c0.2-0.6,0.2-1.2,0-1.8s-0.5-1.1-0.9-1.5c-0.6-0.6-1.5-1-2.3-1.5
					c-0.4-0.2-0.8-0.5-1.1-0.8c-0.3-0.3-0.6-0.7-0.8-1.1c-0.2-0.5-0.3-1-0.2-1.6c0.1-0.5,0.3-1,0.7-1.4c0.4-0.5,0.9-0.9,1.6-1.2
					c0.6-0.2,1.3-0.3,1.9-0.2 M328.9,180c0.7,0.1,1.7-0.3,2.3-0.7c0.6-0.4,1.1-1,1.2-1.7c0.2-0.6,0.2-1.2,0-1.8
					c-0.2-0.6-0.5-1.1-0.9-1.5c-0.6-0.6-1.5-1-2.3-1.4c-0.4-0.2-0.8-0.5-1.1-0.8c-0.3-0.3-0.6-0.7-0.8-1.1c-0.2-0.5-0.3-1-0.2-1.6
					c0.1-0.5,0.3-1,0.7-1.4c0.4-0.5,0.9-0.9,1.6-1.2c0.6-0.2,1.3-0.3,1.9-0.2 M325.2,182.9c0.7,0.1,1.5,0,2.1-0.4s1.2-1,1.4-1.7
					c0.2-0.6,0.2-1.3,0-1.8c-0.2-0.6-0.6-1.1-1-1.5c-0.6-0.6-1.5-1-2.3-1.5c-0.4-0.2-0.8-0.5-1.1-0.8c-0.3-0.3-0.6-0.7-0.8-1.1
					c-0.2-0.5-0.3-1-0.2-1.6s0.3-1,0.7-1.4c0.4-0.5,0.9-0.9,1.5-1.2c0.6-0.2,1.3-0.3,1.9-0.2 M321.1,186.1c0.7,0.1,1.6-0.1,2.2-0.5
					s1.1-1,1.3-1.7c0.2-0.6,0.2-1.2,0-1.8s-0.5-1.1-0.9-1.5c-0.6-0.6-1.5-1-2.3-1.5c-0.4-0.2-0.8-0.5-1.1-0.8
					c-0.3-0.3-0.6-0.7-0.8-1.1c-0.2-0.5-0.3-1-0.2-1.6c0.1-0.5,0.3-1,0.7-1.4c0.4-0.5,0.9-0.9,1.5-1.2c0.6-0.2,1.3-0.3,1.9-0.2
					 M317.2,189.1c0.7,0.1,1.5-0.1,2.2-0.5c0.6-0.4,1.1-1,1.3-1.7c0.2-0.6,0.2-1.2,0-1.8s-0.5-1.1-0.9-1.5c-0.6-0.6-1.5-1-2.3-1.5
					c-0.4-0.2-0.8-0.5-1.1-0.8c-0.3-0.3-0.6-0.7-0.8-1.1c-0.2-0.5-0.3-1-0.2-1.6c0.1-0.5,0.3-1,0.7-1.4c0.4-0.5,0.9-0.9,1.5-1.1
					c0.6-0.2,1.3-0.3,1.9-0.2 M311.3,192c0.1,0.6,0.5,1.1,2.4,0.3c0.6-0.2,1.4-0.6,2.2-1.1c0.3-0.3,0.6-0.8,0.7-1.2
					c0.2-0.6,0.2-1.2,0-1.8s-0.5-1.1-0.9-1.6c-0.6-0.6-1.5-1-2.2-1.5c-0.4-0.2-0.8-0.5-1.1-0.8c-0.3-0.3-0.6-0.7-0.8-1.1
					c-0.2-0.5-0.2-1-0.1-1.6c0.1-0.5,0.3-1,0.7-1.4c0.4-0.5,0.9-0.9,1.5-1.1c0.6-0.2,1.3-0.3,1.9-0.2"/>
				<path class="st1" d="M312.2,193.2c-0.3,0-0.6-0.1-0.8-0.2c-0.3-0.2-0.5-0.5-0.6-1l1.1-0.1c0,0.2,0.1,0.2,0.1,0.2
					c0.1,0,0.4,0.2,1.6-0.3c0.6-0.2,1.3-0.6,2.1-1c0.3-0.3,0.4-0.6,0.6-0.9c0.2-0.5,0.2-1,0-1.5c-0.1-0.5-0.4-0.9-0.8-1.3
					c-0.4-0.5-1-0.8-1.6-1.1c-0.2-0.1-0.3-0.2-0.5-0.3c-0.3-0.2-0.8-0.5-1.2-0.9c-0.4-0.4-0.7-0.8-0.9-1.3c-0.2-0.6-0.3-1.2-0.2-1.9
					c0.1-0.6,0.4-1.2,0.8-1.6c0.5-0.6,1.1-1,1.8-1.3c0.5-0.2,0.9-0.3,1.4-0.3c0.1-0.5,0.4-1,0.7-1.5c0.5-0.6,1.1-1,1.8-1.3
					c0.5-0.2,0.9-0.3,1.4-0.3c0.1-0.5,0.4-1,0.7-1.5c0.5-0.6,1.1-1,1.8-1.3c0.5-0.2,0.9-0.3,1.4-0.3c0.1-0.5,0.4-1,0.7-1.5
					c0.5-0.6,1.1-1.1,1.8-1.3c0.5-0.2,0.9-0.3,1.4-0.3c0.1-0.5,0.4-1,0.7-1.5c0.5-0.6,1.1-1.1,1.8-1.3c0.5-0.2,0.9-0.3,1.4-0.3
					c0.1-0.5,0.4-1,0.7-1.5c0.5-0.6,1.1-1.1,1.8-1.3c0.5-0.2,0.9-0.3,1.4-0.3c0.1-0.5,0.4-1,0.7-1.5c0.5-0.6,1.1-1,1.8-1.3
					c0.5-0.2,1-0.3,1.4-0.3c0.1-0.5,0.4-1,0.8-1.5c0.5-0.6,1.1-1,1.8-1.3c0.5-0.2,1-0.3,1.5-0.3c0.1-0.5,0.4-1,0.8-1.5
					c0.2-0.3,0.5-0.5,0.7-0.7c0.3-0.2,0.7-0.4,1.1-0.6c0.5-0.2,0.9-0.2,1.4-0.2l0,0c0.1-0.5,0.4-1,0.7-1.4c0.5-0.6,1.1-1,1.7-1.3
					c0.4-0.2,0.9-0.2,1.4-0.3c0.1-0.5,0.3-1,0.6-1.4c0.4-0.6,1-1,1.6-1.3c0.4-0.2,0.8-0.3,1.3-0.3c0.1-0.5,0.2-1,0.5-1.4
					c0.3-0.5,0.7-0.9,1.2-1.2c0.1-0.1,0.2-0.1,0.3-0.2c0.4-0.2,0.8-0.3,1.2-0.4c0-0.5,0.1-1,0.3-1.4c0.3-0.6,0.7-1.1,1.3-1.5
					c0.3-0.2,0.7-0.4,1.1-0.5c0-0.5,0-0.9,0.1-1.4c0.2-0.6,0.6-1.2,1.1-1.6c0.3-0.2,0.6-0.5,1-0.6c-0.1-0.4-0.1-0.9-0.1-1.3
					c0.1-0.6,0.3-1.2,0.8-1.7c0.2-0.3,0.5-0.5,0.9-0.7c-0.2-0.4-0.3-0.8-0.3-1.2c0-0.6,0.1-1.2,0.4-1.8c0.2-0.3,0.4-0.6,0.7-0.8
					c-0.3-0.3-0.4-0.7-0.6-1.1c0-0.1-0.1-0.3-0.1-0.4c-0.1-0.5,0-0.9,0.1-1.4c0.1-0.3,0.3-0.6,0.5-1c-0.3-0.3-0.6-0.6-0.8-1
					c-0.3-0.6-0.4-1.2-0.3-1.8c0-0.4,0.1-0.7,0.3-1.1c-0.4-0.2-0.7-0.5-1-0.9c-0.4-0.5-0.6-1.1-0.7-1.8c0-0.4,0-0.8,0.1-1.2
					c-0.4-0.2-0.8-0.4-1.1-0.8c-0.4-0.4-0.7-1-0.9-1.5c0-0.1,0-0.1,0-0.2c-0.1-0.4-0.1-0.8-0.1-1.2c-0.5-0.1-0.9-0.3-1.3-0.6
					c-0.5-0.4-0.9-1-1.2-1.6c-0.1-0.4-0.2-0.8-0.3-1.2c-0.5-0.1-1-0.3-1.4-0.5c-0.6-0.4-1.1-0.9-1.4-1.5c-0.2-0.4-0.3-0.8-0.4-1.3
					c-0.5,0-1-0.2-1.5-0.4c-0.6-0.3-1.1-0.8-1.5-1.5c-0.2-0.4-0.4-0.8-0.5-1.3c-0.5,0-1-0.2-1.5-0.4c-0.6-0.3-1.2-0.8-1.6-1.4
					c-0.3-0.4-0.4-0.8-0.6-1.3c-0.5,0-1.1-0.1-1.5-0.3c-0.7-0.3-1.2-0.8-1.7-1.4c-0.3-0.4-0.5-0.8-0.6-1.3c-0.5,0-1.1-0.1-1.6-0.3
					c-0.7-0.3-1.3-0.8-1.7-1.4c-0.3-0.4-0.5-0.8-0.6-1.3c-0.5,0-1.1-0.1-1.6-0.3c-0.7-0.3-1.3-0.8-1.7-1.4c-0.3-0.4-0.5-0.8-0.7-1.3
					c-0.5,0-1.1-0.1-1.6-0.3c-0.7-0.3-1.3-0.8-1.8-1.4c-0.3-0.4-0.5-0.8-0.7-1.3c-0.5,0-1.1-0.1-1.6-0.3c-0.7-0.3-1.3-0.8-1.8-1.4
					c-0.3-0.4-0.5-0.9-0.7-1.3c-0.4,0-0.7-0.1-1.1-0.2c-0.2-0.1-0.4-0.1-0.6-0.2c-0.7-0.3-1.3-0.8-1.8-1.5c-0.3-0.4-0.5-0.9-0.6-1.4
					c-0.6,0-1.2-0.2-1.7-0.5c-0.7-0.4-1.3-1-1.7-1.7c-0.3-0.5-0.5-1-0.6-1.5c-0.6-0.1-1.2-0.3-1.7-0.7c-0.7-0.5-1.2-1.2-1.6-1.9
					c-0.2-0.5-0.4-1.1-0.4-1.6c-0.6-0.2-1.1-0.5-1.6-1c-0.6-0.6-1.1-1.4-1.3-2.2c-0.1-0.2-0.1-0.4-0.1-0.5c-0.1-0.4-0.1-0.8-0.1-1.2
					c-0.6-0.3-1.1-0.7-1.5-1.3c-0.5-0.7-0.8-1.6-0.9-2.4c-0.1-0.6,0-1.2,0.1-1.8c-0.5-0.4-0.9-0.9-1.2-1.6c-0.4-0.8-0.5-1.7-0.5-2.5
					c0-0.6,0.2-1.2,0.5-1.7c-0.4-0.5-0.7-1.1-0.9-1.7c-0.2-0.8-0.2-1.8,0-2.6c0.2-0.6,0.4-1.1,0.8-1.6c-0.3-0.5-0.5-1.2-0.6-1.9
					c0-0.2,0-0.4,0-0.6c0-0.7,0.2-1.3,0.5-1.9c0.3-0.6,0.6-1,1-1.4c-0.2-0.6-0.3-1.3-0.2-2c0.1-0.9,0.4-1.7,0.9-2.4
					c0.4-0.5,0.8-0.9,1.3-1.2c-0.1-0.6-0.1-1.3,0.1-2c0.2-0.8,0.7-1.6,1.3-2.2c0.4-0.4,0.9-0.7,1.5-1c0-0.6,0.2-1.3,0.5-1.9
					c0.4-0.8,1-1.5,1.7-1.9c0.7-0.5,1.6-0.8,2.4-0.8v1.1c-0.6,0-1.3,0.2-1.8,0.6c-0.6,0.4-1.1,0.9-1.4,1.5c-0.3,0.5-0.4,1-0.4,1.5
					c0,0.5,0.2,0.9,0.4,1.2c0.2,0.2,0.5,0.5,0.9,0.6c0.4,0.2,0.8,0.3,1.2,0.3l0.3,0.1c0.8,0.2,1.6,0.3,2.4,0.8
					c0.6,0.3,1.1,0.8,1.5,1.4c0.4,0.6,0.6,1.2,0.7,1.8c0.1,0.8-0.1,1.5-0.5,2.1c-0.4,0.5-1,1-1.6,1.2c0,0.1,0.1,0.1,0.1,0.2
					c0.2,0.7,0.2,1.5-0.1,2.1c-0.3,0.6-0.8,1.1-1.3,1.5c0,0.1,0.1,0.1,0.1,0.2c0.4,0.7,0.5,1.4,0.3,2.1c0,0.1,0,0.1,0,0.2
					c-0.2,0.5-0.6,1.1-1,1.5c0.1,0.1,0.1,0.1,0.2,0.2c0.5,0.6,0.7,1.2,0.7,1.9c0,0.5-0.2,1.3-0.7,1.9c0.1,0.1,0.1,0.1,0.2,0.2
					c0.6,0.5,0.9,1.1,1.1,1.8c0.1,0.4,0.1,1.4-0.2,2.1c0,0,0,0,0.1,0c0.7,0.4,1.1,1,1.3,1.6c0.1,0.3,0.3,1.2,0.1,2
					c0.1,0,0.1,0,0.2,0.1c0.1,0,0.3,0.1,0.4,0.2c0.6,0.3,1.1,0.8,1.3,1.2c0.3,0.5,0.5,1.3,0.4,2c0.1,0,0.1,0,0.2,0
					c0.8,0.2,1.4,0.6,1.9,1.2c0.4,0.5,0.6,1.3,0.6,2c0.1,0,0.3,0,0.4,0c0.8,0.1,1.5,0.4,2.1,1c0.5,0.5,0.8,1.3,0.9,2.1
					c0.1,0,0.3,0,0.4,0c0.8,0,1.6,0.4,2.2,1c0.3,0.3,0.6,0.7,0.7,1.1c0.1,0.3,0.2,0.6,0.3,1c0.2,0,0.3,0,0.5,0
					c0.8,0,1.6,0.3,2.3,0.9c0.6,0.5,1,1.3,1.2,2.1c0.2,0,0.3,0,0.5,0c0.8,0,1.7,0.4,2.4,1c0.6,0.5,1,1.3,1.1,2c0.2,0,0.3,0,0.5,0
					c0.8,0,1.7,0.3,2.3,0.9c0.6,0.5,1.1,1.4,1.3,2.1c0.2,0,0.3,0,0.5,0c0.8,0,1.7,0.4,2.3,0.9c0.6,0.5,1,1.3,1.2,2.1
					c0.2,0,0.4,0,0.5,0c0.9,0,1.7,0.4,2.3,1c0.6,0.6,1.1,1.4,1.2,2.2c0.2,0,0.3,0,0.5,0c0.9,0.1,1.7,0.5,2.3,1.1
					c0.6,0.6,0.9,1.5,1,2.3c0.2,0,0.4,0,0.6,0c0.9,0.1,1.7,0.5,2.3,1.2c0.6,0.6,0.9,1.6,1,2.4c0.2,0,0.4,0,0.6,0.1
					c0.9,0.2,1.7,0.7,2.2,1.4c0.5,0.6,0.9,1.6,0.9,2.5c0.2,0,0.4,0.1,0.6,0.1c0.9,0.3,1.6,0.9,2.1,1.6c0.5,0.7,0.7,1.7,0.6,2.6
					c0.2,0.1,0.4,0.1,0.6,0.2c0.4,0.2,0.7,0.4,1.1,0.7c0.4,0.3,0.7,0.8,0.9,1.2c0.4,0.9,0.4,1.9,0.2,2.7c0.2,0.1,0.5,0.2,0.7,0.4
					c0.8,0.5,1.4,1.3,1.7,2.3c0.3,0.9,0.2,2-0.1,2.9c0.2,0.1,0.3,0.2,0.5,0.4c0.7,0.6,1.1,1.6,1.3,2.6c0.1,0.9-0.1,2-0.6,2.8
					c0.2,0.2,0.3,0.3,0.5,0.5c0.5,0.8,0.8,1.8,0.8,2.8c0,0.1,0,0.2,0,0.3c-0.1,0.9-0.5,1.8-1.1,2.4l-0.7-0.8
					c0.4-0.4,0.7-1.1,0.8-1.7c0-0.1,0-0.1,0-0.2c0.1-0.8-0.2-1.5-0.6-2.1c-0.3-0.5-0.8-0.8-1.3-0.9s-1-0.2-1.5,0
					c-0.5,0.1-1.1,0.5-1.6,0.8c-0.2,0.1-0.5,0.3-0.7,0.4c-0.5,0.3-0.9,0.4-1.4,0.5s-1,0.2-1.5,0.1c-0.3,0-0.7-0.1-1-0.3
					c-0.2,0.2-0.3,0.5-0.4,0.7c-0.1,0.3-0.1,0.6-0.1,0.9c0,0.1,0,0.2,0.1,0.2c0.1,0.3,0.3,0.7,0.5,0.9c0.3,0.3,0.6,0.6,1,0.7
					c0.3,0.1,0.7,0.2,1.1,0.2s0.7-0.1,1.2-0.2c0.2-0.1,0.5-0.1,0.7-0.2c0.7-0.2,1.3-0.4,2-0.4s1.4,0.1,2,0.5s1.2,1,1.5,1.7
					c0.4,0.9,0.4,1.9,0.1,2.9c-0.2,0.9-0.9,1.8-1.7,2.3c0.1,0.2,0.2,0.4,0.2,0.7c0.2,0.9,0.1,1.9-0.4,2.8c-0.4,0.9-1.2,1.7-2,2
					c0,0.2,0.1,0.4,0.1,0.6c0.1,0.9-0.2,1.9-0.8,2.7c-0.5,0.7-1.4,1.3-2.3,1.6c0,0.2,0,0.4,0,0.6c-0.1,0.9-0.5,1.8-1.1,2.5
					c-0.6,0.6-1.6,1.2-2.4,1.3c0,0.2,0,0.4-0.1,0.5c-0.1,0.5-0.3,0.9-0.5,1.3c-0.2,0.4-0.5,0.7-0.8,1c-0.6,0.5-1.5,1-2.5,1.1
					c0,0.1,0,0.3-0.1,0.4c-0.2,0.8-0.8,1.6-1.5,2.1c-0.6,0.4-1.6,0.9-2.5,0.8c0,0.1-0.1,0.3-0.1,0.4c-0.3,0.8-0.8,1.6-1.6,2
					c-0.7,0.5-1.6,0.6-2.4,0.5c0,0.2-0.1,0.4-0.1,0.5c-0.2,0.7-0.7,1.3-1.3,1.8c-0.1,0.1-0.2,0.1-0.2,0.2c-0.6,0.4-1.5,0.6-2.3,0.5
					c0,0.2-0.1,0.3-0.1,0.5c-0.2,0.8-0.8,1.5-1.5,1.9c-0.6,0.4-1.5,0.6-2.3,0.5c0,0.2-0.1,0.3-0.1,0.5c-0.2,0.8-0.8,1.5-1.5,2
					c-0.6,0.4-1.5,0.6-2.3,0.6c0,0.2-0.1,0.3-0.1,0.5c-0.2,0.8-0.8,1.5-1.5,2c-0.7,0.4-1.5,0.7-2.3,0.6c0,0.2-0.1,0.3-0.1,0.5
					c-0.2,0.8-0.8,1.5-1.5,2c-0.6,0.4-1.5,0.6-2.3,0.6c0,0.2-0.1,0.4-0.1,0.5c-0.2,0.8-0.8,1.5-1.5,2c-0.6,0.4-1.5,0.8-2.3,0.8
					c0,0.1-0.1,0.2-0.1,0.4c-0.2,0.8-0.8,1.5-1.6,2c-0.6,0.4-1.5,0.6-2.3,0.5c0,0.2-0.1,0.4-0.1,0.5c-0.2,0.8-0.8,1.5-1.5,2
					c-0.7,0.4-1.6,0.7-2.4,0.6c0,0.2-0.1,0.3-0.1,0.5c-0.2,0.8-0.8,1.5-1.5,2c-0.7,0.4-1.6,0.6-2.4,0.6c0,0.2-0.1,0.4-0.1,0.5
					c-0.2,0.5-0.5,1-0.8,1.4l-0.1,0.1c-0.8,0.5-1.6,0.9-2.3,1.1C313.2,193.1,312.6,193.2,312.2,193.2z M317.3,188.6
					c0.6,0.1,1.3-0.1,1.8-0.4c0.5-0.3,0.9-0.8,1.1-1.4c0.1-0.5,0.1-1,0-1.5s-0.4-0.9-0.8-1.3c-0.4-0.4-1-0.8-1.6-1.1
					c-0.2-0.1-0.3-0.2-0.5-0.3c-0.3-0.2-0.8-0.5-1.2-0.8c-0.4-0.4-0.7-0.8-0.9-1.3c-0.1-0.3-0.2-0.7-0.2-1c-0.3,0-0.6,0.1-0.9,0.2
					c-0.5,0.2-1,0.5-1.3,1c-0.3,0.4-0.5,0.8-0.6,1.2s0,0.9,0.1,1.3c0.1,0.3,0.4,0.6,0.7,0.9c0.3,0.3,0.7,0.5,1,0.7
					c0.2,0.1,0.3,0.2,0.5,0.3c0.6,0.4,1.3,0.7,1.9,1.3c0.5,0.5,0.9,1.1,1,1.8C317.2,188.2,317.2,188.4,317.3,188.6z M321.3,185.5
					c0.6,0.1,1.3-0.1,1.8-0.4c0.5-0.3,0.9-0.8,1.1-1.4c0.1-0.5,0.1-1,0-1.5s-0.4-0.9-0.8-1.3c-0.5-0.4-1-0.8-1.6-1.1
					c-0.2-0.1-0.3-0.2-0.5-0.3c-0.3-0.2-0.8-0.5-1.2-0.8c-0.4-0.4-0.7-0.8-0.9-1.3c-0.1-0.3-0.2-0.6-0.2-1c-0.3,0-0.6,0.1-0.9,0.2
					c-0.5,0.2-1,0.5-1.3,1c-0.3,0.4-0.5,0.8-0.6,1.2s0,0.9,0.1,1.3c0.1,0.3,0.4,0.6,0.7,0.9c0.3,0.3,0.7,0.5,1,0.7
					c0.2,0.1,0.3,0.2,0.5,0.3c0.6,0.4,1.3,0.7,1.9,1.3c0.5,0.5,0.9,1.1,1,1.8C321.2,185.2,321.2,185.4,321.3,185.5z M325.2,182.4
					c0.7,0.1,1.3,0,1.8-0.3c0.6-0.4,1-0.9,1.1-1.4s0.1-1.1,0-1.5s-0.4-0.9-0.9-1.3c-0.5-0.4-1-0.8-1.7-1.1c-0.2-0.1-0.3-0.2-0.5-0.3
					c-0.3-0.2-0.8-0.5-1.2-0.8c-0.4-0.4-0.7-0.8-0.9-1.3c-0.1-0.3-0.2-0.6-0.3-1c-0.3,0-0.6,0.1-0.9,0.2c-0.5,0.2-1,0.5-1.3,1
					c-0.3,0.4-0.5,0.8-0.5,1.2c-0.1,0.4,0,0.9,0.1,1.3c0.1,0.3,0.4,0.6,0.7,0.9c0.3,0.2,0.6,0.4,1,0.7c0.2,0.1,0.3,0.2,0.5,0.3
					c0.7,0.4,1.3,0.7,1.9,1.3c0.5,0.5,0.9,1.1,1.1,1.8C325.2,182.1,325.2,182.2,325.2,182.4L325.2,182.4z M326.6,170.2
					c-0.3,0-0.6,0.1-0.9,0.2c-0.5,0.2-1,0.6-1.3,1s-0.5,0.8-0.5,1.2c-0.1,0.4,0,0.9,0.1,1.3c0.1,0.3,0.4,0.6,0.7,0.9
					c0.3,0.2,0.6,0.4,1,0.7c0.2,0.1,0.3,0.2,0.5,0.3c0.7,0.4,1.3,0.7,1.9,1.3s1,1.2,1.1,1.8c0.1,0.2,0.1,0.5,0.1,0.7
					c0.5,0,1.2-0.3,1.7-0.6s0.9-0.8,1-1.4c0.1-0.5,0.1-1,0-1.5s-0.4-0.9-0.8-1.3c-0.5-0.4-1-0.8-1.7-1.1c-0.2-0.1-0.3-0.2-0.5-0.3
					c-0.3-0.2-0.8-0.5-1.2-0.8c-0.4-0.4-0.8-0.8-1-1.2C326.7,170.9,326.6,170.6,326.6,170.2z M333.1,176.1c0.6,0.1,1.3-0.1,1.8-0.4
					c0.5-0.3,0.9-0.8,1-1.4c0.1-0.5,0.1-1,0-1.5s-0.4-0.9-0.8-1.3c-0.5-0.5-1-0.8-1.7-1.1c-0.2-0.1-0.3-0.2-0.5-0.3
					c-0.3-0.2-0.8-0.5-1.2-0.8c-0.4-0.4-0.7-0.8-0.9-1.3c-0.1-0.3-0.2-0.6-0.2-1c-0.3,0-0.6,0.1-1,0.2c-0.5,0.2-1,0.6-1.3,1
					c-0.3,0.4-0.5,0.8-0.6,1.2s0,0.9,0.1,1.3c0.1,0.3,0.4,0.6,0.7,0.9c0.3,0.3,0.7,0.5,1,0.7c0.2,0.1,0.3,0.2,0.5,0.3
					c0.7,0.4,1.3,0.7,1.9,1.3c0.5,0.5,0.9,1.1,1.1,1.8C333,175.8,333,176,333.1,176.1z M337,173.1c0.6,0.1,1.3-0.1,1.8-0.4
					c0.5-0.3,0.9-0.8,1-1.4c0.1-0.5,0.1-1,0-1.5s-0.4-0.9-0.8-1.3c-0.5-0.5-1-0.8-1.7-1.1c-0.2-0.1-0.3-0.2-0.5-0.3
					c-0.3-0.2-0.8-0.5-1.2-0.8c-0.4-0.4-0.7-0.8-0.9-1.3c-0.1-0.3-0.2-0.6-0.2-1c-0.3,0-0.6,0.1-1,0.2c-0.5,0.2-1,0.6-1.3,1
					s-0.5,0.8-0.6,1.2s0,0.9,0.1,1.3c0.1,0.3,0.4,0.6,0.7,0.9c0.3,0.3,0.7,0.5,1,0.7c0.2,0.1,0.3,0.2,0.5,0.3
					c0.7,0.4,1.3,0.7,1.9,1.3c0.5,0.5,0.9,1.1,1.1,1.8C336.9,172.7,336.9,172.9,337,173.1z M340.9,170c0.6,0.1,1.3-0.1,1.7-0.4
					c0.5-0.3,0.9-0.8,1-1.4c0.1-0.5,0.1-1,0-1.5s-0.4-0.9-0.8-1.3c-0.5-0.5-1-0.8-1.6-1.1c-0.2-0.1-0.3-0.2-0.5-0.3
					c-0.3-0.2-0.8-0.5-1.2-0.8c-0.4-0.4-0.7-0.8-0.9-1.3c-0.1-0.3-0.2-0.7-0.2-1c-0.3,0-0.7,0.1-1,0.2c-0.5,0.2-1,0.5-1.4,1
					c-0.3,0.4-0.5,0.8-0.6,1.2s0,0.9,0.1,1.3c0.1,0.3,0.4,0.6,0.7,0.9c0.3,0.3,0.7,0.5,1,0.7c0.2,0.1,0.3,0.2,0.5,0.3
					c0.7,0.4,1.3,0.7,1.9,1.3c0.5,0.5,0.9,1.1,1.1,1.8C340.8,169.7,340.9,169.8,340.9,170z M344.8,167c0.6,0.1,1.3-0.1,1.7-0.4
					c0.5-0.3,0.9-0.8,1-1.4c0.1-0.5,0.2-1,0-1.5c-0.1-0.5-0.4-0.9-0.8-1.3c-0.4-0.5-1-0.8-1.6-1.1c-0.2-0.1-0.3-0.2-0.5-0.3
					c-0.3-0.2-0.8-0.5-1.2-0.9c-0.4-0.4-0.7-0.8-0.9-1.3c-0.1-0.3-0.2-0.7-0.2-1c-0.3,0-0.7,0.1-1,0.2c-0.5,0.2-1,0.5-1.4,1
					c-0.3,0.4-0.5,0.8-0.6,1.2s0,0.9,0.1,1.3c0.1,0.3,0.4,0.6,0.7,0.9c0.3,0.3,0.7,0.5,1,0.7c0.2,0.1,0.3,0.2,0.5,0.3
					c0.7,0.4,1.3,0.7,1.9,1.3c0.5,0.5,0.9,1.1,1,1.8C344.7,166.6,344.8,166.8,344.8,167z M348.7,164c0.6,0.1,1.3,0,1.8-0.3
					c0.1,0,0.1-0.1,0.2-0.1c0.4-0.3,0.8-0.8,0.9-1.3c0.2-0.5,0.2-1,0-1.5c-0.1-0.5-0.4-0.9-0.8-1.3c-0.4-0.5-1-0.8-1.6-1.1
					c-0.2-0.1-0.3-0.2-0.5-0.3c-0.3-0.2-0.8-0.5-1.2-0.9c-0.4-0.4-0.7-0.8-0.9-1.3c-0.1-0.3-0.2-0.7-0.2-1c-0.3,0-0.6,0.1-0.9,0.2
					c-0.3,0.1-0.6,0.2-0.8,0.4c-0.2,0.2-0.4,0.3-0.6,0.5c-0.3,0.4-0.5,0.8-0.6,1.2s-0.1,0.9,0.1,1.3c0.1,0.3,0.3,0.6,0.7,0.9
					c0.3,0.3,0.7,0.5,1,0.7c0.2,0.1,0.3,0.2,0.5,0.3c0.6,0.4,1.3,0.8,1.9,1.3c0.5,0.5,0.8,1.1,1,1.8
					C348.7,163.6,348.7,163.8,348.7,164z M350.3,151.9c-0.3,0-0.6,0.1-0.9,0.2c-0.5,0.2-0.9,0.5-1.3,0.9c-0.3,0.4-0.5,0.8-0.6,1.2
					s0,0.9,0.1,1.3c0.1,0.3,0.3,0.6,0.7,0.9c0.3,0.2,0.6,0.5,1,0.7c0.2,0.1,0.3,0.2,0.5,0.3c0.6,0.4,1.3,0.8,1.8,1.3s0.8,1.1,1,1.8
					c0.1,0.3,0.1,0.5,0.1,0.8V161c0.6,0.1,1.2-0.1,1.7-0.4s0.9-0.9,1.1-1.4s0.2-1,0-1.5c-0.1-0.5-0.4-0.9-0.8-1.3
					c-0.4-0.4-1-0.7-1.6-1.1c-0.2-0.1-0.4-0.2-0.5-0.3c-0.5-0.3-0.9-0.5-1.2-0.8c-0.4-0.4-0.7-0.8-0.9-1.3
					C350.4,152.6,350.4,152.3,350.3,151.9z M356.8,158c0.5,0,1.2-0.2,1.8-0.6c0.5-0.4,0.9-0.9,1.1-1.5c0.1-0.5,0.1-1-0.1-1.5
					s-0.5-0.9-0.9-1.2c-0.5-0.4-1.1-0.7-1.7-0.9c-0.2-0.1-0.4-0.2-0.6-0.3c-0.5-0.3-0.9-0.5-1.2-0.8c-0.4-0.3-0.8-0.7-1-1.2
					c-0.2-0.3-0.3-0.6-0.3-1c-0.3,0-0.6,0.1-0.9,0.2c-0.5,0.2-0.9,0.5-1.2,0.9c-0.3,0.4-0.4,0.8-0.5,1.2s0,0.9,0.2,1.2
					c0.1,0.3,0.4,0.6,0.7,0.9c0.3,0.2,0.6,0.4,1,0.7c0.2,0.1,0.3,0.2,0.5,0.3c0.6,0.3,1.3,0.7,1.9,1.2c0.5,0.5,0.9,1.1,1.1,1.8
					C356.8,157.6,356.8,157.8,356.8,158z M357.3,145.7c-0.3,0.1-0.6,0.1-0.8,0.3c-0.1,0-0.1,0.1-0.2,0.1c-0.3,0.2-0.6,0.5-0.9,0.9
					c-0.2,0.4-0.3,0.8-0.4,1.2c0,0.4,0.1,0.9,0.2,1.2c0.2,0.3,0.4,0.6,0.7,0.8c0.3,0.2,0.6,0.4,1.1,0.6c0.2,0.1,0.4,0.2,0.6,0.3
					c0.7,0.3,1.3,0.6,1.9,1.1s1,1.1,1.2,1.7c0.1,0.2,0.1,0.4,0.2,0.6c0.5,0,1.3-0.4,1.8-0.8c0.2-0.2,0.5-0.4,0.6-0.7
					c0.2-0.3,0.3-0.6,0.4-1c0.1-0.5,0-1.1-0.2-1.5c-0.2-0.5-0.5-0.8-1-1.1s-1.1-0.6-1.7-0.8c-0.2-0.1-0.4-0.2-0.6-0.2
					c-0.5-0.2-1-0.4-1.3-0.6c-0.5-0.3-0.8-0.7-1.1-1.1C357.5,146.4,357.3,146,357.3,145.7z M360.1,142.3c-0.3,0.1-0.6,0.2-0.8,0.4
					c-0.4,0.3-0.7,0.6-0.9,1.1c-0.2,0.4-0.3,0.8-0.2,1.2c0,0.4,0.2,0.9,0.4,1.2c0.2,0.3,0.5,0.6,0.8,0.8s0.6,0.4,1.1,0.5
					c0.2,0.1,0.4,0.2,0.6,0.2c0.7,0.2,1.4,0.5,2,0.9s1.1,1,1.4,1.6c0.1,0.2,0.1,0.4,0.2,0.6c0.6-0.1,1.3-0.5,1.8-1s0.8-1.2,0.8-1.8
					c0-0.5-0.1-1.1-0.4-1.5s-0.6-0.8-1.1-1c-0.5-0.3-1.2-0.4-1.8-0.5c-0.2-0.1-0.5-0.1-0.7-0.2c-0.6-0.1-1-0.3-1.4-0.5
					c-0.5-0.3-0.9-0.6-1.2-0.9C360.5,142.9,360.3,142.6,360.1,142.3z M362.5,138.7c-0.3,0.1-0.5,0.3-0.7,0.4
					c-0.3,0.3-0.6,0.7-0.7,1.1c-0.1,0.4-0.1,0.8-0.1,1.2c0.1,0.4,0.3,0.8,0.5,1.1s0.5,0.5,0.9,0.7c0.3,0.2,0.7,0.3,1.2,0.4
					c0.2,0.1,0.4,0.1,0.7,0.2c0.7,0.2,1.4,0.3,2,0.6s1.2,0.8,1.5,1.4c0.1,0.1,0.2,0.3,0.2,0.5c0.6-0.2,1.3-0.7,1.7-1.2
					c0.4-0.6,0.6-1.3,0.6-2c0-0.4-0.1-0.8-0.3-1.1c-0.1-0.1-0.2-0.3-0.2-0.4c-0.3-0.4-0.7-0.7-1.2-0.8c-0.5-0.2-1-0.2-1.5-0.2h-0.3
					c-0.3,0-0.5,0-0.8-0.1c-0.6-0.1-1-0.2-1.4-0.3c-0.5-0.2-1-0.4-1.3-0.8C362.9,139.2,362.7,138.9,362.5,138.7z M364.2,134.8
					c-0.3,0.2-0.5,0.3-0.6,0.5c-0.3,0.3-0.5,0.7-0.5,1.2c0,0.4,0,0.8,0.1,1.1c0.2,0.4,0.4,0.8,0.7,1c0.3,0.2,0.6,0.4,1,0.6
					c0.3,0.1,0.7,0.2,1.2,0.2c0.2,0,0.5,0,0.7,0.1h0.3c0.5,0,1.2,0.1,1.8,0.3c0.7,0.2,1.3,0.6,1.7,1.2c0.1,0.1,0.2,0.3,0.3,0.5
					c0.6-0.3,1.2-0.9,1.5-1.5c0.3-0.7,0.4-1.4,0.3-2.1c-0.1-0.5-0.4-1-0.8-1.4c-0.4-0.3-0.8-0.5-1.4-0.6s-1.2,0-1.8,0
					c-0.3,0-0.5,0.1-0.8,0.1c-0.6,0-1,0-1.5,0c-0.5-0.1-1-0.3-1.5-0.5C364.7,135.3,364.4,135,364.2,134.8z M369.9,134.8
					c0.2,0,0.5,0,0.7,0.1c0.7,0.1,1.4,0.4,1.9,0.9c0.1,0.1,0.2,0.2,0.3,0.3c0.5-0.4,1-1,1.2-1.7s0.2-1.5-0.1-2.2
					c-0.2-0.5-0.6-0.9-1-1.2c-0.4-0.2-0.9-0.4-1.5-0.3c-0.6,0-1.2,0.2-1.8,0.4c-0.3,0.1-0.5,0.2-0.8,0.2c-0.5,0.1-1,0.2-1.4,0.2
					c-0.6,0-1.1-0.1-1.5-0.2c-0.3-0.1-0.6-0.3-0.9-0.5c-0.2,0.2-0.4,0.4-0.5,0.6c-0.2,0.4-0.3,0.8-0.3,1.2s0.1,0.7,0.3,1
					c0.2,0.4,0.5,0.7,0.9,0.9c0.3,0.2,0.7,0.3,1.1,0.4c0.3,0.1,0.7,0.1,1.2,0c0.2,0,0.5,0,0.7-0.1
					C369,134.8,369.4,134.8,369.9,134.8z M364.6,122.7c-0.1,0.3-0.2,0.5-0.2,0.8c0,0.4,0,0.8,0.2,1.2c0.2,0.3,0.4,0.6,0.7,0.8
					c0.3,0.2,0.7,0.4,1.2,0.5c0.4,0,0.7,0,1.1-0.1c0.3-0.1,0.7-0.2,1.1-0.4c0.2-0.1,0.4-0.2,0.6-0.4c0.6-0.3,1.2-0.7,1.9-0.9
					c0.7-0.2,1.4-0.2,2.1,0c0.2,0.1,0.3,0.1,0.5,0.2c0.3-0.6,0.5-1.5,0.4-2.1c-0.1-0.7-0.4-1.4-0.9-1.9c-0.4-0.4-0.9-0.6-1.4-0.7
					s-1,0-1.5,0.3c-0.5,0.2-1,0.7-1.5,1.1c-0.2,0.2-0.4,0.3-0.6,0.5c-0.4,0.4-0.8,0.6-1.2,0.8c-0.5,0.2-1,0.4-1.5,0.4
					C365.3,122.8,364.9,122.8,364.6,122.7z M363,118.7c-0.1,0.3-0.1,0.6-0.1,0.9c0,0.4,0.2,0.9,0.5,1.2c0.2,0.3,0.5,0.5,0.9,0.7
					c0.4,0.2,0.8,0.3,1.2,0.2c0.4,0,0.7-0.1,1.1-0.3c0.3-0.2,0.6-0.4,1-0.7c0.2-0.1,0.4-0.3,0.5-0.5c0.5-0.4,1.1-0.9,1.7-1.2
					c0.7-0.3,1.4-0.5,2.1-0.4c0.2,0,0.4,0.1,0.5,0.1c0.2-0.6,0.2-1.5,0-2.1c-0.2-0.7-0.7-1.3-1.2-1.7c-0.4-0.3-1-0.4-1.5-0.4
					s-1,0.2-1.4,0.5c-0.5,0.3-0.9,0.8-1.3,1.3c-0.2,0.2-0.3,0.4-0.5,0.6c-0.4,0.4-0.7,0.7-1.1,1c-0.5,0.3-0.9,0.5-1.4,0.6
					C363.7,118.7,363.4,118.7,363,118.7z M360.9,114.9c0,0.3,0,0.6,0.1,0.9v0.1c0.1,0.4,0.3,0.8,0.6,1.1c0.3,0.3,0.6,0.5,1,0.6
					s0.8,0.1,1.3,0.1c0.3-0.1,0.7-0.2,1-0.5c0.3-0.2,0.6-0.5,0.9-0.8c0.2-0.2,0.3-0.3,0.5-0.5c0.5-0.5,0.9-1.1,1.5-1.5
					c0.6-0.4,1.3-0.7,2-0.7c0.1,0,0.3,0,0.4,0c0.1-0.6,0.1-1.5-0.1-2c-0.2-0.3-0.4-0.6-0.7-0.9c-0.2-0.2-0.5-0.4-0.8-0.5
					c-0.5-0.2-1-0.3-1.5-0.2c-0.5,0.1-0.9,0.3-1.3,0.7s-0.8,1-1.1,1.5c-0.1,0.2-0.3,0.4-0.4,0.6c-0.3,0.5-0.6,0.8-0.9,1.1
					c-0.4,0.4-0.8,0.7-1.3,0.8C361.6,114.8,361.3,114.9,360.9,114.9z M358.2,111.3c0,0.3,0.1,0.6,0.2,0.9c0.2,0.5,0.5,0.8,0.8,1.1
					c0.3,0.2,0.7,0.4,1.1,0.5s0.9,0,1.2-0.1c0.3-0.1,0.6-0.3,0.9-0.6c0.3-0.2,0.5-0.5,0.8-0.9c0.1-0.2,0.2-0.4,0.4-0.6
					c0.4-0.6,0.8-1.2,1.3-1.7s1.2-0.8,1.8-1c0.2,0,0.3-0.1,0.5-0.1c0.1-0.6-0.1-1.4-0.5-1.9c-0.4-0.6-0.9-1-1.6-1.2
					c-0.5-0.2-1-0.1-1.5,0c-0.5,0.2-0.9,0.4-1.3,0.8c-0.4,0.5-0.7,1-1,1.6c-0.1,0.2-0.2,0.4-0.3,0.6c-0.3,0.5-0.5,0.9-0.8,1.2
					c-0.4,0.4-0.8,0.8-1.2,1C358.9,111.2,358.6,111.3,358.2,111.3z M355.1,107.9c0,0.3,0.1,0.6,0.3,0.9c0.2,0.5,0.6,0.8,1,1.1
					c0.4,0.2,0.7,0.4,1.1,0.4s0.9,0,1.2-0.2c0.3-0.2,0.6-0.4,0.9-0.7c0.2-0.3,0.4-0.6,0.7-1c0.1-0.2,0.2-0.4,0.3-0.6
					c0.3-0.6,0.6-1.3,1.1-1.9c0.5-0.5,1.1-0.9,1.7-1.2c0.2-0.1,0.3-0.1,0.5-0.1c0-0.6-0.3-1.4-0.7-1.8c-0.4-0.5-1-0.9-1.6-1
					c-0.5-0.1-1,0-1.5,0.2s-0.9,0.5-1.2,0.9c-0.4,0.5-0.6,1.1-0.8,1.7c-0.1,0.2-0.2,0.4-0.2,0.6c-0.2,0.5-0.4,0.9-0.7,1.3
					c-0.3,0.5-0.7,0.8-1.1,1.1C355.8,107.7,355.4,107.8,355.1,107.9z M351.6,104.7c0.1,0.3,0.2,0.6,0.3,0.9c0.3,0.5,0.6,0.8,1.1,1.1
					c0.4,0.2,0.8,0.3,1.2,0.3c0.4,0,0.9-0.1,1.2-0.3c0.3-0.2,0.6-0.4,0.8-0.8c0.2-0.3,0.4-0.6,0.6-1.1c0.1-0.2,0.2-0.4,0.2-0.6
					c0.3-0.7,0.5-1.4,1-2c0.4-0.6,1-1,1.6-1.3c0.1-0.1,0.3-0.1,0.5-0.2c-0.1-0.7-0.3-1.4-0.7-1.8c-0.4-0.5-1-0.8-1.7-0.9
					c-0.2,0-0.3,0-0.5,0c-0.3,0-0.7,0.1-1,0.3c-0.4,0.2-0.8,0.6-1.1,1c-0.3,0.5-0.5,1.1-0.8,1.8c-0.1,0.2-0.1,0.4-0.2,0.6
					c-0.2,0.6-0.4,1-0.6,1.3c-0.3,0.5-0.7,0.9-1.1,1.2C352.3,104.4,352,104.6,351.6,104.7L351.6,104.7z M348,101.6
					c0.1,0.3,0.2,0.6,0.4,0.9c0.3,0.4,0.7,0.8,1.2,1c0.4,0.2,0.8,0.3,1.2,0.3c0.2,0,0.4,0,0.6-0.1s0.4-0.2,0.6-0.3
					c0.3-0.2,0.5-0.5,0.8-0.8c0.2-0.3,0.3-0.6,0.5-1.1c0.1-0.2,0.1-0.4,0.2-0.6c0.2-0.7,0.5-1.4,0.9-2.1c0.4-0.6,0.9-1.1,1.5-1.4
					c0.1-0.1,0.3-0.1,0.4-0.2c-0.1-0.7-0.4-1.3-0.7-1.7c-0.4-0.4-1-0.7-1.7-0.8c-0.5,0-1,0.1-1.5,0.3c-0.4,0.2-0.8,0.6-1.1,1.1
					c-0.3,0.5-0.5,1.2-0.7,1.8c-0.1,0.2-0.1,0.4-0.2,0.6c-0.1,0.4-0.3,0.9-0.5,1.4c-0.3,0.5-0.6,0.9-1,1.2
					C348.6,101.3,348.3,101.5,348,101.6z M344.1,98.5c0.1,0.3,0.2,0.6,0.4,0.9c0.3,0.4,0.7,0.8,1.2,1c0.4,0.2,0.8,0.3,1.3,0.2
					c0.4,0,0.9-0.2,1.2-0.4c0.3-0.2,0.5-0.5,0.7-0.9c0.2-0.3,0.3-0.7,0.5-1.1c0.1-0.2,0.1-0.4,0.2-0.6c0.2-0.7,0.4-1.4,0.8-2.1
					c0.4-0.6,0.9-1.1,1.5-1.4c0.2-0.1,0.3-0.2,0.5-0.2c-0.1-0.6-0.5-1.2-0.9-1.6s-1.1-0.7-1.7-0.7c-0.5,0-1,0.1-1.5,0.4
					c-0.4,0.3-0.8,0.6-1.1,1.1c-0.3,0.5-0.5,1.2-0.6,1.9c0,0.2-0.1,0.4-0.1,0.6c-0.1,0.4-0.3,0.9-0.5,1.4c-0.3,0.5-0.6,0.9-1,1.2
					C344.8,98.3,344.5,98.4,344.1,98.5z M340.2,95.6c0.1,0.3,0.3,0.6,0.4,0.9c0.3,0.4,0.8,0.8,1.3,1c0.4,0.2,0.9,0.3,1.3,0.2
					c0.4,0,0.9-0.2,1.2-0.4c0.3-0.2,0.5-0.5,0.7-0.9s0.3-0.8,0.4-1.2c0.1-0.2,0.1-0.4,0.1-0.6c0.2-0.7,0.4-1.5,0.8-2.1
					s0.9-1.1,1.5-1.5c0.2-0.1,0.3-0.2,0.5-0.2c-0.1-0.6-0.5-1.2-0.9-1.6s-1-0.6-1.6-0.7c-0.5,0-1,0.1-1.4,0.4s-0.8,0.6-1.1,1.1
					c-0.3,0.6-0.5,1.2-0.6,1.9c0,0.2-0.1,0.4-0.1,0.6c-0.1,0.4-0.2,0.9-0.5,1.4s-0.6,0.9-1,1.2C340.8,95.3,340.5,95.5,340.2,95.6z
					 M336.2,92.6c0.1,0.3,0.3,0.6,0.5,0.9c0.3,0.4,0.8,0.8,1.3,1c0.4,0.2,0.9,0.3,1.3,0.2c0.4,0,0.9-0.2,1.2-0.5
					c0.3-0.2,0.5-0.5,0.7-0.9s0.3-0.8,0.4-1.2c0-0.2,0.1-0.4,0.1-0.5c0.2-0.7,0.3-1.5,0.7-2.2c0.3-0.6,0.8-1.1,1.4-1.5
					c0.2-0.1,0.3-0.2,0.5-0.3c-0.1-0.5-0.5-1.2-0.9-1.6s-1-0.6-1.6-0.6c-0.5,0-1,0.1-1.4,0.4s-0.8,0.6-1.1,1.1
					c-0.3,0.6-0.5,1.2-0.6,1.9c0,0.2-0.1,0.4-0.1,0.6c-0.1,0.4-0.2,0.9-0.5,1.4s-0.6,0.9-1,1.2C336.8,92.3,336.5,92.5,336.2,92.6z
					 M332.1,89.6c0.1,0.3,0.3,0.6,0.5,0.9c0.3,0.5,0.8,0.8,1.3,1c0.4,0.2,0.9,0.3,1.3,0.2c0.4,0,0.9-0.2,1.2-0.5
					c0.3-0.2,0.5-0.5,0.7-0.9s0.3-0.8,0.4-1.2c0-0.2,0.1-0.4,0.1-0.5c0.2-0.7,0.3-1.5,0.7-2.2c0.3-0.6,0.8-1.1,1.4-1.5
					c0.2-0.1,0.3-0.2,0.5-0.2c-0.1-0.6-0.4-1.2-0.8-1.5c-0.5-0.4-1.1-0.7-1.7-0.7c-0.5,0-1,0.1-1.4,0.4s-0.8,0.6-1.1,1.1
					c-0.3,0.6-0.5,1.2-0.6,1.9c0,0.2-0.1,0.4-0.1,0.5c-0.1,0.4-0.2,0.9-0.5,1.4c-0.3,0.5-0.6,0.9-1,1.2
					C332.8,89.3,332.5,89.5,332.1,89.6z M328.1,86.5c0.1,0.3,0.3,0.6,0.5,0.9c0.3,0.5,0.8,0.8,1.3,1.1c0.4,0.2,0.9,0.3,1.3,0.2
					c0.4,0,0.9-0.2,1.2-0.4c0.3-0.2,0.5-0.5,0.7-0.9s0.3-0.8,0.4-1.2c0-0.2,0.1-0.3,0.1-0.5c0.2-0.7,0.4-1.5,0.8-2.2
					c0.4-0.6,0.8-1.1,1.4-1.5c0.2-0.1,0.3-0.2,0.5-0.3c-0.1-0.5-0.5-1.2-0.9-1.6s-1-0.6-1.6-0.6c-0.5,0-1,0.1-1.4,0.4
					s-0.8,0.6-1.1,1.1c-0.3,0.6-0.5,1.2-0.7,1.9c0,0.2-0.1,0.3-0.1,0.5c-0.1,0.4-0.3,0.9-0.5,1.4c-0.3,0.5-0.6,0.9-1,1.2
					C328.7,86.3,328.4,86.4,328.1,86.5z M324,83.3c0.1,0.3,0.3,0.6,0.4,0.9c0.3,0.5,0.8,0.9,1.3,1.1c0.1,0.1,0.3,0.1,0.4,0.2
					c0.3,0.1,0.6,0.1,0.9,0.1c0.4,0,0.9-0.2,1.2-0.4c0.3-0.2,0.5-0.5,0.7-0.9c0.2-0.4,0.3-0.8,0.4-1.2c0-0.2,0.1-0.3,0.1-0.5
					c0.2-0.7,0.4-1.5,0.8-2.2c0.4-0.6,0.9-1.1,1.5-1.4c0.2-0.1,0.3-0.2,0.5-0.2c0-0.3-0.2-0.6-0.3-0.8c-0.1-0.3-0.3-0.6-0.5-0.8
					c-0.4-0.4-0.9-0.6-1.5-0.7c-0.5,0-1,0.1-1.4,0.3c-0.5,0.2-0.9,0.6-1.1,1c-0.4,0.6-0.6,1.2-0.8,1.9l-0.2,0.5
					c-0.1,0.4-0.3,0.9-0.6,1.3c-0.3,0.5-0.6,0.9-1,1.2C324.7,83.1,324.4,83.2,324,83.3z M320.1,79.7c0.1,0.3,0.2,0.7,0.4,1
					c0.3,0.5,0.8,1,1.3,1.3c0.4,0.2,0.9,0.4,1.4,0.4s0.9-0.1,1.2-0.4c0.3-0.2,0.5-0.5,0.7-0.8c0.2-0.4,0.4-0.8,0.5-1.2l0.1-0.5
					c0.2-0.7,0.5-1.5,0.9-2.2c0.4-0.6,0.9-1.1,1.5-1.4c0.2-0.1,0.3-0.2,0.5-0.2c-0.1-0.5-0.3-1.2-0.7-1.6c-0.4-0.4-0.9-0.6-1.4-0.7
					c-0.5,0-1,0-1.4,0.2c-0.5,0.2-0.9,0.5-1.2,0.9c-0.4,0.5-0.7,1.2-1,1.8l-0.2,0.4c-0.2,0.4-0.4,0.9-0.7,1.3
					c-0.3,0.5-0.7,0.9-1.1,1.1C320.7,79.5,320.4,79.6,320.1,79.7z M316.4,75.6c0,0.4,0.1,0.7,0.3,1c0.3,0.6,0.7,1.1,1.2,1.5
					c0.4,0.3,0.9,0.5,1.3,0.6c0.5,0.1,0.9,0,1.3-0.2c0.3-0.2,0.5-0.4,0.8-0.8c0.2-0.4,0.4-0.8,0.6-1.1l0.2-0.4
					c0.3-0.7,0.6-1.5,1.1-2.1c0.4-0.5,1-1,1.6-1.2c0.2-0.1,0.3-0.1,0.5-0.2c0-0.6-0.2-1.2-0.4-1.6c-0.3-0.4-0.7-0.7-1.2-0.8
					c-0.4-0.1-1-0.1-1.4,0.1c-0.5,0.2-1,0.4-1.3,0.8c-0.5,0.5-0.9,1.1-1.2,1.7l-0.2,0.3c-0.2,0.4-0.5,0.8-0.8,1.2
					c-0.4,0.4-0.8,0.8-1.3,1C317.1,75.5,316.7,75.6,316.4,75.6z M313.2,70.9c0,0.2,0,0.5,0.1,0.7c0,0.1,0.1,0.3,0.1,0.4
					c0.2,0.6,0.6,1.3,1.1,1.7c0.4,0.4,0.8,0.6,1.3,0.8c0.4,0.1,0.9,0.1,1.3-0.1c0.3-0.1,0.6-0.3,0.9-0.7c0.3-0.3,0.5-0.7,0.7-1
					l0.2-0.3c0.4-0.7,0.8-1.4,1.4-2c0.5-0.5,1.1-0.8,1.8-1c0.2-0.1,0.5-0.1,0.7-0.2c0.1-0.5-0.1-1.1-0.3-1.5
					c-0.1-0.3-0.4-0.6-0.8-0.8c-0.1,0-0.2-0.1-0.2-0.1c-0.4-0.1-0.9-0.2-1.4-0.1c-0.5,0.1-1,0.3-1.5,0.5c-0.6,0.4-1.1,1-1.5,1.5
					l-0.2,0.3c-0.3,0.4-0.6,0.7-1,1.1c-0.5,0.4-0.9,0.6-1.4,0.7C313.9,70.9,313.5,70.9,313.2,70.9z M310.8,65.5
					c-0.1,0.4-0.1,0.7-0.1,1.1c0.1,0.7,0.3,1.4,0.7,1.9c0.3,0.5,0.7,0.8,1.2,1c0.4,0.2,0.9,0.3,1.3,0.2c0.3-0.1,0.6-0.2,1-0.5
					c0.3-0.3,0.6-0.6,0.9-0.9L316,68c0.5-0.6,1-1.3,1.8-1.8c0.6-0.4,1.2-0.6,1.9-0.7c0.2,0,0.5,0,0.7,0c0.2-0.5,0.1-1.1,0-1.5
					s-0.4-0.8-0.9-1c-0.4-0.2-0.9-0.4-1.4-0.4s-1.1,0.1-1.5,0.3c-0.7,0.3-1.2,0.7-1.8,1.2l-0.3,0.2c-0.4,0.3-0.7,0.6-1.2,0.9
					s-1,0.4-1.5,0.5C311.5,65.7,311.1,65.7,310.8,65.5z M309.5,59.9c-0.1,0.3-0.2,0.7-0.3,1.1c-0.1,0.7,0.1,1.4,0.4,2
					c0.2,0.5,0.6,0.9,1,1.2c0.4,0.3,0.8,0.4,1.2,0.4c0.3,0,0.7-0.1,1-0.3c0.4-0.2,0.7-0.5,1-0.7l0.3-0.2c0.6-0.5,1.2-1.1,2.1-1.4
					c0.6-0.3,1.3-0.4,2-0.3c0.3,0,0.5,0.1,0.8,0.1c0.2-0.4,0.3-1.1,0.2-1.5c-0.1-0.4-0.3-0.8-0.7-1.2c-0.3-0.3-0.8-0.5-1.3-0.6
					s-1-0.1-1.6,0c-0.7,0.2-1.3,0.5-2,0.9l-0.3,0.2c-0.4,0.2-0.8,0.5-1.3,0.6c-0.6,0.2-1.1,0.3-1.6,0.2
					C310.1,60.2,309.8,60.1,309.5,59.9z M309.2,54.1c-0.2,0.3-0.3,0.7-0.4,1c-0.2,0.7-0.2,1.4,0,2c0.1,0.5,0.4,1,0.7,1.4
					c0.3,0.3,0.7,0.6,1.1,0.6c0.3,0,0.7,0,1.1-0.1s0.8-0.3,1.1-0.5l0.3-0.2c0.7-0.4,1.4-0.8,2.3-1c0.7-0.1,1.4-0.1,2,0
					c0.2,0,0.4,0.1,0.6,0.2c0.4-0.4,0.6-1,0.6-1.5c0-0.4-0.1-0.8-0.4-1.2c-0.3-0.3-0.7-0.6-1.2-0.9c-0.5-0.2-1-0.3-1.5-0.3
					c-0.7,0-1.4,0.3-2.1,0.5l-0.3,0.1c-0.4,0.2-0.9,0.3-1.4,0.4c-0.6,0.1-1.1,0.1-1.6-0.1C309.7,54.5,309.4,54.3,309.2,54.1z
					 M309.9,48.4c-0.3,0.3-0.5,0.6-0.6,0.9c-0.2,0.5-0.4,1-0.4,1.5c0,0.2,0,0.3,0,0.5c0,0.6,0.2,1.1,0.5,1.5s0.6,0.7,1,0.8
					c0.3,0.1,0.7,0.1,1.1,0.1c0.4-0.1,0.8-0.2,1.2-0.3l0.3-0.1c0.8-0.3,1.6-0.6,2.4-0.6c0.7,0,1.4,0.1,2,0.4
					c0.2,0.1,0.4,0.2,0.5,0.3c0.4-0.3,0.7-0.7,0.8-1.1v-0.1c0.1-0.4,0-0.9-0.2-1.3c-0.2-0.4-0.6-0.8-1-1.1c-0.4-0.3-0.9-0.5-1.4-0.6
					c-0.7-0.1-1.4,0-2.2,0.1l-0.3,0.1c-0.5,0.1-0.9,0.1-1.5,0.1s-1.1-0.2-1.5-0.4C310.4,48.8,310.2,48.6,309.9,48.4z M315.6,48
					c0.3,0,0.5,0,0.8,0.1c0.7,0.1,1.3,0.4,1.9,0.8c0.2,0.1,0.3,0.3,0.5,0.4c0.5-0.2,0.9-0.7,1.1-1.1c0.2-0.4,0.2-0.9,0.1-1.3
					c-0.1-0.4-0.4-0.9-0.8-1.2c-0.4-0.4-0.8-0.7-1.3-0.8c-0.7-0.2-1.4-0.3-2.1-0.3h-0.4c-0.5,0-1,0-1.4-0.1
					c-0.6-0.1-1.1-0.4-1.4-0.7c-0.3-0.2-0.5-0.5-0.7-0.8c-0.3,0.2-0.6,0.5-0.8,0.8c-0.4,0.6-0.7,1.2-0.7,1.9c-0.1,0.6,0,1.1,0.2,1.5
					s0.5,0.8,0.8,1c0.3,0.2,0.6,0.2,1.1,0.3c0.4,0,0.8,0,1.3-0.1l0.3-0.1C314.4,48.1,315,48,315.6,48z M314.5,37.8
					c-0.3,0.2-0.6,0.4-0.9,0.6c-0.5,0.5-0.9,1.1-1.1,1.7c-0.2,0.5-0.2,1.1-0.1,1.5c0.1,0.5,0.3,0.9,0.6,1.1c0.2,0.2,0.6,0.4,1,0.4
					c0.4,0.1,0.8,0.1,1.2,0.1h0.4c0.8,0,1.6,0,2.5,0.3c0.6,0.2,1.2,0.6,1.7,1.1c0.1,0.2,0.3,0.3,0.4,0.5c0.5-0.1,1-0.6,1.2-0.9
					c0.3-0.4,0.4-0.8,0.3-1.3c-0.1-0.4-0.2-0.9-0.5-1.3c-0.3-0.4-0.7-0.8-1.1-1.1c-0.6-0.4-1.3-0.5-2.1-0.6l-0.3-0.1
					c-0.4-0.1-0.9-0.2-1.4-0.4s-1-0.5-1.3-0.9C314.8,38.4,314.6,38.1,314.5,37.8z"/>
			</g>
		</g>
		<g id="g594">
			<g id="path590">
				<path class="st0" d="M338.9,81.3l-1.1,28.8l16.1,0.1l-1.3-28.8L338.9,81.3z"/>
			</g>
			<g id="path592">
				<path class="st1" d="M353.1,110.3l-1-29l1.5-0.1l1,29L353.1,110.3z M338.7,110.3l-1.5-0.1l1-29l1.5,0.1L338.7,110.3z"/>
			</g>
		</g>
		<g id="g600">
			<g id="path596">
				<path class="st0" d="M310.4,180.1l-1.2,4.5l1.3,10.9l8.7,2.4l9.9,3.9l2.8-2.7l1.6-15.5l-3.9-2.1l-3.3,2l-4.6,0.6l-5.4-1.2
					L310.4,180.1z"/>
			</g>
			<g id="path598">
				<path class="st1" d="M329.7,203.2c-4.6-2.3-9.8-4.3-15.3-5.9c-1.7-0.5-3.3-0.9-4.8-1.5l0.5-1.4c1.6,0.5,3.1,1,4.8,1.4
					c5.6,1.6,10.9,3.6,15.6,6L329.7,203.2z M322.6,185c-1.9,0-3.9-0.4-6-1.2c-2.5-0.9-4.9-2.1-7.2-3.4l0.8-1.3
					c2.2,1.3,4.5,2.4,6.9,3.3c5.2,1.9,9.4,1.3,12.4-1.8l1.1,1C328.4,183.9,325.7,185,322.6,185z"/>
			</g>
		</g>
		<g id="g610">
			<g id="path602">
				<path class="st0" d="M308.7,82.4l81.5-35.3c0.6-0.2,1.2,0,1.5,0.6l0,0l1.5,3.3c0.2,0.6,0,1.2-0.6,1.4l0,0l-81.5,35.3
					c-0.6,0.2-1.2,0-1.5-0.6l0,0l-1.5-3.3C307.9,83.3,308.2,82.7,308.7,82.4L308.7,82.4z"/>
				<path class="st1" d="M310.7,88.6c-0.7,0-1.4-0.4-1.7-1.1l-1.5-3.3c-0.2-0.5-0.2-1,0-1.4c0.2-0.5,0.5-0.8,1-1L390,46.5
					c0.9-0.4,2,0,2.4,1l1.5,3.3c0.2,0.5,0.2,1,0,1.4c-0.2,0.5-0.5,0.8-1,1l-81.5,35.3C311.2,88.5,310.9,88.6,310.7,88.6z
					 M390.6,47.8c-0.1,0-0.1,0-0.1,0L309,83.1c-0.1,0.1-0.2,0.1-0.2,0.2s0,0.2,0,0.3l1.5,3.3c0.1,0.2,0.3,0.3,0.5,0.2l81.5-35.3
					c0.1-0.1,0.2-0.1,0.2-0.2c0-0.1,0-0.2,0-0.3L391,48C390.9,47.9,390.8,47.8,390.6,47.8z"/>
			</g>
			<g id="g608">
				<g id="path604">
					<path class="st0" d="M356.5,62.7l-20.7,9v4.5l20.7-9V62.7z"/>
				</g>
				<g id="path606">
					<path class="st0" d="M340.5,61.3L340,77h11.8l-0.6-15.7H340.5z"/>
				</g>
			</g>
		</g>
	</g>
	<g id="g666" transform="translate(0.48345223)">
		<g id="g638">
			<g id="g618">
				<g id="path614">
					<path class="st0" d="M429.6,139l-12-22.1c-2.2-4.1-12.9-12.4-5.7-17.5c-1.6-1.7-4-4.3-6-6.9c-4.1-5.2-3.4-12.9,4.2-10.8
						c-1.1-6.8-2.5-13.6,2.9-21.5c7,2.7,13.5,6.6,15.6,16.3c8.6-6.4,9.5,4.4,6.9,12c8.5,0.8,9.3,9.5,6.8,17L429.6,139z"/>
					<path class="st1" d="M429.7,139.6L417.4,117c-0.5-1-1.5-2.2-2.7-3.6c-2.6-3.1-5.9-7-5.4-10.4c0.2-1.4,0.9-2.6,2.3-3.6
						c-1.4-1.4-3.8-4.1-5.8-6.7c-2.4-3-3.2-6.9-2-9.3c0.5-1,1.6-2.3,4-2.3c0.6,0,1.4,0.1,2.1,0.3l-0.1-0.3c-1.1-6.5-2.2-13.3,3-21
						l0.1-0.2l0.2,0.1c6.5,2.5,13.5,6.4,15.6,16.1c3.1-2.2,5.6-2.3,7-0.4c1.9,2.6,1.5,8.2,0.1,12.5c2.8,0.3,4.9,1.6,6.3,3.7
						c2,3.1,2.2,8.2,0.4,13.6L429.7,139.6z M407.7,81.5c-1.7,0-2.9,0.7-3.5,2c-1.1,2.2-0.3,5.9,1.9,8.8c2.1,2.8,4.7,5.5,6,6.9
						l0.2,0.2l-0.2,0.2c-1.4,1-2.1,2.1-2.3,3.5c-0.4,3.2,2.8,7,5.3,10.1c1.2,1.4,2.2,2.7,2.8,3.7l11.7,21.6l12.5-33.1
						c1.8-5.2,1.6-10.2-0.3-13.2c-1.3-2-3.4-3.2-6.2-3.5h-0.3l0.1-0.3c1.4-4.1,1.9-9.9,0-12.4c-1.3-1.8-3.6-1.5-6.6,0.7l-0.3,0.2
						l-0.1-0.4c-2-9.7-8.5-13.4-15.2-16c-5,7.4-3.9,14-2.8,20.4l0.2,1.1l-0.4-0.1C409.2,81.7,408.4,81.5,407.7,81.5z"/>
				</g>
				<g id="path616">
					<path class="st2" d="M433.6,125.1c-10.3-15.2-15.5-33.3-17.2-53.3c0-0.5,0.4-1,0.9-1.1l0,0c0.5-0.1,1,0.3,1.1,0.8
						c2.9,19.2,8.5,33.9,17,45.3L433.6,125.1z"/>
					<path class="st1" d="M433.7,125.7l-0.3-0.5c-9.8-14.5-15.4-32-17.2-53.5c-0.1-0.7,0.4-1.3,1.1-1.4c0.1,0,0.1,0,0.2,0
						c0.6,0,1.1,0.4,1.2,1c2.8,18.9,8.4,33.7,17,45.2l0.1,0.1L433.7,125.7z M417.4,70.9C417.4,70.9,417.3,70.9,417.4,70.9
						c-0.5,0.1-0.8,0.4-0.8,0.8c1.8,21.2,7.3,38.4,16.8,52.7l1.7-7.6c-8.6-11.5-14.2-26.3-17-45.3C418.1,71.2,417.8,70.9,417.4,70.9
						z"/>
				</g>
			</g>
			<g id="g624">
				<g id="path620">
					<path class="st0" d="M426.5,180.4c-2.1-4.5-12.2-23.3-2.7-28.2c-3-6.1-7.1-18.7,5.9-15.3c2-9.7,3.5-19.4,8-29
						c3.6-7.9,9.7-7.7,12.3-3c3.9,6.9,1.5,15.3-0.8,19.3c3.2,2,5.8,4.9,2.7,9.8c10.8,4.3-2.2,20.1-2.3,21L426.5,180.4z"/>
					<path class="st1" d="M426.4,180.9l-0.2-0.3c-0.1-0.3-0.3-0.7-0.5-1.1c-2.7-5.6-11-22.5-2.3-27.3c-1.2-2.6-4.5-10.2-2.2-13.9
						c1.3-2,4-2.6,8.2-1.5c0.2-1.1,0.5-2.3,0.7-3.4c1.7-8.3,3.4-16.9,7.2-25.3c1.9-4.1,4.6-6.4,7.5-6.4c2.1,0,4,1.2,5.2,3.4
						c3.9,7,1.5,15.4-0.6,19.4c2.3,1.4,3.5,2.9,3.9,4.6c0.4,1.6,0,3.3-1.2,5.2c2,0.9,3.3,2.2,3.9,4c1.6,5.2-3.4,12.6-5.5,15.8
						c-0.4,0.6-0.8,1.2-0.8,1.3v0.1h-0.1L426.4,180.9z M425.8,136.6c-2,0-3.3,0.6-4.1,1.8c-2.3,3.6,1.2,11.4,2.3,13.7l0.1,0.2
						l-0.2,0.1c-8.6,4.5-0.4,21.3,2.3,26.8c0.1,0.3,0.3,0.5,0.4,0.7l22.7-24.9c0.1-0.2,0.3-0.6,0.9-1.4c2.1-3.1,7-10.4,5.4-15.4
						c-0.5-1.7-1.8-3-3.9-3.8l-0.3-0.1l0.2-0.3c1.2-1.9,1.6-3.6,1.3-5.1c-0.4-1.6-1.6-3-3.9-4.4l-0.2-0.1l0.1-0.2
						c2.1-3.8,4.7-12.1,0.8-19.1c-1.1-2-2.9-3.2-4.8-3.2c-2.7,0-5.3,2.2-7.1,6.1c-3.8,8.3-5.6,16.9-7.2,25.2
						c-0.2,1.2-0.5,2.4-0.7,3.7l-0.1,0.3l-0.3-0.1C428.2,136.8,426.9,136.6,425.8,136.6z"/>
				</g>
				<g id="path622">
					<path class="st2" d="M440.6,116.6L440.6,116.6c-0.6,0-1.1,0.4-1.2,1c-3.5,17.5-4.5,36.5-5,52.2l7.4-8.3
						c-1.1-14.3-1.4-29-0.2-43.8C441.5,117.1,441.1,116.6,440.6,116.6L440.6,116.6z"/>
					<path class="st1" d="M434,170.5v-0.7c0.6-16.2,1.6-35,5.1-52.3c0.1-0.7,0.8-1.2,1.4-1.2c0.4,0,0.7,0.2,0.9,0.4
						c0.2,0.2,0.3,0.6,0.3,0.9c-1.1,13.8-1.1,28.2,0.2,43.8v0.1l-0.1,0.1L434,170.5z M440.5,116.8c-0.5,0-0.9,0.3-1,0.8
						c-3.4,16.9-4.5,35.5-5,51.5l6.9-7.7c-1.3-15.6-1.3-29.9-0.2-43.8c0-0.2,0-0.4-0.2-0.5C440.9,116.9,440.7,116.8,440.5,116.8
						L440.5,116.8z"/>
				</g>
			</g>
			<g id="g630">
				<g id="path626">
					<path class="st0" d="M403.4,220.5c-0.6-9.5-4.1-31.7,9.9-31.8c-3.4-9.4,5.2-15.3,13.2-11.5l18.9-20.7c1-1,2.8-2.3,4.2-2.5
						c9.7-1.4,4.7,14.1,1,16.7c6.7,3.2,5.3,10.6-2.5,14.6C463.6,196.8,418.8,207.9,403.4,220.5L403.4,220.5z"/>
					<path class="st1" d="M403.1,221v-0.5c-0.1-1.1-0.2-2.3-0.3-3.6c-0.7-8-1.6-20.1,3.4-25.6c1.7-1.8,3.9-2.8,6.6-2.9
						c-1.1-3.3-0.8-6.5,0.8-8.9c1.6-2.4,4.5-3.8,7.7-3.8c1.7,0,3.4,0.4,5,1.1l18.7-20.6c1-1.1,2.9-2.4,4.3-2.6
						c2.9-0.4,4.8,0.6,5.6,3c1.4,4.3-1.6,11.7-4.1,13.9c2.6,1.4,4,3.4,4.1,5.9c0,3.2-2.4,6.6-6.5,8.8c2.2,1.7,3.2,3.5,3,5.4
						c-0.6,5.8-12.4,11.4-25,17.3c-8.7,4.1-17.6,8.3-23,12.7L403.1,221z M421.4,176.3c-3,0-5.7,1.3-7.2,3.6
						c-1.6,2.4-1.9,5.5-0.7,8.8l0.1,0.3h-0.4c-2.8,0-5,0.9-6.6,2.7c-4.9,5.3-3.9,17.3-3.3,25.2c0.1,1.1,0.2,2.2,0.2,3.1
						c5.4-4.3,14.2-8.4,22.7-12.4c12.4-5.9,24.2-11.4,24.7-16.9c0.2-1.8-0.9-3.5-3.1-5.1l-0.3-0.2l0.4-0.2c4.1-2.1,6.6-5.4,6.6-8.5
						c0-2.4-1.5-4.4-4.1-5.6l-0.4-0.2l0.3-0.2c2.5-1.7,5.6-9.4,4.3-13.6c-0.7-2.1-2.4-3-5-2.7c-1.3,0.2-3.1,1.4-4.1,2.4l-19,20.8
						l-0.2-0.1C424.7,176.7,423,176.3,421.4,176.3z"/>
				</g>
				<g id="path628">
					<path class="st2" d="M404.9,214.2c12.9-14.3,25.1-29.8,36.9-45.7c0.2-0.2,0.6-0.3,0.8-0.2l0,0c0.3,0.1,0.4,0.4,0.3,0.7
						c-9.3,21.4-21.2,34.4-34.4,46.8L404.9,214.2z"/>
					<path class="st1" d="M408.5,216l-4-1.7l0.2-0.3c11.8-13.1,23.9-28,36.9-45.7c0.2-0.3,0.8-0.5,1.1-0.3c0.2,0.1,0.4,0.2,0.4,0.4
						c0.1,0.2,0.1,0.4,0,0.6c-8.9,20.5-20.3,33.5-34.5,46.9L408.5,216z M405.3,214.1l3.1,1.3c14.1-13.2,25.4-26.2,34.3-46.6
						c0-0.1,0-0.2,0-0.2c0-0.1-0.1-0.1-0.2-0.2c-0.2-0.1-0.5,0-0.6,0.1C429,186.2,417,201.1,405.3,214.1z"/>
				</g>
			</g>
			<g id="g636">
				<g id="path632">
					<path class="st0" d="M346.4,219.5c11.3,2.9,23.3,3.9,29.8-2.7c3.9-4,9.3-6,14.7-4.4c7.3-10.1,15.3-7.6,14.3-0.1
						c11.1-4.3,22.2-8.7,33-12.6c0.7-0.3,1.9-0.5,2.6-0.4c8.3,1.2,2.8,12.6-3.8,16.3c2.9,7.3-3.6,11.9-11.7,13.3
						c5.1,9.7-20.4,12.3-35.2,11.4C368.5,239,356.3,229,346.4,219.5L346.4,219.5z"/>
					<path class="st1" d="M395.9,240.8c-2,0-4-0.1-5.9-0.2c-21.7-1.3-34-11.5-43.9-20.9l-0.7-0.7l0.9,0.2c5.8,1.5,10.9,2.2,15.2,2.2
						c6.4,0,11.2-1.6,14.4-4.9c3.2-3.3,7.1-5,11.2-5c1.2,0,2.4,0.2,3.6,0.5c3.1-4.2,6.6-6.6,9.8-6.6c1.5,0,2.7,0.5,3.6,1.6
						c1,1.2,1.5,2.9,1.3,4.9l5.5-2.1c9-3.5,18.2-7.1,27.1-10.4c0.7-0.2,1.6-0.4,2.3-0.4c0.2,0,0.3,0,0.5,0c3.1,0.4,4.1,2.2,4.3,3.6
						c0.7,3.9-3.1,10.3-7.8,13c1,2.5,0.9,4.9-0.3,6.9c-1.7,3.1-5.9,5.5-11.4,6.5c0.8,1.6,0.7,3.1-0.1,4.5
						C422.4,238.9,407.6,240.8,395.9,240.8z M347.2,220c9.6,9.2,21.8,18.8,42.9,20.1c1.8,0.1,3.8,0.2,5.8,0.2
						c12.4,0,26.3-2.2,29.2-7c0.8-1.3,0.8-2.7-0.1-4.3l-0.2-0.3l0.3-0.1c5.5-1,9.6-3.3,11.3-6.3c1.1-2,1.2-4.2,0.2-6.7l-0.1-0.2
						l0.2-0.1c4.6-2.6,8.5-8.8,7.8-12.6c-0.3-1.8-1.7-2.9-3.9-3.2c-0.7-0.1-1.9,0.1-2.5,0.4c-8.9,3.3-18.2,6.9-27.1,10.4l-6.3,2.4
						l0.1-0.4c0.3-2-0.1-3.8-1.1-4.9c-0.8-0.9-1.9-1.4-3.3-1.4c-3,0-6.5,2.4-9.5,6.6l-0.1,0.1h-0.2c-1.2-0.3-2.4-0.5-3.7-0.5
						c-3.9,0-7.7,1.7-10.8,4.9c-3.2,3.3-8.2,5-14.7,5C357.5,222,352.7,221.3,347.2,220z"/>
				</g>
				<g id="path634">
					<path class="st2" d="M369.6,234.8c1.8,0.8,4.1,1.6,6.2,2.2c0.6,0.1,1.6,0.2,2.2,0.1c15-2,37-15.2,54.5-27.7
						c0.2-0.1,0.2-0.4,0.1-0.5l0,0c-0.1-0.2-0.4-0.2-0.6-0.1c-21,9.8-41.7,20.7-62.3,25.2C368.8,234,368.8,234.4,369.6,234.8
						L369.6,234.8z"/>
					<path class="st1" d="M377.3,237.3c-0.6,0-1.1-0.1-1.5-0.2c-2.2-0.5-4.4-1.4-6.3-2.2c-0.5-0.2-0.7-0.5-0.7-0.7s0.2-0.5,0.8-0.6
						c17.4-3.8,35.3-12.3,52.6-20.6c3.2-1.5,6.5-3.1,9.7-4.6c0.3-0.1,0.7,0,0.9,0.2c0.1,0.1,0.2,0.3,0.1,0.5c0,0.2-0.1,0.3-0.3,0.4
						c-13.2,9.4-37.9,25.5-54.6,27.7C377.8,237.3,377.5,237.3,377.3,237.3z M369.3,234.3c0,0,0.1,0.1,0.4,0.2
						c1.9,0.8,4.1,1.6,6.2,2.2c0.5,0.1,1.5,0.2,2.1,0.1c16.6-2.2,41.2-18.2,54.4-27.6c0,0,0-0.1,0.1-0.1V209
						c-0.1-0.1-0.2-0.1-0.3-0.1c-3.2,1.5-6.5,3.1-9.7,4.6c-17.3,8.3-35.2,16.8-52.7,20.6C369.4,234.2,369.3,234.3,369.3,234.3z"/>
				</g>
			</g>
		</g>
		<g id="g664" transform="matrix(-1,0,0,1,211.12841,0)">
			<g id="g644">
				<g id="path640">
					<path class="st0" d="M-50.1,139l-12-22.1c-2.2-4.1-12.9-12.4-5.7-17.5c-1.6-1.7-4-4.3-6-6.9c-4.1-5.2-3.4-12.9,4.2-10.8
						c-1.1-6.8-2.5-13.6,2.9-21.5c7,2.7,13.5,6.6,15.6,16.3c8.6-6.4,9.5,4.4,6.9,12c8.5,0.8,9.3,9.5,6.8,17L-50.1,139z"/>
					<path class="st1" d="M-50,139.6l12.9-34.1c1.8-5.4,1.7-10.5-0.4-13.6c-1.4-2.1-3.5-3.3-6.3-3.7c1.4-4.3,1.8-9.9-0.1-12.5
						c-1.4-2-3.8-1.9-7,0.4C-53.1,66.4-60,62.5-66.5,60l-0.2-0.1l-0.1,0.2c-5.2,7.7-4.1,14.4-3,21l0.1,0.3c-0.8-0.2-1.5-0.3-2.1-0.3
						c-2.4,0-3.5,1.2-4,2.3c-1.2,2.4-0.4,6.3,2,9.3c2.1,2.6,4.5,5.3,5.8,6.7c-1.3,1-2.1,2.3-2.3,3.6c-0.4,3.5,2.8,7.3,5.4,10.4
						c1.2,1.4,2.2,2.6,2.7,3.6L-50,139.6z M-46.6,74.8c0.9,0,1.7,0.4,2.3,1.2c1.8,2.5,1.3,8.3,0,12.4l-0.1,0.3h0.3
						c2.8,0.3,4.9,1.4,6.2,3.5c2,3,2.1,7.9,0.3,13.2l-12.5,33.1l-11.7-21.6c-0.6-1-1.6-2.3-2.8-3.7c-2.5-3-5.7-6.8-5.3-10.1
						c0.2-1.3,0.9-2.5,2.3-3.5l0.2-0.2l-0.2-0.2c-1.3-1.4-3.8-4.1-6-6.9c-2.2-2.8-3-6.5-1.9-8.8c0.9-1.9,3-2.4,5.9-1.6l0.4,0.1
						l-0.2-1.1c-1.1-6.4-2.2-13,2.8-20.4c6.7,2.6,13.2,6.4,15.2,16l0.1,0.4l0.3-0.2C-49.3,75.4-47.8,74.8-46.6,74.8z"/>
				</g>
				<g id="path642">
					<path class="st2" d="M-46.1,125.1c-10.3-15.2-15.5-33.3-17.2-53.3c0-0.5,0.4-1,0.9-1.1l0,0c0.5-0.1,1,0.3,1.1,0.8
						c2.9,19.2,8.5,33.9,17,45.3L-46.1,125.1z"/>
					<path class="st1" d="M-46,125.7l1.9-9l-0.1-0.1c-8.6-11.5-14.1-26.2-17-45.2c-0.1-0.6-0.7-1.1-1.4-1c-0.7,0.1-1.2,0.7-1.1,1.4
						c1.8,21.5,7.4,39,17.2,53.5L-46,125.7z M-44.6,116.8l-1.7,7.6c-9.6-14.3-15.1-31.6-16.8-52.7c0-0.4,0.3-0.8,0.7-0.8h0.1
						c0.4,0,0.7,0.3,0.7,0.6C-58.7,90.5-53.2,105.3-44.6,116.8z"/>
				</g>
			</g>
			<g id="g650">
				<g id="path646">
					<path class="st0" d="M-53.2,180.4c-2.1-4.5-12.2-23.3-2.7-28.2c-3-6.1-7.1-18.7,5.9-15.3c2-9.7,3.5-19.4,8-29
						c3.6-7.9,9.7-7.7,12.3-3c3.9,6.9,1.5,15.3-0.8,19.3c3.2,2,5.8,4.9,2.7,9.8c10.8,4.3-2.2,20.1-2.3,21L-53.2,180.4z"/>
					<path class="st1" d="M-53.3,180.9l0.2-0.3l23.1-25.3v-0.1c0-0.1,0.4-0.7,0.8-1.3c2.1-3.2,7.1-10.6,5.5-15.8
						c-0.6-1.8-1.9-3.1-3.9-4c1.1-1.9,1.6-3.7,1.2-5.2c-0.4-1.7-1.6-3.2-3.9-4.6c2.1-4,4.6-12.4,0.6-19.4c-1.2-2.2-3.1-3.4-5.2-3.4
						c-2.9,0-5.6,2.3-7.5,6.4c-3.9,8.4-5.6,17-7.2,25.3c-0.2,1.1-0.5,2.3-0.7,3.4c-4.1-1-6.9-0.5-8.2,1.5
						c-2.3,3.7,0.9,11.3,2.2,13.9c-8.7,4.8-0.5,21.8,2.3,27.3c0.2,0.4,0.4,0.8,0.5,1.1L-53.3,180.9z M-30.4,155.1L-53.1,180
						c-0.1-0.2-0.2-0.5-0.4-0.7c-2.7-5.5-10.9-22.3-2.3-26.8l0.2-0.1l-0.1-0.2c-1.1-2.3-4.6-10.1-2.3-13.7c1.2-1.9,3.9-2.3,7.9-1.3
						l0.3,0.1l0.1-0.3c0.3-1.2,0.5-2.5,0.7-3.7c1.7-8.3,3.4-16.9,7.2-25.2c1.8-3.9,4.4-6.1,7.1-6.1c1.9,0,3.7,1.2,4.8,3.2
						c3.9,6.9,1.4,15.3-0.8,19.1l-0.1,0.2l0.2,0.1c2.3,1.4,3.5,2.8,3.9,4.4c0.3,1.5-0.1,3.2-1.3,5.1l-0.2,0.3l0.3,0.1
						c2,0.8,3.3,2.1,3.9,3.8c1.5,4.9-3.3,12.2-5.4,15.4C-30.1,154.5-30.3,154.8-30.4,155.1z"/>
				</g>
				<g id="path648">
					<path class="st2" d="M-39.1,116.6L-39.1,116.6c-0.6,0-1.1,0.4-1.2,1c-3.5,17.5-4.5,36.5-5,52.2l7.4-8.3
						c-1.1-14.3-1.4-29-0.2-43.8C-38.1,117.1-38.6,116.6-39.1,116.6L-39.1,116.6z"/>
					<path class="st1" d="M-45.7,170.5l7.9-8.9v-0.1c-1.3-15.6-1.3-30-0.2-43.8c0-0.3-0.1-0.7-0.3-0.9c-0.2-0.2-0.5-0.4-0.9-0.4l0,0
						c-0.7,0-1.3,0.5-1.5,1.2c-3.5,17.2-4.5,36.1-5.1,52.3L-45.7,170.5z M-38.3,161.4l-6.9,7.7c0.6-16,1.6-34.6,5-51.5
						c0.1-0.4,0.5-0.8,0.9-0.8c0.2,0,0.4,0.1,0.5,0.2s0.2,0.3,0.2,0.5C-39.6,131.4-39.5,145.7-38.3,161.4z"/>
				</g>
			</g>
			<g id="g656">
				<g id="path652">
					<path class="st0" d="M-76.3,220.5c-0.6-9.5-4.1-31.7,9.9-31.8c-3.4-9.4,5.2-15.3,13.2-11.5l18.9-20.7c1-1,2.8-2.3,4.2-2.5
						c9.7-1.4,4.7,14.1,1,16.7c6.7,3.2,5.3,10.6-2.5,14.6C-16.1,196.8-60.9,207.9-76.3,220.5L-76.3,220.5z"/>
					<path class="st1" d="M-76.5,221l0.4-0.3c5.3-4.4,14.3-8.6,23-12.7c12.6-5.9,24.4-11.5,25-17.3c0.2-1.9-0.8-3.7-3-5.4
						c4.1-2.2,6.6-5.5,6.5-8.8c0-2.5-1.5-4.5-4.1-5.9c2.6-2.2,5.5-9.6,4.1-13.9c-0.7-2.4-2.7-3.4-5.6-3c-1.4,0.2-3.3,1.5-4.3,2.6
						l-18.7,20.6c-1.6-0.8-3.3-1.1-5-1.1c-3.1,0-6,1.4-7.7,3.8c-1.7,2.4-2,5.6-0.8,8.9c-2.7,0.1-5,1.1-6.6,2.9
						c-5,5.5-4,17.6-3.4,25.6c0.1,1.3,0.2,2.5,0.3,3.6L-76.5,221z M-29,154.2c2,0,3.4,0.9,3.9,2.7c1.3,4.2-1.8,11.9-4.3,13.6
						l-0.3,0.2l0.4,0.2c2.6,1.3,4.1,3.3,4.1,5.6c0,3.2-2.5,6.4-6.6,8.5l-0.4,0.2l0.3,0.2c2.3,1.7,3.3,3.4,3.1,5.1
						c-0.5,5.5-12.3,11-24.7,16.9c-8.5,4-17.3,8.1-22.7,12.4c-0.1-0.9-0.1-2-0.2-3.1c-0.6-7.9-1.6-19.9,3.3-25.2
						c1.6-1.8,3.9-2.7,6.6-2.7h0.4l-0.1-0.3c-1.2-3.3-1-6.4,0.7-8.8c1.6-2.2,4.3-3.6,7.2-3.6c1.7,0,3.3,0.4,5,1.2l0.2,0.1l19-20.8
						c0.9-1,2.7-2.2,4-2.4C-29.8,154.2-29.4,154.2-29,154.2z"/>
				</g>
				<g id="path654">
					<path class="st2" d="M-74.8,214.2c12.9-14.3,25.1-29.8,36.9-45.7c0.2-0.2,0.6-0.3,0.8-0.2l0,0c0.3,0.1,0.4,0.4,0.3,0.7
						c-9.3,21.4-21.2,34.4-34.4,46.8L-74.8,214.2z"/>
					<path class="st1" d="M-71.2,216l0.1-0.1c14.2-13.3,25.6-26.4,34.5-46.9c0.1-0.2,0.1-0.4,0-0.6c-0.1-0.2-0.2-0.4-0.4-0.4
						c-0.4-0.2-0.9,0-1.1,0.3C-51.1,186-63.2,200.9-75,214l-0.2,0.3L-71.2,216z M-37.3,168.4c0.1,0,0.1,0,0.2,0
						c0.1,0,0.1,0.1,0.2,0.2c0,0.1,0,0.2,0,0.2c-8.9,20.3-20.1,33.3-34.3,46.6l-3.1-1.3c11.7-13,23.7-27.9,36.7-45.5
						C-37.6,168.5-37.5,168.4-37.3,168.4z"/>
				</g>
			</g>
			<g id="g662">
				<g id="path658">
					<path class="st0" d="M-133.3,219.5c11.3,2.9,23.3,3.9,29.8-2.7c3.9-4,9.3-6,14.7-4.4c7.3-10.1,15.3-7.6,14.3-0.1
						c11.1-4.3,22.2-8.7,33-12.6c0.7-0.3,1.9-0.5,2.6-0.4c8.3,1.2,2.8,12.6-3.8,16.3c2.9,7.3-3.6,11.9-11.7,13.3
						c5.1,9.7-20.4,12.3-35.2,11.4C-111.2,239-123.4,229-133.3,219.5L-133.3,219.5z"/>
					<path class="st1" d="M-83.7,240.8c11.7,0,26.4-1.9,29.7-7.2c0.8-1.4,0.9-2.9,0.1-4.5c5.5-1,9.6-3.4,11.4-6.5
						c1.2-2.1,1.3-4.4,0.3-6.9c4.7-2.7,8.5-9.1,7.8-13c-0.3-1.4-1.2-3.2-4.3-3.6c-0.1,0-0.3,0-0.5,0c-0.7,0-1.6,0.2-2.3,0.4
						c-8.9,3.3-18.2,6.9-27.1,10.4l-5.5,2.1c0.2-2-0.2-3.7-1.3-4.9c-0.9-1-2.2-1.6-3.6-1.6c-3.1,0-6.7,2.4-9.8,6.6
						c-1.2-0.3-2.4-0.5-3.6-0.5c-4,0-8,1.8-11.2,5s-8,4.9-14.4,4.9c-4.3,0-9.4-0.7-15.2-2.2l-0.9-0.2l0.7,0.7
						c9.8,9.4,22.1,19.6,43.9,20.9C-87.8,240.7-85.8,240.8-83.7,240.8z M-39.3,199.5c0.1,0,0.3,0,0.4,0c2.3,0.3,3.6,1.4,3.9,3.2
						c0.7,3.8-3.1,10-7.8,12.6l-0.2,0.1l0.1,0.2c1,2.5,0.9,4.7-0.2,6.7c-1.7,3-5.8,5.3-11.3,6.3l-0.3,0.1l0.2,0.3
						c0.8,1.6,0.8,3,0.1,4.3c-2.9,4.8-16.8,7-29.2,7l0,0c-2,0-4-0.1-5.8-0.2c-21.1-1.3-33.2-11-42.9-20.1c5.4,1.3,10.3,2,14.4,2
						c6.5,0,11.5-1.7,14.7-5c3.1-3.2,6.9-4.9,10.8-4.9c1.2,0,2.5,0.2,3.7,0.5h0.2l0.1-0.1c3-4.2,6.4-6.6,9.5-6.6
						c1.3,0,2.5,0.5,3.3,1.4c1,1.2,1.4,2.9,1.1,4.9l-0.1,0.4l6.3-2.5c9-3.5,18.2-7.1,27.1-10.4C-40.9,199.7-40,199.5-39.3,199.5z"/>
				</g>
				<g id="path660">
					<path class="st2" d="M-110.1,234.8c1.8,0.8,4.1,1.6,6.2,2.2c0.6,0.1,1.6,0.2,2.2,0.1c15-2,37-15.2,54.5-27.7
						c0.2-0.1,0.2-0.4,0.1-0.5l0,0c-0.1-0.2-0.4-0.2-0.6-0.1c-21,9.8-41.7,20.7-62.3,25.2C-110.8,234-110.9,234.4-110.1,234.8
						L-110.1,234.8z"/>
					<path class="st1" d="M-102.4,237.3c0.3,0,0.5,0,0.7,0C-85,235.1-60.3,219-47,209.6c0.1-0.1,0.2-0.2,0.3-0.4
						c0-0.2,0-0.3-0.1-0.5c-0.2-0.3-0.6-0.4-0.9-0.2c-3.3,1.5-6.5,3.1-9.7,4.6c-17.3,8.3-35.2,16.8-52.6,20.6
						c-0.6,0.1-0.8,0.4-0.8,0.6c0,0.3,0.2,0.5,0.7,0.7c1.9,0.8,4.1,1.7,6.3,2.2C-103.5,237.3-103,237.3-102.4,237.3z M-47.5,208.9
						c0.1,0,0.1,0,0.2,0.1v0.1c0,0,0,0.1-0.1,0.1c-13.2,9.4-37.8,25.5-54.4,27.6c-0.6,0.1-1.6,0-2.1-0.1c-2.1-0.5-4.3-1.4-6.2-2.2
						c-0.3-0.1-0.4-0.2-0.4-0.3c0,0,0.1-0.1,0.4-0.2c17.5-3.8,35.4-12.3,52.7-20.6C-54.1,212-50.8,210.4-47.5,208.9
						C-47.6,208.9-47.5,208.9-47.5,208.9z"/>
				</g>
			</g>
		</g>
	</g>
	<g id="g720" transform="matrix(1.0456818,0,0,1.0843273,326.75318,-301.68002)">
		<g id="path668">
			<path class="st0" d="M47.8,301.3c0,15.7-13.2,28.4-29.5,28.4s-29.5-12.7-29.5-28.4l0,0c0-15.7,13.2-28.4,29.5-28.4l0,0
				C34.6,272.9,47.8,285.6,47.8,301.3z"/>
			<path class="st1" d="M18.3,330.4c-16.6,0-30.1-13-30.1-29.1c0-16.1,13.5-29.1,30.1-29.1s30.1,13,30.1,29.1
				C48.4,317.4,34.9,330.4,18.3,330.4z M18.3,273.5c-15.9,0-28.8,12.5-28.8,27.8c0,15.3,12.9,27.8,28.8,27.8s28.8-12.5,28.8-27.8
				C47.1,286,34.2,273.5,18.3,273.5z"/>
		</g>
		<g id="g718" transform="matrix(1.0415105,0,0,1.0415105,8.7613568,-12.296145)">
			<g id="g682">
				<g id="g674">
					<g id="path670">
						<path class="st2" d="M-1.3,290c0,4.9,2,15.3,5.3,19.9c1.7,3,4.5,2.5,4.9,2.5c0.1,0,0.2,0,0.2,0v-10.9
							C8.3,298.5,3.9,292.7-1.3,290L-1.3,290z"/>
					</g>
					<g id="path672">
						<path class="st1" d="M-1.7,289.4v0.7c0,5,2,15.3,5.3,20.1c0.9,1.6,2.1,2.3,3.2,2.6c1,0.3,1.9,0.2,2.1,0.1c0.1,0,0.2,0,0.3,0
							h0.4v-11.3v-0.1c-0.5-1.7-1.8-3.9-3.7-6.1s-4.3-4.3-6.9-5.7L-1.7,289.4z M-0.8,290.9c2.2,1.3,4.3,3.1,6,5
							c1.8,2.1,3.1,4.3,3.5,5.8v10.4c-0.3,0-0.9,0.1-1.7-0.1c-0.9-0.2-1.9-0.8-2.7-2.2l0,0l0,0C1.3,305.4-0.6,295.9-0.8,290.9
							L-0.8,290.9z"/>
					</g>
				</g>
				<g id="g680" transform="matrix(-1,0,0,1,-422.1275,0)">
					<g id="path676">
						<path class="st2" d="M-441.7,290c0,4.9,2,15.3,5.3,19.9c1.7,3,4.5,2.5,4.9,2.5c0.1,0,0.2,0,0.2,0v-10.9
							C-432.1,298.5-436.6,292.7-441.7,290L-441.7,290z"/>
					</g>
					<g id="path678">
						<path class="st1" d="M-442.1,289.4v0.7c0,5,2,15.3,5.3,20.1c0.9,1.6,2.1,2.3,3.2,2.6c1,0.3,1.9,0.2,2.1,0.1c0.1,0,0.2,0,0.3,0
							h0.4v-11.3v-0.1c-0.5-1.7-1.8-3.9-3.7-6.1c-1.9-2.2-4.3-4.3-6.9-5.7L-442.1,289.4z M-441.2,290.9c2.2,1.3,4.3,3.1,6,5
							c1.8,2.1,3.1,4.3,3.5,5.8v10.4c-0.3,0-0.9,0.1-1.7-0.1c-0.9-0.2-1.9-0.8-2.7-2.2l0,0l0,0C-439.1,305.4-441,295.9-441.2,290.9
							L-441.2,290.9z"/>
					</g>
				</g>
			</g>
			<g id="g696">
				<g id="g688">
					<g id="path684">
						<path class="st2" d="M-8.6,293.6c2.1,8.4,6.7,14.2,11.8,17.2c2.6,2.4,3.5,1.4,3.8,1.2c0.6-0.3,1.1-0.6,1.5-1
							c0.2-0.2,0.4-0.3,0.6-0.5v-3.6c-0.3-0.5-0.7-1-1.2-1.5C3.7,299.8-2.2,295.7-8.6,293.6L-8.6,293.6z"/>
					</g>
					<g id="path686">
						<path class="st1" d="M-9.1,293l0.2,0.7c2.1,8.5,6.7,14.3,11.9,17.4c1.3,1.2,2.3,1.7,3,1.7c0.4,0,0.7-0.1,0.9-0.2
							c0.2-0.1,0.4-0.2,0.4-0.2l0,0l0,0c0.6-0.3,1.1-0.6,1.6-1.1l0,0c0.2-0.2,0.4-0.3,0.7-0.6l0.1-0.1v-3.9l-0.1-0.1
							c-0.3-0.5-0.7-1-1.3-1.6C4,299.4-2,295.2-8.3,293.2L-9.1,293z M-7.9,294.4c5.9,2.1,11.5,6,15.5,11.3l0,0l0,0
							c0.5,0.5,0.8,1,1.1,1.4v3.3c-0.2,0.1-0.3,0.3-0.5,0.4l0,0l0,0c-0.4,0.4-0.8,0.7-1.4,0.9l0,0c-0.2,0.1-0.3,0.2-0.4,0.2
							C6.3,312,6.2,312,6,312c-0.4,0-1.2-0.3-2.5-1.5l0,0l0,0C-1.4,307.6-5.7,302.2-7.9,294.4L-7.9,294.4z"/>
					</g>
				</g>
				<g id="g694" transform="matrix(-1,0,0,1,-422.1275,0)">
					<g id="path690">
						<path class="st2" d="M-449,293.6c2.1,8.4,6.7,14.2,11.8,17.2c2.6,2.4,3.5,1.4,3.8,1.2c0.6-0.3,1.1-0.6,1.5-1
							c0.2-0.2,0.4-0.3,0.6-0.5v-3.6c-0.3-0.5-0.7-1-1.2-1.5C-436.8,299.8-442.7,295.7-449,293.6L-449,293.6z"/>
					</g>
					<g id="path692">
						<path class="st1" d="M-449.6,293l0.2,0.7c2.1,8.5,6.7,14.3,11.9,17.4c1.3,1.2,2.3,1.7,3,1.7c0.4,0,0.7-0.1,0.9-0.2
							c0.2-0.1,0.4-0.2,0.4-0.2l0,0l0,0c0.6-0.3,1.1-0.6,1.6-1.1l0,0c0.2-0.2,0.4-0.3,0.7-0.6l0.1-0.1v-3.9l-0.1-0.1
							c-0.3-0.5-0.7-1-1.3-1.6c-4.3-5.6-10.3-9.8-16.6-11.8L-449.6,293z M-448.3,294.4c5.9,2.1,11.5,6,15.5,11.3l0,0l0,0
							c0.5,0.5,0.8,1,1.1,1.4v3.3c-0.2,0.1-0.3,0.3-0.5,0.4l0,0l0,0c-0.4,0.4-0.8,0.7-1.4,0.9l0,0c-0.2,0.1-0.3,0.2-0.4,0.2
							c-0.1,0.1-0.3,0.1-0.5,0.1c-0.4,0-1.2-0.3-2.5-1.5l0,0l0,0C-441.8,307.6-446.2,302.2-448.3,294.4L-448.3,294.4z"/>
					</g>
				</g>
			</g>
			<g id="g710">
				<g id="g702">
					<g id="path698">
						<path class="st2" d="M-14.7,300.8c3.2,5.1,11.8,12.3,16,12.2c1.1,0,5.6-0.3,6-0.2c-2-5.4,0,0-2-5.4
							C0.8,304.4-6.5,301.2-14.7,300.8z"/>
					</g>
					<g id="path700">
						<path class="st1" d="M-15.4,300.3l0.4,0.7c1.7,2.6,4.6,5.7,7.7,8.1c3.1,2.5,6.3,4.3,8.6,4.3c0.5,0,1.9-0.1,3.3-0.1
							c0.7,0,1.3-0.1,1.8-0.1c0.2,0,0.5,0,0.6,0c0.2,0,0.3,0,0.3,0l0.7,0.1l-2.3-6.2L5.6,307c-4.6-3-12-6.2-20.2-6.7H-15.4z
							 M-13.7,301.3c7.6,0.6,14.4,3.5,18.8,6.3l1.7,4.7c-0.1,0-0.2,0-0.4,0c-0.5,0-1.1,0-1.8,0.1c-1.3,0.1-2.7,0.1-3.2,0.1
							c-1.9,0-5.1-1.7-8.1-4.1C-9.5,306.3-12.1,303.6-13.7,301.3L-13.7,301.3z"/>
					</g>
				</g>
				<g id="g708" transform="matrix(-1,0,0,1,-422.1275,0)">
					<g id="path704">
						<path class="st2" d="M-455.1,300.8c3.2,5.1,11.8,12.3,16,12.2c1.1,0,5.6-0.3,6-0.2c-2-5.4,0,0-2-5.4
							C-439.6,304.4-446.9,301.2-455.1,300.8z"/>
					</g>
					<g id="path706">
						<path class="st1" d="M-455.9,300.3l0.4,0.7c1.7,2.6,4.6,5.7,7.7,8.1c3.1,2.5,6.3,4.3,8.6,4.3c0.5,0,1.9-0.1,3.3-0.1
							c0.7,0,1.3-0.1,1.8-0.1c0.2,0,0.5,0,0.6,0c0.2,0,0.3,0,0.3,0l0.7,0.1l-2.3-6.2l-0.1-0.1c-4.6-3-12-6.2-20.2-6.7L-455.9,300.3z
							 M-454.1,301.3c7.6,0.6,14.4,3.5,18.8,6.3l1.7,4.7c-0.1,0-0.2,0-0.4,0c-0.5,0-1.1,0-1.8,0.1c-1.3,0.1-2.7,0.1-3.2,0.1
							c-1.9,0-5.1-1.7-8.1-4.1C-450,306.3-452.5,303.6-454.1,301.3L-454.1,301.3z"/>
					</g>
				</g>
			</g>
			<g id="g716" transform="translate(-2.4984164e-4)">
				<g id="path712">
					<path class="st2" d="M9.2,285.9c-3.7,5.5-4.7,15.7-4.4,21.2c0.1,1.8,0.1,2.8,0.4,3.6c0.3,0.8,0.8,1.7,1.9,1.9
						c0.7,0.1,1.3,0.4,1.3,0.9v3c0.6,0,1.1,0,1.7,0v-3c0-0.6,0.6-0.8,1.3-0.9c1.1-0.2,1.6-1.1,1.9-1.9c0.3-0.8,0.3-1.8,0.4-3.6
						C13.9,301.6,12.9,291.5,9.2,285.9L9.2,285.9z"/>
				</g>
				<g id="path714">
					<path class="st1" d="M9.2,285.2l-0.4,0.5c-4,5.7-4.9,15.9-4.6,21.4c0.1,1.8,0.1,2.8,0.4,3.8l0,0c0.2,0.4,0.4,0.9,0.8,1.3
						s0.9,0.7,1.6,0.9c0.3,0.1,0.6,0.1,0.8,0.2c0.2,0.1,0.2,0.1,0.2,0.3v3c0,0.2,0.2,0.4,0.4,0.4l0,0H10c0.2,0,0.4-0.2,0.4-0.4l0,0
						v-3c0-0.1,0-0.2,0.2-0.3c0.2-0.1,0.4-0.2,0.8-0.2c0.7-0.1,1.2-0.5,1.6-0.9c0.4-0.4,0.6-0.9,0.8-1.3c0.4-0.9,0.3-2,0.4-3.8
						c0.3-5.5-0.7-15.7-4.6-21.4L9.2,285.2z M9.2,286.9c3.4,5.5,4.4,15,4.1,20.2c-0.1,1.8-0.1,2.8-0.4,3.5c-0.2,0.4-0.3,0.8-0.6,1.1
						c-0.3,0.3-0.6,0.5-1.1,0.6c-0.4,0.1-0.8,0.2-1.1,0.3c-0.3,0.2-0.6,0.5-0.6,1v2.4c0,0.1-0.1,0.2-0.2,0.2l0,0H8.9
						c-0.1,0-0.2-0.1-0.2-0.2l0,0v-2.4c0-0.4-0.3-0.8-0.6-1c-0.3-0.2-0.7-0.3-1.1-0.3c-0.5-0.1-0.8-0.3-1.1-0.6
						c-0.3-0.3-0.5-0.7-0.6-1.1c-0.3-0.7-0.3-1.7-0.4-3.5C4.7,301.9,5.8,292.4,9.2,286.9L9.2,286.9z"/>
				</g>
			</g>
		</g>
	</g>
	<g id="g732">
		<g id="g728" transform="translate(5.980805e-5)">
			<g id="path722">
				<path class="st0" d="M228.5,251.1l1.3,17.4c1.2,16.1-2.6,21-5.9,25.7c7.1-1.2,14.2-3.7,18.6-10.4c4.2,8.7,11.9,13,19.5,11.8
					c-3-4.1-5-10-4.9-16.7l0.2-15.2C245.8,263.2,235.1,255.2,228.5,251.1z"/>
				<path class="st1" d="M259.6,296.6L259.6,296.6c-7,0-13.3-4.2-17.2-11.3c-5,6.7-12.8,8.7-18.4,9.7l-1.7,0.3l1.3-1.9
					c3.2-4.7,6.6-9.5,5.4-24.8l-1.4-18.9l1.2,0.8c0.9,0.5,1.8,1.2,2.9,1.8c6.7,4.3,15.8,10.2,25.6,10.7h0.7l-0.2,15.9
					c-0.1,6.2,1.6,11.9,4.8,16.3l0.7,1l-1.2,0.2C261.3,296.6,260.5,296.6,259.6,296.6z M242.6,282.4l0.6,1.2
					c3.5,7.3,9.6,11.6,16.4,11.6l0,0c0.4,0,0.8,0,1.2,0c-2.9-4.5-4.4-10.1-4.4-16.1l0.1-14.5c-9.9-0.8-19-6.6-25.6-10.9
					c-0.5-0.4-1.1-0.7-1.6-1l1.2,15.9c1.1,14.7-1.9,20.3-5,24.7c7.9-1.6,13-4.7,16.4-9.7L242.6,282.4z"/>
			</g>
			<g id="path724">
				<path class="st0" d="M463.3,251.1l-1.3,17.4c-1.2,16.1,2.6,21,5.9,25.7c-7.1-1.2-14.2-3.7-18.6-10.4c-4.2,8.7-11.9,13-19.5,11.8
					c3-4.1,5-10,4.9-16.7l-0.2-15.2C446,263.2,456.7,255.2,463.3,251.1z"/>
				<path class="st1" d="M432.2,296.6c-0.9,0-1.7-0.1-2.6-0.2l-1.2-0.2l0.7-1c3.2-4.3,4.9-10.1,4.8-16.3l-0.2-15.9h0.7
					c9.8-0.5,18.9-6.4,25.6-10.7c1-0.7,2-1.3,2.9-1.8l1.2-0.8l-1.5,18.9c-1.2,15.3,2.2,20.1,5.4,24.8l1.3,1.9l-1.7-0.3
					c-5.6-0.9-13.4-3-18.4-9.7C445.5,292.4,439.2,296.6,432.2,296.6z M431,295.1c7.2,0.5,13.9-3.9,17.6-11.6l0.6-1.2l0.7,1.1
					c3.3,5.1,8.4,8.1,16.4,9.7c-3-4.5-6.1-10-5-24.7l1.2-15.9c-0.5,0.3-1,0.7-1.6,1c-6.7,4.3-15.7,10.1-25.6,10.9l0.1,14.5
					C435.4,284.9,433.9,290.6,431,295.1z"/>
			</g>
			<g id="path726">
				<path class="st0" d="M238.9,220.2c-1,0-2,0.5-2.6,1.4l-7,9.7c-1.4,1.9-2,4.2-1.8,6.5l1.1,14.3c35.6,23,76.2,37.1,117.3,37.1
					s81.8-14.2,117.3-37.1l1.1-14.3c0.2-2.3-0.5-4.6-1.8-6.5l-7-9.7c-1.2-1.6-3.3-1.9-4.9-0.6c-28,22.6-68.7,36.8-104.7,36.8
					s-76.8-14.3-104.7-36.8C240.5,220.4,239.7,220.1,238.9,220.2z"/>
				<path class="st1" d="M345.9,290c-39.3,0-80-12.9-117.8-37.3l-0.3-0.2l-1.1-14.7c-0.2-2.5,0.5-5,2-7l7-9.7
					c0.8-1.1,1.9-1.7,3.2-1.7h0.1c1,0,1.9,0.3,2.6,1c27.6,22.3,68.6,36.7,104.3,36.7s76.7-14.4,104.3-36.7c0.8-0.6,1.7-0.9,2.6-0.9
					c1.3,0,2.5,0.6,3.3,1.7l7,9.7c1.5,2,2.2,4.5,2,7l-1.1,14.7l-0.3,0.2C425.9,277.1,385.2,290,345.9,290z M229.2,251.7
					c37.4,24.1,77.7,36.8,116.6,36.8s79.2-12.7,116.6-36.8l1.1-14c0.2-2.1-0.4-4.3-1.7-6l-7-9.7c-0.5-0.7-1.3-1.1-2.1-1.1
					c-0.6,0-1.2,0.2-1.7,0.6c-27.9,22.5-69.2,37-105.2,37s-77.3-14.5-105.2-37c-0.5-0.4-1.1-0.6-1.7-0.6c-0.9,0-1.6,0.4-2.1,1.1
					l-7,9.7c-1.3,1.7-1.9,3.9-1.7,6L229.2,251.7z"/>
			</g>
		</g>
		<g id="path730">
			<path class="st2" d="M266.5,241.3c-1.1-0.5-2.1-0.6-3.2-0.4c-1.1,0.2-2.4,0.9-3.8,2c0,0.4,0.1,1.1,0.3,2.1
				c-0.4-0.2-0.8-0.4-1.2-0.6c-0.6-0.3-1.2-0.6-1.8-0.9c0.1-0.5,0.2-1,0.2-1.4c-0.3-0.2-0.6-0.3-0.9-0.5l-0.7,1.4
				c-0.2,0.4-0.4,0.7-0.5,1c0-0.5-0.1-0.9-0.3-1.2c-0.2-0.3-0.4-0.6-0.6-0.7l0,0c-0.6-0.3-1.2-0.6-1.8-1c0.1-0.5,0.2-1,0.3-1.4
				c-0.3-0.2-0.6-0.3-0.9-0.5l-0.8,1.5c-0.2,0.4-0.4,0.8-0.5,1c-0.1-0.6-0.3-1.2-0.6-1.7s-0.7-0.8-1.2-1.1s-1.1-0.4-1.6-0.3
				c-0.6,0-1.1,0.3-1.6,0.7c0.1-0.6,0-1.2-0.3-1.7s-0.7-1-1.3-1.3c-0.5-0.3-1-0.5-1.5-0.7c-0.2,0.5-0.4,1-0.7,1.4
				c0.5,0.1,1,0.3,1.4,0.6c0.6,0.3,0.9,0.7,1.1,1.2c0.2,0.5,0.1,0.9-0.2,1.5c-0.3,0.5-0.7,0.8-1.3,0.9c-0.6,0.1-1.2-0.1-2-0.5
				c-0.2,0.5-0.5,1-0.7,1.5c0.7,0.4,1.5,0.6,2.2,0.6c0.7,0,1.3-0.2,1.9-0.7c-0.1,0.7,0.1,1.3,0.4,1.9c0.3,0.6,0.9,1.1,1.7,1.6
				c0.3-0.5,0.6-0.9,0.9-1.4c-0.8-0.5-1.3-1-1.5-1.5c-0.2-0.5-0.2-1,0.1-1.6c0.3-0.5,0.6-0.8,1-0.9c0.4-0.1,0.9-0.1,1.3,0.2
				c0.5,0.3,0.8,0.7,1.1,1.2c0.2,0.5,0.4,1.2,0.4,2l-4.5,8.4c0.5,0.2,0.9,0.5,1.4,0.7l5.4-10.2c0.5,0.3,1.1,0.6,1.6,0.9
				c0.4,0.2,0.6,0.5,0.8,0.9s0.2,0.9,0.1,1.5l-4.5,8.8c0.5,0.2,0.9,0.5,1.4,0.7l5.3-10.3c0.6,0.3,1.2,0.6,1.8,0.9
				c0.5,0.2,1,0.5,1.5,0.7l-5.1,10.4c0.5,0.2,0.9,0.5,1.4,0.7l5.1-10.4c0.6,0.3,1.2,0.6,1.9,0.9c3.1,1.5,6.3,2.9,9.5,4.3
				c0.3,1,0.2,1.8,0,2.5c-0.2,0.4-0.4,0.7-0.8,0.9c-0.3,0.1-0.7,0.1-1.1-0.1c-0.3-0.1-0.6-0.4-0.8-0.6c-0.2-0.3-0.4-0.7-0.7-1.4
				c-0.3-0.7-0.6-1.2-0.8-1.5c-0.3-0.3-0.6-0.5-1-0.7c-0.5-0.2-1.1-0.3-1.7-0.1s-1,0.6-1.3,1.2c-0.4,0.9-0.4,1.9,0.1,3
				c0.5-0.2,1-0.4,1.5-0.6c-0.2-0.4-0.3-0.7-0.3-0.9s0-0.5,0.1-0.7s0.3-0.4,0.5-0.5s0.4-0.1,0.7,0c0.2,0.1,0.3,0.2,0.4,0.3
				s0.3,0.5,0.5,1c0.4,0.9,0.7,1.5,1,1.8c-0.6-0.1-1.1-0.1-1.5,0.1s-0.7,0.5-0.9,1c-0.2,0.4-0.3,0.9-0.3,1.5c0.5,0.1,1,0.2,1.4,0.3
				c0-0.1,0-0.3,0-0.5s0.1-0.3,0.1-0.4c0.3-0.6,0.8-0.7,1.5-0.4c0.6,0.2,0.9,0.6,1.1,1.2s0.1,1.2-0.1,1.8c-0.3,0.7-0.7,1.1-1.4,1.3
				c-0.6,0.2-1.4,0.1-2.2-0.2c-1.4-0.6-2.4-1.5-3-2.8s-1-3.1-1.1-5.5c-0.5,0.1-1,0.1-1.5,0.2c0.1,2.5,0.5,4.6,1.3,6.2
				c0.8,1.6,2,2.7,3.7,3.5c1.2,0.5,2.4,0.6,3.4,0.3c1-0.4,1.7-1.1,2.2-2.2c0.3-0.7,0.4-1.4,0.3-2.1s-0.4-1.3-0.9-1.8
				c0.7,0.1,1.3,0.1,1.8-0.2c0.5-0.3,0.9-0.8,1.2-1.5c0.3-0.7,0.4-1.5,0.3-2.4c0.7,0.3,1.4,0.6,2.1,0.9c0.7,0.3,1.4,0.6,2.2,0.9
				c0.5,0.2,1,0.4,1.4,0.5c-1.1,0.3-2.2,0.8-3.1,1.6c-0.9,0.8-1.6,1.8-2.1,3c-0.4,1-0.6,2-0.6,2.9s0.3,1.7,0.7,2.4
				c0.5,0.7,1.1,1.2,1.9,1.5c0.9,0.3,1.8,0.4,2.5,0.2c-0.1-0.5-0.1-1-0.2-1.5c-0.3,0.1-0.6,0.1-0.9,0.1s-0.5-0.1-0.8-0.2
				c-0.8-0.3-1.3-0.9-1.5-1.7c-0.2-0.8-0.1-1.9,0.4-3.1c0.3-0.9,0.9-1.6,1.5-2.3c0.7-0.7,1.4-1.2,2.3-1.5c0.8-0.3,1.6-0.5,2.2-0.4
				c0.1,0,0.2,0.1,0.4,0.1c4.3,1.6,8.6,3.1,13,4.4l0.4-1.4c-4.3-1.3-8.6-2.8-12.9-4.4c-0.1,0-0.2-0.1-0.4-0.1
				c-2-0.7-3.9-1.5-5.9-2.3c-4.4-1.8-8.8-3.7-13.1-5.8c-0.7-0.3-1.4-0.7-2-1c-0.2-0.8-0.3-1.4-0.3-1.8c1-0.8,1.9-1.2,2.7-1.4
				c0.8-0.2,1.6,0,2.5,0.3c0.9,0.4,1.6,1,2.3,1.9c0.6,0.8,1.4,2.2,2.2,4c0.4-0.2,0.8-0.5,1.2-0.7c-0.9-2-1.8-3.5-2.5-4.5
				C268.4,242.5,267.5,241.8,266.5,241.3L266.5,241.3z M435.6,237.3c-1.1,2.3-2.3,4.6-3.4,6.9c0.2,0.1,0.5,0.3,0.7,0.4
				c-3.3,1.6-6.5,3.2-9.9,4.7c-3.7,1.7-7.4,3.2-11.2,4.7l0.5,1.4c0.6-0.2,1.1-0.4,1.7-0.7l2.6,6.6c0.5,0.1,0.9,0.2,1.4,0.3
				c0.6-1.4,1.2-2.7,1.8-3.8c0.6-1.1,1.3-2.1,2-2.9c0,0.5,0,1.1,0.2,1.8c0.1,0.6,0.3,1.3,0.6,1.9c0.6,1.3,1.4,2.6,2.4,3.9l0.5,1.2
				c-0.7,0.1-1.4,0.2-2.1,0.5c-0.9,0.4-1.5,0.8-1.8,1.4s-0.4,1.2-0.1,1.9c0.3,0.7,0.8,1.1,1.5,1.3c0.7,0.2,1.4,0.1,2.1-0.2
				c0.8-0.3,1.4-0.8,1.8-1.4s0.6-1.3,0.5-2.1c1,0.1,2.4,0.4,4,0.9c0.1-0.5,0.3-0.9,0.4-1.4c-2.1-0.5-3.6-0.8-4.7-0.9
				c-0.1-0.2-0.2-0.5-0.3-0.8l-0.5-1.1c-0.5-0.6-1-1.3-1.3-1.8c-0.4-0.5-0.7-1.1-0.9-1.7c-0.4-0.8-0.6-1.6-0.7-2.3
				c-0.1-0.7-0.2-1.5-0.1-2.3c-0.6-0.2-1.1-0.5-1.7-0.7c-1,1-1.8,2-2.5,3c-0.7,1-1.2,2.1-1.7,3.2l-2.1-5.1c2.7-1.1,5.5-2.3,8.2-3.5
				c1.7-0.8,3.4-1.6,5.1-2.4c0.8-0.4,1.3-0.7,1.7-0.8c-0.6,0.8-0.9,1.5-1.1,2.3c-0.1,0.8-0.1,1.4,0.2,2.1c0.4,0.7,0.8,1.2,1.5,1.5
				c0.6,0.2,1.3,0.2,2-0.2c0.5-0.2,0.9-0.6,1.3-1s0.7-0.9,0.9-1.6c0.2,0.3,0.5,0.6,0.6,0.9c0.4,0.8,0.5,1.5,0.2,2.2
				c-0.3,0.6-0.8,1.2-1.7,1.6c-1.3,0.6-2.7,0.6-4.1,0c-1.4-0.7-2.8-2-4.5-4c-0.4,0.3-0.8,0.7-1.2,1c1.8,2.3,3.5,3.8,5.3,4.5
				c1.7,0.8,3.4,0.8,5.1,0c1.3-0.7,2.2-1.5,2.6-2.5s0.3-2.1-0.2-3.2c-0.4-0.8-0.9-1.4-1.4-1.9c-0.6,0.1-1.2,0.1-1.8,0.2
				c-0.3,0.8-0.6,1.3-0.8,1.7c-0.3,0.3-0.6,0.6-1,0.8c-0.3,0.1-0.5,0.2-0.8,0.1c-0.3-0.1-0.5-0.3-0.6-0.6c-0.3-0.5-0.3-1.1,0-1.8
				c0.2-0.7,0.7-1.4,1.3-2.3c0.9,0.7,1.9,1.1,2.9,1.1s2.1-0.3,3.2-0.9c0,1,0.4,2.1,1,3.4c0.7,1.3,1.6,2.6,2.9,4
				c0.4-0.3,0.8-0.7,1.2-1c-0.6-0.6-1.1-1.1-1.5-1.6s-0.7-1.1-1-1.7c-0.4-0.8-0.7-1.4-0.8-2c-0.1-0.6-0.2-1.2-0.2-1.9
				c-0.5-0.3-0.9-0.6-1.4-1c-0.3,0.2-0.6,0.4-0.9,0.5c-0.8,0.4-1.6,0.7-2.3,0.7c-0.7,0-1.4-0.2-2-0.6c2-1,4.1-2.1,6.1-3.1
				c0.1-0.1,0.2-0.1,0.4-0.2c0.3-0.2,0.7-0.4,1-0.5c1.3-0.1,3.5,0.4,4.5,0.8c-0.5,0.8-1,1.5-1.4,2.2s-0.7,1.3-1,1.8
				c0.5,0.4,1,0.9,1.5,1.3c1.5-0.5,2.9-0.8,4.3-0.8s2.8,0.4,4.4,1.1c0.5-0.3,0.9-0.5,1.3-0.8l-5.7-10c0.6-0.3,1.2-0.7,1.8-1
				l-0.8-1.3c-3.5,2-7.1,4-10.7,5.9c-0.1,0.1-0.2,0.1-0.4,0.2c-1.6,0.8-3.1,1.6-4.7,2.4c1-2,1.9-4,2.8-6
				C436.4,237.7,436,237.5,435.6,237.3L435.6,237.3z M331.9,265.3l-0.2,2.1c0,0.5-0.1,0.8-0.1,1.2c0,0.3,0,0.6,0,0.7
				c-0.7-1-1.3-1.8-2-2.3c-0.6-0.5-1.4-0.8-2.2-0.9c-0.9-0.1-1.7,0.1-2.5,0.6s-1.6,1.3-2.4,2.4c0.5,0.5,0.9,1,1.4,1.6
				c0.4-0.1,0.8-0.2,1.1-0.3c0.3,0,0.6,0,0.9,0c0.4,0,0.7,0.2,0.9,0.4c0.2,0.2,0.3,0.5,0.3,0.8c-0.1,0.4-0.3,0.8-0.7,1.1
				c-0.4,0.3-1.1,0.6-2,0.9c0.3,0.5,0.5,1.1,0.8,1.6c1.1-0.5,2-1,2.5-1.6s0.9-1.2,0.9-2c0.1-0.7-0.1-1.3-0.5-1.8s-1-0.8-1.7-0.9
				s-1.4,0-1.9,0.2c0.5-0.6,1-1,1.5-1.2s0.9-0.3,1.5-0.2c0.7,0.1,1.3,0.4,1.9,1s1.2,1.5,2,2.9l-0.6,6.9c-0.3-0.4-0.6-0.7-1-0.9
				c-0.4-0.2-0.8-0.4-1.4-0.4c-0.4,0-1-0.1-1.7,0c-0.7,0-1.3,0-1.7,0c-1-0.1-1.6-0.4-2-0.9c-0.4-0.5-0.5-1.1-0.4-1.9
				c0.1-0.5,0.2-1,0.3-1.3c-0.5-0.1-1-0.3-1.5-0.4c-0.2,0.4-0.3,0.9-0.4,1.5c-0.2,1.3,0,2.3,0.7,3c0.6,0.8,1.7,1.2,3.1,1.4
				c0.4,0.1,1.1,0.1,1.9,0c0.8,0,1.4,0,1.9,0c0.5,0.1,1,0.3,1.4,0.6c0.4,0.3,0.6,0.8,0.7,1.4c0.5,0,1,0.1,1.5,0.1l1-12.4
				c0.6,0,1.2,0.1,1.8,0.1c0.4,0,0.8,0.2,1.1,0.5c0.3,0.3,0.5,0.7,0.7,1.3L336,280c0.5,0,1.1,0.1,1.6,0.1l0.6-11.5
				c0.7,0,1.3,0.1,2,0.1c0.8,0,1.5,0,2.3,0.1c0.5,0,1,0,1.5,0c-1,0.7-1.7,1.5-2.3,2.6c-0.6,1.1-0.9,2.2-0.9,3.5
				c0,1.1,0.1,2.1,0.5,2.9c0.3,0.8,0.8,1.5,1.5,2s1.4,0.7,2.3,0.7c0.3,0,0.6,0,0.9-0.1c0.6-0.1,1.1-0.3,1.6-0.7
				c-0.2-0.4-0.5-0.9-0.7-1.3c-0.3,0.2-0.5,0.3-0.8,0.4H346c-0.2,0.1-0.5,0.1-0.8,0.1c-0.8,0-1.5-0.4-2-1.1s-0.8-1.7-0.7-3
				c0-0.9,0.2-1.8,0.6-2.7c0.4-0.9,0.9-1.6,1.6-2.2c0.5-0.4,0.9-0.7,1.3-0.9c0.2-0.1,0.4-0.2,0.6-0.2c0.1,0,0.3,0,0.4,0
				c0.2,0,0.4,0,0.6,0c-0.1,0.4-0.1,0.8-0.2,1.2c1.3,0.2,2.3,0.4,2.9,0.7c0.6,0.3,1,0.9,1.2,1.6c-0.1,0-0.1,0-0.2,0s-0.1,0-0.2,0
				c-0.5,0-1.1,0.2-1.6,0.4c-0.5,0.3-0.9,0.6-1.1,1.1c-0.3,0.5-0.4,1-0.4,1.6c0,0.7,0.2,1.4,0.7,2s1.1,1.1,2,1.4
				c0.2-0.5,0.5-1,0.7-1.5c-0.6-0.2-1.1-0.5-1.3-0.8c-0.3-0.3-0.4-0.7-0.4-1.1c0-0.5,0.1-0.9,0.4-1.2c0.3-0.3,0.7-0.4,1.3-0.5
				c0.6,0,1.3,0.2,2.1,0.7c0.8,0.5,1.6,1.2,2.4,2.1l0.2,3.4c0.5,0,1-0.1,1.6-0.1l-0.8-11.5c0.7,0,1.3-0.1,2-0.2l-0.1-1.5
				c-3.9,0.3-7.9,0.5-11.8,0.5c-0.1,0-0.3,0-0.4,0c-0.2,0-0.4,0-0.6,0c-1.9,0-3.7,0-5.6-0.1c-0.7,0-1.3-0.1-2-0.1
				c-0.1-0.5-0.2-0.9-0.4-1.4c-0.3,0-0.7,0-1-0.1l-0.1,1.6c0,0.4,0,0.8,0,1.1c-0.2-0.4-0.4-0.8-0.7-1c-0.3-0.2-0.6-0.4-0.9-0.4l0,0
				c-0.7,0-1.3-0.1-2-0.1c-0.1-0.5-0.2-0.9-0.3-1.4C332.6,265.3,332.2,265.3,331.9,265.3L331.9,265.3z M299.8,260.6l-0.4,1.4
				c0.4,0.1,0.7,0.2,1.1,0.3c-0.2,0.4-0.3,0.7-0.5,1.1c1.1,0.5,1.9,0.9,2.4,1.3s0.8,0.8,0.9,1.4c0.1,0.5,0.1,1.4,0,2.7
				c-0.5,0.5-0.9,0.8-1.2,1c-0.3,0.2-0.6,0.3-0.9,0.2c-0.3-0.1-0.5-0.2-0.7-0.5s-0.3-0.7-0.5-1.4c-0.5,0.1-0.9,0.3-1.4,0.4
				c0.2,0.9,0.6,1.6,0.9,2.1c0.4,0.5,0.8,0.9,1.4,1c0.6,0.2,1.1,0.1,1.6-0.2c0.5-0.3,1.2-0.9,2.1-1.9c0.5-0.5,0.8-0.9,1.1-1.2
				c0.3-0.3,0.5-0.4,0.6-0.5c0.2-0.1,0.4-0.1,0.6-0.1c0.2,0.1,0.4,0.2,0.6,0.5s0.4,0.6,0.6,1l-1.5,6.5c0.5,0.1,1,0.2,1.5,0.3
				l2.4-11.2c0.7,0.1,1.3,0.3,2,0.4l0.3-1.5C308.5,262.9,304.1,261.8,299.8,260.6L299.8,260.6z M317,264.6c-0.8-0.1-1.4,0-2,0.5
				c-0.6,0.4-1,1-1.1,1.8c-0.2,0.8,0,1.5,0.4,2.2c0.4,0.6,1,1,1.8,1.2c0.8,0.1,1.5,0,2.1-0.5c0.6-0.4,1-1.1,1.1-1.9s0-1.5-0.4-2.1
				C318.3,265.1,317.7,264.7,317,264.6L317,264.6z M363.2,266.3l0.2,1.5c0.4,0,0.7-0.1,1.1-0.1c0,0.4,0,0.8-0.1,1.2
				c1.2,0,2.1,0.1,2.7,0.3c0.6,0.2,1,0.5,1.4,0.9c0.3,0.4,0.6,1.3,1,2.5c-0.2,0.6-0.5,1.1-0.7,1.4s-0.5,0.5-0.8,0.5s-0.6,0-0.8-0.2
				c-0.3-0.2-0.6-0.6-1-1.1c-0.4,0.3-0.7,0.6-1.1,0.9c0.6,0.7,1.1,1.3,1.6,1.6c0.5,0.3,1.1,0.5,1.7,0.4c0.6-0.1,1.1-0.3,1.4-0.8
				c0.4-0.4,0.8-1.3,1.2-2.6c0.2-0.7,0.4-1.2,0.5-1.5s0.3-0.6,0.4-0.7c0.1-0.2,0.3-0.2,0.5-0.3c0.2,0,0.5,0,0.7,0.2
				c0.3,0.2,0.6,0.4,0.9,0.7l1.1,6.5c0.5-0.1,1-0.2,1.5-0.3l-2-11.3c0.7-0.1,1.3-0.2,2-0.4c0.2,0,0.4-0.1,0.6-0.1l0.1,1.2
				c1.3-0.1,2.3,0,3,0.2c0.6,0.2,1.1,0.7,1.5,1.4c-0.1,0-0.1,0-0.2,0s-0.1,0-0.2,0c-0.5,0.1-1,0.3-1.5,0.7c-0.4,0.3-0.7,0.8-0.9,1.3
				c-0.2,0.5-0.2,1.1-0.1,1.6c0.1,0.7,0.5,1.3,1,1.8c0.6,0.5,1.3,0.8,2.2,1c0.2-0.5,0.3-1.1,0.5-1.6c-0.6-0.1-1.1-0.3-1.5-0.5
				c-0.3-0.2-0.5-0.6-0.6-1c-0.1-0.5,0-0.9,0.2-1.2c0.3-0.3,0.6-0.6,1.2-0.7s1.3,0,2.2,0.3c0.8,0.3,1.7,0.9,2.7,1.7l0.8,3.3l0.3,1.1
				c-0.7-0.1-1.5,0-2.1,0.1c-0.9,0.2-1.6,0.6-2,1.1s-0.6,1.1-0.4,1.8c0.2,0.7,0.6,1.2,1.2,1.5c0.7,0.3,1.4,0.4,2.1,0.2
				c0.9-0.2,1.6-0.6,2-1.1c0.5-0.5,0.8-1.2,0.9-2c1,0.3,2.3,0.8,3.8,1.6c0.2-0.4,0.4-0.9,0.6-1.3c-2-0.9-3.4-1.4-4.4-1.7
				c0-0.2-0.1-0.5-0.2-0.8l-0.3-1.1l-2.7-11c0.7-0.2,1.3-0.3,2-0.5s1.5-0.4,2.2-0.6c0.5-0.1,1-0.3,1.4-0.5c-0.7,0.9-1.2,1.9-1.5,3.1
				c-0.2,1.2-0.2,2.4,0.1,3.6c0.3,1.1,0.7,2,1.3,2.7c0.6,0.7,1.2,1.2,2,1.5c0.8,0.3,1.6,0.3,2.4,0c0.9-0.3,1.6-0.7,2.1-1.4
				c-0.4-0.3-0.7-0.7-1.1-1c-0.2,0.2-0.4,0.4-0.6,0.6c-0.2,0.1-0.5,0.3-0.8,0.3c-0.8,0.2-1.5,0.1-2.2-0.4c-0.7-0.5-1.2-1.4-1.5-2.7
				c-0.2-0.9-0.3-1.8-0.2-2.7c0.1-0.9,0.5-1.8,0.9-2.5c0.5-0.8,1-1.3,1.5-1.7c0.1,0,0.3-0.1,0.4-0.1c1.2-0.3,2.3-0.7,3.5-1.1
				l2.1,6.7c0.5,0.1,0.9,0.3,1.4,0.4c0.7-1.4,1.3-2.6,2.1-3.6c0.7-1.1,1.4-2,2.2-2.7c-0.1,0.5,0,1.1,0.1,1.8
				c0.1,0.7,0.2,1.3,0.5,1.9c0.4,1.2,0.9,2.3,1.4,3.2c-0.9-0.3-1.7-0.3-2.6,0c-0.5,0.2-1.1,0.5-1.9,0.9c-0.3,0.2-0.6,0.3-0.8,0.5
				c-0.3,0.1-0.5,0.3-0.8,0.3c-0.7,0.2-1.2,0.2-1.7,0s-0.8-0.6-1-1.3c-0.1-0.3-0.2-0.7-0.2-1.1c-0.5,0.1-1,0.2-1.5,0.3
				c0,0.5,0.1,0.9,0.2,1.4c0.2,0.7,0.5,1.2,1,1.7c0.5,0.4,1,0.6,1.7,0.7s1.4,0,2.1-0.2c0.5-0.1,1.1-0.4,1.9-0.9
				c0.3-0.2,0.6-0.3,0.9-0.5s0.6-0.3,0.9-0.4c0.6-0.2,1.2-0.2,1.7-0.1s1,0.5,1.3,1c0.4-0.3,0.9-0.6,1.3-0.9c-0.6-0.8-1-1.6-1.4-2.2
				c-0.3-0.6-0.6-1.4-0.9-2.2c-0.4-1-0.6-1.9-0.7-2.6s-0.1-1.5,0-2.2c-0.6-0.3-1.1-0.6-1.7-0.8c-1,0.9-1.9,1.8-2.7,2.8
				c-0.8,1-1.4,2-1.9,3.1l-1.7-5.2c2.8-0.9,5.6-1.9,8.4-2.9l-0.5-1.4c-4.4,1.6-8.8,3.1-13.2,4.4c-0.1,0-0.3,0.1-0.4,0.1
				c-2,0.6-4,1.1-6,1.7c-3.8,1-7.7,1.9-11.6,2.6C372,265.1,367.6,265.8,363.2,266.3L363.2,266.3z M316.7,265.9
				c0.4,0.1,0.7,0.3,0.9,0.6c0.2,0.3,0.3,0.7,0.2,1.1c-0.1,0.4-0.3,0.8-0.6,1c-0.3,0.2-0.7,0.3-1.1,0.2c-0.4-0.1-0.7-0.3-0.9-0.6
				c-0.2-0.3-0.3-0.7-0.2-1.1c0.1-0.4,0.3-0.7,0.6-1C316,265.9,316.3,265.9,316.7,265.9z M301.6,262.7c2.5,0.7,5,1.3,7.6,1.9
				l-0.4,1.9c-0.1,0.5-0.2,1-0.2,1.3c-0.3-0.5-0.5-0.8-0.8-1.1c-0.2-0.2-0.5-0.4-0.8-0.4c-0.4-0.1-0.8,0-1.2,0.2
				c-0.4,0.2-0.8,0.6-1.2,1.1c0.2-1.3,0.1-2.3-0.3-2.9C303.8,263.9,302.9,263.2,301.6,262.7L301.6,262.7z M348.7,268.7
				c2.2,0,4.4-0.1,6.6-0.3l0.3,4.6c0,0.6,0.1,1.1,0.1,1.5c-1-1-2-1.7-2.9-2v-0.1v-0.1c0-1-0.4-1.8-1.1-2.4
				C351,269.3,350,268.9,348.7,268.7L348.7,268.7z M365.6,267.5c2.6-0.3,5.1-0.7,7.7-1.1l0.3,1.9c0.1,0.5,0.2,1,0.3,1.3
				c-0.4-0.3-0.8-0.6-1.1-0.7c-0.3-0.1-0.6-0.1-0.9-0.1c-0.4,0.1-0.7,0.3-1,0.6c-0.2,0.4-0.5,0.9-0.7,1.5c-0.3-1.2-0.8-2.1-1.4-2.6
				C368,267.8,367,267.6,365.6,267.5L365.6,267.5z M378.5,265.4c2.2-0.4,4.3-0.9,6.5-1.4l1.1,4.5c0.1,0.6,0.3,1.1,0.4,1.5
				c-1.2-0.8-2.2-1.3-3.2-1.5v-0.1v-0.1c-0.2-0.9-0.7-1.7-1.5-2.2C380.8,265.6,379.8,265.3,378.5,265.4L378.5,265.4z M443,241
				c1.5-0.8,3-1.6,4.4-2.5l3.9,6.9c0.1,0.2,0.4,0.6,0.8,1.3c-1.3-0.5-2.6-0.7-3.8-0.7c-1.2,0-2.4,0.2-3.6,0.5c0.3-0.5,0.6-1,1-1.7
				c0.4-0.6,0.9-1.3,1.5-2.1c-0.2-0.3-0.4-0.6-0.7-1C445.6,241.5,443.8,241,443,241L443,241z M289.4,260.1c-0.8-0.3-1.5-0.3-2.2-0.1
				c-0.6,0.2-1.1,0.7-1.3,1.4c-0.2,0.5-0.2,1.1-0.2,1.8c0.5,0.1,1,0.1,1.5,0.2c0-0.5,0-0.9,0.1-1.1c0.3-0.7,0.8-1,1.7-0.7
				c0.7,0.2,1.2,0.7,1.5,1.5c0.3,0.7,0.3,1.5,0,2.4c-0.3,1-0.8,1.6-1.5,2s-1.6,0.4-2.7,0c-1.4-0.5-2.4-1.4-2.8-2.9
				c-0.5-1.5-0.6-3.5-0.3-6.2c-0.5,0-1-0.1-1.5-0.1c-0.3,3-0.2,5.3,0.5,7.1c0.7,1.8,1.9,3,3.7,3.6c1.5,0.5,2.8,0.5,3.9-0.1
				c1.1-0.6,1.8-1.5,2.3-2.9c0.3-0.8,0.3-1.7,0.2-2.5c-0.1-0.8-0.4-1.5-0.9-2.1C290.8,260.7,290.2,260.3,289.4,260.1L289.4,260.1z
				 M314,270.6c-0.4,0.4-0.8,0.8-1.2,1.1c1,0.9,1.8,1.9,2.5,2.9s1.4,2.4,2.1,4.1c0.5-0.2,1-0.3,1.4-0.5c-0.5-1.5-1.2-2.9-2.1-4.2
				C315.9,272.6,314.9,271.5,314,270.6L314,270.6z M447.1,249.2c-0.3,0.2-0.5,0.4-0.6,0.7c-0.1,0.3-0.1,0.6,0.1,0.9
				c0.2,0.3,0.4,0.5,0.7,0.6c0.3,0.1,0.6,0.1,0.9-0.1c0.3-0.2,0.5-0.4,0.6-0.7s0.1-0.6-0.1-0.9s-0.4-0.5-0.7-0.6
				C447.7,249.1,447.4,249.1,447.1,249.2L447.1,249.2z M386,277.8c0.6-0.1,1.3-0.2,2.1-0.1c0,0.6-0.2,1.1-0.5,1.4
				c-0.3,0.4-0.7,0.6-1.3,0.7c-0.4,0.1-0.8,0.1-1-0.1c-0.3-0.1-0.4-0.4-0.5-0.7c-0.1-0.3,0-0.6,0.2-0.8
				C385.2,278,385.5,277.9,386,277.8L386,277.8z M424.1,265.4c0.6-0.3,1.3-0.4,2-0.4c0.1,0.6,0,1.1-0.2,1.5s-0.6,0.7-1.1,0.9
				c-0.4,0.2-0.7,0.2-1,0.1c-0.3-0.1-0.5-0.3-0.6-0.6c-0.1-0.3-0.1-0.6,0.1-0.9C423.3,265.8,423.6,265.6,424.1,265.4L424.1,265.4z"
				/>
		</g>
	</g>
</g>
</svg>
