<?xml version="1.0" encoding="utf-8"?>
<!-- Generator: Adobe Illustrator 24.3.0, SVG Export Plug-In . SVG Version: 6.00 Build 0)  -->
<svg version="1.1" id="Layer_1" xmlns="http://www.w3.org/2000/svg" xmlns:xlink="http://www.w3.org/1999/xlink" x="0px" y="0px"
	 viewBox="0 0 70.3 79.9" style="enable-background:new 0 0 70.3 79.9;" xml:space="preserve">
<style type="text/css">
	.st0{fill:#252525;}
</style>
<g>
	<path class="st0" d="M45.8,27.7c0.9-0.9,1.9-1.2,3-0.7c1.3,0.6,2,1.6,2,3c0,2.1,0,4.1,0,6.2c0,0.3,0,0.6,0,1c-0.7,0-1.3,0-2,0
		c0-1.2,0-2.3,0-3.4c0-1.1,0-2.2,0-3.3c0-0.3,0-0.5-0.1-0.8c-0.2-0.5-0.5-0.8-1-0.7c-0.5,0.1-0.8,0.4-0.8,1c0,2.2,0,4.4,0,6.6
		c0,0.2,0,0.4,0,0.7c-0.6,0-1.2,0-1.8,0c0-0.3,0-0.5,0-0.8c0-1.8,0-3.6,0-5.4c0-0.4-0.1-0.8-0.2-1.2c-0.2-0.5-0.6-0.7-1.2-0.6
		c-0.5,0.1-0.7,0.5-0.7,0.9c0,2.1,0,4.2-0.1,6.2c0,0.3,0,0.5,0,0.9c-0.8,0-1.5,0-2.3,0c0-0.3,0-0.5,0-0.8c0-1.9,0-3.9,0-5.8
		c0-0.6,0.1-1.1,0.3-1.6c0.6-1.8,2.4-2.5,4.1-1.6C45.3,27.4,45.6,27.6,45.8,27.7z"/>
	<path class="st0" d="M18.4,26.9c1.4,0,2.6,0,3.8,0c1.2,0,2.5,0,3.7,0.1c1.4,0.2,2.3,1.1,2.4,2.4c0.1,0.7-0.2,1.5-0.4,2.2
		c-0.1,0.3-0.1,0.5,0.1,0.8c0.7,1,0.8,2,0.2,3.1c-0.6,1.1-1.6,1.7-2.8,1.7c-2.2,0.1-4.4,0-6.6,0c-0.4,0-0.5-0.1-0.5-0.5
		c0-1.9-0.2-1.5,1.4-1.5s3.2,0,4.8,0c0.4,0,0.8,0,1.2-0.1c0.5-0.1,0.8-0.5,0.8-1.1c-0.1-0.5-0.4-0.8-1-0.8c-2.1,0-4.2,0-6.4,0
		c-0.6,0-0.8-0.1-0.7-0.7c0-0.3,0-0.7,0-1.2c0.5,0,0.9,0,1.3,0c1.8,0,3.6,0,5.4-0.1c0.3,0,0.7-0.2,0.9-0.4c0.6-0.6,0.4-1.3-0.4-1.6
		c-0.2-0.1-0.4-0.1-0.7-0.1c-1.8,0-3.7,0-5.5,0c-1.3,0-1,0.1-1.1-1.1C18.4,27.8,18.4,27.4,18.4,26.9z"/>
	<path class="st0" d="M40.3,27.4c0,0.6,0,1.2,0,1.8c-0.3,0-0.5,0-0.7,0c-2.3,0-4.5,0-6.8,0c-0.2,0-0.4-0.1-0.6,0
		c-0.3,0.2-0.7,0.4-0.7,0.6c0,0.3,0.2,0.7,0.5,0.8c0.4,0.2,0.9,0.2,1.4,0.3c1.2,0,2.5,0,3.7,0c1.9,0.1,3.3,1.9,2.8,3.7
		c-0.3,1.1-1.3,2-2.5,2c-2.4,0-4.8,0-7.2,0c-0.3,0-0.5-0.1-0.5-0.4c0-0.4,0-0.9,0-1.4c0.3,0,0.6,0,0.8,0c1.9,0,3.9,0,5.8,0
		c0.4,0,0.8-0.1,1.1-0.4c0.5-0.4,0.4-1.1-0.2-1.3C36.9,33,36.6,33,36.3,33c-1.2,0-2.4,0-3.6,0c-1,0-2-0.3-2.7-1.2
		c-0.8-0.9-0.8-1.9-0.3-2.9s1.2-1.7,2.4-1.7c2.4,0,4.9,0,7.3,0C39.7,27.4,40,27.4,40.3,27.4z"/>
	<g>
		<path class="st0" d="M32.8,52.4c0,0.7,0,1.3,0,2c-0.2,0-0.4,0-0.6,0c-1.9,0-3.9,0-5.8,0c-2.2,0-3.9-1.9-3.7-4.1
			c0.2-2.5,1.9-4,4.4-4c5.9,0,11.8,0,17.7,0c0.6,0,0.8-0.2,0.8-0.8c0.1-1.9-1-2.2-2.2-2.2c-1.7,0-3.5,0-5.2,0
			c-0.4,0-0.6-0.1-0.6-0.6s0-0.9,0-1.5c0.3,0,0.6,0,0.8,0c1.9,0,3.8,0,5.7,0s3.5,1.4,3.6,3.3c0,0.3,0,0.6,0,0.9
			c-0.1,2.2-1.2,3.2-3.4,3.2c-5.6,0-11.2,0-16.8,0c-0.4,0-0.8,0-1.2,0.1c-0.9,0.2-1.5,1-1.4,1.9c0,0.8,0.6,1.4,1.5,1.5
			c1.2,0.1,2.5,0.1,3.7,0.1C30.9,52.4,31.8,52.4,32.8,52.4z"/>
		<path class="st0" d="M32.8,63.6c0,0.5,0,1,0,1.5c0,0.2,0,0.3,0,0.6c-0.4,0-0.7,0-1,0c-1.8,0-3.5,0-5.3,0c-1.8,0.1-3.8-1.2-3.8-3.7
			c0-1.8,0.7-3.5,2.9-4.2c0.5-0.2,1.1-0.2,1.6-0.2c5.9,0,11.7,0,17.6,0c0.9,0,0.9,0,0.9-0.9c0-1.5-0.6-2.1-2.1-2.1
			c-1.7,0-3.5,0-5.2,0c-0.5,0-0.8-0.1-0.8-0.7c0.1-1.5-0.2-1.3,1.3-1.3c1.7,0,3.4,0.1,5.1,0c1.5-0.1,3.3,1.2,3.6,2.9
			c0.1,0.6,0.2,1.3,0.1,1.9c-0.2,1.7-1.4,2.7-3.2,2.7c-5.7,0-11.5,0-17.2,0c-0.4,0-0.8,0-1.1,0.1c-0.8,0.2-1.3,1-1.3,1.9
			c0.1,0.8,0.5,1.4,1.4,1.4c1.2,0.1,2.5,0.1,3.7,0.1C30.9,63.6,31.8,63.6,32.8,63.6z"/>
		<path class="st0" d="M31.3,43.4c-2.3,0-4.5,0-6.8,0c-0.3,0-0.7,0-1-0.1c-0.4-0.1-0.5-0.4-0.2-0.7s0.6-0.6,1-0.8
			c0.9-0.5,1.8-1,2.7-1.4c1.2-0.6,2.4-0.2,3.4,0.4c0.7,0.4,1.3,0.6,2.1,0.6c0.4,0,0.6,0.1,0.6,0.6c0,1.5,0,1.5-1.4,1.5
			C31.6,43.3,31.4,43.3,31.3,43.4C31.3,43.3,31.3,43.4,31.3,43.4z"/>
		<path class="st0" d="M45.5,65.8c-0.2,0-0.4,0.1-0.6,0.1c-2.3,0-4.7,0-7,0c-0.5,0-0.6-0.2-0.6-0.6c0-1.6,0-1.6,1.6-1.6
			c2,0,3.9,0.5,5.8,1.3c0.3,0.1,0.6,0.4,0.9,0.6C45.6,65.7,45.6,65.7,45.5,65.8z"/>
		<path class="st0" d="M36.2,38.5c0,1,0,1.9,0,2.8c0,1.2,0,2.4,0,3.6c0,0.4-0.1,0.6-0.6,0.6c-1.8-0.1-1.4,0.2-1.4-1.4
			c0-1.7,0-3.3,0-5c0-0.5,0.2-0.7,0.6-0.6C35.2,38.6,35.7,38.5,36.2,38.5z"/>
		<path class="st0" d="M36.1,67.4c-0.6,0-1.1,0-1.6,0c-0.1,0-0.4-0.2-0.4-0.3c0-1.9,0-3.9,0-5.9c0.6,0,1.1,0,1.6,0
			c0.1,0,0.4,0.2,0.4,0.3C36.2,63.4,36.1,65.4,36.1,67.4z"/>
		<path class="st0" d="M36.2,53.2c0,0.8,0,1.5,0,2.3c0,0.4-0.1,0.6-0.5,0.6c-1.4,0-1.4,0.1-1.5-1.4c0-1.3,0-2.6,0-3.9
			c0-0.4,0.1-0.6,0.6-0.6c1.8,0,1.4-0.2,1.4,1.3C36.2,52.1,36.2,52.6,36.2,53.2z"/>
	</g>
	<path class="st0" d="M57.5,27.7H54c0,10.8,0,23.3,0,34.1c0,1.1-0.1,2.3-0.4,3.3c-0.7,2.6-2.1,4.6-4.9,5.5C47.8,70.9,47,71,46.1,71
		c-3.7,0-7.3,0-11,0s-7.3,0-11,0c-0.9,0-1.8-0.1-2.6-0.4c-2.7-0.9-4.2-2.9-4.9-5.5c-0.3-1.1-0.4-2.2-0.4-3.3
		c-0.1-16.3,0-28.7,0-34.1h-3.5c0,9.5,0,19.9,0,29.4c0,0.3,0,0.7,0,1c0,2.2,0,4.3,0.2,6.5c0.3,2.7,1.3,5.1,3.3,6.9
		c0.2,0.1,0.3,0.3,0.5,0.4c1.9,1.9,4.3,3,7.2,3c2,0,3.9,0,5.9,0c0.9,0,1.8,0,2.7,0c0.9,0,1.7,0,2.6,0c0.9,0,1.7,0,2.6,0
		c0.9,0,1.8,0,2.7,0c2,0,3.9,0,5.9,0c3,0,5.4-1,7.2-3c0.2-0.1,0.3-0.3,0.5-0.4c2-1.9,3.1-4.3,3.3-6.9c0.2-2.1,0.2-4.3,0.2-6.5
		c0-0.3,0-0.7,0-1L57.5,27.7z"/>
	<g>
		<path class="st0" d="M63.6,65.1V27.9c0-4.2-1.5-7.8-4.8-10.5c0,0,0,0-0.1,0c-0.1-0.1-0.2-0.2-0.3-0.3c-0.2-0.1-0.3-0.2-0.5-0.4
			c-0.1,0-0.1-0.1-0.1-0.1c-1.5-1-3.1-1.6-4.9-1.7c-0.1,0-0.1,0-0.2,0c-0.1,0-0.2,0-0.3,0c-1,0-2,0-2.9,0c-1.7,0-3.5,0-5.2,0
			c-0.2,0-0.5,0-0.7,0c-1,0-2,0.2-3,0.5h-0.1c-0.1,0-0.2,0.1-0.3,0.1c-1.6,0.6-3,1.7-4.2,3c-0.2,0.2-0.5,0.4-0.7,0.6
			c-0.3-0.2-0.5-0.4-0.7-0.6c-1.2-1.3-2.6-2.4-4.2-3c-0.1,0-0.2-0.1-0.3-0.1H30c-0.9-0.3-1.9-0.5-3-0.5c-0.2,0-0.5,0-0.7,0
			c-1.7,0-3.5,0-5.2,0c-1,0-2,0-2.9,0c-0.1,0-0.2,0-0.3,0c-0.1,0-0.1,0-0.2,0c-1.8,0-3.5,0.6-4.9,1.7c-0.1,0-0.1,0.1-0.1,0.1
			c-0.2,0.1-0.3,0.2-0.5,0.4c-0.1,0.1-0.2,0.2-0.3,0.3c0,0,0,0-0.1,0C8.6,20.1,7.1,23.7,7,27.9v37.2h3.6c0-12.7,0-26.2,0-38.9
			c0-0.6,0-1.2,0.1-1.9c0.3-2.4,2-4.6,4.2-5.8l3.3-0.8c0.6,0,1.3-0.1,1.9-0.1c1.7,0,3.4,0,5.1,0c0.8,0,1.6,0.1,2.4,0.2
			c1.4,0.3,2.7,0.9,3.8,2s2.1,2.3,2.2,4c0,0.1,0.3,0.3,0.4,0.3c0.1,0,0.1,0,0.2,0h0.1c0.1,0,0.2,0,0.2,0c0.3,0,0.6,0,0.9,0
			c0.3,0,0.6,0,0.9,0c0.1,0,0.2,0,0.2,0c0.1,0,0.1,0,0.1,0c0.1,0,0.1,0,0.2,0c0.2,0,0.4-0.2,0.4-0.3c0.1-1.7,1.1-2.9,2.2-4
			c1.1-1,2.4-1.7,3.8-2c0.8-0.1,1.6-0.1,2.4-0.2c1.7,0,3.4,0,5.1,0c0.6,0,1.3,0.1,1.9,0.1l3.3,0.8c2.2,1.1,3.9,3.4,4.2,5.8
			C60,25,60,25.7,60,26.3c0,12.7,0,26.2,0,38.9L63.6,65.1L63.6,65.1z"/>
		<path class="st0" d="M34.2,14.3c0-0.4-0.1-0.6-0.5-0.6c-1.3-0.2-2.6-0.6-3.7-1.4c-1.3-0.9-2.3-2.4-2.4-3.6
			c1.1,0.9,2.2,1.9,3.8,2.3c-0.7-1.3-1.1-2.6-0.5-4c1,1.2,1.7,2.5,3.1,3.4c0-2,0-3.8,1.2-5.4l0,0c1.3,1.6,1.2,3.4,1.2,5.4
			c1.4-0.9,2.1-2.2,3.1-3.4c0.6,1.4,0.2,2.7-0.5,4c1.6-0.4,2.6-1.4,3.8-2.3c-0.2,1.2-1.2,2.7-2.4,3.6c-1.1,0.8-2.4,1.2-3.7,1.4
			c-0.5,0.1-0.5,0.3-0.5,0.6V17h-1.9L34.2,14.3z"/>
	</g>
</g>
</svg>
