<?xml version="1.0" encoding="utf-8"?>
<!-- Generator: Adobe Illustrator 24.3.0, SVG Export Plug-In . SVG Version: 6.00 Build 0)  -->
<svg version="1.1" id="Layer_1" xmlns="http://www.w3.org/2000/svg" xmlns:xlink="http://www.w3.org/1999/xlink" x="0px" y="0px"
	 viewBox="0 0 165.1 173.3" style="enable-background:new 0 0 165.1 173.3;" xml:space="preserve">
<style type="text/css">
	.st0{fill:#8E1913;}
	.st1{fill:url(#SVGID_1_);}
	.st2{fill:url(#SVGID_2_);}
	.st3{fill:#AA1917;}
	.st4{fill:url(#SVGID_3_);}
	.st5{fill:url(#SVGID_4_);}
	.st6{fill:url(#SVGID_5_);}
	.st7{fill:url(#SVGID_6_);}
</style>
<g>
	<g>
		<path class="st0" d="M110.6,161.9H54.5c-19.2,0-34.8-15.6-34.8-34.8V49.8c0-21.2,17.2-38.4,38.4-38.4H107
			c21.2,0,38.4,17.2,38.4,38.4v77.3C145.4,146.3,129.8,161.9,110.6,161.9z M58.1,17.2c-18,0-32.6,14.6-32.6,32.6v77.3
			c0,16,13,29,29,29h56.1c16,0,29-13,29-29V49.8c0-18-14.6-32.6-32.6-32.6H58.1z"/>
	</g>
	<g>
		<g>
			<linearGradient id="SVGID_1_" gradientUnits="userSpaceOnUse" x1="52.5979" y1="45.4197" x2="120.6326" y2="68.1397">
				<stop  offset="0" style="stop-color:#AD1917"/>
				<stop  offset="0.9274" style="stop-color:#901913"/>
				<stop  offset="1" style="stop-color:#8E1913"/>
			</linearGradient>
			<path class="st1" d="M97.4,96.1c-0.3,0-0.6,0-0.9-0.1c-1.7-0.2-3.1-1.1-4.1-2.5l-5.1-6.9c-0.5-0.6-1.1-1.1-1.8-1.4L48.8,68.1
				c-3.6-1.6-6.1-5-6.5-9c-0.4-4,1.2-7.8,4.5-10.2l34.1-25.1c3.1-2.3,7.1-2.8,10.7-1.4c3.6,1.4,6.2,4.5,6.9,8.3l7.4,40.2
				c0.1,0.6,0.4,1.2,0.7,1.7l6.7,9c0.6,0.7,0.8,1.7,0.6,2.6c-0.1,0.9-0.6,1.7-1.4,2.3l-11.4,8.5C100,95.7,98.7,96.1,97.4,96.1z
				 M87.5,27.3c-1.1,0-2.2,0.4-3.2,1.1L50.2,53.6c-1.6,1.2-2.4,3-2.1,4.9s1.4,3.6,3.2,4.4L88,80.1c1.6,0.7,2.9,1.8,3.9,3.2l5.1,6.9
				c0.2,0.2,0.5,0.3,0.7,0.1l9.6-7.1L102,76c-0.9-1.2-1.5-2.6-1.8-4.1l-7.4-40.2c-0.4-1.9-1.6-3.3-3.4-4
				C88.8,27.5,88.1,27.3,87.5,27.3z M108.6,85C108.7,85,108.7,85,108.6,85L108.6,85z"/>
		</g>
	</g>
	<g>
		<g>
			<linearGradient id="SVGID_2_" gradientUnits="userSpaceOnUse" x1="32.3246" y1="132.5812" x2="131.7748" y2="132.5812">
				<stop  offset="0" style="stop-color:#AD1917"/>
				<stop  offset="1" style="stop-color:#8E1913"/>
			</linearGradient>
			<path class="st2" d="M131.8,115.3v10.4c0,13.3-10.8,24.2-24.2,24.2H56.5c-13.3,0-24.2-10.8-24.2-24.2v-10.4h60.4
				c0.1,8.1,6.6,14.6,14.7,14.6s14.6-6.5,14.7-14.6H131.8z"/>
		</g>
	</g>
	<g>
		<g>
			<path class="st3" d="M114.8,108.5c-1.1-3-4-5.5-6.5-7.5l-4.6-3.7l-2.3,7.7c-0.2,0.5-0.3,1.1-0.5,1.6l-2.1,5.6l0,0
				c-0.2,0.5-0.3,1-0.4,1.5l0,0.1c-0.7,4,1.4,8.1,5.3,9.6c6.3,2.4,11.2-2.3,12.2-8.1C116.5,111.7,114.8,108.5,114.8,108.5z
				 M112.9,114.1c-0.6,3.6-3.6,6.4-7.5,5c-2.3-0.9-3.7-3.4-3.2-5.9l0,0c0.1-0.3,0.1-0.6,0.2-0.9l0,0l1.3-3.5c0.1-0.3,0.2-0.6,0.3-1
				l1.4-4.7l2.8,2.2c1.5,1.2,3.3,2.8,4,4.6C112.3,109.9,113.3,111.9,112.9,114.1z"/>
		</g>
	</g>
	<g>
		<g>
			<g>
				<linearGradient id="SVGID_3_" gradientUnits="userSpaceOnUse" x1="32.3246" y1="101.7858" x2="45.1108" y2="101.7858">
					<stop  offset="0" style="stop-color:#AD1917"/>
					<stop  offset="1" style="stop-color:#8E1913"/>
				</linearGradient>
				<path class="st4" d="M41.1,94h-8.8v15.6h8.8c2.2,0,4-2,4-4.5v-6.6C45.1,96,43.3,94,41.1,94z M42.2,103.9c0,1.3-0.9,2.4-2.1,2.4
					h-4.8v-9.1h4.8c1.2,0,2.1,1.1,2.1,2.4V103.9z"/>
			</g>
			<g>
				<linearGradient id="SVGID_4_" gradientUnits="userSpaceOnUse" x1="47.5186" y1="101.4313" x2="60.3049" y2="101.4313">
					<stop  offset="0" style="stop-color:#AD1917"/>
					<stop  offset="1" style="stop-color:#8E1913"/>
				</linearGradient>
				<path class="st5" d="M60.3,101.3v-4.8c0-1.8-1.8-3.3-4-3.3h-8.8v16.4h3.7v-4.5h4c0.5,0,0.9,0.4,0.9,0.9v3.6h4.2v-3.1
					c0-1.1-0.6-2.1-1.5-2.6C59.7,103.3,60.3,102.3,60.3,101.3z M51.2,102c0,0,0-4.6,0-5c0,0,1.4-0.1,2.9-0.1s2.6-0.3,2.6,2.6
					c0,2.9-1.9,2.5-2.7,2.5C53.1,102,51.2,102,51.2,102z"/>
			</g>
			<g>
				<linearGradient id="SVGID_5_" gradientUnits="userSpaceOnUse" x1="62.0538" y1="101.5761" x2="75.6851" y2="101.5761">
					<stop  offset="0" style="stop-color:#AD1917"/>
					<stop  offset="1" style="stop-color:#8E1913"/>
				</linearGradient>
				<path class="st6" d="M75.7,93.7v11.1c0,2.5-2,4.5-4.5,4.5h-4.6c-2.5,0-4.5-2-4.5-4.5V93.7h4.1v10.3c0,1.3,1,2.3,2.3,2.3h0.7
					c1.3,0,2.3-1,2.3-2.3V93.7H75.7z"/>
			</g>
			<g>
				<linearGradient id="SVGID_6_" gradientUnits="userSpaceOnUse" x1="77.3306" y1="101.5761" x2="90.7934" y2="101.5761">
					<stop  offset="0" style="stop-color:#AD1917"/>
					<stop  offset="1" style="stop-color:#8E1913"/>
				</linearGradient>
				<path class="st7" d="M81.3,99.4v4.7c0,1.3,1.1,2.4,2.4,2.4h1.2c1.3,0,2.4-1.1,2.4-2.4v-0.5h-3.1v-3h6.5v4.4
					c0,2.4-1.9,4.3-4.3,4.3h-4.9c-2.4,0-4.3-1.9-4.3-4.3v-7c0-2.4,1.9-4.3,4.3-4.3h4.9c2.4,0,4.3,1.9,4.3,4.3v0.6h-3.5
					c-0.3-1-1.2-1.7-2.3-1.7h-1.2C82.4,97,81.3,98.1,81.3,99.4z"/>
			</g>
		</g>
	</g>
</g>
</svg>
