<?xml version="1.0" encoding="utf-8"?>
<!-- Generator: Adobe Illustrator 24.3.0, SVG Export Plug-In . SVG Version: 6.00 Build 0)  -->
<svg version="1.1" id="Layer_1" xmlns="http://www.w3.org/2000/svg" xmlns:xlink="http://www.w3.org/1999/xlink" x="0px" y="0px"
	 viewBox="0 0 78.5 76.9" style="enable-background:new 0 0 78.5 76.9;" xml:space="preserve">
<style type="text/css">
	.st0{fill:#252525;}
</style>
<path class="st0" d="M39.3,73.4c-19.3,0-35-15.7-35-35s15.7-35,35-35s35,15.7,35,35S58.6,73.4,39.3,73.4 M39.1,24.6
	c0,0,2.8,3,2.8,5.4c0,2.6-2,3.2-2.7,3.2h-0.1l0,0H39c-0.7,0-2.7-0.6-2.7-3.2C36.3,27.6,39.1,24.6,39.1,24.6 M12.8,40.4H16v-5.9h5.4
	V32H16v-3.3h5.5v-2.5h-8.7V40.4z M42,25.1h3.4L41.5,11h-4.3l-4,14.1h3.1l0.9-3.1h4.1L42,25.1z M40.6,19.5h-2.9l1.4-6.1h0.2
	L40.6,19.5z M55.4,33.3c0,4.1,1.9,7.3,6,7.3s6-3.2,6-7.3s-1.9-7.3-6-7.3S55.4,29.2,55.4,33.3 M58.8,33.3c0-2.7,0.7-4.9,2.6-4.9
	c1.9,0,2.6,2.2,2.6,4.9s-0.7,4.9-2.6,4.9S58.8,36,58.8,33.3 M37.8,69.5c0.2-1.4,0.4-3.6,0.4-6.1V63c0-3.6-0.1-4.8-2.6-5.6
	c-3.7-1.2-5.2-5.4-4.4-10.6L18.7,15.1c-6.5,5.7-10.5,14-10.5,23.3C8.2,55.1,21.3,68.7,37.8,69.5 M39.3,49.3c-5-1.2-6.8-5.7-6.8-9.7
	L21.6,12.9c-0.7,0.5-1.4,1-2.1,1.6c2.4,5.7,13.2,31.2,13.2,31.3c1.9,4.6,5.4,3.1,6.2,6.9c0.2,0.9,0.2,1.3,0.2,1.3h0.4
	c0,0,0-0.4,0.2-1.3c0.8-3.8,4.3-2.3,6.2-6.9c0,0,10.8-25.6,13.2-31.3c-0.7-0.5-1.4-1.1-2.1-1.6L46.1,39.6
	C46.1,43.6,44.2,48.2,39.3,49.3L39.3,49.3z M39.3,41.2c-2.1-0.5-4.7-2.6-5.1-5.2c-0.1-1-0.2-1.3-0.1-3.3L24.6,11
	c-0.8,0.4-1.5,0.9-2.3,1.3c2.9,6.4,11.6,26,11.6,26.1c1.4,2.9,3.8,3,4.6,4.7c0.5,1,0.5,1.9,0.6,2h0.3c0-0.1,0.1-1,0.6-2
	c0.8-1.7,3.3-1.8,4.6-4.7c0,0,8.7-19.6,11.6-26.1c-0.7-0.5-1.5-0.9-2.3-1.3l-9.6,21.6c0.1,2,0.1,2.3-0.1,3.3
	C44,38.7,41.4,40.8,39.3,41.2L39.3,41.2z M39.4,37.6l0.1-1.2c0.6-2.7,2.6-2.4,4-5.1l0,0c0.1-0.1,6.8-14.6,9.6-20.7
	C49,8.5,44.3,7.3,39.3,7.3s-9.7,1.2-13.9,3.3c2.8,6.1,9.6,20.6,9.6,20.7l0,0c1.4,2.7,3.4,2.4,4,5.1l0.1,1.2
	C39.1,37.6,39.4,37.6,39.4,37.6z M70.4,38.4c0-9.3-4.1-17.6-10.6-23.3L47.4,46.8c0.8,5.2-0.7,9.3-4.4,10.6c-2.4,0.8-2.6,2-2.6,5.6
	v0.4c0,2.6,0.2,4.8,0.4,6.1C57.2,68.7,70.4,55.1,70.4,38.4 M18,47.6c0,0,0.5,1,0.8,1.7c0.4,0.7,0.9,1.5,0.9,1.5l-0.8,0.5
	c0,0-0.6-1-1.2-2.2c-0.2,0.1-1.1,0.6-1.3,0.7c0.1,0.2,1.1,2.1,1.1,2.1l-0.8,0.5c0,0-1-2-1.1-2.2c-0.2,0.1-2.3,1.2-2.3,1.2l-0.5-1
	L18,47.6L18,47.6z M21.3,53l0.7,0.9l-4.6,3.8l-0.7-0.9L21.3,53L21.3,53z M25.5,56.9l0.9,0.6l-1.2,6.3l-1-0.6c0,0,0.3-1.3,0.3-1.4
	c-0.1,0-0.7-0.4-1.2-0.8c-0.6-0.4-1.2-0.9-1.2-0.9c-0.1,0.1-1.3,0.7-1.3,0.7L19.9,60L25.5,56.9L25.5,56.9z M22.9,59.6
	c0.1,0.1,0.5,0.4,0.9,0.7s0.8,0.6,0.9,0.6c0.1-0.3,0.5-2.3,0.6-2.7C24.9,58.4,23.1,59.5,22.9,59.6 M29.2,59.2c0,0,1,0.5,2.3,0.9
	c0.9,0.3,1.7,0.6,2.5,0.7l-0.3,0.9c0,0-0.7-0.1-1.9-0.5c-0.1,0.2-1.6,4.7-1.6,4.7l-1.1-0.4c0,0,1.6-4.5,1.6-4.7
	c-1.1-0.4-1.9-0.8-1.9-0.8L29.2,59.2z M47.9,60.4c0.4,0.2,0.7,0.6,0.8,1.1c0.1,0.2,0.1,0.4,0.1,0.6c0,0.8-0.6,1.5-1.6,1.8
	c0,0-0.5,0.2-0.7,0.2c0.1,0.2,0.7,2.2,0.7,2.2l-1,0.3l-1.8-5.7l1.6-0.5C46.8,60.2,47.5,60.2,47.9,60.4 M45.7,61.5
	c0.1,0.2,0.5,1.6,0.5,1.7c0.3,0,0.8-0.2,0.8-0.2c0.2,0,0.5-0.2,0.7-0.5c0.1-0.1,0.1-0.2,0.1-0.4c0-0.1,0-0.2,0-0.3
	c-0.1-0.2-0.2-0.4-0.4-0.5c-0.3-0.2-0.7-0.1-1,0C46.3,61.3,45.9,61.5,45.7,61.5 M51.5,57.9l5.1,3.8l-0.9,0.6c0,0-1-0.8-1.1-0.9
	c-0.1,0-0.6,0.4-1.2,0.7c-0.5,0.3-1.1,0.6-1.2,0.6c0,0.1,0.2,1.4,0.2,1.4l-1,0.5l-0.9-6.3L51.5,57.9z M52.1,61.9
	c0.2-0.1,0.6-0.3,0.9-0.5c0.4-0.2,0.6-0.4,0.8-0.5c-0.2-0.2-1.8-1.4-2.1-1.6C51.7,59.7,52,61.7,52.1,61.9 M57.3,52.8l4.5,4L61,57.7
	c0,0-4.2-1.2-4.8-1.4c0.5,0.4,3.1,3.2,3.1,3.2l-0.8,0.7l-4.2-4.3l1-0.9c0,0,4.1,1.2,4.7,1.4c-0.5-0.4-3.3-2.9-3.3-2.9L57.3,52.8z
	 M59.4,49.8l5.2,3l-0.5,0.9l-5.2-3L59.4,49.8z M61.6,44.8l0.9,0.5l-0.1,0.1c-0.3,0.4-0.4,0.5-0.6,0.9c-0.1,0.2-0.1,0.5,0,0.8
	c0.1,0.1,0.2,0.2,0.4,0.3c0.4,0.1,0.7-0.2,1.1-0.6c0.5-0.6,1.2-1.2,2.3-0.9c1.1,0.4,1.5,1.4,1,2.7c-0.1,0.4-0.4,0.8-0.6,1.1l0,0.1
	l-0.9-0.4l0.1-0.1c0.1-0.1,0.5-0.6,0.6-1s0.1-1.1-0.5-1.3c-0.5-0.2-0.9,0.2-1.3,0.7c-0.5,0.5-1.1,1.2-2.1,0.8
	c-0.4-0.1-0.8-0.4-0.9-0.8c-0.2-0.4-0.2-1,0-1.6C61.1,45.6,61.3,45.2,61.6,44.8L61.6,44.8z"/>
</svg>
