<?xml version="1.0" encoding="utf-8"?>
<!-- Generator: Adobe Illustrator 24.3.0, SVG Export Plug-In . SVG Version: 6.00 Build 0)  -->
<svg version="1.1" id="Layer_1" xmlns="http://www.w3.org/2000/svg" xmlns:xlink="http://www.w3.org/1999/xlink" x="0px" y="0px"
	 viewBox="0 0 79.2 77.5" style="enable-background:new 0 0 79.2 77.5;" xml:space="preserve">
<style type="text/css">
	.st0{fill-rule:evenodd;clip-rule:evenodd;fill:#252525;}
	.st1{fill:#252525;}
	.st2{fill:#FFFFFF;}
</style>
<g>
	<path class="st0" d="M39.6,4.8C20.8,4.8,5.5,20,5.5,38.7s15.2,33.9,33.8,34c18.6,0.1,34.3-14.8,34.4-34C73.7,20,58.4,4.8,39.6,4.8z
		 M37.4,73.8c-0.9-0.1-1.8-0.2-2.7-0.4c-4.5-0.6-8.7-2-12.6-4.3C13.6,64,7.9,56.7,5.7,47c-3-13.3,0.6-24.8,10.5-34.2
		C21.3,8,27.4,5.3,34.3,4.2c1-0.2,2.1-0.3,3.1-0.4c1.5,0,3,0,4.4,0c0.9,0.1,1.8,0.2,2.6,0.3c4.9,0.7,9.5,2.3,13.7,5
		c8.6,5.5,13.9,13.3,15.8,23.3c3.5,19.3-9.1,36.6-26.8,40.4c-1.6,0.3-3.2,0.5-4.8,0.7c-0.2,0-0.3,0.1-0.5,0.1
		C40.3,73.8,38.8,73.8,37.4,73.8z"/>
	<path class="st0" d="M17.1,38.7c0.1-12.6,10.1-22.4,22.5-22.4C52.1,16.3,62,26.4,62,38.8c0,12.5-10.1,22.5-22.4,22.4
		C27.2,61.2,17.1,51,17.1,38.7z"/>
	<g>
		<path class="st1" d="M39.6,61.3L39.6,61.3c-6.1,0-11.8-2.4-16.1-6.7c-4.2-4.3-6.5-9.9-6.5-15.8l0,0c0.1-6.1,2.4-11.8,6.7-16
			c4.2-4.2,9.8-6.5,15.8-6.5c0,0,0,0,0.1,0c6.1,0,11.7,2.4,16,6.6c4.2,4.3,6.5,9.9,6.5,15.9C62,51.2,52,61.3,39.6,61.3z M17.2,38.7
			L17.2,38.7c0,5.9,2.3,11.5,6.5,15.7c4.2,4.3,9.9,6.7,15.9,6.7h0.1C52,61.1,62,51.1,62,38.8c0-6-2.3-11.6-6.5-15.9
			c-4.2-4.2-9.8-6.6-15.9-6.6c0,0,0,0-0.1,0C27.1,16.4,17.3,26.2,17.2,38.7L17.2,38.7z"/>
	</g>
	<path class="st0" d="M14.8,24.3c-0.1-0.3-0.2-0.8-0.3-1.3c-0.6,0.1-1,0.4-1.2,1c-0.1,0.4-0.1,0.8,0.2,1
		C14,24.7,14.3,24.5,14.8,24.3z M37.8,7.8C37.6,7,37,6.6,36.3,6.4c-1-0.3-1.9-0.3-2.8,0.1c-0.2,0.1-0.2,0.3-0.3,0.5
		c0.2,0.1,0.3,0.2,0.5,0.1c0.3,0,0.6-0.1,0.9-0.2c0.8-0.2,1.4,0,1.8,0.7c0.1,0.1,0.3,0.2,0.5,0.2C37,8,37.4,7.9,37.8,7.8z
		 M34.5,12.1c0.5,0.1,0.9,0.3,0.8,0.8c-0.1,0.5-0.4,0.7-0.9,0.7c-0.4,0-0.9-0.4-0.9-0.9c-0.1-0.7,0.2-1.2,0.7-1.6
		c0.2-0.2,0.4-0.3,0.7-0.5c-0.3-0.1-0.6-0.2-1-0.4c0,0.1,0,0.2,0,0.3c0,0.4-0.3,0.7-0.7,0.6c-0.2,0-0.5-0.3-0.6-0.6
		c-0.1-0.4,0.1-0.8,0.5-0.8c0.4-0.1,0.8,0,1.1,0s0.6,0.1,0.9,0.1c0.3,0,0.8,0,0.8-0.5c0-0.4-0.5-0.8-0.9-0.7
		c-1.7,0.4-3.5,0.7-5.1,1.2c-2.5,0.8-4.8,1.9-7.1,3.4c1.2,1.4,2.4,2.8,3.6,4.3C25.7,18,25.5,18,25,17.4c-0.6-0.7-1.3-1.5-1.9-2.2
		c-0.7-0.9-1.6-0.9-2.4-0.2c-0.9,0.7-1.8,1.5-2.6,2.3c0.9,0.2,1.7-0.1,2.2-0.8c0.4-0.5,0.8-0.2,1.2-0.2c0.4,0,0.4,0.4,0.4,0.7
		c0.2,0.9,0.7,1.7,1.4,2.3c0.2,0.2,0.4,0.4,0.6,0.7c-0.2,0-0.4,0-0.6-0.1c-1.1-0.6-2-1.5-2.4-2.8c-0.8,0.7-1.7,0.8-2.7,0.7
		c0,0.4-0.1,0.8,0,1.2c0.1,0.2,0.3,0.5,0.5,0.5c0.1,0,0.4-0.2,0.5-0.4c0.2-0.3,0.2-0.6,0.3-0.9c0.8,0,1.4,0.2,1.9,0.9
		c0.3,0.5,0.4,1.1,0.1,1.6c-0.4,0.7-1.1,1-1.9,1c-1.4-0.1-2.3-1-3.2-2c0-0.1,0-0.1,0-0.2c0.2,0,0.4,0.1,0.5,0.1
		c0.6,0.3,1.1,0.8,1.7,1.1c0.7,0.3,1.5,0,1.9-0.6c0.4-0.5,0.3-0.9-0.3-1.4c-0.3,0.7-0.6,1.3-1.5,1.3c-1-0.1-1.4-0.9-1.7-1.9
		c-0.8,1-1.5,1.8-2.3,2.8c1.9,1.1,3.7,2.2,5.7,3.4c-0.3,0.1-0.5,0.3-0.7,0.3c-0.5,0-0.7,0.3-0.9,0.7c-0.2,0.4-0.4,0.9-0.7,1.3
		c-0.7,1.2-1.8,1.3-3,0.3c0.3,0,0.4-0.1,0.6,0c0.5,0.3,0.9,0.1,1.3-0.3c0.2-0.2,0.3-0.5,0.4-0.8c0.3-0.6,0.7-1.1,1.4-1.3
		c-0.8-0.9-2.7-1.8-3.5-1.7c0.2,0.7,0.4,1.5,0.6,2.2c0.2,0.8,0.2,0.8-0.7,1.1c-0.1-0.3-0.1-0.6-0.3-0.9c-0.1-0.1-0.2-0.3-0.3-0.3
		c-0.2,0-0.3,0.2-0.4,0.3c-0.1,0.1,0,0.2-0.1,0.3c-0.1,0.2-0.2,0.7-0.4,0.7c-0.3,0-0.6-0.1-0.9-0.3c-1.1-1-0.8-2.8,0.6-3.4
		c0.5-0.2,1-0.3,1.6-0.5c-0.8-0.5-1.5-0.9-2.2-1.3c0-0.1,0-0.1,0-0.2c0.3,0,0.5-0.1,0.8,0c0.4,0.1,0.7-0.1,1-0.5
		c1.6-2.1,3.4-3.9,5.4-5.6c0.5-0.4,1-0.8,1.8-0.6c-0.3-0.4-0.6-0.8-1-1.2c0,0,0-0.1,0.1-0.1c0.2,0.1,0.5,0.1,0.7,0.2
		c0.4,0.2,0.7,0.2,1.1-0.1c3.8-2.5,8-4,12.5-4.6c0.1,0,0.2,0,0.3-0.1c0.1,0,0.1-0.1,0.1-0.3c-0.2,0-0.5,0-0.7,0
		C34.6,7.9,34.1,8,33.7,8c-0.4,0-0.9-0.3-1-0.5c-0.1-0.3,0-0.9,0.2-1.2c0.7-0.9,1.8-1,2.8-0.8c1.3,0.2,2.4,0.7,2.9,2.1
		c0,0.1,0.3,0.2,0.5,0.3c0.3,0.1,0.5,0.2,0.8,0.3c0,0.1,0,0.1-0.1,0.2c-0.3,0-0.6,0-1,0.1c0.3,1.8,0.6,3.6,0.9,5.5
		c-0.6-0.1-1-0.3-1.1-0.9c-0.2-1.4-0.5-2.7-0.7-4.1c-0.1-0.3-0.2-0.5-0.5-0.4c-0.4-0.1-0.8-0.1-1.4,0c0.5,0.7,1.1,1.3,0.1,2
		c0.9,0.4,0.8,1.2,1,1.9c0.2,0.9,0.3,1.9,0.5,2.9c-0.3-0.1-0.5-0.1-0.7-0.3c-0.4-0.4-0.8-0.4-1.2-0.2c-0.4,0.1-0.9,0.2-1.3,0.3
		c-1,0.2-1.7-0.2-2-1.2c-0.1-0.4-0.2-0.9-0.2-1.3c0.1,0,0.1-0.1,0.2-0.1c0.1,0.2,0.3,0.3,0.3,0.5c0.2,1,0.6,1.3,1.6,1.1
		c1.2-0.2,1.2-0.2,2.2,0.2c-0.2-1-0.3-1.9-0.5-2.8c0-0.1-0.5-0.3-0.6-0.3c-0.3,0.1-0.6,0.4-0.9,0.7C34.5,12,34.5,12.1,34.5,12.1z"/>
	<path class="st0" d="M50.4,66.9c-0.3-0.8-0.6-1.5-0.9-2.4c-0.5,0.6-0.8,1.1-1.2,1.6C49.1,66.4,49.7,66.6,50.4,66.9z M41.3,68.9
		c-0.1-0.8-0.1-1.6-0.2-2.5c-0.6,0.5-1.1,0.9-1.6,1.2C40.1,68,40.7,68.4,41.3,68.9z M36.1,68.6c0.1-0.8,0.2-1.6,0.4-2.5
		c-0.7,0.3-1.3,0.6-1.8,0.9C35.1,67.6,35.6,68.1,36.1,68.6z M32.1,63.8c-0.9-0.3-1.8-0.6-2.6-0.9c0.2,0.6,0.4,1.2,0.6,1.7
		c0.3,0,0.7,0,0.9,0.1c0.2,0.2,0.3,0.6,0.5,1C31.7,65,31.9,64.4,32.1,63.8z M28,61.6c1.4,0.5,2.7,1.1,4,1.5
		c3.7,1.2,7.5,1.5,11.3,0.9c0.4-0.1,0.9,0.1,1.4,0.1c-0.1-0.4-0.2-0.9-0.2-1.4l0.1-0.1c0.2,0.2,0.4,0.3,0.5,0.5
		c0.3,0.4,0.6,0.4,1,0.3c1.3-0.5,2.5-0.9,3.8-1.3c0.4-0.1,0.6-0.2,0.8,0.2c-0.3,0.1-0.5,0.3-0.9,0.5c0.7,1.8,1.3,3.5,2,5.3l-0.1,0.1
		c-0.3-0.1-0.7-0.2-1-0.4c-0.7-0.5-1.5-0.8-2.3-0.6c-0.7,0.1-1.1-0.1-1.5-0.6c0.7-0.9,1.3-1.7,2-2.6c0.1-0.2,0.2-0.4,0.3-0.8
		c-1.3,0.4-2.3,0.7-3.5,1.1c0.4,1.8,0.8,3.7,1.2,5.6c-0.7-0.1-1.1-0.3-1.2-1.1c-0.1-0.9-0.4-1.8-0.6-2.7c-0.2-1.1-0.8-1.5-2-1.4
		c-0.3,0-0.6,0.1-0.9,0.1c-0.1,0-0.3,0.1-0.4,0.2c0.1,0.1,0.3,0.2,0.4,0.2c0.3,0.1,0.7,0.2,1,0.3c0.9,0.5,1.3,1.5,0.8,2.3
		c-0.2,0.3-0.5,0.5-0.9,0.6c-0.2,0.1-0.6-0.2-0.7-0.4c-0.1-0.2,0-0.6,0.1-0.8c0.1-0.2,0.5-0.1,0.8-0.1c0.1,0,0.1,0.1,0.2,0.1
		c0.3-0.9-0.4-1.3-1.7-1.1c0.1,1.4,0.2,2.8,0.4,4.4c-0.4-0.3-0.8-0.4-1-0.7c-0.6-0.7-1.2-1.2-2.1-1.3c-0.7-0.1-1-0.4-1.3-1
		c0.9-0.7,1.7-1.3,2.6-2c0.2-0.1,0.2-0.4,0.4-0.6c-0.2-0.1-0.4-0.1-0.6-0.1c-0.9,0-1.8,0-2.7,0c-0.3,1.8-0.5,3.7-0.8,5.5
		c-0.1,0-0.1,0-0.2,0.1c-0.2-0.3-0.5-0.6-0.7-0.9c-0.4-0.7-0.9-1.3-1.7-1.6c-0.6-0.2-0.9-0.6-1-1.3c0.9-0.4,1.9-0.8,2.8-1.3
		c0.1-0.1,0.3-0.1,0.4-0.2c0.1-0.1,0.2-0.2,0.2-0.3c0-0.1-0.2-0.2-0.3-0.2c-1-0.2-2-0.4-3-0.6c-0.4-0.1-0.4,0.2-0.5,0.4
		c-0.5,1.5-1,2.9-1.5,4.4c-0.1,0.2-0.1,0.4-0.2,0.6c-0.5-0.4-0.8-0.8-0.5-1.5c0.2-0.5,0.4-1.1,0.5-1.7c0.1-0.7-0.3-0.9-0.9-0.6
		c-0.5,0.2-1,0.6-1.6,0.8c-0.3,0.1-0.9,0.2-1,0c-0.3-0.4-0.3-0.9-0.4-1.3c0,0,0.1-0.2,0.2-0.2s0.2,0.1,0.2,0.2
		c0.1,0.5,0.4,0.4,0.8,0.3c0.2-0.1,0.4-0.2,0.6-0.3c0.4-0.3,0.6-0.7,0.3-1.1c-0.2-0.2-0.4-0.5-0.6-0.6c-0.3-0.2-0.4-0.4-0.5-0.8
		C28.3,62.3,28.1,62,28,61.6z"/>
	<path class="st0" d="M63.5,20c0.3-0.3,0.7-0.6,1.1-0.9c0.1,0,0.1,0,0.1,0.1c0,0.2,0,0.5-0.1,0.7c-0.2,0.4-0.1,0.8,0.2,1.2
		c2.2,3,3.7,6.4,4.7,10c0.2,0.8,0.4,1.6-0.3,2.2c1,1.2,1,1.2,0,2.7c0.7-0.1,1.3-0.1,2-0.2l0.1,0.1c-0.1,0.2-0.3,0.3-0.4,0.4
		c-0.3,0.2-0.5,0.5-0.5,0.9c0,0.2-0.2,0.5-0.3,0.7c-0.1,0-0.1,0-0.2-0.1c0-0.3-0.1-0.6-0.1-1c-1.9,0.2-3.8,0.5-5.7,0.7
		c0.1-0.7,0.4-1.1,1.1-1.1s1.4-0.2,2.1-0.2c0.7-0.1,1.2-0.4,1.6-1c0.4-0.5,0.3-0.6-0.2-1c-0.2,0.3-0.5,0.5-0.7,0.8
		c-0.5,0.4-1,0.5-1.3,0.2S66.5,34.5,67,34c0,0,0.1-0.1,0.1-0.2c-0.2-0.1-0.4-0.2-0.6-0.4c-0.1-0.2-0.3-0.5-0.2-0.8
		c0-0.2,0.4-0.4,0.6-0.4c0.6,0.1,1.1,0.3,1.7,0.5c0.3-0.2,0.5-0.6,0.3-1.1c-0.5-1.5-0.9-3-1.4-4.6c-0.9,0.4-1.6,0.7-2.5,1.1
		c0.5,0.2,1,0.4,1.4,0.6c1.1,0.5,1.1,0.5,1,1.8c-1.6,0-3.1,0.5-4.4,1.7c-0.1-0.7,0.1-0.8,3.1-2.6c-0.9-0.3-1.7-0.6-2.6-0.9
		c0.1-0.7,0.3-1.2,1-1.5c0.8-0.3,1.6-0.7,2.4-1.1c-0.3-0.4-0.4-0.8-0.7-1.1c-0.8-0.9-1.9-1.3-3.1-1.2c-1.1,0.1-1.9,1-1.8,2
		c0.2,0,0.5,0,0.6,0.1c0.2,0.2,0.4,0.5,0.4,0.8c0,0.2-0.3,0.6-0.5,0.6c-0.2,0.1-0.6,0-0.8-0.2c-0.6-0.5-0.6-1.2-0.3-1.9
		c0.5-1.6,2.3-2.6,4-2.3c0.2,0,0.4,0.1,0.7,0.1c-0.5-0.8-1-1.5-1.5-2.3c-1.4,1.3-2.8,2.5-4.2,3.8c-0.2-0.6-0.3-1,0.2-1.5
		c0.8-0.6,1.5-1.3,2.3-2c0.8-0.8,0.8-1.6-0.1-2.4c-1.4,1.3-2.8,2.6-4.3,3.8c-0.4-0.7-0.3-0.9,0.2-1.4c0.4-0.4,0.8-0.7,1.2-1.1
		c0.1-0.1,0.3-0.3,0.4-0.4c0.1-0.3,0.2-0.8,0-1c-0.3-0.4-0.6,0-0.8,0.2c-0.1,0-0.1,0.1-0.3,0.2c0-0.3,0.1-0.6,0.1-0.9
		c-0.1-0.5-0.2-0.9-0.4-1.3s-0.6-0.4-1-0.2c-0.4,0.2-0.6,0.5-0.6,1c0.2-0.1,0.3-0.1,0.4-0.1c0.3,0.1,0.7,0.1,0.8,0.3
		c0.1,0.2,0.1,0.6,0,0.8c-0.2,0.2-0.6,0.4-0.8,0.3c-0.5-0.1-0.8-0.6-0.8-1.1c-0.1-0.9,0.4-1.7,1.2-2c1-0.5,1.9,0.1,1.9,1.2
		c0,0.2,0,0.5,0,0.7c0.4,0.1,0.9,0,1.1,0.3c0.2,0.3,0.1,0.8,0.1,1.2c0.4-0.3,0.7-0.7,1.2-1.1c-1-0.9-1.9-1.8-2.9-2.6
		c-0.3-0.2-0.5-0.5-0.2-0.9c0.1,0.1,0.3,0.2,0.4,0.3c1.4,1.3,2.7,2.6,4,4C63.3,19,63.4,19.5,63.5,20z"/>
	<path class="st0" d="M47.4,12.3c0.4,0.7,0.7,1.3,1.1,1.9c0.3-0.8,0.6-1.5,0.9-2.3C48.6,12,48,12.1,47.4,12.3z M48.5,16.1
		c-0.2-0.4-0.4-0.7-0.5-1.1c-0.2-0.8-0.6-1.5-1.3-2c-0.5-0.3-0.7-0.8-0.7-1.4c1-0.2,2-0.4,3-0.6c0.7-0.1,0.7-0.1,0.9-0.7
		c-0.9-0.7-2.3-0.4-3.1-1.4c0-0.1,0.1-0.1,0.1-0.2c0.2,0,0.4,0,0.5,0.1c1.2,0.4,2.3,0.8,3.5,1.2c0.7,0.2,1.2,0.6,1.4,1.5
		c0.3-0.6,0.5-1.1,0.7-1.7c0.1,0.2,0.2,0.3,0.2,0.4c0.1,0.6,0.1,1.1,0.8,1.3c0.1,0,0.2,0.4,0.3,0.7c-0.4-0.2-0.7-0.3-1.1-0.5
		c-0.7,1.8-1.4,3.5-2.1,5.3c-0.6-0.5-0.7-0.7-0.5-1.3c0.4-0.9,0.7-1.8,1.1-2.7c0.1-0.3,0.2-0.6,0.2-1c0-0.8-0.3-1.1-1.2-1.4
		c-0.7,1.8-1.5,3.6-2.2,5.4C48.6,16.1,48.6,16.1,48.5,16.1z"/>
	<path class="st0" d="M13.6,36.5c-0.3,0.3-0.6,0.5-0.9,0.8c-0.2-0.4-0.4-0.8-0.8-1.1c-0.2-0.2-0.5-0.2-0.8-0.3
		c0,0.3-0.1,0.6-0.1,0.8s0.1,0.3,0.2,0.5c0.3,0.6,0.1,1-0.6,1c-0.8,0-1.3-0.4-1.6-1c-0.3-0.7-0.3-1.4,0.2-2c0.3-0.4,0.7-0.7,1.2-1.1
		C9.5,34,8.8,33.9,8,33.8l-0.1-0.1c0.2-0.1,0.4-0.3,0.6-0.4c0.4-0.1,0.6-0.3,0.6-0.7c0-0.2,0.3-0.4,0.5-0.6c0.1,0,0.1,0.1,0.2,0.1
		c0,0.3-0.1,0.6-0.1,1c1.9,0.2,3.7,0.4,5.6,0.5c-0.4,0.8-0.5,0.9-1.3,0.8c-0.7-0.1-1.4-0.1-2.1-0.2c-0.9-0.1-1.6,0.4-2.1,1.2
		c-0.5,0.7-0.2,1.4,0.5,1.7c0-0.4,0-0.8,0.1-1.1c0.2-0.3,0.5-0.5,0.9-0.7C12.1,35,13,35.5,13.6,36.5z"/>
	<path class="st0" d="M12.1,28.4c-0.8-0.3-1.6-0.6-2.6-0.9c0.2-0.1,0.3-0.3,0.5-0.3c0.5-0.1,1-0.2,1.1-0.8c0-0.2,0.4-0.2,0.7-0.2
		c-0.1,0.3-0.2,0.6-0.4,0.9c1.8,0.6,3.6,1.2,5.4,1.8c-0.4,0.5-0.8,0.8-1.5,0.5c-0.5-0.2-1.1-0.4-1.7-0.6c-0.8-0.3-2,0.1-2.5,0.8
		c-0.3,0.4-0.3,0.9,0,1.2c0.4,0.4,0.8,0.5,1.2,0.2c-0.1-0.2-0.3-0.4-0.3-0.6c0-0.3,0.1-0.7,0.3-0.8c0.2-0.2,0.7-0.2,0.9-0.1
		s0.4,0.6,0.4,0.9c0,0.6-0.5,1.1-1.2,1.2c-0.9,0.2-1.7-0.1-2.4-0.8c-0.6-0.7-0.5-1.5,0.3-2C11,28.8,11.5,28.6,12.1,28.4z"/>
	<path class="st0" d="M24.9,12.7c0.2,0.1,0.4,0.2,0.6,0.4c0.7,0.7,1.4,1.3,2.4,1.5c0.7,0.1,1.3-0.1,1.8-0.6c0.4-0.5,0.5-1.1,0.2-1.6
		s-0.7-0.7-1.3-0.5c0,0.1,0.1,0.2,0.1,0.3c0.2,0.4,0.2,0.8-0.1,1.1c-0.4,0.3-0.8,0.4-1.2,0.1c-0.4-0.3-0.6-0.7-0.4-1.1
		c0.1-0.3,0.4-0.6,0.7-0.8c0.8-0.5,1.8-0.3,2.5,0.2c0.7,0.6,1,1.6,0.7,2.4c-0.3,0.8-1.1,1.5-2,1.5c-0.6,0-1.4-0.2-1.9-0.6
		c-0.8-0.6-1.5-1.4-2.2-2.1C24.7,12.9,24.8,12.8,24.9,12.7z"/>
	<path class="st0" d="M61,53.6c0.8,1.2,1.7,0.9,2.5,0.1c0,0,0.1,0,0.2,0c-0.1,0.4-0.2,0.8-0.3,1.1c-0.2,0.4-0.1,0.6,0.3,0.8
		c0.3,0.2,0.6,0.4,1,0.8c-0.6,0-0.9,0-1.3,0c-0.4,0-0.6,0.1-0.7,0.5c-0.1,0.4-0.2,0.7-0.4,1.2c-0.2-0.6-0.3-1.3-0.7-1.5
		s-1-0.1-1.6-0.2c0.3-0.2,0.6-0.5,0.9-0.7c0.3-0.2,0.4-0.4,0.3-0.8c-0.1-0.3-0.2-0.7-0.3-1C61,53.7,61,53.7,61,53.6z"/>
	<path class="st0" d="M14.7,56.2c0.3-0.2,0.6-0.5,0.9-0.6c0.4-0.2,0.4-0.5,0.3-0.9c-0.1-0.3-0.2-0.7-0.4-1.1c0.4,0.3,0.7,0.5,1,0.7
		c0.3,0.3,0.5,0.3,0.9,0c0.3-0.2,0.6-0.4,0.9-0.5c-0.1,0.3-0.1,0.5-0.2,0.8c-0.2,0.5-0.2,0.8,0.3,1.1c0.3,0.1,0.5,0.4,0.8,0.6
		c-0.1,0-0.1,0.1-0.1,0.1c-1.2-0.2-2,0.2-2,1.7C17,58.1,17,58,16.9,58c-0.1-0.4-0.3-0.7-0.4-1.1c-0.1-0.3-0.2-0.4-0.6-0.4
		s-0.8,0-1.2,0C14.7,56.3,14.7,56.3,14.7,56.2z"/>
	<path class="st0" d="M67,49.8c-0.2-0.3-0.5-0.5-0.6-0.8c-0.2-0.4-0.5-0.4-0.9-0.3c-0.3,0.1-0.6,0.2-1.1,0.4
		c0.3-0.4,0.5-0.8,0.8-1.1c0.2-0.3,0.2-0.5,0-0.7c-0.3-0.3-0.5-0.6-0.8-1.1c0.5,0.1,0.8,0.2,1.2,0.4c0.4,0.2,0.7,0.1,0.9-0.3
		c0.2-0.3,0.4-0.5,0.7-0.9c0,0.5,0,0.8,0,1.2s0.1,0.7,0.5,0.7c0.3,0.1,0.7,0.2,1,0.3c0,0.1,0,0.1,0,0.1c-1.1,0.2-1.9,0.7-1.4,2.1
		C67.1,49.9,67.1,49.9,67,49.8z"/>
	<path class="st0" d="M10.4,47.7c0.4-0.2,0.8-0.3,1.1-0.4c0.4-0.1,0.6-0.3,0.5-0.7c0-0.3,0-0.7,0-1.2c0.3,0.5,0.6,0.7,0.8,1.1
		c0.2,0.3,0.4,0.3,0.7,0.2c0.4-0.1,0.8-0.3,1.2-0.4c0,0.1,0,0.1,0,0.1c-0.3,0.4-0.8,0.9-0.8,1.3c0,0.4,0.5,0.9,0.9,1.4
		c-0.5-0.1-0.8-0.2-1.2-0.4S13,48.6,12.8,49c-0.2,0.3-0.4,0.6-0.7,0.8c0-0.3,0-0.7,0-1c0-0.4-0.1-0.6-0.5-0.7
		C11.2,48,10.9,47.9,10.4,47.7z"/>
	<path class="st0" d="M55.3,14.8c0.6,0,1.1-0.3,1.1-0.7s-0.3-0.6-0.6-0.6c-0.5,0-1,0.3-0.9,0.7C54.9,14.5,55.2,14.7,55.3,14.8z
		 M55.6,12.9c0.8,0,1.4,0.6,1.4,1.4c0,0.7-0.6,1.3-1.3,1.3s-1.4-0.7-1.4-1.4C54.3,13.4,54.9,12.8,55.6,12.9z"/>
	<path class="st0" d="M53.8,15.5c0.5,1.4,1.1,2.6,0.8,4c-0.5-1.1-0.9-2.3-1.4-3.5C53.3,15.9,53.5,15.7,53.8,15.5z"/>
	<path class="st0" d="M49.3,69.3c-0.6-0.1-0.8-0.3-0.8-0.7c0-0.4,0.2-0.7,0.6-0.7c0.4,0,0.7,0.3,0.7,0.7
		C49.7,68.8,49.4,69,49.3,69.3z"/>
	<path class="st0" d="M34.9,69.3c-0.1,0.5-0.3,0.8-0.7,0.8s-0.7-0.2-0.7-0.7c0-0.4,0.3-0.7,0.7-0.7C34.5,68.8,34.7,69.1,34.9,69.3z"
		/>
	<path class="st2" d="M50.8,55c-0.1,0-0.2,0-0.3,0c-0.2-0.1-0.3-0.2-0.3-0.4C50.1,54.4,50,54.2,50,54s-0.1-0.4,0.1-0.5
		c0.2-0.1,0.3,0,0.5,0c0-0.1,0-0.2-0.1-0.3c-0.2-0.3-0.3-0.6-0.4-0.9c0-0.1,0-0.2-0.1-0.3s-0.1-0.2,0-0.4c0.1-0.1,0.2-0.2,0.4-0.2
		c0.3,0,0.3,0,0.2-0.3c0,0.3-0.1,0.3-0.3,0.2s-0.4-0.3-0.5-0.6c-0.1-0.2,0-0.4,0.2-0.5c0.4-0.2,0.4-0.2,0.3-0.6
		c-0.1-0.2-0.1-0.4,0-0.6c0-0.4-0.1-0.7-0.1-1.1c0-0.1,0-0.1-0.1-0.1c-0.3,0.1-0.7,0.2-1,0.4c-0.2,0.1-0.3,0.3-0.3,0.6
		c0,0.1,0,0.1-0.1,0.2c-0.1,0.2-0.3,0.3-0.5,0.1C48.1,49,48,48.8,48,48.7c-0.1-0.7-0.4-1.3-0.8-1.8c-0.1-0.2-0.2-0.3-0.4-0.5
		c-0.4-0.4-0.6-0.8-0.4-1.3c0,0.1-0.1,0.3-0.3,0.3c-0.2,0.1-0.3,0.2-0.4,0.3c-0.1,0.2-0.3,0.4-0.6,0.4c0.1,0.2,0.1,0.4,0.2,0.6
		c0,0.3-0.1,0.5-0.4,0.6c-0.2,0-0.4,0-0.6-0.1c-0.1,0-0.1-0.1-0.2,0c-0.1,0.1-0.3,0.1-0.4,0c-0.2-0.1-0.3,0-0.4,0.2
		c-0.1,0.3-0.2,0.6-0.2,0.9c0,0.5-0.1,1.1-0.1,1.6c0,0.4-0.2,0.7-0.6,0.8c-0.2,0-0.3,0-0.4-0.1l-0.1-0.1c-0.2,0.1-0.3-0.1-0.4-0.2
		c-0.1-0.1-0.2-0.2-0.3,0c-0.1,0.1-0.2,0.2-0.4,0.3c-0.1,0-0.1,0.1-0.2,0.2c-0.1,0.2-0.2,0.4-0.2,0.5c-0.1,0.4-0.4,0.6-0.7,0.7
		c-0.2,0.1-0.5,0.1-0.7,0.2c-0.2,0-0.3-0.1-0.3-0.3c0-0.1-0.1-0.2-0.1-0.2c-0.1-0.4-0.6-0.5-0.8-0.8c-0.1,0.1,0,0.2,0,0.3
		c0,0.3-0.1,0.5-0.3,0.7c-0.3,0.2-0.5,0.2-0.8-0.1c0,0,0-0.1-0.1-0.1v0.1c0.1,0.1,0.2,0.3,0.1,0.4c-0.1,0.2-0.3,0.2-0.5,0.1
		c-0.1,0-0.1,0-0.2-0.1c-0.3-0.2-0.5-0.1-0.8,0.1c-0.4,0.3-0.5,0.2-0.8-0.1c-0.3-0.4-0.4-0.9-0.4-1.4v-0.1l0,0
		c-0.3,0.1-0.4,0.4-0.3,0.7c0.1,0.4,0,0.7-0.1,1.1c-0.1,0.3-0.3,0.3-0.5,0.1l0,0c-0.3-0.6-0.6-1.3-0.6-2c0-0.2,0-0.5,0-0.7
		s0-0.3,0-0.5c0.1-0.4,0-0.7-0.3-0.9S31.9,48,32,47.7c0.1-0.2,0.1-0.4-0.1-0.6c-0.1-0.1-0.1-0.3-0.1-0.5c0-0.3,0-0.5-0.1-0.8
		s-0.1-0.4,0.2-0.6c0.2-0.1,0.2-0.2,0-0.4c-0.1-0.1-0.1-0.2-0.2-0.2c-0.4-0.5-0.4-0.9,0-1.4c0.1-0.2,0.3-0.3,0.3-0.5
		c-0.1-0.1-0.2,0-0.3,0.1c-0.1,0.1-0.2,0.1-0.3,0.1c-0.4-0.1-0.7-0.3-0.9-0.6c-0.1-0.1,0-0.2,0.1-0.3c0.3-0.2,0.2-0.5,0.3-0.8
		c0-0.1-0.1-0.1-0.2-0.2c-0.3-0.1-0.6-0.3-0.9-0.6c-0.2-0.1-0.2-0.3-0.3-0.5c-0.1-0.6,0.1-0.9,0.6-1.2c0.4-0.2,0.4-0.2,0.3-0.6
		c0-0.1-0.1-0.3-0.1-0.4c0-0.1,0-0.3,0-0.4c0.1-0.2,0.1-0.3-0.2-0.4H30c-0.6,0-1.2-0.2-1.6-0.6c-0.1-0.1-0.2-0.1-0.3-0.1
		c-0.5,0-0.9-0.2-1.1-0.8c-0.1-0.3-0.3-0.4-0.5-0.6c-0.2-0.1-0.3-0.2-0.4-0.4c0-0.2,0-0.3,0-0.5c0.3-0.2,0.4-0.5,0.7-0.8
		C27,33,27,32.7,27,32.6s0-0.3,0.1-0.4c0-0.1,0.1-0.2,0.3-0.2c0.1,0,0.2,0.1,0.2,0.2c0,0.1,0.1,0.1,0.1,0.2c0,0.1,0.1,0.1,0.2,0.1
		s0.1-0.1,0.1-0.2c0-0.1,0.1-0.2,0.2-0.3c0.3-0.3,0.6-0.7,0.4-1.2c0-0.1,0-0.1,0-0.2c0-0.4,0.2-0.6,0.6-0.4s0.9,0.1,1.3,0.2
		c0.1,0,0.2,0,0.2-0.1c0.2-0.1,0.4-0.2,0.6-0.1c0.1,0,0.1,0,0.3-0.2c-0.4-0.1-0.5-0.4-0.7-0.7c0-0.1-0.1-0.2-0.1-0.2
		c-0.1-0.3-0.1-0.4-0.5-0.2c-0.5,0.2-1.4-0.1-1.8-0.7c-0.2-0.4-0.5-0.8-0.9-1.1c-0.1-0.1-0.3-0.2-0.4-0.1c-0.2,0.1-0.4,0.1-0.6-0.1
		s-0.2-0.4-0.1-0.6s0-0.4,0.1-0.5c0.1-0.3,0.2-0.7,0.2-1c0.1-0.4,0.3-0.7,0.7-0.8c0.2,0,0.3-0.2,0.4-0.4c0.1-0.3,0.2-0.5,0.5-0.6
		c0.1,0,0.2,0,0.2-0.1s-0.1-0.2-0.2-0.2s-0.2-0.1-0.3,0c-0.3,0.2-0.5,0.2-0.5-0.2c0-0.2,0-0.3,0.1-0.4s0.1-0.3,0.2-0.4
		c0.1-0.3,0.3-0.4,0.6-0.3c0.1,0,0.2,0.1,0.2,0.2c0,0.4,0.3,0.5,0.6,0.6c0.4,0.1,0.6,0.4,0.8,0.7c0.2,0.2,0.5,0.3,0.6,0.6h0.1
		c0.3,0,0.6,0,0.9,0.2c-0.1-0.2-0.2-0.3-0.4-0.4C31,23.2,30.9,23,31,22.7c0.1-0.2,0.3-0.3,0.6-0.2c0.1,0,0.1,0.1,0.2,0.1
		c0.5,0.2,0.7,0.5,0.8,1c0,0.5,0.4,1,1,1.1c0.3,0,0.6,0.1,0.8,0.2s0.4,0.1,0.5-0.1c0.1-0.1,0.1-0.2,0-0.3c-0.2-0.2-0.1-0.4,0.1-0.6
		c0.1-0.1,0.1-0.2,0.2-0.3c0.1-0.1,0.2-0.2,0.3-0.2s0.2,0.1,0.2,0.3c0,0.1,0.1,0.2,0.2,0.2c0.3,0.2,0.5,0.4,0.5,0.8
		c0,0.2,0.2,0.4,0.3,0.5c0.2,0.2,0.2,0.3,0,0.5c-0.1,0.2-0.1,0.4-0.1,0.6c0.1,0.9,0.3,1.8,0,2.7c-0.1,0.3,0,0.3,0.3,0.3
		c0.2,0,0.3,0,0.5,0.1c0.7,0.3,1.4,0.4,2,0.6c0.4,0.1,0.8-0.1,1.2-0.1c0.3-0.1,0.6-0.1,0.8,0c0.1,0,0.2,0,0.2,0c0.2,0,0.3-0.1,0.5,0
		c0.4,0.1,0.7,0,1.1-0.1c0.5-0.2,1-0.1,1.5-0.1c0.4,0,0.8,0,1.3,0.1c0.1,0,0.3-0.1,0.4,0c0.5,0.1,0.9,0,1.3-0.2h0.1
		c0.7,0.1,1.4,0,2.1,0.1c0.2,0,0.4,0.2,0.5,0.4c0.2,0.2,0.3,0.3,0.6,0.4c0.4,0.1,0.7,0.4,0.9,0.7c0.2,0.4-0.1,0.8-0.5,0.8
		c-0.2,0-0.4-0.1-0.7-0.2c0.3,0.4,0.2,0.7,0,1.1c-0.1,0.2-0.1,0.3,0,0.5c0,0.1,0.1,0.3,0.1,0.4c0,0.3-0.1,0.4-0.4,0.5
		c-0.1,0-0.2,0-0.2,0.1c0,0.4-0.2,0.6-0.6,0.6c-0.2,0-0.3,0-0.3,0.3c0,0.1-0.1,0.2-0.2,0.2c-0.2,0-0.2,0.1-0.2,0.3
		c0,0.1,0,0.2,0,0.3c-0.1,0.4-0.4,0.6-0.8,0.3L48,36.3c-0.1,0,0,0.1,0,0.2c0,0.2-0.1,0.3-0.4,0.3c-0.2,0-0.3,0-0.4,0.1
		c-0.2,0.3-0.6,0.3-0.9,0.3c-0.2,0-0.3,0-0.3,0.2c-0.1,0.1-0.2,0.2-0.4,0.3c-0.3,0.1-0.5,0.4-0.6,0.7c0,0.2-0.1,0.3-0.1,0.5
		s-0.1,0.3-0.2,0.4c0,0.1,0.1,0.1,0.1,0.1c0.2,0.1,0.2,0.2,0,0.4c-0.3,0.2-0.3,0.2,0,0.4c0.1,0.1,0.2,0.2,0.2,0.4
		c0.1,0.7,0.4,1.4,0.3,2.1c0,0.1,0,0.2,0.1,0.2c0.1-0.2,0.1-0.4,0.1-0.7c0-0.1,0-0.1,0-0.2c0-0.1,0.1-0.2,0.2-0.3
		c0.2,0,0.3,0.1,0.3,0.2c0.1,0.3,0.3,0.6,0.3,0.9c0,0.2,0.2,0.4,0.3,0.6c0.1,0.1,0.2,0.1,0.3,0.1c0.3-0.1,0.6-0.3,0.8-0.6
		c0.1-0.1,0.1-0.2,0.1-0.4s0-0.4-0.1-0.5c-0.2-0.3-0.1-0.7-0.1-1s0.1-0.3,0.4-0.3c0.2,0,0.4,0,0.4-0.2c0.1-0.2,0.1-0.4,0.1-0.6
		c0-0.2,0-0.5,0-0.7s0.1-0.3,0.3-0.3s0.3,0.1,0.3,0.2c0.1,0.2,0.2,0.2,0.3,0.1c0.1-0.1,0.1-0.1,0.2-0.2c0.1-0.2,0.3-0.3,0.5-0.1l0,0
		c0.2,0,0.3,0,0.5,0.1c0.1,0.2,0.1,0.4,0.2,0.6c0.1,0.5,0.2,1,0.5,1.5c0.2,0.3,0.3,0.7,0,1c-0.1,0.1-0.1,0.3,0,0.4
		c0.2,0.2,0.2,0.5,0.2,0.8c-0.1,0.3,0,0.5,0.3,0.6c0.2,0.1,0.2,0.3,0.3,0.5c0.3,0.9,0.4,1.9,0.6,2.8c0.1,0.4,0.2,0.8,0.3,1.2
		c0,0.2,0,0.4-0.1,0.5c-0.1,0.2-0.2,0.4-0.1,0.6C53,50,53,50.5,53,51c0,0.9,0.1,1.8,0.3,2.7c0,0.2,0.1,0.3,0.1,0.5
		c0,0.3-0.2,0.5-0.5,0.4c-0.1,0-0.2-0.1-0.2-0.3c-0.1-0.2-0.2-0.3-0.4-0.3c-0.3,0-0.5-0.1-0.6-0.4c0-0.2-0.1-0.2-0.3-0.1h-0.1
		c-0.4-0.1-0.4,0.2-0.5,0.4c-0.1,0.1,0,0.2,0,0.2C51.1,54.7,51.1,54.8,50.8,55z"/>
</g>
</svg>
