<?xml version="1.0" encoding="utf-8"?>
<!-- Generator: Adobe Illustrator 24.3.0, SVG Export Plug-In . SVG Version: 6.00 Build 0)  -->
<svg version="1.1" id="Layer_1" xmlns="http://www.w3.org/2000/svg" xmlns:xlink="http://www.w3.org/1999/xlink" x="0px" y="0px"
	 viewBox="0 0 76.4 83" style="enable-background:new 0 0 76.4 83;" xml:space="preserve">
<style type="text/css">
	.st0{fill:#1C1C2B;}
	.st1{fill:#00ABE6;}
</style>
<g>
	<g>
		<g>
			<path class="st0" d="M9.5,70.1c0-1.1-0.8-1.8-1.7-1.8c-0.9,0-1.7,0.5-1.6,1.8l0,1.8c0,1.3,0.7,1.8,1.7,1.8c0.9,0,1.6-0.8,1.6-1.7
				L9.5,70.1z M7.9,74.1c-1.5,0-2.2-0.7-2.2-2.2l0-2c0-1.5,0.7-2.2,2.3-2.3c1.1,0,1.6,0.7,1.6,0.9l0-0.8c0-0.1,0.2-0.1,0.3-0.1
				c0.1,0,0.3,0,0.3,0.1l0.1,6.1c0,1.4-0.5,2.5-2.1,2.6c-1,0-2-0.5-2-0.5c-0.1,0,0-0.2,0-0.3c0-0.1,0.1-0.3,0.2-0.3
				c0,0,1,0.6,1.7,0.5c1-0.1,1.6-0.7,1.5-1.8l0-0.9C9.6,73.2,9,74.1,7.9,74.1z"/>
			<path class="st0" d="M12.4,69c-0.3,0.3-0.5,0.8-0.5,0.8l0.1,4.1c0,0.1-0.2,0.1-0.3,0.1c-0.1,0-0.3,0-0.3-0.1l-0.1-6.2
				c0-0.1,0.2-0.1,0.3-0.1c0.1,0,0.3,0,0.3,0.1l0,1.4c0,0,0.3-0.5,0.4-0.6c0.4-0.6,0.7-0.8,1.3-0.8l0.2,0c0.1,0,0.1,0.2,0.1,0.3
				c0,0.1,0,0.3-0.1,0.3C13.1,68.4,12.9,68.4,12.4,69z"/>
			<path class="st0" d="M17.9,70.5c0,0-1.1,0-1.7,0.1c-0.7,0.1-1.6,0.3-1.5,1.3l0,0.5c0,0.8,0.7,1.1,1.4,1.1c0.8,0,1.6-0.6,1.9-1
				L17.9,70.5z M18.3,73.9c-0.1,0-0.3,0-0.3-0.1l0-0.6c0,0-0.7,0.8-2,0.8c-1.2,0-2-0.7-2-1.7l0-0.6c0-1.6,1.9-1.8,2.8-1.8l1.1,0
				c0-0.9-0.2-1.8-1.5-1.8c-0.6,0-1.1,0.2-1.6,0.4c-0.1,0-0.2-0.1-0.2-0.2c0-0.1-0.1-0.3,0-0.3c0,0,0.7-0.4,1.9-0.4
				c1.2,0,2.1,0.5,2.1,2.2l0.1,4.1C18.6,73.9,18.4,73.9,18.3,73.9z"/>
			<path class="st0" d="M23.6,73.8c0,0.1-0.2,0.1-0.3,0.1c-0.1,0-0.3,0-0.3-0.1l-0.1-4.4c0-1-0.5-1.4-1.2-1.3
				c-0.7,0.1-1.6,1.4-1.6,1.4l0.1,4.4c0,0.1-0.2,0.1-0.3,0.1c-0.1,0-0.3,0-0.3-0.1l-0.1-6.2c0-0.1,0.2-0.1,0.3-0.1
				c0.1,0,0.3,0,0.3,0.1l0,1.1c0.3-0.4,0.9-1.3,1.8-1.3c1.2,0,1.5,1,1.6,1.2c0.1-0.2,0.8-1.2,1.8-1.3c1.2,0,1.6,0.6,1.6,1.7l0.1,4.6
				c0,0.1-0.2,0.1-0.3,0.1c-0.1,0-0.3,0-0.3-0.1l-0.1-4.5c0-0.8-0.2-1.3-1.1-1.2c-0.8,0.1-1.6,1.3-1.6,1.3L23.6,73.8z"/>
			<path class="st0" d="M31.9,69.7c0-1.3-0.9-1.8-1.8-1.8c-0.9,0-1.7,0.5-1.6,1.8l0,0.6l3.4,0L31.9,69.7z M28.5,70.9l0,0.6
				c0,1.3,0.9,1.8,1.8,1.8c0.9,0,1.4-0.3,1.9-0.5c0.1,0,0.2,0.1,0.2,0.2c0.1,0.1,0.1,0.3,0.1,0.3c-0.6,0.3-1,0.5-2.1,0.6
				c-1.5,0-2.4-0.8-2.4-2.3l0-1.9c0-1.5,0.7-2.3,2.2-2.3c1.5,0,2.4,0.7,2.4,2.2l0,1.3C32.5,70.8,29.4,70.9,28.5,70.9z"/>
			<path class="st0" d="M37.3,69.6c0-1.3-0.8-1.8-1.8-1.8c-0.9,0-1.7,0.5-1.6,1.8l0,0.6l3.4,0L37.3,69.6z M33.9,70.8l0,0.6
				c0,1.3,0.9,1.8,1.8,1.8c0.9,0,1.4-0.3,1.9-0.5c0.1,0,0.1,0.1,0.2,0.2c0.1,0.1,0.1,0.3,0.1,0.3c-0.6,0.3-1,0.5-2.1,0.6
				c-1.5,0-2.4-0.8-2.4-2.3l0-1.9c0-1.5,0.7-2.3,2.2-2.3c1.5,0,2.4,0.7,2.4,2.2l0,1.3C37.9,70.8,34.8,70.8,33.9,70.8z"/>
			<path class="st0" d="M43,73.5c-0.1,0-0.3,0-0.3-0.1l-0.1-4.1c0-1.3-0.5-1.7-1.4-1.7c-0.9,0-1.7,1.4-1.7,1.4l0.1,4.4
				c0,0.1-0.2,0.1-0.3,0.1c-0.1,0-0.3,0-0.3-0.1l-0.1-6.2c0-0.1,0.2-0.1,0.3-0.1c0.1,0,0.3,0,0.3,0.1l0,1.1c0.2-0.3,0.7-1.2,1.9-1.3
				c1.2,0,1.9,0.7,1.9,1.9l0.1,4.4C43.3,73.5,43.1,73.5,43,73.5z"/>
			<path class="st0" d="M45,71.2c0,1.1,0.8,1.9,1.7,1.8c0.9,0,1.7-0.5,1.6-1.8l0-1.8c0-1.3-0.8-1.8-1.7-1.8c-0.9,0-1.6,0.8-1.6,1.7
				L45,71.2z M44.6,67.2c0.1,0,0.3,0,0.3,0.1l0,0.8c0,0,0.5-0.9,1.6-0.9c1.5,0,2.3,0.7,2.3,2.2l0,2c0,1.5-0.7,2.2-2.3,2.3
				c-1.2,0-1.6-0.9-1.6-0.9l0,3c0,0.1-0.2,0.1-0.3,0.1c-0.1,0-0.3,0-0.3-0.1l-0.1-8.4C44.3,67.2,44.5,67.2,44.6,67.2z"/>
			<path class="st0" d="M54,73.4c-0.1,0-0.3,0-0.3-0.1l-0.1-4.1c0-1.3-0.5-1.7-1.4-1.7c-0.9,0-1.7,1.4-1.7,1.4l0.1,4.4
				c0,0.1-0.2,0.1-0.3,0.1c-0.1,0-0.3,0-0.3-0.1L49.8,65c0-0.1,0.2-0.1,0.3-0.1c0.1,0,0.3,0,0.3,0.1l0,3.3c0.2-0.3,0.7-1.2,1.9-1.3
				c1.2,0,1.9,0.7,1.9,1.9l0.1,4.4C54.3,73.4,54.1,73.4,54,73.4z"/>
			<path class="st0" d="M57.5,67.5c-0.9,0-1.8,0.5-1.7,1.8l0,1.8c0,1.3,0.9,1.8,1.8,1.8c0.9,0,1.8-0.5,1.8-1.8l0-1.8
				C59.3,68,58.4,67.5,57.5,67.5z M55.2,71.2l0-2c0-1.5,0.8-2.2,2.3-2.3c1.5,0,2.4,0.7,2.4,2.2l0,2c0,1.5-0.9,2.2-2.4,2.3
				C56.1,73.4,55.2,72.7,55.2,71.2z"/>
			<path class="st0" d="M64.9,73.2c-0.1,0-0.3,0-0.3-0.1l-0.1-4.1c0-1.3-0.5-1.7-1.4-1.7c-0.9,0-1.7,1.4-1.7,1.4l0.1,4.4
				c0,0.1-0.2,0.1-0.3,0.1c-0.1,0-0.3,0-0.3-0.1L60.8,67c0-0.1,0.2-0.1,0.3-0.1c0.1,0,0.3,0,0.3,0.1l0,1.1c0.2-0.3,0.7-1.2,1.9-1.3
				c1.2,0,1.9,0.7,1.9,1.9l0.1,4.4C65.2,73.2,65,73.2,64.9,73.2z"/>
			<path class="st0" d="M70.1,69.1c0-1.3-0.9-1.8-1.8-1.8c-0.9,0-1.7,0.5-1.6,1.8l0,0.6l3.4,0L70.1,69.1z M66.7,70.3l0,0.6
				c0,1.3,0.9,1.8,1.8,1.8c0.9,0,1.4-0.3,1.9-0.5c0.1,0,0.1,0.1,0.2,0.2c0.1,0.1,0.1,0.3,0.1,0.3c-0.6,0.3-1,0.5-2.1,0.6
				c-1.5,0-2.4-0.8-2.4-2.3l0-1.9c0-1.5,0.7-2.3,2.2-2.3c1.5,0,2.4,0.7,2.4,2.2l0,1.3C70.8,70.3,67.6,70.3,66.7,70.3z"/>
		</g>
	</g>
	<path class="st1" d="M22.4,40c0,0,8.1-11.1,12.8-13.1c2.3-1,3-0.4,3.9,0.1c0,1.8-0.7,13.4,4.5,23.3c2.7,5.1,8.9,12.6,15,10.2
		c4-1.6,4.1-9.7,2.2-14.5c-3-7.8-11.1-18.5-19.4-22c0.4-2,0.6-2.3,0.9-2.9c0.5-0.2,2.3-0.9,4.9-1.7c2.1-0.6,4.8-1.1,6.8-1.7
		c4.6-1.3,14.2-3.3,13.5-7.3C67,6.4,58.6,6,54.9,7c-3.7,0.9-13.2,3.5-15.2,15.4c-0.6,0.4-1,0.7-1.1,0.8c-0.6-0.1-6.4-1.2-15.1,2.1
		s-15.1,9.5-14.8,14c0.2,3.1,1.7,5.2,4.7,5.7C16.4,45.5,19.3,43.9,22.4,40z"/>
</g>
</svg>
