<?xml version="1.0" encoding="utf-8"?>
<!-- Generator: Adobe Illustrator 24.3.0, SVG Export Plug-In . SVG Version: 6.00 Build 0)  -->
<svg version="1.1" id="Layer_1" xmlns="http://www.w3.org/2000/svg" xmlns:xlink="http://www.w3.org/1999/xlink" x="0px" y="0px"
	 viewBox="0 0 71.7 83.4" style="enable-background:new 0 0 71.7 83.4;" xml:space="preserve">
<style type="text/css">
	.st0{stroke:#FFFFFF;stroke-miterlimit:10;}
	.st1{fill:#FFFFFF;}
	.st2{fill:none;stroke:#E30613;stroke-width:0.127;}
	.st3{fill:#C9C9C9;}
	.st4{fill:url(#SVGID_1_);}
	.st5{opacity:0.15;fill:url(#SVGID_2_);}
	.st6{fill:#E30613;}
</style>
<g>
	<g>
		<path class="st3" d="M58.6,29.5c0,12.6-10.2,22.8-22.8,22.8C23.2,52.3,13,42.1,13,29.5C13,16.9,23.2,6.7,35.8,6.7
			C48.4,6.7,58.6,16.9,58.6,29.5z"/>
		<linearGradient id="SVGID_1_" gradientUnits="userSpaceOnUse" x1="20.0856" y1="45.2357" x2="51.5798" y2="13.7416">
			<stop  offset="5.618000e-03" style="stop-color:#C9C9C9"/>
			<stop  offset="0.25" style="stop-color:#FFFFFF"/>
			<stop  offset="0.3034" style="stop-color:#E7E7E7"/>
			<stop  offset="0.3602" style="stop-color:#D7D7D7"/>
			<stop  offset="0.4224" style="stop-color:#CDCDCD"/>
			<stop  offset="0.5" style="stop-color:#C9C9C9"/>
			<stop  offset="0.5669" style="stop-color:#D2D2D2"/>
			<stop  offset="0.6756" style="stop-color:#EBEBEB"/>
			<stop  offset="0.75" style="stop-color:#FFFFFF"/>
			<stop  offset="1" style="stop-color:#C9C9C9"/>
		</linearGradient>
		<path class="st4" d="M58.1,29.5c0,12.3-10,22.3-22.3,22.3c-12.3,0-22.3-10-22.3-22.3c0-12.3,10-22.3,22.3-22.3
			C48.1,7.2,58.1,17.2,58.1,29.5z"/>
		<path d="M52.5,29.5c0,9.2-7.5,16.7-16.7,16.7c-9.2,0-16.7-7.5-16.7-16.7c0-9.2,7.5-16.7,16.7-16.7C45,12.8,52.5,20.3,52.5,29.5z"
			/>
		<linearGradient id="SVGID_2_" gradientUnits="userSpaceOnUse" x1="35.8328" y1="44.4195" x2="35.8328" y2="14.5582">
			<stop  offset="0.5562" style="stop-color:#000000"/>
			<stop  offset="0.5961" style="stop-color:#0D0D0D"/>
			<stop  offset="0.6704" style="stop-color:#303030"/>
			<stop  offset="0.7708" style="stop-color:#686868"/>
			<stop  offset="0.8921" style="stop-color:#B5B5B5"/>
			<stop  offset="1" style="stop-color:#FFFFFF"/>
		</linearGradient>
		<path class="st5" d="M36.9,27.2c5.9,0,11,1.7,13.7,4.2c0.1-0.6,0.1-1.3,0.1-1.9c0-8.2-6.7-14.9-14.9-14.9
			c-8.2,0-14.9,6.7-14.9,14.9c0,1.5,0.2,2.9,0.6,4.2C23.1,30,29.4,27.2,36.9,27.2z"/>
		<g>
			<path class="st1" d="M31.4,29.3h-4v2.6h1.7V35c-0.2,0.1-0.6,0.2-1.2,0.2c-2,0-3.7-1.8-3.7-4.8c0.5-5.2,5.7-4.5,6.3-4.1l0.5-2.7
				c-0.3-0.2-5.9-1.4-8.5,3.9c-0.4,1.1-0.6,1.6-0.6,3.1c0,1.6,0.3,2.5,0.8,3.7c2.7,4.7,8.1,3.1,8.6,2.8V29.3z"/>
			<path class="st1" d="M35.6,23.2c-1.5,0-2.5,0.1-3.3,0.3V38h2.4v-5.3c0.2,0.1,0.5,0.1,0.8,0.1c1.4,0,2.7-0.5,3.5-1.5
				c0.6-0.8,1-2,1-3.5c0-1.4-0.4-2.7-1.1-3.4C38.2,23.6,37.1,23.2,35.6,23.2z M35.6,30.3c-0.4,0-0.6,0-0.8-0.1v-4.6
				c0.2-0.1,0.5-0.1,1-0.1c1.2,0,1.9,1.1,1.9,2.4C37.7,29.4,36.9,30.3,35.6,30.3z"/>
			<path class="st1" d="M43.4,24v5h4v-4.7c0.9,0.4,1.7,0.9,2.4,1.4v9.8c-0.7,0.4-1.5,0.8-2.4,1.2v-4.8h-4v5.6
				c-0.6,0.3-1.6,0.6-2.4,0.5V23.3C41.5,23.3,43,23.8,43.4,24z"/>
		</g>
	</g>
	<g>
		<path d="M8.4,71.5V58.5h4.1v12.9H8.4z"/>
		<path d="M15.3,68c0.8,0.4,2.3,1,3.6,1c1.3,0,1.8-0.4,1.8-1.1c0-0.7-0.4-1-1.9-1.5c-2.8-0.9-3.8-2.4-3.8-3.9c0-2.4,2.1-4.3,5.4-4.3
			c1.6,0,2.9,0.4,3.7,0.8l-0.7,2.7c-0.6-0.3-1.8-0.7-2.9-0.7c-1,0-1.6,0.4-1.6,1c0,0.6,0.5,1,2.2,1.5c2.5,0.8,3.6,2.1,3.6,4
			c0,2.4-1.9,4.2-5.8,4.2c-1.7,0-3.3-0.4-4.3-0.9L15.3,68z"/>
		<path d="M26.6,62.9c0-1.7-0.1-3.1-0.1-4.3h3.6l0.2,1.8h0.1c1-1.3,2.5-2.1,4.4-2.1c2.9,0,5.5,2.5,5.5,6.6c0,4.7-3.1,6.9-6.1,6.9
			c-1.6,0-2.9-0.6-3.5-1.5h-0.1v6.4h-4.1V62.9z M30.7,65.9c0,0.3,0,0.6,0.1,0.8c0.3,1.1,1.2,1.9,2.4,1.9c1.8,0,2.9-1.5,2.9-3.6
			c0-2.1-1-3.6-2.8-3.6c-1.2,0-2.2,0.8-2.5,2c-0.1,0.2-0.1,0.5-0.1,0.7V65.9z"/>
		<path d="M53.4,68.3c0,1.2,0.1,2.4,0.2,3.1h-3.7l-0.2-1.3h-0.1c-0.9,1-2.2,1.6-3.8,1.6c-2.7,0-4.3-1.9-4.3-4c0-3.4,3.1-4.9,7.8-4.9
			v-0.2c0-0.7-0.4-1.7-2.4-1.7c-1.4,0-2.8,0.4-3.7,1l-0.8-2.6c0.9-0.5,2.8-1.2,5.2-1.2c4.4,0,5.8,2.5,5.8,5.6V68.3z M49.4,65.4
			c-2.2,0-3.9,0.5-3.9,2c0,1,0.7,1.5,1.6,1.5c1,0,1.9-0.7,2.2-1.5c0.1-0.2,0.1-0.4,0.1-0.7V65.4z"/>
		<path d="M60.6,55v3.5h3v3h-3v4.7c0,1.6,0.4,2.3,1.6,2.3c0.6,0,0.8,0,1.2-0.1l0,3c-0.5,0.2-1.5,0.3-2.7,0.3c-1.3,0-2.5-0.4-3.1-1.1
			c-0.8-0.8-1.1-2-1.1-3.8v-5.3h-1.8v-3h1.8v-2.4L60.6,55z"/>
		<path class="st6" d="M10.4,56.8c-1.4,0-2.3-1-2.3-2.1c0-1.2,0.9-2.1,2.3-2.1s2.3,0.9,2.3,2.1C12.8,55.9,11.9,56.8,10.4,56.8
			L10.4,56.8z"/>
	</g>
</g>
</svg>
