<?xml version="1.0" encoding="utf-8"?>
<!-- Generator: Adobe Illustrator 24.3.0, SVG Export Plug-In . SVG Version: 6.00 Build 0)  -->
<svg version="1.1" id="Layer_1" xmlns="http://www.w3.org/2000/svg" xmlns:xlink="http://www.w3.org/1999/xlink" x="0px" y="0px"
	 viewBox="0 0 71.7 83.4" style="enable-background:new 0 0 71.7 83.4;" xml:space="preserve">
<style type="text/css">
	.st0{fill:#252525;}
	.st1{fill:#252525;stroke:#FFFFFF;stroke-miterlimit:10;}
	.st2{fill:#FFFFFF;}
</style>
<g>
	<g>
		<path class="st0" d="M58.6,29.5c0,12.6-10.2,22.8-22.8,22.8S13,42.1,13,29.5S23.2,6.7,35.8,6.7S58.6,16.9,58.6,29.5z"/>
		<path class="st0" d="M58.1,29.5c0,12.3-10,22.3-22.3,22.3s-22.3-10-22.3-22.3s10-22.3,22.3-22.3C48.1,7.2,58.1,17.2,58.1,29.5z"/>
		<path class="st1" d="M52.5,29.5c0,9.2-7.5,16.7-16.7,16.7s-16.7-7.5-16.7-16.7s7.5-16.7,16.7-16.7C45,12.8,52.5,20.3,52.5,29.5z"
			/>
		<g>
			<path class="st2" d="M31.4,29.3h-4v2.6h1.7V35c-0.2,0.1-0.6,0.2-1.2,0.2c-2,0-3.7-1.8-3.7-4.8c0.5-5.2,5.7-4.5,6.3-4.1l0.5-2.7
				c-0.3-0.2-5.9-1.4-8.5,3.9c-0.4,1.1-0.6,1.6-0.6,3.1c0,1.6,0.3,2.5,0.8,3.7c2.7,4.7,8.1,3.1,8.6,2.8v-7.8H31.4z"/>
			<path class="st2" d="M35.6,23.2c-1.5,0-2.5,0.1-3.3,0.3V38h2.4v-5.3c0.2,0.1,0.5,0.1,0.8,0.1c1.4,0,2.7-0.5,3.5-1.5
				c0.6-0.8,1-2,1-3.5c0-1.4-0.4-2.7-1.1-3.4C38.2,23.6,37.1,23.2,35.6,23.2z M35.6,30.3c-0.4,0-0.6,0-0.8-0.1v-4.6
				c0.2-0.1,0.5-0.1,1-0.1c1.2,0,1.9,1.1,1.9,2.4C37.7,29.4,36.9,30.3,35.6,30.3z"/>
			<path class="st2" d="M43.4,24v5h4v-4.7c0.9,0.4,1.7,0.9,2.4,1.4v9.8c-0.7,0.4-1.5,0.8-2.4,1.2v-4.8h-4v5.6
				c-0.6,0.3-1.6,0.6-2.4,0.5V23.3C41.5,23.3,43,23.8,43.4,24z"/>
		</g>
	</g>
	<g>
		<path class="st0" d="M8.4,71.5v-13h4.1v12.9L8.4,71.5L8.4,71.5z"/>
		<path class="st0" d="M15.3,68c0.8,0.4,2.3,1,3.6,1s1.8-0.4,1.8-1.1s-0.4-1-1.9-1.5C16,65.5,15,64,15,62.5c0-2.4,2.1-4.3,5.4-4.3
			c1.6,0,2.9,0.4,3.7,0.8l-0.7,2.7c-0.6-0.3-1.8-0.7-2.9-0.7c-1,0-1.6,0.4-1.6,1s0.5,1,2.2,1.5c2.5,0.8,3.6,2.1,3.6,4
			c0,2.4-1.9,4.2-5.8,4.2c-1.7,0-3.3-0.4-4.3-0.9L15.3,68z"/>
		<path class="st0" d="M26.6,62.9c0-1.7-0.1-3.1-0.1-4.3h3.6l0.2,1.8h0.1c1-1.3,2.5-2.1,4.4-2.1c2.9,0,5.5,2.5,5.5,6.6
			c0,4.7-3.1,6.9-6.1,6.9c-1.6,0-2.9-0.6-3.5-1.5h-0.1v6.4h-4.1L26.6,62.9L26.6,62.9z M30.7,65.9c0,0.3,0,0.6,0.1,0.8
			c0.3,1.1,1.2,1.9,2.4,1.9c1.8,0,2.9-1.5,2.9-3.6s-1-3.6-2.8-3.6c-1.2,0-2.2,0.8-2.5,2c-0.1,0.2-0.1,0.5-0.1,0.7
			C30.7,64.1,30.7,65.9,30.7,65.9z"/>
		<path class="st0" d="M53.4,68.3c0,1.2,0.1,2.4,0.2,3.1h-3.7l-0.2-1.3h-0.1c-0.9,1-2.2,1.6-3.8,1.6c-2.7,0-4.3-1.9-4.3-4
			c0-3.4,3.1-4.9,7.8-4.9v-0.2c0-0.7-0.4-1.7-2.4-1.7c-1.4,0-2.8,0.4-3.7,1l-0.8-2.6c0.9-0.5,2.8-1.2,5.2-1.2c4.4,0,5.8,2.5,5.8,5.6
			V68.3z M49.4,65.4c-2.2,0-3.9,0.5-3.9,2c0,1,0.7,1.5,1.6,1.5c1,0,1.9-0.7,2.2-1.5c0.1-0.2,0.1-0.4,0.1-0.7
			C49.4,66.7,49.4,65.4,49.4,65.4z"/>
		<path class="st0" d="M60.6,55v3.5h3v3h-3v4.7c0,1.6,0.4,2.3,1.6,2.3c0.6,0,0.8,0,1.2-0.1v3c-0.5,0.2-1.5,0.3-2.7,0.3
			c-1.3,0-2.5-0.4-3.1-1.1c-0.8-0.8-1.1-2-1.1-3.8v-5.3h-1.8v-3h1.8v-2.4L60.6,55z"/>
		<path class="st0" d="M10.4,56.8c-1.4,0-2.3-1-2.3-2.1c0-1.2,0.9-2.1,2.3-2.1s2.3,0.9,2.3,2.1C12.8,55.9,11.9,56.8,10.4,56.8
			L10.4,56.8z"/>
	</g>
</g>
</svg>
