<?xml version="1.0" encoding="utf-8"?>
<!-- Generator: Adobe Illustrator 24.3.0, SVG Export Plug-In . SVG Version: 6.00 Build 0)  -->
<svg version="1.1" id="Layer_1" xmlns="http://www.w3.org/2000/svg" xmlns:xlink="http://www.w3.org/1999/xlink" x="0px" y="0px"
	 viewBox="0 0 76.7 43.8" style="enable-background:new 0 0 76.7 43.8;" xml:space="preserve">
<style type="text/css">
	.st0{fill:#1A2F51;}
	.st1{clip-path:url(#SVGID_2_);}
	.st2{fill:url(#SVGID_3_);}
</style>
<g>
	<rect x="36.9" y="13.3" class="st0" width="5.4" height="17.1"/>
	<polygon class="st0" points="44.1,13.3 56,13.3 56,17.4 49.5,17.4 49.5,20.2 55.3,20.2 55.3,24.3 49.5,24.3 49.5,30.4 44.1,30.4 	
		"/>
	<path class="st0" d="M69,29.9c-1.2,0.4-2.5,0.7-3.8,0.7c-4.6,0-8.3-3-8.3-9.1c0-5.7,3.9-8.6,8.3-8.6c1.3,0,2.6,0.2,3.8,0.5v4.5
		c-0.8-0.4-1.8-0.6-2.7-0.6c-2.3,0-4,1.5-4,4.3c0,2.9,1.6,4.4,3.8,4.4c1,0,2-0.2,2.9-0.7L69,29.9z"/>
	<g>
		<g>
			<defs>
				<path id="SVGID_1_" d="M23.5,30.1c1.6,0,3.2-0.3,4.8-0.8c0.4-0.1,0.7-0.3,1-0.4c-0.4,0.9-1,1.8-1.8,2.4
					c-1.5,1.1-3.3,1.9-5.2,2.2C22.9,32.4,23.3,31.3,23.5,30.1 M15.5,32.4l-0.1-0.1c-0.7-0.3-1-1.8-0.6-4.1c1.3,0.6,2.7,1.1,4.2,1.4
					c1.1,0.2,2.2,0.4,3.3,0.4c-0.5,2.3-1.2,3.6-1.7,3.6h-0.1C18.8,33.6,17,33.2,15.5,32.4 M9.2,25c-0.1-0.4-0.1-0.8-0.2-1.2
					c0.4,0.6,0.9,1.2,1.5,1.7c0.9,0.9,2,1.6,3.1,2.2c-0.2,1.2-0.3,2.4-0.2,3.5C11.4,29.7,9.9,27.5,9.2,25 M24.3,21.8v-1.4
					c1.4-0.1,2.8-0.5,4.1-1.2c1,2,1.6,4.2,1.6,6.4c0,0.6,0,1.2-0.1,1.7c-0.6,0.4-1.2,0.6-1.9,0.9c-1.3,0.4-2.7,0.7-4.2,0.7
					C24.1,26.5,24.3,24.1,24.3,21.8 M19.2,28.4c-1.4-0.3-2.9-0.8-4.2-1.4c0.6-2.3,1.4-4.6,2.5-6.8c0.2-0.4,0.4-0.7,0.6-1.1
					c0.9,0.4,1.8,0.7,2.8,0.9c0.7,0.2,1.5,0.2,2.2,0.3v1.4c0,2.4-0.2,4.7-0.6,7.1C21.4,28.8,20.3,28.6,19.2,28.4 M11.3,24.6
					c-0.9-0.8-1.6-1.8-2.1-3c0.3-1.2,0.9-2.3,1.7-3.3s1.8-2,2.8-2.7c0.4,0.6,0.8,1.2,1.3,1.7c0.6,0.5,1.2,1,1.9,1.4
					c-0.2,0.4-0.4,0.7-0.6,1.1c-1.1,2.1-1.9,4.4-2.5,6.7C13,25.9,12.1,25.3,11.3,24.6 M23.5,13.3c1.4,1.1,2.7,2.4,3.7,3.9
					c0.2,0.3,0.4,0.6,0.6,0.9c-1.1,0.6-2.3,0.9-3.5,1C24.1,17.1,23.9,15.2,23.5,13.3 M21,18.8c-0.8-0.2-1.7-0.4-2.5-0.7
					c1-1.8,2.2-3.5,3.6-5c0.5,2,0.8,4,0.9,6C22.4,19.1,21.7,19,21,18.8 M15.9,16.4c-0.5-0.4-0.8-0.9-1.1-1.5
					c1.2-0.7,2.4-1.3,3.7-1.6c0.8-0.2,1.6-0.4,2.4-0.5c-1.3,1.5-2.4,3.1-3.4,4.8C16.9,17.2,16.4,16.8,15.9,16.4 M13.3,12.5
					c0,0.1,0,0.1,0,0.2c-0.1,0.6-0.1,1.2,0,1.7c-1.3,0.9-2.4,1.9-3.3,3.2c-0.3,0.4-0.5,0.7-0.7,1.1C9.8,16.3,11.3,14.1,13.3,12.5
					 M14.4,13c0.2-0.7,0.5-1.3,1.1-1.7c1.6-0.4,3.3-0.3,4.8,0.3c-2.1,0.4-4.1,1.1-5.9,2.1C14.3,13.5,14.3,13.2,14.4,13 M24.2,11.4
					c0.3-0.2,0.7-0.4,1.1-0.5c0.6,0.3,1.2,0.6,1.8,1C26.2,11.6,25.2,11.4,24.2,11.4 M22.2,10c0.5,0.1,1,0.1,1.6,0.3
					c-0.4,0.2-0.7,0.4-1,0.7C22.6,10.7,22.4,10.3,22.2,10 M20.9,10.5c-0.5-0.2-1.1-0.4-1.6-0.5c0.4,0,0.9-0.1,1.3-0.1
					c0.2,0,0.5,0.3,0.7,0.7C21.2,10.6,21,10.6,20.9,10.5 M7.6,21.8c0,1.2,0.2,2.4,0.5,3.6v0.2l0,0c2.1,6.9,9.4,10.8,16.3,8.7
					c1.3-0.4,2.5-1,3.6-1.7h0.1c0.1-0.1,0.2-0.2,0.4-0.3c2.4-1.8,4.2-4.4,4.9-7.3c0-0.1,0.1-0.3,0.1-0.4v-0.1
					c0.5-2.6,0.3-5.3-0.8-7.7c-0.1-0.3-0.5-0.4-0.8-0.3c-0.3,0.1-0.4,0.5-0.3,0.8c1,2.3,1.2,4.9,0.6,7.4c-0.2,0.6-0.5,1.1-0.9,1.6
					v-0.6c0-2.5-0.7-4.9-1.8-7.1c0.8-0.7,1.4-1.6,1.6-2.7c0.1-0.3-0.2-0.6-0.5-0.7c-0.3-0.1-0.6,0.2-0.7,0.5l0,0l0,0
					c-0.1,0.7-0.5,1.4-1,1.9c-0.2-0.3-0.4-0.6-0.5-0.9c-1-1.5-2.3-2.9-3.7-4c1.7,0.1,3.4,0.5,4.9,1.3c0.2,0.1,0.5,0.1,0.7,0
					c0.2-0.2,0.3-0.6,0.1-0.8C28.5,10.5,25.1,9,20.9,9C13.4,8.8,7.5,14.6,7.6,21.8L7.6,21.8"/>
			</defs>
			<clipPath id="SVGID_2_">
				<use xlink:href="#SVGID_1_"  style="overflow:visible;"/>
			</clipPath>
			<g class="st1">
				
					<radialGradient id="SVGID_3_" cx="-1165.0438" cy="-417.8355" r="0.8459" gradientTransform="matrix(25.5545 0 0 -25.5545 29805.1309 -10664.7539)" gradientUnits="userSpaceOnUse">
					<stop  offset="0" style="stop-color:#FFFFFF"/>
					<stop  offset="6.000000e-02" style="stop-color:#F2FAFF"/>
					<stop  offset="0.18" style="stop-color:#C8E8F9"/>
					<stop  offset="0.36" style="stop-color:#7ACDF4"/>
					<stop  offset="0.54" style="stop-color:#3AABE2"/>
					<stop  offset="1" style="stop-color:#1A2F51"/>
				</radialGradient>
				<rect x="7.6" y="8.7" class="st2" width="26.1" height="26.1"/>
			</g>
		</g>
	</g>
</g>
</svg>
