<?xml version="1.0" encoding="utf-8"?>
<!-- Generator: Adobe Illustrator 24.3.0, SVG Export Plug-In . SVG Version: 6.00 Build 0)  -->
<svg version="1.1" id="Layer_1" xmlns="http://www.w3.org/2000/svg" xmlns:xlink="http://www.w3.org/1999/xlink" x="0px" y="0px"
	 viewBox="0 0 92.5 81.4" style="enable-background:new 0 0 92.5 81.4;" xml:space="preserve">
<style type="text/css">
	.st0{fill:#282727;}
	.st1{fill:#E40521;}
	.st2{fill:#9D9D9C;}
	.st3{fill:#878787;}
	.st4{fill:#D0D0D0;}
	.st5{fill:#00964F;}
	.st6{fill:#9ECB84;}
	.st7{fill:#D4E6C5;}
	.st8{fill:#FFFFFF;}
</style>
<g>
	<g>
		<path class="st0" d="M18.6,65.1l-1.9,3.7v-3.7h-2.1v10.6h2.1v-3.8c0-0.3,0.1-0.4,0.4-0.4l1.2,0c0.3,0,0.4,0.1,0.4,0.4v3.8h2.1
			v-4.2c0-0.6-0.2-1.1-0.6-1.5c-0.4-0.4-0.9-0.6-1.5-0.6l2.1-4.2H18.6z"/>
		<polygon class="st0" points="27.6,68.8 25.8,65 23.2,65 26.3,71.5 26.3,75.5 28.8,75.5 28.8,71.5 31.9,65 29.3,65 		"/>
		<path class="st0" d="M38.6,65.1h-2.8l-3,10.5h8.8L38.6,65.1z M38.4,73.1h-2.3l1.2-4.1L38.4,73.1z"/>
		<polygon class="st0" points="50.6,71.3 48.8,65.1 44.6,65.1 44.6,75.5 47.1,75.5 47.1,67.6 49.3,75.5 51.9,75.5 54.2,67.6 
			54.2,75.5 56.6,75.5 56.6,65.1 52.4,65.1 		"/>
		<path class="st0" d="M62.7,65.5c-0.6,0.3-1.1,0.6-1.5,1.1c-0.4,0.5-0.8,1-1,1.7c-0.3,0.7-0.4,1.3-0.4,2c0,0.7,0.1,1.4,0.4,2
			c0.2,0.6,0.6,1.2,1,1.7c0.4,0.5,0.9,0.9,1.5,1.1c0.6,0.3,1.2,0.4,1.9,0.4h2v-2.4h-2c-0.3,0-0.6-0.1-0.9-0.2
			c-0.3-0.1-0.5-0.4-0.8-0.6c-0.5-0.5-0.7-1.2-0.7-2c0-0.8,0.2-1.4,0.7-2c0.2-0.3,0.5-0.5,0.8-0.6c0.3-0.1,0.6-0.2,0.9-0.2h2v-2.4
			h-2C63.9,65.1,63.3,65.2,62.7,65.5z"/>
		<polygon class="st0" points="75.5,65.1 75.5,69.1 72.4,69.1 72.4,65.1 70,65.1 70,75.5 72.4,75.5 72.4,71.5 75.5,71.5 75.5,75.5 
			77.9,75.5 77.9,65.1 		"/>
	</g>
	<g>
		<path class="st1" d="M56.7,36.6c-11.8,0-21.4-9.6-21.4-21.4c0-3.4,0.8-6.7,2.2-9.5c-4.5,4-7.4,9.9-7.4,16.4
			c0,12.1,9.8,21.9,21.9,21.9c9.7,0,17.9-6.3,20.8-15C69,33.7,63.2,36.6,56.7,36.6z"/>
	</g>
	<g>
		<g>
			<path class="st2" d="M29.7,54c-2.6,0-5.1-0.5-7-1.5c-2-1-3.1-2.3-3.1-3.8v-3.6c0-0.1,0-0.3,0-0.5c0.4-2.7,4.8-4.8,10-4.8
				c5.3,0,9.6,2.1,10,4.8c0,0.2,0,0.3,0,0.5v3.6c0,1.5-1.1,2.8-3.1,3.8C34.8,53.5,32.3,54,29.7,54z"/>
			<g>
				<g>
					<path class="st3" d="M29.7,50.5c-4.5,0-8.3-1.5-9.6-3.6v1.9c0,2.6,4.3,4.8,9.6,4.8s9.6-2.1,9.6-4.8v-1.9
						C38,49,34.2,50.5,29.7,50.5z"/>
				</g>
				<path class="st4" d="M39.2,45.1c-3-0.4-6.2-0.5-9.5-0.5c-3.3,0-6.5,0.2-9.5,0.5c0,0,0,0-0.1,0c0,0,0,0,0,0.1
					c0,2.6,4.3,4.8,9.6,4.8S39.3,47.8,39.2,45.1C39.3,45.1,39.3,45.1,39.2,45.1C39.3,45.1,39.3,45.1,39.2,45.1
					C39.3,45.1,39.2,45.1,39.2,45.1z"/>
				<path class="st4" d="M39.2,44.4c-0.7-2.3-4.7-4.1-9.5-4.1s-8.8,1.8-9.5,4.1c3-0.4,6.2-0.5,9.5-0.5C33,43.9,36.2,44.1,39.2,44.4z
					"/>
			</g>
		</g>
		<g>
			<path class="st5" d="M43.1,61.8c-2.7,0-5.3-0.5-7.2-1.5c-2-1-3.2-2.4-3.2-3.9v-3.7c0-0.2,0-0.3,0-0.5c0.5-2.8,4.9-4.9,10.3-4.9
				c5.4,0,9.8,2.1,10.3,4.9c0,0.2,0,0.3,0,0.5v3.7c0,1.5-1.1,2.9-3.2,3.9C48.4,61.3,45.8,61.8,43.1,61.8z"/>
			<g>
				<g>
					<path class="st6" d="M43.4,58.2c-4.6,0-8.5-1.5-9.9-3.7v2c0,2.7,4.4,4.9,9.9,4.9s9.9-2.2,9.9-4.9v-2
						C51.9,56.7,48,58.2,43.4,58.2z"/>
				</g>
				<path class="st7" d="M52.9,52.6c-3.1-0.4-6.4-0.6-9.8-0.6c-3.4,0-6.7,0.2-9.8,0.6c0,0,0,0-0.1,0c0,0,0,0,0,0.1
					c0,2.7,4.4,4.9,9.9,4.9S53,55.4,52.9,52.6C53,52.7,53,52.7,52.9,52.6C53,52.6,53,52.6,52.9,52.6C53,52.6,52.9,52.6,52.9,52.6z"
					/>
				<path class="st7" d="M52.9,52c-0.7-2.4-4.8-4.2-9.7-4.2s-9,1.8-9.7,4.2c3.1-0.4,6.4-0.5,9.7-0.5C46.5,51.4,49.8,51.6,52.9,52z"
					/>
			</g>
		</g>
	</g>
	<circle class="st1" cx="27.6" cy="65.1" r="1.2"/>
</g>
</svg>
