<?xml version="1.0" encoding="utf-8"?>
<!-- Generator: Adobe Illustrator 24.3.0, SVG Export Plug-In . SVG Version: 6.00 Build 0)  -->
<svg version="1.1" id="Layer_1" xmlns="http://www.w3.org/2000/svg" xmlns:xlink="http://www.w3.org/1999/xlink" x="0px" y="0px"
	 viewBox="0 0 92.5 81.4" style="enable-background:new 0 0 92.5 81.4;" xml:space="preserve">
<style type="text/css">
	.st0{fill:#282727;}
	.st1{fill:#E40521;}
	.st2{fill:#9D9D9C;}
	.st3{fill:#878787;}
	.st4{fill:#D0D0D0;}
	.st5{fill:#00964F;}
	.st6{fill:#9ECB84;}
	.st7{fill:#D4E6C5;}
	.st8{fill:#FFFFFF;}
</style>
<g>
	<rect x="14.4" y="5.7" class="st0" width="63.7" height="70"/>
	<g>
		<path class="st8" d="M21.1,62.9l-1.7,3.4v-3.4h-1.9v9.6h1.9v-3.5c0-0.3,0.1-0.4,0.4-0.4l1.1,0c0.3,0,0.4,0.1,0.4,0.4v3.5h1.9v-3.8
			c0-0.5-0.2-1-0.6-1.4c-0.4-0.4-0.8-0.6-1.4-0.6l1.9-3.8H21.1z"/>
		<polygon class="st8" points="29.3,66.3 27.7,62.9 25.3,62.9 28.2,68.7 28.2,72.4 30.4,72.4 30.4,68.7 33.3,62.9 30.9,62.9 		"/>
		<path class="st8" d="M39.4,62.9h-2.5l-2.7,9.5h8L39.4,62.9z M39.2,70.2H37l1.1-3.7L39.2,70.2z"/>
		<polygon class="st8" points="50.2,68.6 48.6,62.9 44.8,62.9 44.8,72.4 47,72.4 47,65.2 49.1,72.4 51.4,72.4 53.5,65.2 53.5,72.4 
			55.7,72.4 55.7,62.9 51.9,62.9 		"/>
		<path class="st8" d="M61.1,63.3c-0.5,0.2-1,0.6-1.4,1c-0.4,0.4-0.7,0.9-0.9,1.5c-0.2,0.6-0.3,1.2-0.3,1.9c0,0.6,0.1,1.3,0.3,1.8
			c0.2,0.6,0.5,1.1,0.9,1.5c0.4,0.4,0.9,0.8,1.4,1c0.5,0.2,1.1,0.4,1.7,0.4h1.8v-2.2h-1.8c-0.3,0-0.6-0.1-0.8-0.2
			c-0.3-0.1-0.5-0.3-0.7-0.6c-0.4-0.5-0.6-1.1-0.6-1.8c0-0.7,0.2-1.3,0.6-1.8c0.2-0.2,0.4-0.4,0.7-0.6c0.3-0.1,0.5-0.2,0.8-0.2h1.8
			v-2.2h-1.8C62.3,62.9,61.7,63,61.1,63.3z"/>
		<polygon class="st8" points="72.8,62.9 72.8,66.6 70,66.6 70,62.9 67.8,62.9 67.8,72.4 70,72.4 70,68.8 72.8,68.8 72.8,72.4 
			75,72.4 75,62.9 		"/>
	</g>
	<g>
		<path class="st8" d="M55.7,37.1c-10.7,0-19.4-8.7-19.4-19.4c0-3.1,0.7-6.1,2-8.7c-4.1,3.6-6.7,9-6.7,14.9c0,11,8.9,19.9,19.9,19.9
			c8.8,0,16.2-5.7,18.9-13.6C66.9,34.5,61.6,37.1,55.7,37.1z"/>
	</g>
	<g>
		<g>
			<path class="st8" d="M31.2,52.9c-2.4,0-4.6-0.5-6.3-1.3c-1.8-0.9-2.8-2.1-2.8-3.5v-3.3c0-0.1,0-0.3,0-0.4
				c0.4-2.5,4.3-4.3,9.1-4.3c4.8,0,8.7,1.9,9.1,4.3c0,0.2,0,0.3,0,0.4v3.3c0,1.3-1,2.6-2.8,3.5C35.9,52.4,33.6,52.9,31.2,52.9z"/>
			<g>
				<g>
					<path class="st0" d="M31.2,49.7c-4.1,0-7.5-1.3-8.7-3.3v1.7c0,2.4,3.9,4.4,8.7,4.4s8.7-1.9,8.7-4.4v-1.7
						C38.7,48.3,35.3,49.7,31.2,49.7z"/>
				</g>
				<path class="st0" d="M39.9,44.8c-2.7-0.3-5.7-0.5-8.6-0.5c-3,0-5.9,0.2-8.6,0.5c0,0,0,0-0.1,0c0,0,0,0,0,0.1
					c0,2.4,3.9,4.4,8.7,4.4S40,47.2,39.9,44.8C40,44.8,40,44.8,39.9,44.8C39.9,44.8,39.9,44.8,39.9,44.8
					C39.9,44.8,39.9,44.8,39.9,44.8z"/>
				<path class="st0" d="M39.9,44.2c-0.6-2.1-4.3-3.7-8.6-3.7s-8,1.6-8.6,3.7c2.7-0.3,5.6-0.5,8.6-0.5
					C34.2,43.7,37.1,43.9,39.9,44.2z"/>
			</g>
		</g>
		<g>
			<path class="st8" d="M43.4,60c-2.5,0-4.8-0.5-6.5-1.4c-1.8-0.9-2.9-2.2-2.9-3.5v-3.4c0-0.1,0-0.3,0-0.4c0.4-2.5,4.4-4.5,9.3-4.5
				c4.9,0,8.9,1.9,9.3,4.5c0,0.2,0,0.3,0,0.4v3.4c0,1.4-1,2.6-2.9,3.5C48.2,59.5,45.9,60,43.4,60z"/>
			<g>
				<g>
					<path class="st0" d="M43.6,56.7c-4.2,0-7.7-1.4-8.9-3.4v1.8c0,2.5,4,4.5,8.9,4.5s8.9-2,8.9-4.5v-1.8
						C51.3,55.3,47.9,56.7,43.6,56.7z"/>
				</g>
				<path class="st0" d="M52.3,51.6c-2.8-0.3-5.8-0.5-8.9-0.5c-3.1,0-6.1,0.2-8.9,0.5c0,0,0,0-0.1,0c0,0,0,0,0,0.1
					c0,2.5,4,4.5,8.9,4.5S52.4,54.2,52.3,51.6C52.4,51.7,52.4,51.7,52.3,51.6C52.4,51.6,52.4,51.6,52.3,51.6
					C52.3,51.6,52.3,51.6,52.3,51.6z"/>
				<path class="st0" d="M52.3,51c-0.7-2.1-4.4-3.8-8.8-3.8s-8.2,1.6-8.8,3.8c2.8-0.3,5.8-0.5,8.8-0.5C46.5,50.5,49.5,50.7,52.3,51z
					"/>
			</g>
		</g>
	</g>
	<circle class="st8" cx="29.3" cy="62.9" r="1.1"/>
</g>
</svg>
