<?xml version="1.0" encoding="utf-8"?>
<!-- Generator: Adobe Illustrator 24.3.0, SVG Export Plug-In . SVG Version: 6.00 Build 0)  -->
<svg version="1.1" id="Layer_1" xmlns="http://www.w3.org/2000/svg" xmlns:xlink="http://www.w3.org/1999/xlink" x="0px" y="0px"
	 viewBox="0 0 128.2 46.2" style="enable-background:new 0 0 128.2 46.2;" xml:space="preserve">
<style type="text/css">
	.st0{fill:#262C60;}
	.st1{fill:#888A88;}
	.st2{fill:#E40425;}
</style>
<g>
	<path class="st0" d="M31.3,32.9c-1.5,2-3.1,3.7-5.3,4.9c-1.3,0.8-2.7,1.2-4.3,1.2c-3.8,0-7.6,0-11.4,0c-4.2,0-6.8-3.1-5.9-7.2
		c1.4-6.2,2.9-12.3,4.4-18.5c0.1-0.3,0.2-0.7,0.2-1c0.5-1.8,0.5-1.8,2.4-1.8c2.2,0,4.4,0,6.6,0c0.3,0,0.7,0,1.1,0
		c-1.7,7.2-3.4,14.2-5.1,21.3c0.4,0,0.7,0,1,0c9.4,0,18.7,0,28.1,0c1.2,0,2.4-0.1,3.5-0.4c1-0.2,1.8-0.9,2.1-2
		c0.2-0.9-0.1-1.5-0.9-1.8c-0.7-0.2-1.5-0.2-2.2-0.2c-2.6,0-5.2,0-7.7-0.9c-1.2-0.4-2.5-1.1-3.5-1.9c-1.9-1.6-2.4-3.9-1.7-6.2
		c1.2-4.4,4.4-6.7,8.6-7.7c1.2-0.3,2.4-0.4,3.6-0.4c4.7,0,9.3,0,14,0c1.5,0,1.7,0.3,1.4,1.7c-0.3,1.3-0.7,2.6-1,3.9
		C59.3,16.8,59,17,58.3,17c-3.7,0-7.4-0.1-11.1,0c-1.1,0-2.2,0.4-3.3,0.9c-0.7,0.3-1.2,1-1.1,1.9c0.1,0.9,0.8,1.3,1.5,1.5
		c0.7,0.2,1.5,0.3,2.2,0.3c2.4,0.1,4.8,0,7.1,0.2c1.1,0.1,2.3,0.5,3.3,0.9c1.7,0.7,2.5,2.1,2.5,4C59.8,32,56.5,36.5,51,38
		c-2.1,0.6-4.2,0.9-6.4,0.9c-4.4,0.1-8.8,0-13.2,0c-1.2,0-1.4-0.2-1.2-1.5C30.5,36,30.9,34.4,31.3,32.9z"/>
	<path class="st1" d="M98,37.6c-0.2,0.5-0.2,1.2-0.4,1.2c-0.8,0.1-1.6,0.1-2.4,0c-0.1,0-0.2-0.4-0.2-0.6c0-5.3,0-10.6,0-15.9
		c0-0.5,0.1-0.7,0.7-0.7c2.8,0.1,2.2-0.4,2.3,2.2c0,1.5,0,3,0,4.7c0.3-0.2,0.5-0.2,0.6-0.3c2.9-2.6,7-1.3,7.8,2.5
		c0.4,1.9,0.4,3.8-0.3,5.6c-1.2,3.1-5.1,4-7.6,1.7C98.3,37.8,98.1,37.7,98,37.6z M103.5,33.1c-0.2-0.9-0.3-1.8-0.7-2.5
		c-0.8-1.9-3.1-2-4.2-0.3c-1,1.5-1,4.1,0,5.6c1.1,1.5,3.2,1.5,4-0.2C103.1,34.8,103.3,33.9,103.5,33.1z"/>
	<path class="st1" d="M80.4,25.6c-2.8-1-5.5-1.2-7.5,1.3c-1.7,2.2-1.9,4.7-0.6,7.1c1.9,3.5,5.1,3.1,8.4,2.3c0,0.7,0,1.4,0,2
		c0,0.2-0.2,0.5-0.4,0.5c-3.3,0.7-6.6,0.7-9.5-1.5c-1.3-1-2.1-2.4-2.3-4.1c-0.5-3.1-0.2-6,2.1-8.4c2.1-2.1,4.8-2.4,7.6-2.2
		c0.2,0,0.3,0,0.5,0.1C80.8,23,81.1,22.6,80.4,25.6z"/>
	<path class="st1" d="M115.6,33.9c0,1.2,0.5,2.1,1.4,2.5c0.9,0.4,1.9,0.5,2.9,0.5c1-0.1,1.9-0.5,3-0.8c0,0.6,0.1,1.3,0,1.9
		c0,0.2-0.3,0.5-0.6,0.6c-2,0.8-4.1,0.9-6.1,0.2c-2.6-0.9-3.9-3.6-3.4-6.9c0.6-3.9,3.4-5.8,7.2-4.9c1.5,0.4,2.6,1.2,3.1,2.7
		c0.4,1,0.5,2.2,0.7,3.3c0.1,0.7-0.1,0.9-0.9,0.9c-2.1,0-4.1,0-6.2,0C116.5,33.8,116.1,33.9,115.6,33.9z M118.7,31.8
		c0.7,0,1.4,0,2.1,0c0.2,0,0.5-0.4,0.5-0.6c-0.1-1.3-1.1-2.3-2.5-2.3c-1.4,0-2.6,0.9-2.7,2.2c-0.1,0.5,0.1,0.7,0.6,0.7
		C117.3,31.8,118,31.8,118.7,31.8z"/>
	<path class="st1" d="M89.9,37.3c-1.2,1.4-2.5,2-4.3,1.9c-1.9-0.2-3.3-1.4-3.5-3.1c-0.2-1.9,0.7-3.5,2.7-4c1.3-0.3,2.8-0.3,4.2-0.4
		c0.9-0.1,1.1-0.2,0.8-1.1c-0.3-1-0.9-1.5-2-1.6c-1.5-0.2-2.8,0.2-4.3,1.2c0-0.8-0.1-1.5-0.1-2.2c0-0.2,0.4-0.5,0.6-0.6
		c1.7-0.6,3.5-0.8,5.3-0.4c1.9,0.4,3.1,1.6,3.2,3.5c0.1,2.6,0.1,5.2,0.2,7.8c0,0.5-0.2,0.7-0.7,0.7C90.4,39,90.4,39,89.9,37.3z
		 M87,37c1.7,0,3.1-1.5,2.9-3.1c0-0.2-0.4-0.6-0.5-0.6c-1,0-2,0.1-3,0.3c-1.1,0.3-1.5,1.1-1.4,2.1C85.2,36.5,85.9,37,87,37z"/>
	<path class="st2" d="M63.2,13.3c0.2-0.9,0.4-1.6,0.5-2.2c0.3-1.3,0.1-1.6-1.2-1.9c-3.1-0.6-6.3-1.3-9.5-1.9c-0.2,0-0.5-0.1-0.7-0.3
		c7.5,0,15.1,0,22.6,0c0,0.1,0.1,0.1,0.1,0.2C71.2,9.1,67.3,11.1,63.2,13.3z"/>
	<path class="st1" d="M108.2,30.1c0-2.6,0-5.1,0-7.7c0-0.7,0.2-0.9,0.9-0.9c2.4,0.1,2.1-0.3,2.1,2.1c0,4.7,0,9.4,0,14.2
		c0,0.9-0.2,1.2-1.2,1.2c-1.8-0.1-1.8,0-1.8-1.9C108.2,34.8,108.2,32.4,108.2,30.1z"/>
</g>
</svg>
