<?xml version="1.0" encoding="utf-8"?>
<!-- Generator: Adobe Illustrator 24.3.0, SVG Export Plug-In . SVG Version: 6.00 Build 0)  -->
<svg version="1.1" id="Layer_1" xmlns="http://www.w3.org/2000/svg" xmlns:xlink="http://www.w3.org/1999/xlink" x="0px" y="0px"
	 viewBox="0 0 78.9 77.3" style="enable-background:new 0 0 78.9 77.3;" xml:space="preserve">
<style type="text/css">
	.st0{display:none;fill:none;stroke:#888A88;stroke-width:1.0281;stroke-miterlimit:10;}
	.st1{fill:#FFFFFF;}
	.st2{opacity:0.99;fill:#FFFFFF;enable-background:new    ;}
	.st3{fill:#1B468B;}
	.st4{fill:#A6802D;}
	.st5{fill:#F8C235;}
	.st6{opacity:0.99;fill:#F8C235;enable-background:new    ;}
</style>
<g>
	<path class="st1" d="M73.4,38.6c0,18.8-15.2,34-34,34s-34-15.2-34-34s15.2-34,34-34S73.4,19.9,73.4,38.6z"/>
	<circle class="st3" cx="39.1" cy="38.5" r="23.3"/>
	<path class="st4" d="M14.3,49.3c0-0.1,0-0.2-0.1-0.2l0.8,0.3c0,0.2,0.1,0.3,0.1,0.4c0,0.5-0.1,0.8-0.5,1l-1.3,0.5c0,0,0,0.2,0,0.5
		c0,0.3,0,0.6-0.1,1c0,0.1,0,0.2-0.1,0.3l2.3-0.9l1,0.8l-3.5,1.3l-1-0.8c0.2-0.2,0.4-0.4,0.6-0.8c0.1-0.2,0.1-0.4,0.2-0.7
		c0-0.1,0-0.2,0-0.4l-0.7,0.3l-1-0.8c0,0,0.1-0.1,0.2-0.1c0.3-0.2,0.4-0.4,0.6-0.6c0.1-0.1,0.1-0.2,0.2-0.5c0-0.1,0.1-0.2,0.1-0.3
		c0.1,0,0.1,0.1,0.2,0.1c0.1,0.1,0.2,0.1,0.3,0.2c0.1,0.1,0.2,0.2,0.3,0.3c0,0,0,0,0.1,0.1l1.3-0.5C14.3,49.7,14.4,49.6,14.3,49.3
		L14.3,49.3z M12.6,50.3c0,0,0-0.1,0-0.1c0-0.1-0.1-0.2-0.1-0.3c0,0,0,0,0,0c0,0.1,0,0.2-0.1,0.3c0,0,0,0.1-0.1,0.2L12.6,50.3
		L12.6,50.3z"/>
	<path class="st4" d="M17.1,54.2c0,0.1,0.1,0.2,0.1,0.3c0,0.2,0,0.4-0.2,0.5c0,0-0.1,0.1-0.1,0.1c-0.1,0-0.3,0-0.7,0
		c-0.4,0-0.7,0.1-1,0.3c-0.2,0.2-0.3,0.5-0.3,1.1l0.1,0.7c0,0,0.1,0,0.1,0c0.1,0,0.2,0,0.3-0.1c0.2-0.1,0.3-0.4,0.4-0.8
		c0-0.2,0.1-0.3,0.3-0.4c0.2-0.1,0.4-0.2,0.7-0.1c0.1,0,0.2,0,0.4,0.1c0,0,0,0,0-0.1c0-0.1,0-0.3,0-0.4c0,0,0-0.1,0-0.1c0,0,0,0,0,0
		l1,0.2c-0.1,0.1-0.1,0.2-0.1,0.3c0,0.2,0,0.5,0.2,0.7c0.1,0.2,0.3,0.3,0.5,0.3c0.2,0.1,0.4,0.1,0.5,0.1c-0.1,0-0.1,0-0.2,0.1
		c-0.1,0-0.2,0-0.4,0c0,0-0.1,0-0.2,0l-0.2,0c0,0.1,0,0.1,0,0.2c0,0.2,0,0.4,0,0.6c0,0.1-0.1,0.2-0.1,0.2l-1.9,1.4l-1.1-0.5l2.2-1.6
		c0.2-0.1,0.2-0.3,0.1-0.7c0-0.1-0.1-0.2-0.1-0.3c0,0-0.1-0.1-0.1-0.2c0,0-0.1,0-0.1,0c-0.2,0.1-0.4,0.4-0.6,1
		c0,0.1-0.1,0.2-0.2,0.3c-0.2,0.1-0.5,0.2-0.9,0.2c-0.3,0-0.7-0.1-1-0.2c-0.1,0-0.3-0.1-0.5-0.2c0,0,0-0.2-0.1-0.4
		c-0.1-0.9,0-1.4,0.4-1.7c0.1-0.1,0.4-0.2,0.8-0.2c0.4,0,0.7,0,0.8-0.1c0.2-0.1,0.2-0.3,0.1-0.5c0,0,0-0.1-0.1-0.2L17.1,54.2
		L17.1,54.2z"/>
	<path class="st4" d="M20.8,59.4l-1.5-1.3l1.1-0.1l1.7,1.4l-2.4,2.8l-1.2-0.2L20.8,59.4L20.8,59.4z"/>
	<path class="st4" d="M23.6,60.4l1.9,1.3l-2.1,3L22,64.6c0,0-0.1,0-0.1-0.1c-0.2-0.1-0.3-0.3-0.4-0.5c-0.1-0.1-0.1-0.2-0.1-0.4
		c0-0.1,0-0.2,0-0.3l0.9,0c0,0.1-0.1,0.1-0.1,0.2c-0.1,0.1-0.1,0.3,0,0.4c0.1,0.2,0.2,0.3,0.3,0.4c0,0,0,0,0,0l1.7-2.5l-1.6-1.1
		L23.6,60.4L23.6,60.4z"/>
	<path class="st4" d="M24.2,60.1c0.1,0,0.2,0.1,0.4,0.1c0.1,0,0.2,0,0.3,0c-0.2,0-0.3,0.1-0.4,0.1c-0.3,0-0.6,0-0.7,0
		c0,0-0.1,0-0.1-0.1c-0.2-0.1-0.4-0.3-0.6-0.5c-0.1-0.1-0.1-0.2-0.2-0.3c0.1,0,0.2-0.1,0.4-0.1c0.3-0.1,0.6-0.1,0.9-0.1
		c0.5,0,0.9,0.1,1.2,0.3c0.5,0.3,0.9,0.8,1.2,1.4c0,0.1,0.1,0.2,0.2,0.3l-0.9,0.2c0-0.1,0-0.2,0-0.3c0-0.2-0.2-0.5-0.4-0.8
		c-0.3-0.4-0.6-0.7-0.9-0.8c-0.2-0.1-0.4-0.2-0.6-0.2c-0.1,0-0.1,0-0.2,0c0,0.1,0,0.2,0.1,0.4C23.9,59.8,24,60,24.2,60.1L24.2,60.1z
		"/>
	<path class="st4" d="M26.6,62.4c0.1,0.1,0.2,0.2,0.3,0.3c0.2,0.3,0.2,0.5,0.2,0.7c0,0.1-0.2,0.2-0.4,0.4c-0.2,0.1-0.4,0.3-0.5,0.6
		c0,0.1-0.1,0.2-0.1,0.4c-0.1,0.3,0,0.7,0.2,1.1c0.1,0.2,0.2,0.4,0.3,0.6c0.1,0,0.1-0.1,0.1-0.1c0.1-0.1,0.2-0.2,0.2-0.3
		c0.1-0.2,0.1-0.6,0.1-1c0-0.2,0-0.4,0.1-0.6c0.1-0.4,0.4-0.7,0.9-0.9c0.4-0.2,0.7-0.3,0.8-0.2l1.7,0.7L29,67.4l-1.2,0.2l1.3-3.4
		L28,63.8c-0.1,0-0.1,0-0.1,0.1c0,0.1,0,0.4,0,1c0,0.3,0,0.6-0.1,0.8l0,0.1c0,0,0,0,0,0c-0.3,0.5-0.8,0.8-1.6,1c-0.1,0-0.3,0-0.4,0
		c0,0-0.1-0.1-0.2-0.3c-0.5-0.7-0.6-1.3-0.4-1.8c0.1-0.2,0.3-0.3,0.6-0.5c0.3-0.2,0.5-0.4,0.6-0.5c0.1-0.2,0-0.4-0.2-0.6
		c0,0-0.1-0.1-0.2-0.2L26.6,62.4L26.6,62.4z"/>
	<path class="st4" d="M32.3,64.5c0,0,0.1,0,0.2,0c0.1,0,0.3,0.1,0.5,0.3c0.2,0.2,0.2,0.2,0.2,0.3l-0.8,0.4c0,0,0-0.1,0-0.1
		c-0.1-0.2-0.2-0.3-0.5-0.4c-0.2,0-0.3,0-0.3,0.1c0,0.1,0,0.2,0.1,0.4c0.1,0.2,0.2,0.3,0.3,0.4c0.2,0.1,0.3,0.2,0.5,0.2
		c0.1,0,0.3,0,0.4,0c0,0,0.1,0,0.2,0c-0.2,0-0.4,0.1-0.6,0.2c-0.6,0.2-0.8,0.4-0.9,0.7c-0.1,0.3,0.2,0.6,0.7,1
		c0.3,0.2,0.6,0.3,0.8,0.4l0.6-3l1.2-0.4l-0.7,3.3l-1.9,0.6c-0.1,0-0.2,0-0.6-0.2c-1-0.5-1.4-1-1.3-1.4c0,0,0,0,0,0
		c0-0.2,0.3-0.4,0.6-0.6c0.1,0,0.3-0.1,0.6-0.1c-0.6-0.1-0.9-0.4-0.9-0.8c0,0,0,0,0-0.1c0-0.2,0.2-0.4,0.6-0.7
		C31.7,64.7,32,64.6,32.3,64.5L32.3,64.5z"/>
	<path class="st4" d="M37.5,66l-1.9-0.1l0.8-0.7l2.2,0.1L38.3,69l-1.1,0.6L37.5,66L37.5,66z"/>
	<path class="st4" d="M41,69.9c0,0-0.1-0.1-0.3-0.2c-0.5-0.5-0.8-0.9-0.9-1.4c-0.1-0.7,0.2-1.3,0.9-1.8c0.2-0.2,0.3-0.2,0.3-0.2
		l-1.5,0.1l0.6-0.8l3.9-0.3l0.3,3.7l-1.1,0.7c0-0.1-0.2-0.3-0.4-0.6L42,68c-0.2-0.3-0.4-0.6-0.8-0.9c-0.2-0.1-0.3-0.2-0.5-0.4
		c0,0.1-0.1,0.2-0.1,0.2c0,0.2,0,0.4,0,0.6c0,0.3,0.1,0.5,0.2,0.6c0.2,0.3,0.4,0.5,0.6,0.7c0.1,0.1,0.3,0.1,0.5,0.1L41,69.9L41,69.9
		z M41.6,66.3l0.3,0.3c0.2,0.2,0.3,0.3,0.3,0.3c0,0,0.2,0.2,0.5,0.6c0.1,0.1,0.2,0.2,0.3,0.3l-0.1-1.7L41.6,66.3z"/>
	<path class="st4" d="M42.4,63.5c0,0,0,0.1-0.1,0.1c0,0.1-0.1,0.2-0.1,0.3c0,0.2,0.4,0.3,1,0.2c0.2,0,0.5-0.2,0.8-0.4
		c0.2-0.2,0.4-0.4,0.6-0.7c0-0.1,0.1-0.2,0.2-0.3c-0.1,0.1-0.1,0.3-0.3,0.5c-0.2,0.4-0.5,0.7-0.8,1c-0.4,0.4-0.9,0.6-1.4,0.7
		c-0.3,0-0.6,0-1-0.2c-0.1-0.1-0.3-0.2-0.4-0.3L42.4,63.5L42.4,63.5z"/>
	<path class="st4" d="M46,64.7c0,0,0.1-0.1,0.1-0.1c0.1,0,0.3,0,0.6,0.1c0.2,0.1,0.3,0.1,0.3,0.1l-0.5,0.7c0,0,0-0.1-0.1-0.1
		c-0.1-0.1-0.3-0.2-0.6-0.1c-0.2,0.1-0.3,0.1-0.2,0.3c0,0.1,0.1,0.2,0.3,0.3c0.2,0.1,0.3,0.2,0.5,0.2c0.2,0,0.4,0,0.6,0
		c0.1,0,0.3-0.1,0.4-0.2c0,0,0.1-0.1,0.1-0.1c-0.1,0.1-0.3,0.3-0.4,0.4c-0.4,0.4-0.6,0.8-0.5,1c0.1,0.3,0.4,0.4,1.1,0.6
		c0.3,0,0.6,0,1,0l-0.9-3l0.9-0.9l0.9,3.3l-1.4,1.4c0,0-0.2,0.1-0.6,0.1c-1.1,0-1.7-0.2-1.8-0.7c0,0,0,0,0,0c-0.1-0.2,0-0.5,0.3-0.8
		c0.1-0.1,0.2-0.2,0.4-0.4c-0.6,0.2-1,0.1-1.2-0.3c0,0,0,0,0-0.1c-0.1-0.2,0-0.5,0.2-0.9C45.6,65.1,45.8,64.8,46,64.7L46,64.7z"/>
	<path class="st4" d="M50.2,63.7c-0.1,0-0.2,0.1-0.2,0.1l0.2-0.8c0.2,0,0.3-0.1,0.4-0.1c0.5-0.1,0.8,0,1,0.4l0.6,1.2
		c0,0,0.2,0,0.5,0c0.3,0,0.6,0,1,0c0.1,0,0.2,0,0.3,0l-1.1-2.2l0.7-1.1l1.6,3.3l-0.7,1.1c-0.2-0.1-0.5-0.3-0.9-0.5
		c-0.2-0.1-0.4-0.1-0.7-0.1c-0.1,0-0.2,0-0.4,0l0.4,0.7l-0.7,1.1c0,0-0.1-0.1-0.2-0.2c-0.2-0.2-0.4-0.4-0.6-0.5
		c-0.1-0.1-0.3-0.1-0.5-0.2c-0.1,0-0.2-0.1-0.3-0.1c0-0.1,0-0.1,0.1-0.2c0.1-0.1,0.1-0.2,0.2-0.3c0.1-0.2,0.2-0.3,0.3-0.4
		c0,0,0,0,0.1-0.1l-0.6-1.2C50.6,63.7,50.5,63.6,50.2,63.7L50.2,63.7z M51.4,65.3c0,0-0.1,0-0.1,0c-0.1,0.1-0.2,0.1-0.3,0.2
		c0,0,0,0,0,0c0.1,0,0.2,0,0.3,0.1c0,0,0.1,0,0.2,0.1L51.4,65.3L51.4,65.3z"/>
	<path class="st4" d="M55.2,60.6c0.1,0,0.2-0.1,0.3-0.1c0.2,0,0.4,0,0.5,0.2c0,0,0.1,0.1,0.1,0.1c0,0.1,0.1,0.3,0,0.7s0.1,0.7,0.3,1
		c0.2,0.2,0.5,0.3,1.1,0.2l0.7-0.1c0,0,0-0.1,0-0.1c0-0.1,0-0.2-0.1-0.3c-0.1-0.2-0.4-0.3-0.8-0.4c-0.2,0-0.3-0.1-0.4-0.3
		c-0.1-0.2-0.2-0.4-0.2-0.7c0-0.1,0-0.2,0.1-0.4c0,0,0,0,0,0c-0.1,0-0.3,0-0.4,0c0,0-0.1,0-0.1,0c0,0,0,0,0,0l0.2-1
		c0.1,0.1,0.2,0.1,0.3,0.1c0.2,0,0.5,0,0.7-0.2c0.1-0.1,0.3-0.3,0.3-0.5c0.1-0.2,0.1-0.4,0-0.5c0,0.1,0,0.1,0.1,0.2
		c0,0.1,0,0.2,0,0.4c0,0,0,0.1,0,0.2l0,0.2c0.1,0,0.1,0,0.2,0c0.2,0,0.4,0,0.6,0c0.1,0,0.2,0.1,0.2,0.1l1.4,1.9l-0.5,1.1L58.2,60
		c-0.1-0.2-0.3-0.2-0.7-0.1c-0.1,0-0.2,0.1-0.3,0.1c0,0-0.1,0.1-0.2,0.1c0,0,0,0.1,0,0.1c0.1,0.2,0.5,0.4,1,0.5
		c0.1,0,0.2,0.1,0.3,0.2c0.2,0.2,0.2,0.5,0.2,0.9c0,0.3,0,0.7-0.1,1c0,0.1-0.1,0.3-0.1,0.5c0,0-0.2,0-0.4,0.1
		c-0.9,0.1-1.4,0-1.7-0.4c-0.1-0.1-0.2-0.4-0.2-0.8c0-0.4-0.1-0.6-0.2-0.8c-0.1-0.2-0.3-0.2-0.5-0.1c0,0-0.1,0-0.2,0.1L55.2,60.6
		L55.2,60.6z"/>
	<path class="st4" d="M55.7,59.1c0.1-0.1,0.1-0.2,0.2-0.4c0-0.1,0-0.1,0-0.3c0,0.2,0,0.3,0,0.4c0,0.3-0.1,0.6-0.2,0.7
		c0,0,0,0.1-0.1,0.1c-0.2,0.2-0.4,0.3-0.7,0.4c-0.1,0-0.3,0.1-0.4,0.1c0-0.1,0-0.2,0-0.4c0-0.3,0.1-0.6,0.2-0.9
		c0.1-0.5,0.3-0.8,0.6-1.1c0.4-0.4,1-0.7,1.7-0.8c0.1,0,0.2,0,0.4-0.1l-0.1,1c-0.1,0-0.2-0.1-0.3-0.1c-0.2,0-0.5,0-0.9,0.2
		c-0.5,0.2-0.8,0.4-1,0.6c-0.2,0.2-0.3,0.3-0.4,0.5c0,0.1-0.1,0.1-0.1,0.2c0.1,0,0.2,0,0.4,0C55.2,59.4,55.5,59.3,55.7,59.1
		L55.7,59.1z"/>
	<path class="st4" d="M61.2,54.1l2.9,2.3l-0.2,1.2l-2.8-2.3l-1.6,2c0.1,0.1,0.2,0.2,0.3,0.3c0.2,0.1,0.4,0.1,0.8,0
		c0.2-0.1,0.3-0.1,0.5-0.2c0,0,0,0,0-0.1c0-0.1-0.1-0.1-0.1-0.2c-0.1-0.1-0.3-0.1-0.5,0c0,0,0,0-0.1,0l-0.1-0.8
		c0.1-0.1,0.2-0.1,0.3-0.1c0.2-0.1,0.3-0.1,0.4,0c0.1,0,0.1,0.1,0.1,0.2c0.1,0.2,0.1,0.5,0.1,0.9c0,0.6,0,0.9,0.1,1
		c0.2,0.2,0.5,0.2,0.8,0.1c0.1,0,0.2-0.1,0.4-0.2l0.2,0.8c-0.1,0.1-0.2,0.1-0.2,0.2c-0.4,0.2-0.7,0.2-0.9,0.2
		c-0.1,0-0.1-0.1-0.2-0.1c-0.1-0.1-0.2-0.2-0.2-0.4c0-0.2,0-0.4,0-0.5c-0.6,0.3-1,0.3-1.3,0c-0.4-0.3-0.6-0.9-0.5-1.7
		c0-0.2,0-0.4,0.1-0.4L61.2,54.1L61.2,54.1z"/>
	<path class="st4" d="M66.3,54c0,0-0.2,0.1-0.3,0.1c-0.7,0.2-1.2,0.3-1.6,0.1c-0.6-0.3-1-0.8-1.1-1.7c0-0.2-0.1-0.4,0-0.4l-0.7,1.4
		l-0.4-0.9l1.7-3.5l3.3,1.6l0.1,1.3c-0.1,0-0.3,0-0.7,0l-1.3,0c-0.3,0-0.7,0.1-1.2,0.2c-0.2,0.1-0.4,0.2-0.6,0.2
		c0.1,0.1,0.1,0.1,0.2,0.2c0.2,0.1,0.3,0.3,0.5,0.4c0.2,0.1,0.4,0.2,0.6,0.2c0.4,0,0.6-0.1,0.9-0.2c0.1-0.1,0.3-0.2,0.4-0.4L66.3,54
		L66.3,54z M63.4,51.6l0.5-0.1c0.2,0,0.4-0.1,0.4-0.1c0,0,0.3,0,0.8-0.1c0.1,0,0.2,0,0.4-0.1L64,50.4L63.4,51.6z"/>
	<path class="st4" d="M12.9,24.5c0-0.1,0.1-0.1,0.3-0.2c0.2-0.1,0.2-0.1,0.2-0.1l0.2,1c0,0-0.1,0-0.1,0c-0.1,0-0.2,0-0.2,0.1
		c0,0-0.1,0.1-0.2,0.3c0,0.1,0,0.1,0.1,0.2c0.2,0.1,0.3,0.1,0.5,0.1c0.3,0,0.5,0,0.6-0.1c0.5-0.1,1-0.3,1.4-0.6
		c0.1-0.1,0.2-0.1,0.2-0.2l-2.5-1.5l-1.4,2.4l-0.3-1l1.6-2.8l3,1.8l-0.1,1.9c0,0,0,0,0,0c0,0.1-0.2,0.2-0.5,0.3
		c-0.4,0.2-0.7,0.3-1.1,0.4c-0.4,0.1-0.8,0.1-1-0.1c-0.2-0.2-0.5-0.4-0.6-0.8c-0.2-0.4-0.2-0.8,0-1.1C12.9,24.6,12.9,24.5,12.9,24.5
		L12.9,24.5z"/>
	<path class="st4" d="M15.7,20.3c0.1-0.1,0.2-0.1,0.3-0.1c0.2-0.1,0.4,0,0.5,0.1c0.2,0.2,0.2,0.6,0.1,1.4c0,0.2,0,0.4,0.1,0.5
		c0.2,0.2,0.4,0.2,0.6,0.2c0.2-0.1,0.4-0.2,0.6-0.3l0.1,0.9c0,0-0.1,0.1-0.4,0.3c-0.3,0.1-0.5,0.2-0.8,0.1c-0.1,0-0.1,0-0.2-0.1
		c-0.1-0.1-0.2-0.3-0.2-0.6c0-0.1,0-0.3,0-0.4c-0.6,0.3-1,0.3-1.3,0.1c-0.4-0.4-0.6-1-0.3-2c0.1-0.3,0.2-0.5,0.2-0.5
		c0.1,0,0.2,0,0.3,0c0.3,0,0.4-0.1,0.5-0.3C16,19.2,16,19,16,18.8c0-0.1,0-0.2,0-0.4c0.2-0.1,0.2-0.2,0.3-0.2
		c0.2-0.1,0.4-0.2,0.5-0.2c0.2,0,0.3,0.1,0.5,0.2l2.1,1.8l-0.2,1.3l-2.6-2.2c-0.1-0.1-0.3,0-0.6,0.2c0,0.1,0,0.2-0.1,0.4
		C15.9,19.9,15.8,20.1,15.7,20.3c-0.2,0.1-0.4,0.2-0.6,0.3c-0.1,0-0.2,0.1-0.3,0.1c0,0.1,0,0.2,0.1,0.3c0.1,0.2,0.1,0.3,0.2,0.4
		c0,0,0,0,0.1,0c0.2,0.1,0.4,0.1,0.8,0c0,0,0.2-0.1,0.6-0.2c0,0,0,0,0,0c0,0,0-0.1-0.1-0.1c-0.2-0.1-0.3-0.1-0.5,0
		c0,0-0.1,0-0.1,0.1L15.7,20.3L15.7,20.3z"/>
	<path class="st4" d="M19.7,21.9c-0.2-0.2-0.2-0.4,0.1-0.7c0.3-0.3,0.5-0.3,0.7-0.1c0.2,0.2,0.2,0.4-0.1,0.7
		C20.1,22.1,19.9,22.1,19.7,21.9L19.7,21.9z"/>
	<path class="st4" d="M19.5,16.5c0.1,0,0.2-0.1,0.3-0.1c0.2,0,0.4,0,0.5,0.2c0.2,0.2,0.1,0.7-0.2,1.4c-0.1,0.2-0.1,0.4,0,0.5
		c0.2,0.2,0.4,0.3,0.6,0.3c0.2-0.1,0.4-0.1,0.6-0.2l0,0.9c0,0-0.1,0.1-0.4,0.2c-0.3,0.1-0.6,0.1-0.8,0c-0.1,0-0.1-0.1-0.2-0.1
		c-0.1-0.1-0.2-0.4-0.1-0.7c0-0.1,0-0.3,0.1-0.4c-0.6,0.2-1.1,0.1-1.3-0.2c-0.4-0.4-0.4-1.1,0-2c0.1-0.3,0.2-0.5,0.3-0.5
		c0.1,0,0.2,0,0.3,0c0.3,0,0.4,0,0.6-0.2c0.1-0.1,0.2-0.3,0.3-0.6c0-0.1,0-0.2,0-0.4c0.2-0.1,0.3-0.1,0.3-0.1
		c0.2-0.1,0.4-0.1,0.6-0.1c0.2,0,0.3,0.2,0.4,0.3l1.8,2.1l-0.4,1.2l-2.2-2.6c-0.1-0.1-0.3-0.1-0.6,0.1c0,0.1-0.1,0.2-0.1,0.3
		C19.7,16.2,19.5,16.4,19.5,16.5c-0.2,0.1-0.4,0.1-0.7,0.2c-0.1,0-0.2,0-0.4,0c0,0.1,0,0.2,0,0.3c0,0.2,0.1,0.3,0.2,0.4c0,0,0,0,0,0
		c0.1,0.1,0.4,0.1,0.8,0.1c0,0,0.2,0,0.6-0.1c0,0,0,0,0,0c0,0,0-0.1-0.1-0.1c-0.1-0.1-0.3-0.2-0.5-0.1c0,0-0.1,0-0.1,0.1L19.5,16.5
		L19.5,16.5z"/>
	<path class="st4" d="M23.7,13.2l-1.7,1l0.3-1.1l1.9-1.2l1.9,3.1l-0.6,1.1L23.7,13.2L23.7,13.2z"/>
	<path class="st4" d="M25.6,12l0.4-0.9c0.1,0,0.3,0,0.4,0c0.3,0.1,0.4,0.2,0.5,0.3l0,0c0,0.2,0,0.5-0.2,1.1c-0.1,0.3-0.1,0.5,0,0.6
		c0,0,0,0.1,0,0.1c0.2,0.2,0.4,0.4,0.7,0.5c0.4,0.1,0.8,0.2,1,0.1c0.1,0,0.2-0.1,0.3-0.3c0.1-0.2,0.2-0.3,0.2-0.3L28,11l0.8-1
		l1.1,2.7l-0.6,0.4c0.1,0,0.1,0,0.2,0c0.2,0,0.5,0,0.7,0.1c0.1,0.1,0.2,0.1,0.2,0.1L30,14.1c-0.4-0.3-0.7-0.4-1.1-0.3
		c-0.2,0.1-0.3,0.3-0.4,0.6c-0.1,0.3-0.1,0.4-0.1,0.4c0,0-0.2,0-0.4,0c-0.9,0-1.4-0.3-1.6-0.7c-0.1-0.2-0.1-0.4,0-0.7
		c0.2-0.6,0.2-1,0.2-1.1c0,0,0,0,0-0.1c0,0,0,0,0,0c-0.1-0.2-0.3-0.3-0.5-0.3C25.9,11.9,25.7,11.9,25.6,12L25.6,12z"/>
	<path class="st4" d="M26.9,9.8c-0.1,0-0.2-0.1-0.2-0.2c0,0,0,0,0-0.1l0.6-0.9c0.1-0.1,0.3-0.2,0.6-0.3c0,0,0.1,0,0.2,0
		c0.1,0,0.2,0,0.4,0c0.2,0,0.3,0.1,0.3,0.1c0,0,0,0.1,0,0.1l-0.6,1c-0.1,0.1-0.2,0.2-0.5,0.3c-0.1,0-0.2,0.1-0.3,0.1
		C27.3,9.9,27.1,9.9,26.9,9.8L26.9,9.8z M27.2,9.2c0,0.1,0.1,0.1,0.1,0.2c0.1,0,0.3,0,0.5,0c0.1,0,0.1,0,0.2,0
		c0.2,0,0.3-0.1,0.3-0.2c0,0,0-0.1,0.1-0.1c0,0,0,0,0-0.1c0-0.1-0.2-0.2-0.4-0.1c-0.1,0-0.2,0.1-0.3,0.1C27.5,8.9,27.3,9,27.2,9.2
		C27.2,9.1,27.2,9.1,27.2,9.2L27.2,9.2z"/>
	<path class="st4" d="M40.2,8.5c0.1,0,0.2,0.1,0.3,0.2c0.2,0.1,0.2,0.2,0.2,0.2l-0.8,0.6c0,0,0-0.1-0.1-0.1
		c-0.1-0.1-0.1-0.1-0.2-0.2c0,0-0.2,0-0.4-0.1c-0.1,0-0.1,0.1-0.1,0.2c0,0.2,0,0.4,0.1,0.5c0.1,0.2,0.2,0.4,0.3,0.5
		c0.3,0.4,0.7,0.7,1.2,1c0.1,0,0.2,0.1,0.3,0.1l0.1-2.9l-2.7-0.1l0.7-0.7l3.2,0.2l-0.2,3.5L40.5,12c0,0,0,0,0,0
		c-0.1,0-0.3-0.1-0.5-0.3c-0.3-0.2-0.6-0.5-0.9-0.8c-0.3-0.4-0.4-0.7-0.4-1S38.8,9.3,39,9c0.3-0.4,0.6-0.6,1-0.6
		C40.1,8.5,40.1,8.5,40.2,8.5L40.2,8.5z"/>
	<path class="st4" d="M41.2,12.1c0,0,0.1,0,0.1,0c0.3,0.1,0.5,0.2,0.6,0.4c0,0.1,0.1,0.1,0.1,0.2l-0.1,0.7l-1.1,0.4l0.1-0.8
		c0-0.1,0-0.1,0-0.2c0,0-0.1-0.1-0.3-0.1c-0.1,0-0.1,0-0.2,0L41.2,12.1L41.2,12.1z"/>
	<path class="st4" d="M45,8.2c0.1,0.1,0.2,0.2,0.3,0.3c0.2,0.2,0.2,0.4,0.2,0.6v0.1c0,0,0,0,0,0.1c-0.1,0.1-0.2,0.3-0.5,0.5
		c-0.3,0.2-0.4,0.4-0.5,0.5c0,0.1,0,0.2,0,0.3c0.1,0.5,0.4,1,0.7,1.3c0.2,0.2,0.5,0.3,0.7,0.4c0.1,0,0.1,0,0.1,0l1-4l1.2-0.4
		l-1.1,4.4l-1.9,0.4c-0.1,0-0.3-0.1-0.6-0.3c-0.9-0.6-1.2-1.2-1.1-1.8c0-0.2,0.2-0.3,0.4-0.5c0.4-0.3,0.7-0.6,0.7-0.7
		c0,0,0-0.1,0-0.1c0-0.1-0.1-0.3-0.2-0.4c0,0-0.1-0.1-0.2-0.2L45,8.2L45,8.2z"/>
	<path class="st4" d="M49.2,10.3c-0.1,0-0.2-0.1-0.2-0.1l0.8-0.3C49.9,9.9,50,10,50.1,10c0.4,0.3,0.5,0.7,0.4,1.1l-0.5,1.3
		c0,0,0.2,0.2,0.4,0.3c0.2,0.2,0.4,0.4,0.6,0.7c0.1,0.1,0.1,0.2,0.2,0.2l0.9-2.2l1.3-0.2l-1.4,3.4l-1.3,0.2c0-0.2-0.1-0.6-0.2-1
		c-0.1-0.2-0.2-0.4-0.4-0.6c-0.1-0.1-0.2-0.2-0.3-0.3l-0.3,0.7l-1.3,0.2c0-0.1,0-0.1,0-0.2c0-0.3,0-0.6,0-0.8c0-0.1-0.1-0.3-0.2-0.5
		c0-0.1-0.1-0.2-0.1-0.3c0.1,0,0.1-0.1,0.2-0.1c0.1,0,0.3-0.1,0.4-0.1c0.2,0,0.3,0,0.5,0c0,0,0,0,0.1,0l0.5-1.2
		C49.5,10.5,49.4,10.4,49.2,10.3L49.2,10.3z M48.8,12.2c0,0,0,0-0.1-0.1c-0.1-0.1-0.2-0.1-0.3-0.1c0,0,0,0,0,0
		c0.1,0,0.1,0.1,0.2,0.3c0,0,0,0.1,0.1,0.2L48.8,12.2L48.8,12.2z"/>
	<path class="st4" d="M52.1,9.8c0-0.1,0-0.2,0-0.2c0,0,0,0,0.1,0l1.1-0.2c0.1,0,0.4,0.1,0.7,0.2c0,0,0.1,0,0.1,0.1
		c0.1,0.1,0.2,0.2,0.3,0.3c0.1,0.2,0.2,0.3,0.1,0.3c0,0,0,0-0.1,0.1l-1.2,0.2c-0.1,0-0.3,0-0.6-0.2c-0.1,0-0.2-0.1-0.2-0.1
		C52.2,10.2,52.1,10,52.1,9.8z M52.7,9.6c0,0.1-0.1,0.2,0,0.2c0.1,0.1,0.2,0.2,0.3,0.4c0.1,0,0.1,0.1,0.2,0.1
		c0.1,0.1,0.3,0.1,0.4,0.1c0,0,0.1,0,0.1-0.1c0,0,0,0,0,0c0.1-0.1,0-0.2-0.2-0.4c-0.1-0.1-0.2-0.1-0.2-0.1
		C53.1,9.6,52.9,9.6,52.7,9.6C52.8,9.6,52.7,9.6,52.7,9.6L52.7,9.6z"/>
	<path class="st4" d="M57.1,19.5l2.3-2.1c0.1-0.1,0.2-0.2,0.1-0.3c0-0.1-0.1-0.2-0.1-0.3c0,0-0.1-0.1-0.1-0.2l1,0l2.3,2.5l-2.7,2.5
		l-1.2-0.4l2.6-2.4l-1-1.1l0,0.4l-1.9,1.8L57.1,19.5L57.1,19.5z"/>
	<path class="st4" d="M61,23.2c0,0.1,0,0.1,0.1,0.2c0,0,0,0.1,0.1,0.1l-0.9-0.3c-0.1,0-0.2-0.2-0.2-0.6c0-0.3,0-0.5,0.1-0.5l2.5-1.8
		l1.2,0.5l-2.8,2C61,22.9,61,23,61,23.2L61,23.2z"/>
	<path class="st4" d="M61.6,24.3l1,0.4c-0.4,0.3-0.4,0.7-0.2,1.1c0.1,0.2,0.3,0.4,0.4,0.4c0.1,0,0.2,0,0.4-0.1
		c0.3-0.2,0.6-0.5,0.8-1c0.3-0.8,0.3-1.5,0.1-2.3c0-0.1-0.1-0.2-0.1-0.3l1,0.3l1.6,2.9l-1-0.3l-0.5-0.9c0,0,0,0.2-0.1,0.3
		c-0.2,0.7-0.5,1.1-0.9,1.4c-0.2,0.1-0.3,0.1-0.4,0.2c-0.6,0.1-1.2-0.1-1.9-0.6c0,0-0.1-0.1-0.1-0.1c-0.1-0.2-0.1-0.5-0.1-0.8
		C61.5,24.4,61.6,24.2,61.6,24.3L61.6,24.3z"/>
	<path class="st4" d="M39.4,73.3c-19.1,0-34.6-15.5-34.6-34.6S20.3,4,39.4,4S74,19.5,74,38.6S58.5,73.3,39.4,73.3z M39.4,5.3
		C21.1,5.3,6.1,20.3,6.1,38.6S21.1,72,39.4,72S72.7,57,72.7,38.6S57.8,5.3,39.4,5.3z"/>
	<path class="st4" d="M39.4,71.7c-18.2,0-33-14.8-33-33s14.8-33,33-33s33,14.8,33,33S57.6,71.7,39.4,71.7z M39.4,6
		C21.4,6,6.7,20.6,6.7,38.6s14.7,32.7,32.7,32.7s32.7-14.7,32.7-32.7S57.5,6,39.4,6z"/>
	<path class="st4" d="M39.1,63.1c-13.6,0-24.6-11.1-24.6-24.6s11-24.6,24.6-24.6s24.6,11.1,24.6,24.6S52.7,63.1,39.1,63.1z
		 M39.1,14.2c-13.4,0-24.3,10.9-24.3,24.3s10.9,24.3,24.3,24.3s24.3-10.9,24.3-24.3S52.5,14.2,39.1,14.2z"/>
	<g>
		<path class="st4" d="M10.5,39.2c-0.4,0-0.8-0.4-0.8-0.8s0.4-0.8,0.8-0.8s0.8,0.4,0.8,0.8S10.9,39.2,10.5,39.2z M10.5,37.8
			c-0.4,0-0.7,0.3-0.7,0.7s0.3,0.7,0.7,0.7s0.7-0.3,0.7-0.7S10.9,37.8,10.5,37.8z"/>
		<path class="st4" d="M12.1,37.5c-0.4-0.2-0.8,0.1-0.8,0.1h0l0,0c0.4-0.4,0-1.2,0-1.2c-0.2-0.4-0.6-1.3-0.6-1.3
			c-0.1,0.3-0.7,1.3-0.7,1.3c-0.5,0.8,0,1.2,0,1.2c0,0,0,0,0,0c0,0,0,0,0,0c-0.1-0.1-0.5-0.3-0.8-0.1c0,0-0.8,0.8-1.1,0.9
			c0,0,0.3,0.2,0.8,0.6c0,0,0.6,0.7,1.1,0.2c0,0,0,0,0,0c0,0.1-0.3,0.5,0.1,1.2c0,0,0.7,0.9,0.7,1.3c0,0,0.3-0.9,0.6-1.3
			c0,0,0.5-0.8,0.1-1.2l0,0c0.5,0.4,1.1-0.2,1.1-0.2c0.5-0.4,0.8-0.6,0.8-0.6C12.9,38.4,12.1,37.6,12.1,37.5L12.1,37.5z M10.5,39.4
			c-0.5,0-1-0.4-1-1s0.4-1,1-1s1,0.4,1,1S11.1,39.4,10.5,39.4z"/>
	</g>
	<g>
		<path class="st4" d="M68,39.2c-0.4,0-0.8-0.4-0.8-0.8s0.4-0.8,0.8-0.8c0.4,0,0.8,0.4,0.8,0.8S68.4,39.2,68,39.2z M68,37.8
			c-0.4,0-0.7,0.3-0.7,0.7s0.3,0.7,0.7,0.7c0.4,0,0.7-0.3,0.7-0.7S68.4,37.8,68,37.8z"/>
		<path class="st4" d="M69.6,37.5c-0.4-0.2-0.8,0.1-0.8,0.1h0c0,0,0,0,0,0c0.4-0.4,0-1.2,0-1.2c-0.2-0.4-0.6-1.3-0.6-1.3
			c-0.1,0.3-0.7,1.3-0.7,1.3c-0.5,0.8,0,1.2,0,1.2h0c0,0,0,0,0,0c-0.1-0.1-0.5-0.3-0.8-0.1c0,0-0.8,0.8-1.1,0.9c0,0,0.3,0.2,0.8,0.6
			c0,0,0.6,0.7,1.1,0.2c0,0,0,0,0,0c0,0.1-0.3,0.5,0.1,1.2c0,0,0.7,0.9,0.7,1.3c0,0,0.3-0.9,0.6-1.3c0,0,0.5-0.8,0.1-1.2l0,0
			c0.5,0.4,1.1-0.2,1.1-0.2c0.5-0.4,0.8-0.6,0.8-0.6C70.3,38.4,69.5,37.6,69.6,37.5L69.6,37.5z M68,39.4c-0.5,0-1-0.4-1-1s0.4-1,1-1
			c0.5,0,1,0.4,1,1S68.6,39.4,68,39.4z"/>
	</g>
	<path class="st4" d="M39.1,62.3c-13.2,0-23.9-10.7-23.9-23.9s10.7-23.9,23.9-23.9S63,25.3,63,38.5S52.3,62.3,39.1,62.3z M39.1,15.7
		c-12.6,0-22.8,10.2-22.8,22.8s10.2,22.8,22.8,22.8S61.9,51,61.9,38.5S51.7,15.7,39.1,15.7z"/>
	<g>
		<path class="st5" d="M33.7,51.9c0,0-1.2,0.3-1.3,2.1c0,0,0,1.8,1.4,2.8c0,0,1,0.7,1.8,0.7c0,0,0.8,0.2,1.6-1.6
			c0,0,0.4-1.3,0.4-2.4l0.2,0.3c0,0-0.1,2.5-1.2,3.6c0,0-0.6,1.1-2.3,0.2c0,0-2.1-0.8-2.2-3.4c0,0,0-1.9,1.6-2.4
			C33.8,51.6,33.8,51.8,33.7,51.9L33.7,51.9z"/>
		<path class="st5" d="M44.7,46.4c0,0-2.1,0.1-2.6,2.2c0,0-0.3,0.9,0.2,2.1c0,0,0.4,1.3,0,2c0,0,1.2-0.3,1.4-1.7
			c0,0,0.2-0.5-0.1-2.2c0,0,0-1.4,1.2-1.8L44.7,46.4L44.7,46.4z"/>
		<path class="st5" d="M48.3,47.9l-0.4-0.6c0,0,0.7-0.6,0.5-1.5c0,0-0.1-0.7-0.7-0.7c0,0-0.8,0.1-0.5,1.1c0,0-1.2-0.2-1.3-1.5
			c0,0,0-0.8,0.5-1c0,0,0.5-0.4,0.9-0.1c0,0-0.2-0.9,0.9-2c0,0,0.7-0.9,1.5-1.1c0,0-0.4,0.2-0.6,0.9c0,0-0.2,0.4,0,1.3
			c0,0,0.1,0.9-0.4,1.4c0,0,0.1,0.1,0.4-0.3c0,0,0.2-0.3,0.5-0.3c0,0-0.4,0-0.2,0.9c0,0,0.3,1,0,2C49.4,46.4,49,47.3,48.3,47.9
			L48.3,47.9z"/>
		<path class="st5" d="M47.3,40.3c0,0,0.7-2.1-0.3-4.3c0,0,0.1,0.9-0.3,1.5c0,0-0.6,0.8-0.6,1.2c0,0,0-0.4-0.5-0.7
			c0,0,0.2,0.4-0.1,0.6c0,0-0.4,0.6-0.4,1c0,0,0,0.6,0.3,0.8c0,0,0-0.6,0.5-0.6c0,0,0.5,0,0.5,0.8c0,0-0.2,0.9-0.6,1.6
			c0,0-0.1-0.6-0.5-1.1c0,0-0.6-0.4-1.1-0.2c0,0,0-1.4,0.3-2.4c0,0,0.4-1.1,1.2-1.2c0,0,0.4,0.1,0.6,0.5c0,0,0-0.2,0.3-0.8
			c0,0,0.8-1.2-0.4-4.1c0,0,0.1,1-0.2,1.6c0,0-0.4,0.8-0.2,1.2c0,0,0.1,0.4-0.2,0.6c0,0,0.1-0.3-0.2-0.7c0,0,0.1,0.4-0.1,0.5
			c0,0-0.6,0.6-0.7,1c0,0-0.9-1.1-3.4-1.4l0.1,0.4c0,0,1,0.1,1.7,0.6c0,0,0.3,0.4,0.1,0.8c0,0,0.6,0.3,0.7,1c0,0,0,1,0,1.8
			c0,0,0.1,1.6-0.5,2.2c0,0-0.1,0.1-0.3,0.2c0,0-0.3,0.1-0.2,0.3c0,0,0.1,0.3,0.4,0.2c0,0,0.5-0.2,0.8-1.1c0,0,0.2-0.6,0.2-1
			c0,0,0.5-0.3,0.9,0.3c0,0,0.3,0.6,0.2,1.3c0,0-0.2,1.1-0.3,1.7c0,0-0.3,1.3,0,2.5c0,0,0.2,1.1,1.4,1.4c0,0,0.4,0.2,0.8-0.1
			c0,0,0-0.3-0.3-0.5c0,0-1.3,0.3-1.5-1.1c0,0-0.4-1.7,0.6-3.5C45.8,43.3,47,41.6,47.3,40.3L47.3,40.3z M43.8,38.2
			c0,0-0.2-0.4-0.5-0.7c0,0,0-0.3-0.1-0.5c0,0,0.5,0.2,0.8,0.6C44,37.6,43.8,38,43.8,38.2z"/>
		<path class="st5" d="M29.7,47.8l0.5-0.6c0,0-0.6-0.5-0.5-1.5c0,0,0.1-0.7,0.7-0.7c0,0,0.8,0.1,0.5,1.1c0,0,1.2-0.2,1.3-1.5
			c0,0,0-0.8-0.5-1c0,0-0.5-0.4-0.9-0.1c0,0,0.2-0.9-0.9-2c0,0-0.7-0.9-1.5-1.1c0,0,0.4,0.2,0.6,0.9c0,0,0.2,0.4,0,1.3
			c0,0-0.1,0.9,0.4,1.4c0,0-0.1,0.1-0.4-0.3c0,0-0.2-0.3-0.5-0.3c0,0,0.4,0,0.2,0.9c0,0-0.3,1,0,2C28.8,46.4,29,47.2,29.7,47.8
			L29.7,47.8z"/>
		<path class="st5" d="M32.4,43.3c1,1.9,0.6,3.5,0.6,3.5c-0.2,1.4-1.5,1.2-1.5,1.2c-0.3,0.2-0.3,0.5-0.3,0.5
			c0.4,0.2,0.8,0.1,0.8,0.1c1.1-0.2,1.4-1.4,1.4-1.4c0.3-1.2,0-2.5,0-2.5c-0.1-0.6-0.3-1.7-0.3-1.7c-0.1-0.7,0.2-1.3,0.2-1.3
			c0.4-0.6,0.9-0.3,0.9-0.3c0,0.4,0.2,1,0.2,1c0.3,0.9,0.8,1.1,0.8,1.1c0.3,0.1,0.4-0.2,0.4-0.2c0.1-0.2-0.2-0.3-0.2-0.3
			c-0.2-0.1-0.3-0.2-0.3-0.2c-0.6-0.6-0.5-2.2-0.5-2.2c0-0.8,0-1.8,0-1.8c0.1-0.7,0.7-1,0.7-1c-0.1-0.4,0.1-0.8,0.1-0.8
			c0.7-0.6,1.8-0.6,1.8-0.6l0.1-0.4c-2.5,0.3-3.5,1.4-3.5,1.4c-0.1-0.4-0.7-1-0.7-1c-0.1-0.1-0.1-0.5-0.1-0.5
			c-0.3,0.4-0.2,0.7-0.2,0.7c-0.4-0.2-0.2-0.6-0.2-0.6c0.2-0.4-0.2-1.2-0.2-1.2c-0.3-0.7-0.2-1.6-0.2-1.6c-1.1,2.9-0.4,4.1-0.4,4.1
			c0.3,0.5,0.3,0.8,0.3,0.8c0.1-0.4,0.6-0.5,0.6-0.5c0.9,0.1,1.2,1.2,1.2,1.2c0.3,1,0.3,2.4,0.3,2.4c-0.5-0.3-1.1,0.2-1.1,0.2
			c-0.5,0.5-0.5,1.1-0.5,1.1c-0.4-0.7-0.6-1.6-0.6-1.6c0-0.8,0.5-0.8,0.5-0.8c0.4,0,0.5,0.6,0.5,0.6c0.3-0.3,0.3-0.8,0.3-0.8
			c0-0.4-0.4-1-0.4-1c-0.3-0.2-0.1-0.6-0.1-0.6c-0.5,0.3-0.5,0.7-0.5,0.7c0-0.4-0.6-1.2-0.6-1.2c-0.4-0.6-0.3-1.5-0.3-1.5
			c-1,2.2-0.3,4.3-0.3,4.3C31.2,41.5,32.4,43.3,32.4,43.3L32.4,43.3z M34.1,37.6C34.4,37.2,35,37,35,37c-0.1,0.2-0.1,0.5-0.1,0.5
			c-0.4,0.2-0.5,0.7-0.5,0.7C34.4,38,34.1,37.6,34.1,37.6z"/>
		<path class="st5" d="M39.5,17c0,0.2-0.2,0.4-0.4,0.4c-0.2,0-0.4-0.2-0.4-0.4c0-0.2,0.2-0.4,0.4-0.4C39.4,16.6,39.5,16.8,39.5,17z"
			/>
		<path class="st5" d="M39.1,17.6c0,0,0.5,2.5,0.6,3.3c0,0-0.4,0.4-0.6,0.6c0,0-0.4-0.4-0.7-0.6C38.4,20.9,38.7,19.7,39.1,17.6
			L39.1,17.6z"/>
		<path class="st5" d="M32.5,53.1c0,0,1.2,0,1.7-1.3c0,0,0.2-0.7-0.3-1.3c0,0-0.5-0.5-1.1-0.3c0,0,0.4-0.7,1.2-0.6
			c0,0,0.9,0.2,1.2,1.3c0,0,0.2,1.2-0.4,1.9c0,0-0.9,1.3-2.3,1L32.5,53.1L32.5,53.1z"/>
		<path class="st5" d="M44.9,47.4c0,0-0.8,0.3-0.8,1.5c0,0,0.1,0.7,0.1,1.2c0,0,0.1,1.1-0.3,1.8c0,0-0.4,0.7-1.2,1.1
			c0,0-0.8,0.4-1.3,0.5c0,0,0.2-0.4,0.3-0.7c0,0,0.3-0.7,0-1.7c0,0-0.1-0.4-0.2-1c0,0-0.4-1.2,0.3-2.4c0,0,0.8-1.6,2.8-1.7v0.2
			c0,0-1.4,0-2.5,1.4c0,0-0.6,0.9-0.5,1.9c0,0,0.2,0.9,0.3,1.5c0,0,0.4,1.6-0.1,2.2c0,0,1-0.2,1.8-1.2c0,0,0.5-0.7,0.4-1.7
			c0,0-0.2-0.9-0.1-1.5c0,0,0.1-1.2,0.9-1.5L44.9,47.4L44.9,47.4z"/>
		<path class="st5" d="M32.6,52.9c0,0,0.9-0.1,1.3-1c0,0,0.3-0.9-0.4-1.3c0,0-0.6-0.2-1,0c0,0,0.1-1,1.2-1.1c0,0,1.3,0,1.7,1.2
			c0,0,0.3,0.9-0.1,1.9c0,0-0.8,1.7-2.9,1.5l0,0.2c0,0,1.6,0.3,2.7-1.1c0,0,1-1,0.5-2.7c0,0-0.6-1.3-1.9-1.2c0,0-1.4,0-1.4,1.6
			c0,0,0.8-0.4,1.3,0.1c0,0,0.6,0.5,0,1.3c0,0-0.5,0.5-0.8,0.5L32.6,52.9L32.6,52.9z"/>
		<path class="st5" d="M31.7,52.5c0,0-0.9-0.6-1.1-2.1c0,0-0.2-1.6,1.5-2.6c0,0,1.6-0.8,3.1,0.1c0,0,1.2,0.7,1.9,2.1
			c0,0,0.3,0.5,0.5,1.8l0.3,0.3c0,0,0-1.6-1-2.9c0,0-1-1.6-2.8-1.9c0,0-1.2-0.2-2.2,0.4c0,0-1.2,0.7-1.4,2.2c0,0-0.3,1.6,1.2,2.8
			L31.7,52.5L31.7,52.5z"/>
		<path class="st5" d="M33.8,51.5c0,0-1.3,0.2-1.7,1.9c0,0-0.3,1.3,0.5,2.6c0,0,0.8,1.5,2.5,1.9c0,0,1,0.2,1.5-0.4
			c0,0,1-0.7,1.3-2.7c0,0,0.2-0.8,0.1-1.1c0,0,1,1.3,1.2,1.8c0,0-0.1,1.3-1.2,2.8c0,0-0.9,1.3-2.3,0.8c0,0-1.9-0.5-3.5-2.7
			c0,0-0.9-1.3-0.7-2.6c0,0,0-1.3,1-2.2c0,0,0.7-0.6,1.1-0.6L33.8,51.5L33.8,51.5z"/>
		<path class="st5" d="M35.6,50.8c0,0,1.2,0.1,2.4,1.3c0,0,1.4,1.3,2.2,2.1c0,0,1.3,1.5,1.6,1.8c0,0,0.5,0.5,0.7,0.5
			c0,0,0.2,0.1,1.6-1.2c0,0,1.3-1.2,2.1-3c0,0,0.8-1.5,0.8-2.8c0,0,0.1-1.3-0.7-1.8c0,0-0.5-0.4-1.1-0.4l-0.1-0.1
			c0,0,0.5-0.2,1.4,0.5c0,0,0.7,0.6,0.7,1.7c0,0,0.1,1.2-1,3.3c0,0-0.9,1.6-1.7,2.5c0,0-1.5,1.7-2.1,1.7c0,0-0.2,0-0.6-0.2
			c0,0-0.2-0.2-1.5-1.8c0,0-1-1.2-1.8-2c0,0-1.4-1.2-1.8-1.4c0,0-0.9-0.5-1.2-0.5L35.6,50.8L35.6,50.8z"/>
		<path class="st5" d="M45.1,46.4c0,0,1.4,0,2.3,1c0,0,0.9,0.9,0.9,2.5c0,0,0,1.4-0.6,3c0,0-0.7,1.8-1.5,2.8c0,0-1.3,1.7-2.1,2.4
			c0,0-1,0.8-1.4,1c0,0-0.5,0.3-1.2-0.5c0,0-0.3-0.3-0.8-1.4c0,0-0.8-1.7-1.8-3.1c0,0-1.6-2.1-3.2-2.5l0.1-0.5c0,0,1.2,0.2,2.5,1.5
			c0,0,1.1,0.9,1.9,2.1c0,0,0.9,1.2,1.3,1.6c0,0,0.5,0.6,1,0.7c0,0,0.6,0.2,1.6-0.9c0,0,1.4-1.2,2.2-2.8c0,0,0.9-1.4,1.2-3.1
			c0,0,0.4-1.4-0.3-2.5c0,0-0.5-0.9-2-1L45.1,46.4L45.1,46.4z"/>
		<path class="st5" d="M45.1,46c0,0,1.2-0.1,2.3,0.8c0,0,0.9,0.8,1.1,1.7c0,0,0.4,0.9,0.1,2.6c0,0-0.3,1.9-1.4,3.6
			c0,0-1,1.7-1.7,2.5c0,0-1,1.1-1.9,1.9c0,0-0.8,0.8-1.4,0.7c0,0-0.9,0.1-1.7-1.4c0,0-0.6-1.2-0.9-1.9c0,0-0.8-1.5-1.7-2.7
			c0,0-0.8-1.2-2.4-1.7v-0.2c0,0,1.2,0.3,2.3,1.5c1.1,1.2,0.9,1.3,1.5,2.2c0,0,0.6,1,0.9,1.7c0,0,0.3,0.6,0.6,1.1c0,0,0.4,0.8,1,1
			c0,0,0.5,0.3,1.1,0c0,0,0.9-0.6,2.3-2c0,0,0.9-1,2-2.9c0,0,0.7-1.3,1.1-3c0,0,0.5-1.6-0.1-3.1c0,0-0.4-1-1.3-1.6
			c0,0-0.9-0.6-1.9-0.6L45.1,46L45.1,46z"/>
		<path class="st5" d="M33.7,51c0,0-1.3,0.3-1.9,1.5c0,0-0.7,1.1-0.2,2.8c0,0,0.5,1.5,1.7,2.7c0,0,1.5,1.5,3.3,1.6
			c0,0,0.9-0.1,1.5-0.8c0,0,0.8-0.9,1.4-2.7l0.1,0.2c0,0-0.4,1.3-1.4,2.6c0,0-0.6,0.9-1.8,0.9c0,0-0.9,0.1-2.3-0.8
			c0,0-1.7-0.9-2.5-2.9c0,0-0.6-1-0.4-2.2c0,0,0.1-1.5,1.2-2.3c0,0,0.5-0.5,1.2-0.6L33.7,51L33.7,51z"/>
		<path class="st5" d="M38.2,52.3c0,0,0.1-1.6-1.3-3.6c0,0-0.7-1-2.1-1.5c0,0-1.2-0.4-2.3-0.1c0,0-1.2,0.2-2,1.5
			c0,0-0.6,1.1-0.3,2.4c0,0,0.3,1.2,1.3,1.9l-0.2,0.7c0,0-1.3-0.5-1.7-2c0,0-0.6-1.6,0.1-3.1c0,0,1-2,3.1-2.1c0,0,1.3-0.4,3.4,1
			c0,0,1.4,0.9,2.2,2.4c0,0,1.3,2.2,1.1,3.8L38.2,52.3L38.2,52.3z"/>
		<path class="st5" d="M31.4,53.8c0,0-1.4-0.4-2-2.4c0,0-0.5-1.3,0.1-2.8c0,0,0.7-1.7,2.4-2.2c0,0,1.8-0.6,3.3,0.2
			c0,0,1.6,0.7,2.9,2.3c0,0,0.9,1,1.6,3c0,0,0.4,1.4,0.3,2.3l0.2,0.2c0,0,0.2-2.5-1.6-5.1c0,0-1.2-2.1-3.7-3c0,0-1.4-0.6-3.2,0
			c0,0-2.2,0.7-2.6,3.2c0,0-0.3,1.6,0.7,3.2c0,0,0.7,1.2,1.7,1.4L31.4,53.8L31.4,53.8z"/>
		<path class="st5" d="M39.1,22.1c0,0,0-0.3,0.7-0.7c0,0,0.3-0.1,0.4-0.4c0,0,0.2,0.9-0.3,1.4c0,0-0.5,0.5-0.7,1L39.1,22.1
			L39.1,22.1z"/>
		<path class="st5" d="M39.1,22.1c0,0,0-0.3-0.6-0.7c0,0-0.3-0.1-0.4-0.4c0,0-0.2,0.9,0.3,1.4c0,0,0.5,0.5,0.8,1L39.1,22.1
			L39.1,22.1z"/>
		<path class="st5" d="M37.5,23.4h1.2c0,0-0.3-0.6-0.9-1.1C37.8,22.3,38,22.9,37.5,23.4z"/>
		<path class="st5" d="M40.7,23.4h-1.2c0,0,0.3-0.6,0.9-1.1C40.4,22.3,40.2,22.9,40.7,23.4z"/>
		<path class="st6" d="M41,23.8h-3.7c-0.3,0-0.5,0.2-0.5,0.5s0.2,0.5,0.5,0.5H41c0.3,0,0.5-0.2,0.5-0.5S41.2,23.8,41,23.8z
			 M37.3,24.5c0,0-0.5-0.2,0-0.5l0.7,0c0,0-0.2,0.3,0.1,0.5L37.3,24.5L37.3,24.5z M39.6,24.5h-1c-0.1,0-0.3-0.1-0.3-0.3
			c0-0.2,0.1-0.3,0.3-0.3h1c0.1,0,0.3,0.1,0.3,0.3C39.9,24.4,39.8,24.5,39.6,24.5z M40.9,24.5h-0.8c0.3-0.2,0.1-0.5,0.1-0.5l0.7,0
			C41.4,24.2,40.9,24.5,40.9,24.5L40.9,24.5z"/>
		<path class="st5" d="M37.2,24.9h1.6c0,0-0.6,0.7-0.9,1.2c0,0-0.1-0.3-0.2-0.5C37.7,25.6,37.2,25,37.2,24.9L37.2,24.9z"/>
		<path class="st5" d="M40.9,25l-1.6-0.1c0,0,0.6,0.8,0.8,1.2c0,0,0.1-0.3,0.2-0.5C40.4,25.6,40.9,25.1,40.9,25L40.9,25z"/>
		<g>
			<path class="st5" d="M38.6,45.1h0.9c0,0,0.1,0.2-0.1,0.2v0.4c0,0-0.1,0.1-0.1,0.1h-0.6c0,0-0.1-0.1-0.1-0.2v-0.4
				C38.6,45.2,38.5,45.2,38.6,45.1z"/>
			<path class="st5" d="M38.7,45.8h0.5l0,0.1c0,0,0.2,0.1,0.1,0.4c0,0-0.3,0.7-0.4,0.7c0,0-0.3-0.6-0.4-0.9c0,0,0-0.1,0.1-0.2
				L38.7,45.8L38.7,45.8z"/>
			<rect x="38.7" y="42.7" class="st5" width="0.8" height="0.5"/>
			<path class="st5" d="M37.3,40.9c0,0-0.3,0.4-0.2,1.4c0,0,0.1,0.9,1.1,1.3c0,0,1.2,0.5,2.1-0.3c0,0,1.2-1,0.5-2.3
				c0,0,0.4-0.5,0.2-1.5c0,0,0.3,0.3,0.3,0.8c0,0,0.2-0.2,0.1-0.5c0,0,0.4,0.2,0.4,0.8c0,0,0,0.3-0.5,0.8c0,0-0.1,0.4,0.2,0.3
				c0,0,0.6-0.5,0.6-1c0,0,0.5,0.6,0.2,1.1c0,0-0.2,0.4-0.4,0.5c0,0,0.3,0,0.4-0.3c0,0,0.2,0.8-0.8,0.9c0,0-0.3,0.1-0.4,0
				c0,0-0.2,0.2,0,0.2c0,0,0.5,0.2,1.1-0.2c0,0-0.2,0.7-0.7,1c0,0-0.2,0.1-0.5,0c0,0,0.1,0.2,0.4,0.1c0,0-0.3,0.5-0.8,0.3
				c0,0-0.5-0.2-0.7-0.6c0,0-0.3-0.1-0.2,0.2c0,0,0.2,0.5,0.9,0.6c0,0-0.5,0.4-1,0.3c0,0-0.3-0.1-0.5-0.4c0,0,0,0.3,0.1,0.4
				c0,0-0.4,0.1-0.8-0.6c0,0-0.1-0.3,0-0.5c0,0-0.1-0.3-0.3-0.1c0,0-0.2,0.3,0.1,1c0,0-1.2-0.2-1-1.1c0,0-0.2,0.2-0.2,0.4
				c0,0-0.5-0.5-0.2-1.1c0,0,0.2-0.4,0.4-0.5c0,0,0-0.3-0.2-0.2c0,0-0.6,0.3-0.7,1c0,0-0.7-1,0-1.7c0,0-0.3,0.1-0.4,0.2
				c0,0,0-1,0.7-1c0,0,0.4,0,0.5,0.2c0,0,0.2-0.2,0-0.3c0,0-0.5-0.4-1,0c0,0,0.1-0.8,0.9-1c0,0,0.2,0.1,0.2,0.4
				C37.2,40.2,37.1,40.7,37.3,40.9L37.3,40.9z"/>
			<path class="st5" d="M37.4,41.2c0,0-0.2,0.6,0,1.2c0,0,0.2,0.9,1.3,1.2c0,0,1.1,0.2,1.7-0.6c0,0,0.7-0.6,0.4-1.8l-0.2,0.2
				c0,0,0.1,0.7-0.3,1.2c0,0-0.4,0.7-1.2,0.6c0,0-0.8,0-1.4-0.8c0,0-0.2-0.6-0.1-1L37.4,41.2L37.4,41.2z"/>
			<path class="st5" d="M38.7,42.6h0.6c0,0,0.1-0.1,0.1-0.2v-0.2c0,0,0-0.2,0.4-0.4c0,0,0.5-0.2,0.7-0.5c0,0,0.2-0.2,0.3-0.7
				c0,0,0.2-0.1,0-0.2h-0.6c0,0,0.1,0.4-0.4,0.5c0,0-0.4,0-0.5-0.3v-0.5c0,0,0.1,0,0.1,0c0,0,0.1-0.1,0-0.2h-0.7c0,0-0.1,0-0.1,0.1
				c0,0,0,0.1,0.1,0.1v0.5c0,0-0.1,0.3-0.5,0.3c0,0-0.4,0-0.4-0.5h-0.7c0,0-0.1,0.1,0.1,0.1c0,0,0.1,0.6,0.7,1c0,0,0.2,0.1,0.3,0.1
				c0,0,0.4,0.1,0.4,0.4v0.3C38.6,42.5,38.6,42.5,38.7,42.6L38.7,42.6z"/>
			<path class="st5" d="M37.1,39.8l0-0.5c0,0-0.3,0.2-0.5,0.4C36.7,39.7,37,39.7,37.1,39.8L37.1,39.8z"/>
			<path class="st5" d="M38.6,39.7c0,0-0.2-0.4-0.7-0.7c0,0,0.3-0.2,0.6-0.2C38.5,38.8,38.7,39.2,38.6,39.7L38.6,39.7z"/>
			<path class="st5" d="M40.2,40.3c0,0-0.3-0.4-0.6-0.5l-0.1-1.1C39.5,38.7,40.3,39,40.2,40.3z"/>
			<path class="st5" d="M40.3,39.3c0,0,0.2-0.3-0.2-0.4L40.3,39.3z"/>
			<path class="st5" d="M38,40.2c0,0,0.3-0.2,0.6-0.3c0,0-0.4-0.4-0.7-0.5C37.9,39.5,38,40.2,38,40.2z"/>
			<path class="st5" d="M38.1,40.7c0,0,0.3-0.2,0.5-0.3c0,0,0-0.1-0.1-0.2c0,0-0.4,0.2-0.6,0.3C38,40.5,38,40.7,38.1,40.7L38.1,40.7
				z"/>
			<path class="st5" d="M39.6,40.2c0,0,0.3,0.2,0.5,0.4c0,0,0.1,0.2-0.1,0.2c0,0-0.2-0.2-0.4-0.3C39.6,40.4,39.5,40.2,39.6,40.2
				L39.6,40.2z"/>
			<path class="st5" d="M38.7,39.8h0.7c0,0,0.1-0.1,0-0.2v-0.4c0,0,0.1-0.2,0-0.2h-0.7c0,0-0.1,0.2,0,0.2v0.4
				C38.8,39.6,38.6,39.7,38.7,39.8L38.7,39.8z"/>
			<path class="st5" d="M37.2,40.3h0.6v-0.5h-0.6c0,0-0.1,0.1,0.1,0.1v0.2C37.3,40.1,37.2,40.2,37.2,40.3z"/>
			<path class="st5" d="M40.9,40.3h-0.6v-0.5h0.6c0,0,0.1,0.1-0.1,0.1v0.2C40.9,40.1,41,40.2,40.9,40.3z"/>
			<path class="st5" d="M40.4,39.6h0.5c0,0,0-0.8,0.1-1.7c0,0,0.1-0.7-0.1-1.2c0,0-0.2-0.6-0.2-0.8c0,0-0.1,0.5-0.2,0.7
				c0,0-0.3,0.6-0.1,1.3C40.3,37.9,40.4,39.3,40.4,39.6L40.4,39.6z"/>
			<path class="st5" d="M37.8,39.6h-0.5c0,0-0.1-0.8-0.1-1.7c0,0-0.1-0.7,0.1-1.2c0,0,0.2-0.6,0.2-0.8c0,0,0.1,0.5,0.2,0.7
				c0,0,0.3,0.6,0.1,1.3C37.9,37.9,37.8,39.3,37.8,39.6z"/>
			<path class="st5" d="M38.8,38.7h0.6c0,0,0.2-2.1,0.2-2.4c0,0,0.1-0.9,0-1.3c0,0-0.3-1-0.5-1.5c0,0-0.3,0.9-0.5,1.5
				c0,0-0.2,0.3,0,1.3C38.6,36.3,38.8,38.5,38.8,38.7L38.8,38.7z"/>
		</g>
		<path class="st5" d="M38.1,37.5c0,0,0.4,0.1,0.6,0.1V38c0,0-0.4,0-0.6-0.1L38.1,37.5z"/>
		<path class="st5" d="M39.5,37.6l0,0.4c0,0,0.6,0,0.7-0.1c0,0-0.1-0.3,0-0.4C40.2,37.5,39.9,37.7,39.5,37.6z"/>
		<path class="st5" d="M41.2,37.2c0,0,0,0.3,0,0.5c0,0,1.1-0.4,1.6-0.9l-0.4-0.3C42.3,36.6,41.8,37.1,41.2,37.2z"/>
		<path class="st5" d="M35.7,36.6c0,0,0.7,0.4,1.3,0.6l0,0.4c0,0-1.1-0.2-1.6-0.8L35.7,36.6L35.7,36.6z"/>
		<path class="st5" d="M36.7,26.9c0,0,2.7-0.2,4.9,0c0,0-0.8-1-0.6-1.4c0,0-0.6,0.7-0.9,1.3c0,0-0.8-1-1-1.6c0,0-0.4,1-0.9,1.6
			c0,0-0.2-0.3-1-1.2C37.2,25.5,37.3,26.3,36.7,26.9L36.7,26.9z"/>
		<path class="st5" d="M42.3,27.7c-0.2-0.5-0.7-0.5-0.7-0.5c-1.9-0.1-5.3,0-5.3,0c-0.5,0.2-0.5,0.6-0.5,0.6c0.1,0.4,0.8,0.5,0.8,0.5
			c1.9-0.2,5.2,0,5.2,0C42.4,28.1,42.3,27.7,42.3,27.7L42.3,27.7z M36.5,27.9c0,0-0.3-0.1-0.3-0.3c0,0,0-0.2,0.3-0.3c0,0,0.3,0,1,0
			c0,0-0.4,0.3,0.1,0.6L36.5,27.9L36.5,27.9z M40.1,27.9H38c-0.7-0.3,0-0.6,0-0.6l2.1,0C40.8,27.6,40.1,27.9,40.1,27.9L40.1,27.9z
			 M41.7,27.9h-1.1c0.4-0.3,0.1-0.6,0.1-0.6c0.7,0,1,0,1,0c0.3,0.1,0.3,0.3,0.3,0.3C42,27.8,41.7,27.9,41.7,27.9L41.7,27.9z"/>
		<path class="st5" d="M42.7,29.7c0,0-4.4-0.7-7,0c0,0,0.7-0.9,0.7-1.4c0,0,0.6,0.5,0.9,1.1c0,0,0.8-0.9,0.9-1.1
			c0,0,0.7,0.9,0.9,1.1c0,0,0.4-0.3,1-1.1c0,0,0.8,1,0.9,1.2c0,0,0.4-0.8,0.8-1.1C41.8,28.3,41.9,28.7,42.7,29.7L42.7,29.7z"/>
		<path class="st5" d="M34.3,31.3c0,0,3.7-1.1,10,0c0,0-0.9-0.8-1-1.6c0,0-0.6,0.7-0.7,1.3c0,0-0.7-1.1-0.7-1.3c0,0-0.8,1.1-0.9,1.2
			c0,0-0.9-1.2-1-1.4c0,0-0.6,1-0.9,1.3c0,0-0.8-1-0.9-1.3c0,0-0.6,1-0.7,1.3c0,0-0.7-1-0.9-1.2c0,0-0.4,1.1-0.6,1.4
			c0,0-0.3-0.7-0.9-1.3C35,29.7,35,30.4,34.3,31.3L34.3,31.3z"/>
		<path class="st5" d="M32.7,33.2c0,0,5.3-2.4,12.8,0c0,0-0.8-1.3-0.8-1.8c0,0-0.7,1-0.8,1.3c0,0-0.6-1.2-0.7-1.4
			c0,0-0.6,0.9-0.8,1.1c0,0-0.5-0.8-0.7-1.3c0,0-0.8,1-0.9,1.1c0,0-0.8-1.1-0.9-1.3c0,0-0.7,0.8-1,1.2c0,0-0.6-1-0.8-1.2
			c0,0-0.6,1-0.7,1.2c0,0-0.6-0.8-0.9-1.1c0,0-0.5,1-0.8,1.3c0,0-0.8-0.9-0.9-1c0,0-0.5,1.1-0.6,1.4c0,0-0.3-0.8-0.8-1.2
			C33.5,31.4,33.5,32.3,32.7,33.2L32.7,33.2z"/>
		<path class="st5" d="M32.8,33.5c0,0,5-2.5,12.7,0c0,0,0.5,1-2.3,3.1l-0.4-0.2c0,0,1.1-0.7,1.4-1.1c0,0-2.4-0.8-4.6-0.8l-0.1-0.2
			c0,0,0.7,0,1-0.5c0,0,0.3,0.7,1.1,0.8c0,0,0.8,0.1,1.3-0.6c0,0,0.1,0.6,0.8,1c0,0,0.8,0.3,1.1-0.4c0,0,0.2-0.5-0.3-0.9
			c0,0-0.7-0.4-1.6,0.2c0,0-0.1-0.7-1.2-0.9c0,0-0.9,0-1.2,0.6c0,0-0.1-0.3-0.5-0.6c0,0-0.8-0.3-1.5,0c0,0-0.3,0.1-0.5,0.5
			c0,0-0.2-0.4-0.7-0.5c0,0-0.8-0.1-1.4,0.3c0,0-0.3,0.3-0.4,0.5c0,0-0.3-0.3-0.6-0.5c0,0-0.9-0.2-1.4,0.3c0,0-0.5,0.6,0.2,1.1
			c0,0,0.5,0.2,1.4-0.2c0,0,0.4-0.2,0.4-0.6c0,0,0.2,0.4,0.9,0.4c0,0,0.8,0.1,1.3-0.4c0,0,0.2-0.2,0.3-0.3c0,0,0.3,0.5,0.8,0.6
			l-0.1,0.2c0,0-2.6-0.1-4.8,0.8c0,0,1,0.9,1.6,1.2l-0.5,0.3C34.9,36.7,32.3,35,32.8,33.5L32.8,33.5z"/>
		<path class="st5" d="M38.5,36.2c0,0-0.5,0-0.7,0l-0.1-0.4c0,0,0.5-0.1,0.8-0.1L38.5,36.2L38.5,36.2z"/>
		<path class="st5" d="M39.8,35.9l-0.1,0.4c0,0,0.5,0,0.7,0l0.1-0.4C40.6,35.9,40.1,35.8,39.8,35.9z"/>
	</g>
</g>
</svg>
