<?xml version="1.0" encoding="utf-8"?>
<!-- Generator: Adobe Illustrator 24.3.0, SVG Export Plug-In . SVG Version: 6.00 Build 0)  -->
<svg version="1.1" id="Layer_1" xmlns="http://www.w3.org/2000/svg" xmlns:xlink="http://www.w3.org/1999/xlink" x="0px" y="0px"
	 viewBox="0 0 72.8 84.9" style="enable-background:new 0 0 72.8 84.9;" xml:space="preserve">
<style type="text/css">
	.st0{fill:#252525;}
</style>
<g>
	<g>
		<path class="st0" d="M11.8,27.9v-1.2h-5c0.1-0.1,0.2-0.1,0.4-0.2c0.1,0,0.2-0.1,0.4-0.2c0.4-0.2,0.8-0.6,1.1-1
			C8.9,25,9.1,24.5,9.1,24l0.9-0.6c0.7,0.9,1.1,1.9,1.5,2.9h0.3v-3.1l0.5-0.5v4.8L11.8,27.9z M8.2,26.3h2.5c-0.2-0.6-0.5-1.2-1-1.9
			C9.4,25.3,8.9,25.9,8.2,26.3z"/>
		<path class="st0" d="M11.8,29.9v-1.2h-5l0.5-0.5h3.6c0.3,0,0.5-0.1,0.7-0.3c0.2-0.2,0.3-0.4,0.2-0.7l0.5-0.5c0,0.1,0,0.3,0,0.4
			c0,0.4-0.1,0.7-0.4,0.9c-0.1,0.1-0.4,0.2-0.9,0.4c0.6-0.1,1.3-0.2,2.1-0.2L13,28.4c-0.3,0-0.5,0.1-0.7,0.3v0.7L11.8,29.9z"/>
	</g>
	<g>
		<path class="st0" d="M10.9,34.6c-0.2,0-0.4-0.1-0.6-0.2c-0.2-0.1-0.4-0.3-0.4-0.5c0-0.1,0-0.2,0-0.3c0-0.3,0.1-0.6,0.3-0.8
			s0.5-0.3,0.8-0.3s0.5,0.1,0.8,0.3c0.2,0.2,0.3,0.5,0.3,0.7c0,0.3-0.1,0.5-0.3,0.8C11.5,34.5,11.2,34.6,10.9,34.6z M6.4,35.4
			c0.7-0.8,1.5-1.7,2.2-2.7h1.1c-0.6,0.7-1.5,1.6-2.8,2.7H6.4z M11.1,34.1c0.3,0,0.4-0.1,0.4-0.3s-0.1-0.4-0.3-0.6
			c-0.2-0.2-0.4-0.3-0.6-0.3c-0.2,0-0.4,0.1-0.4,0.3c0,0.1,0.1,0.3,0.2,0.5c0.1,0.2,0.2,0.3,0.4,0.4C10.9,34.1,11,34.1,11.1,34.1z"
			/>
	</g>
	<g>
		<path class="st0" d="M11.8,43.9v-1.2H6.9l0.5-0.5H10c0.2,0,0.3-0.1,0.4-0.2c0.1-0.1,0.2-0.3,0.2-0.4c0-0.3-0.1-0.4-0.4-0.4
			c0,0-0.1,0-0.3,0.1l-0.1-0.2l0,0c0,0,0.1,0,0.2-0.1c0.2-0.1,0.4-0.3,0.5-0.4c0.1-0.1,0.2-0.3,0.2-0.6c0-0.2-0.1-0.4-0.2-0.6
			c-0.2-0.2-0.4-0.3-0.6-0.3c-0.4,0-0.6,0.2-0.7,0.6c0.1-0.1,0.2-0.1,0.4-0.1s0.3,0.1,0.4,0.2c0.1,0.1,0.1,0.2,0.1,0.4
			s-0.1,0.3-0.3,0.4c-0.2,0.1-0.4,0.2-0.5,0.2c-0.2,0-0.3-0.1-0.4-0.3c-0.1-0.1-0.1-0.3-0.1-0.5c0-0.4,0.1-0.7,0.4-1
			c0.2-0.2,0.6-0.4,1-0.4c0.3,0,0.6,0.1,0.9,0.3c0.3,0.2,0.4,0.5,0.4,0.8c0,0.4-0.2,0.7-0.6,1c0.1,0,0.2,0.1,0.4,0.2
			c0.1,0.1,0.2,0.3,0.2,0.4c0,0.4-0.3,0.7-0.8,0.9H12v-3.7l0.5-0.5v5.4L11.8,43.9z"/>
		<path class="st0" d="M11.8,45.9v-1.2h-5l0.5-0.5h3.6c0.3,0,0.5-0.1,0.7-0.3s0.3-0.4,0.2-0.7l0.5-0.5c0,0.1,0,0.3,0,0.4
			c0,0.4-0.1,0.7-0.4,0.9c-0.1,0.1-0.4,0.2-0.9,0.4c0.6-0.1,1.3-0.2,2.1-0.2L13,44.4c-0.3,0-0.5,0.1-0.7,0.3v0.7L11.8,45.9z"/>
	</g>
	<g>
		<path class="st0" d="M11.8,52.4c0-0.2-0.1-0.5-0.2-0.8c-0.4-1.1-1.3-1.6-2.7-1.6c-0.7,0-1.2,0.3-1.5,0.8c0,0,0,0.1,0,0.2
			c0,0.1,0,0.1,0,0.1c0-0.1,0.1-0.1,0.2-0.2c0.1-0.1,0.2-0.1,0.3-0.1s0.3,0.1,0.4,0.2c0.1,0.1,0.2,0.3,0.2,0.4c0,0.1,0,0.2-0.1,0.3
			C8.3,51.8,8.1,52,7.9,52c-0.2,0-0.4-0.1-0.6-0.3s-0.2-0.4-0.2-0.6c0-0.5,0.3-0.9,0.8-1.2s1-0.4,1.5-0.4c0.8,0,1.6,0.3,2.4,1V49
			l0.5-0.5v3.4L11.8,52.4z"/>
		<path class="st0" d="M11.8,56.8v-3.9h-2c0.1,0.1,0.2,0.2,0.3,0.4c0.2,0.2,0.4,0.4,0.4,0.4c0.3,0.3,0.5,0.8,0.7,1.3l-0.6,0.8
			c-0.8-0.4-1.6-0.6-2.3-0.6c-0.1,0-0.1,0-0.2,0c-0.1,0-0.2,0-0.2,0c-0.1,0-0.4,0-1,0.1L7,55.1c0.9-0.2,1.5-0.3,2-0.3
			c0.4,0,0.9,0,1.3,0.1c-0.2-0.4-0.4-0.8-0.7-1.2c-0.3-0.3-0.7-0.6-1.1-0.8l0.7-0.6h2.7v-0.5l0.5-0.5v4.9L11.8,56.8z"/>
	</g>
	<g>
		<path class="st0" d="M11.8,65.3v-1.1H6.9l0.5-0.5h3c0.2,0,0.4-0.1,0.7-0.3s0.4-0.4,0.4-0.6c0-0.1,0-0.2-0.1-0.3s-0.2-0.2-0.3-0.2
			c-0.2,0.2-0.3,0.4-0.4,0.5C10.5,63,10.4,63,10.2,63c-0.4,0-0.6-0.2-0.6-0.6c0-0.3,0.2-0.5,0.5-0.7c-0.1-0.1-0.3-0.2-0.4-0.3
			c-0.1-0.1-0.2-0.3-0.2-0.5s0.1-0.3,0.2-0.4c0.1-0.1,0.3-0.2,0.5-0.2s0.4,0.1,0.6,0.3c0.2,0.2,0.4,0.4,0.4,0.5
			c0.3-0.1,0.5-0.3,0.5-0.5c0-0.1,0-0.4,0-0.8l0.5-0.5v1c0,0.2-0.1,0.5-0.3,0.7s-0.4,0.3-0.6,0.4c0.4,0.2,0.7,0.5,0.8,1
			c0,0.1,0,0.2,0,0.2c0,0.2-0.2,0.4-0.7,0.7c-0.4,0.3-0.7,0.5-0.9,0.5c1-0.1,1.9-0.2,2.5-0.2c0,0.3-0.1,0.4-0.2,0.4
			c-0.1,0-0.2,0.1-0.3,0.1c-0.2,0-0.2,0.1-0.3,0.3v0.4L11.8,65.3z"/>
	</g>
	<g>
		<g>
			<path class="st0" d="M18,71c-0.6-0.5-1-0.8-1.2-0.9c-0.4-0.2-0.9-0.4-1.4-0.4c-0.6,0-1.1,0.2-1.4,0.7c-0.2,0.3-0.3,0.5-0.3,0.6
				c0,0,0.1,0.2,0.2,0.5h0.9l0.5,0.5h-1.2v5l-0.5-0.5V72h-0.7l-0.5-0.5h1.3c-0.1-0.1-0.2-0.2-0.3-0.3c-0.1-0.1-0.2-0.3-0.2-0.4
				c0-0.2,0-0.3,0.1-0.4c0.5-0.8,1.1-1.2,1.8-1.2c1,0,2,0.5,2.9,1.4V71z"/>
			<path class="st0" d="M19.7,72h-1.2v5.1c-0.1-0.1-0.1-0.2-0.3-0.4c0-0.1-0.1-0.2-0.2-0.4c-0.2-0.4-0.6-0.8-1-1.1
				c-0.4-0.3-0.9-0.4-1.4-0.5L15,73.9c1-0.7,1.9-1.2,2.9-1.5V72h-3.2l-0.5-0.5h4.9L19.7,72z M18,75.7v-2.6c-0.6,0.2-1.2,0.5-1.9,1
				C16.9,74.5,17.5,75,18,75.7z"/>
		</g>
		<g>
			<path class="st0" d="M26.6,72h-1.1v5L25,76.5v-3.1c0-0.2-0.1-0.4-0.3-0.7c-0.2-0.3-0.4-0.4-0.6-0.4c-0.1,0-0.2,0-0.3,0.1
				c-0.1,0.1-0.2,0.2-0.2,0.3c0.2,0.2,0.4,0.3,0.5,0.4c0.2,0.2,0.3,0.4,0.3,0.6c0,0.4-0.2,0.7-0.6,0.7c-0.3,0-0.5-0.2-0.7-0.5
				c-0.1,0.1-0.2,0.3-0.3,0.4c-0.2,0.1-0.3,0.2-0.5,0.2s-0.3-0.1-0.4-0.2s-0.2-0.3-0.2-0.5s0.1-0.4,0.3-0.7c0.2-0.2,0.4-0.4,0.6-0.4
				c-0.1-0.3-0.3-0.5-0.5-0.6c-0.1,0-0.4,0-0.8,0l-0.5-0.5h1c0.3,0,0.5,0.1,0.7,0.3c0.2,0.2,0.4,0.4,0.4,0.6c0.2-0.4,0.5-0.7,1-0.9
				c0.1,0,0.2,0,0.2,0c0.2,0,0.4,0.2,0.7,0.7c0.3,0.4,0.5,0.7,0.6,0.9C25,72.1,25,71.3,25,70.6c0.1,0.1,0.2,0.2,0.3,0.3
				c0,0.1,0.1,0.2,0.1,0.3c0,0.2,0.1,0.3,0.3,0.3h0.4L26.6,72z"/>
			<path class="st0" d="M25.4,77.4L25,77.3c-0.3-0.8-0.8-1.1-1.5-1.1l-0.3-0.9c0,0,0.2-0.1,0.5-0.3l1.2-0.8c0.1,0,0.2,0,0.4,0
				L25.4,77.4L25.4,77.4z M24.9,76.5v-1.6c-0.3,0.2-0.6,0.4-1,0.7c0.2,0,0.4,0.2,0.6,0.4C24.5,76,24.7,76.2,24.9,76.5z"/>
		</g>
		<g>
			<path class="st0" d="M33.1,71c-0.6-0.5-1-0.8-1.2-0.9c-0.4-0.2-0.9-0.4-1.4-0.4c-0.6,0-1.1,0.2-1.4,0.7c-0.2,0.3-0.3,0.5-0.3,0.6
				c0,0,0.1,0.2,0.2,0.5h0.9l0.5,0.5h-1.2v5l-0.5-0.5V72H28l-0.5-0.5h1.3c-0.1-0.1-0.2-0.2-0.3-0.3c-0.1-0.1-0.2-0.3-0.2-0.4
				c0-0.2,0-0.3,0.1-0.4c0.5-0.8,1.1-1.2,1.8-1.2c1,0,2,0.5,2.9,1.4V71z"/>
			<path class="st0" d="M34.7,72h-1.2v5.1c-0.1-0.1-0.1-0.2-0.3-0.4c0-0.1-0.1-0.2-0.2-0.4c-0.2-0.4-0.6-0.8-1-1.1
				c-0.4-0.3-0.9-0.4-1.4-0.5L30,73.8c1-0.7,1.9-1.2,2.9-1.5V72h-3.2l-0.5-0.5h4.9L34.7,72z M33,75.7v-2.6c-0.6,0.2-1.2,0.5-1.9,1
				C32,74.5,32.6,75,33,75.7z"/>
		</g>
		<g>
			<path class="st0" d="M41.1,72h-4v2.1c0.1-0.1,0.2-0.2,0.4-0.3c0.3-0.2,0.4-0.4,0.4-0.4c0.3-0.3,0.8-0.5,1.3-0.7l0.9,0.6
				c-0.4,0.9-0.7,1.6-0.7,2.3c0,0.1,0,0.1,0,0.2s0,0.2,0,0.2c0,0.1,0,0.4,0.1,1l-0.3-0.2c-0.2-0.9-0.3-1.5-0.3-2
				c0-0.4,0-0.9,0.1-1.3c-0.4,0.2-0.8,0.4-1.2,0.8c-0.4,0.3-0.6,0.7-0.8,1.2l-0.7-0.7V72h-0.5l-0.5-0.5h5L41.1,72z"/>
			<path class="st0" d="M43.5,72c-0.1,0-0.3,0-0.7,0c-0.6,0-0.9,0.3-0.9,1c0,0.3,0.1,0.7,0.2,1.3c0.1,0.6,0.2,1,0.2,1.3
				c0,0.5-0.3,1-0.8,1.3c-0.3,0.2-0.5,0.2-0.6,0.2c-0.2,0-0.2-0.1-0.2-0.2s0.1-0.1,0.2-0.1c0.2,0,0.3-0.1,0.3-0.1
				c0.2-0.2,0.4-0.3,0.4-0.5c0.1-0.1,0.1-0.3,0.1-0.6c0-0.2-0.1-0.5-0.2-1c-0.1-0.4-0.2-0.8-0.2-1c0-0.3,0.1-0.6,0.2-0.9
				c0-0.1,0.2-0.3,0.5-0.8h-1.4l-0.5-0.5H43L43.5,72z"/>
			<path class="st0" d="M45.4,72h-1.2v5.2l-0.5-0.5V73c0-0.3-0.1-0.5-0.3-0.7C43.2,72.1,43,72,42.7,72l-0.5-0.5c0.2,0,0.3,0,0.4,0
				c0.4,0,0.7,0.1,0.9,0.4c0.1,0.1,0.3,0.4,0.4,0.9c-0.1-0.7-0.2-1.4-0.2-2.2l0.2,0.2c0,0.3,0.1,0.6,0.3,0.7h0.7L45.4,72z"/>
		</g>
		<path class="st0" d="M52.4,72h-1.2v5.1l-0.5-0.5v-2.7c0-0.2-0.1-0.3-0.2-0.4c-0.1-0.1-0.3-0.2-0.4-0.2c-0.3,0-0.4,0.2-0.4,0.5
			c0,0,0,0.1,0.1,0.3l-0.2,0.1l0,0c0,0,0-0.1-0.1-0.2c-0.1-0.2-0.3-0.4-0.4-0.5c-0.2-0.1-0.3-0.2-0.6-0.2c-0.2,0-0.4,0.1-0.6,0.3
			c-0.2,0.2-0.3,0.4-0.3,0.6c0,0.4,0.2,0.6,0.7,0.7C48,74.7,48,74.5,48,74.4c0-0.2,0.1-0.3,0.2-0.4c0.1-0.1,0.2-0.1,0.4-0.1
			s0.3,0.1,0.4,0.3c0.1,0.2,0.2,0.4,0.2,0.6s-0.1,0.3-0.3,0.4s-0.3,0.1-0.5,0.1c-0.4,0-0.8-0.1-1-0.4c-0.3-0.3-0.4-0.6-0.4-1
			s0.1-0.7,0.3-0.9c0.2-0.3,0.5-0.4,0.8-0.4c0.4,0,0.7,0.2,1.1,0.6c0-0.1,0.1-0.2,0.2-0.4c0.1-0.1,0.3-0.2,0.4-0.2
			c0.4,0,0.7,0.3,0.9,0.9V72h-3.8l-0.5-0.5h5.5L52.4,72z"/>
		<path class="st0" d="M58.7,72h-1.3v5.1c-0.1-0.1-0.2-0.3-0.4-0.7c-0.1-0.3-0.3-0.5-0.6-0.8s-0.5-0.4-0.8-0.5
			C55.4,75,55.1,75,54.7,75L54,74.2c0.4-0.4,0.8-0.8,1.5-1.3c-0.2-0.2-0.5-0.3-0.9-0.4c-0.3,0-0.6-0.1-0.8-0.3
			c-0.2-0.2-0.4-0.4-0.6-0.6h5L58.7,72z M55.9,76.2c0,0.1,0,0.3-0.1,0.4s-0.2,0.2-0.3,0.2c-0.2,0-0.3-0.1-0.4-0.2
			c-0.1-0.1-0.2-0.2-0.2-0.4c0-0.1,0-0.3,0.1-0.4s0.2-0.1,0.3-0.1s0.3,0.1,0.4,0.2C55.9,76,55.9,76.1,55.9,76.2z M56.9,75.8V72h-1.8
			c0.3,0.2,0.7,0.6,1.2,1.2c-0.1,0.1-0.3,0.3-0.5,0.5c-0.1,0.1-0.4,0.3-0.7,0.7C55.9,74.6,56.5,75.1,56.9,75.8z"/>
	</g>
	<g>
		<path class="st0" d="M59.8,59.6v1.3h4.9l-0.2,0.2c-0.6,0.1-1,0.3-1.2,0.5c-0.3,0.3-0.5,0.6-0.5,0.7l0,0c0,0,0.1,0.1,0.3,0.3
			c0.1,0.2,0.2,0.3,0.2,0.5c0,0.3-0.1,0.6-0.4,0.7c0,0-0.1,0-0.2,0c-0.1,0-0.2,0-0.2,0c-0.3,0-0.5-0.1-0.6-0.3s-0.2-0.4-0.2-0.7
			c0-0.2,0-0.3,0.1-0.4c-0.4,0-0.7,0.1-0.9,0.4c-0.1,0.2-0.2,0.4-0.3,0.7S60.5,64,60.4,64c-0.1,0.1-0.1,0.2-0.2,0.2
			c-0.1,0.1-0.2,0.1-0.2,0.1s-0.2,0.2-0.5,0.5v-5.1L59.8,59.6z M63.2,61.3h-3.3v2.2c0.4-0.4,0.6-0.7,0.6-0.8
			c0.3-0.3,0.5-0.4,0.8-0.5c0.4-0.1,0.7-0.2,0.9-0.1C62.4,62,62.7,61.7,63.2,61.3z"/>
		<g>
			<path class="st0" d="M62.5,55c0.1,0.2,0.3,0.4,0.6,0.6c0.3,0.2,0.5,0.3,0.7,0.3s0.5-0.1,0.8-0.3l0.2,0.3c-0.6,0.3-1,0.5-1.4,0.5
				c-0.2,0-0.4,0-0.6-0.1c-0.2-0.1-0.4-0.1-0.5-0.2l0,0v0.1c0,0.2-0.1,0.4-0.2,0.5c0,0-0.1,0.2-0.4,0.5c-0.2,0.2-0.4,0.3-0.7,0.4
				l0,0c0,0.1,0.1,0.3,0.4,0.5c0.3,0.2,0.5,0.2,0.6,0.2c0.2,0,0.4-0.1,0.4-0.3c0-0.1-0.1-0.3-0.2-0.4C62,57.5,62,57.3,62,57.3v-0.1
				l0,0c0,0,0.1-0.1,0.3-0.3c0.4-0.3,0.7-0.5,1-0.5s0.6,0.1,0.8,0.4c0.2,0.3,0.3,0.6,0.3,0.9c0,0.6-0.3,1-0.8,1.4
				c-0.5,0.3-1,0.5-1.6,0.5c-0.1,0-0.5,0-1,0c0-0.1,0.1-0.2,0.2-0.3c0.1,0,0.1,0,0.2,0c0.9,0,1.6-0.2,2-0.7c0.3-0.3,0.4-0.5,0.4-0.7
				s-0.1-0.5-0.2-0.7c-0.1-0.3-0.3-0.4-0.5-0.4c-0.1,0-0.2,0-0.3,0.1c-0.1,0-0.1,0.1-0.1,0.2c0,0,0,0.1,0.1,0.3s0.1,0.3,0.1,0.5
				c0,0.3-0.1,0.5-0.3,0.7s-0.4,0.3-0.7,0.3c-0.2,0-0.5-0.1-0.8-0.3c-0.1-0.1-0.3-0.2-0.6-0.5c-0.2-0.2-0.3-0.3-0.4-0.3
				c-0.2,0-0.3,0.1-0.3,0.2c0,0.1,0,0.2,0.1,0.3s0.1,0.2,0.2,0.2c0.1-0.1,0.3-0.2,0.4-0.2c0.1,0,0.2,0.1,0.4,0.2
				c0.1,0.1,0.2,0.2,0.2,0.3c0,0.4-0.2,0.6-0.6,0.6c-0.3,0-0.6-0.1-0.8-0.4c-0.2-0.2-0.4-0.5-0.4-0.8s0.2-0.6,0.6-0.9
				c0.1,0,0.1-0.1,0.1-0.1s-0.1-0.1-0.3-0.3s-0.3-0.5-0.3-0.7c0-0.8,0.3-1.2,0.8-1.2c0.1,0,0.3,0.1,0.6,0.3c0.2-0.2,0.4-0.3,0.5-0.3
				c0.3,0,0.5,0.1,0.7,0.3L62.5,55z M61.4,55.6c0,0.1,0,0.1,0,0.2c0,0.1,0,0.2,0,0.2c0,0.4-0.2,0.5-0.6,0.5c-0.1,0-0.3-0.1-0.4-0.2
				c-0.1-0.1-0.1-0.2-0.1-0.4c0-0.1,0.1-0.2,0.2-0.4c0-0.1-0.1-0.2-0.3-0.2c-0.3,0-0.4,0.1-0.4,0.3s0.1,0.5,0.3,0.8s0.4,0.5,0.6,0.5
				c0,0,0,0,0.1,0s0.2-0.1,0.4-0.1c0.2-0.1,0.4-0.2,0.5-0.4s0.2-0.4,0.2-0.6c0-0.1,0-0.2-0.1-0.4C61.6,55.7,61.5,55.6,61.4,55.6
				L61.4,55.6z"/>
			<path class="st0" d="M66.4,54.6L66.4,54.6c-0.4,0.4-0.7,0.7-0.9,0.9c-0.2,0.2-0.3,0.4-0.3,0.4s0.1,0.1,0.3,0.3
				c0.2,0.2,0.3,0.4,0.3,0.6c0,0.2-0.1,0.4-0.2,0.6c-0.1,0.2-0.3,0.3-0.5,0.3s-0.4-0.1-0.6-0.3c-0.1-0.2-0.2-0.4-0.2-0.6
				c0-0.1,0-0.3,0.1-0.5s0.1-0.3,0.1-0.2c0,0-0.1-0.1-0.2-0.1s-0.2,0-0.3,0c-0.1,0-0.2,0-0.3,0l0,0c0-0.1,0.1-0.2,0.3-0.3
				c0.2-0.1,0.3-0.1,0.4-0.1s0.1,0,0.2,0s0.2,0,0.2,0c0.2-0.2,0.4-0.5,0.7-0.7C65.9,54.6,66.2,54.5,66.4,54.6
				C66.4,54.5,66.4,54.5,66.4,54.6z M64.9,56.4c-0.1,0.1-0.2,0.2-0.2,0.4c0,0.3,0.1,0.5,0.3,0.5c0.2,0,0.2-0.1,0.2-0.3
				c0-0.1,0-0.2-0.1-0.4C65.1,56.5,65,56.4,64.9,56.4L64.9,56.4z"/>
		</g>
		<g>
			<path class="st0" d="M59.8,49.5v1.1h4.9c-0.1,0.1-0.2,0.2-0.5,0.3c-0.2,0.1-0.3,0.2-0.5,0.3c-0.4,0.2-0.7,0.5-0.9,0.9
				s-0.4,0.8-0.4,1.2l-0.9,0.6c-0.7-1-1.2-1.9-1.5-2.8h-0.3V54l-0.5,0.5V50L59.8,49.5z M63.8,52c0.1,0,0.2,0,0.3,0.1
				s0.1,0.2,0.1,0.3s-0.1,0.3-0.2,0.4c0,0.1-0.1,0.2-0.2,0.2c-0.1,0-0.2,0-0.3-0.1s-0.1-0.2-0.1-0.3s0.1-0.3,0.1-0.4
				C63.6,52,63.7,52,63.8,52z M63.5,51.1h-2.7c0.2,0.6,0.5,1.3,1,1.9C62.2,52.1,62.8,51.5,63.5,51.1z"/>
			<path class="st0" d="M59.8,47.5v1.3h4.9l-0.5,0.5h-4.4v0.6l-0.5,0.5v-1.2L59,49.3c-0.2,0-0.4,0.2-0.7,0.4
				c-0.6,0.4-0.9,1.2-0.9,2.2c0,0.2,0,0.5,0.1,0.8c0.1,0.4,0.2,0.6,0.4,0.6c0.1,0,0.2-0.2,0.3-0.7c0-0.7,0.1-1.1,0.1-1.3
				c0.1-0.5,0.4-0.7,0.9-0.7c0.1,0,0.2,0,0.3,0v0.5c-0.1-0.2-0.2-0.2-0.3-0.2c-0.2,0-0.3,0.3-0.4,0.8v0.8c0,0.3-0.1,0.5-0.2,0.7
				c-0.2,0.3-0.4,0.4-0.6,0.4c-0.3,0-0.5-0.2-0.7-0.7c-0.1-0.4-0.2-0.7-0.2-1.1c0-0.3,0.1-0.7,0.2-1.2c0.1-0.2,0.2-0.5,0.5-0.8
				c0.3-0.4,0.9-0.7,1.7-1V48L59.8,47.5z"/>
		</g>
		<g>
			<path class="st0" d="M59.8,41.1v2.6h0.3v-0.1c0-0.5,0.2-0.9,0.6-1.2c0.4-0.3,0.8-0.5,1.3-0.5c0.2,0,0.5,0.1,0.6,0.2
				c0.2,0.1,0.3,0.3,0.3,0.6c0,0.2-0.1,0.3-0.2,0.4c-0.1,0.1-0.3,0.2-0.4,0.2c-0.2,0-0.3-0.1-0.5-0.3c0-0.1,0-0.2,0-0.3
				s0.1-0.3,0.2-0.5h-0.1c-0.3,0-0.6,0.1-0.9,0.4c-0.2,0.3-0.4,0.6-0.4,0.9v0.1h3.8l-0.2,0.2l-0.4,0.1c-0.2,0.1-0.4,0.2-0.7,0.4
				c-0.6,0.5-0.9,1-1,1.7l-0.8,0.7c-0.7-0.8-1.2-1.7-1.4-2.6h-0.4V47L59,47.5v-6L59.8,41.1z M63.4,44.1h-2.5c0.1,0.4,0.5,0.9,1,1.6
				C62.1,45,62.6,44.5,63.4,44.1z"/>
		</g>
		<g>
			<path class="st0" d="M58.8,35.5c-0.5,0.6-0.8,1-0.8,1.2c-0.2,0.4-0.3,0.9-0.3,1.4c0,0.6,0.2,1,0.7,1.4c0.3,0.2,0.5,0.3,0.6,0.3
				c0,0,0.2-0.1,0.4-0.2v-0.9l0.5-0.5v1.2h4.9l-0.5,0.5h-4.4v0.7l-0.5,0.5v-1.2c-0.1,0.1-0.2,0.2-0.3,0.3s-0.3,0.2-0.4,0.2
				c-0.2,0-0.3,0-0.4-0.1c-0.8-0.4-1.1-1-1.1-1.7c0-1,0.5-1.9,1.4-2.8L58.8,35.5z"/>
			<path class="st0" d="M59.8,33.7V35h4.9l-0.2,0.2c-0.6,0.1-1,0.3-1.2,0.5c-0.3,0.3-0.5,0.6-0.5,0.7l0,0c0,0,0.1,0.1,0.3,0.3
				c0.1,0.2,0.2,0.3,0.2,0.5c0,0.3-0.1,0.6-0.4,0.7c0,0-0.1,0-0.2,0c-0.1,0-0.2,0-0.2,0c-0.3,0-0.5-0.1-0.6-0.3s-0.2-0.4-0.2-0.7
				c0-0.2,0-0.3,0.1-0.4c-0.4,0-0.7,0.1-0.9,0.4c-0.1,0.2-0.2,0.4-0.3,0.7s-0.1,0.5-0.2,0.5c-0.1,0.1-0.1,0.2-0.2,0.2
				c-0.1,0.1-0.2,0.1-0.2,0.1s-0.2,0.2-0.5,0.5v-5.1L59.8,33.7z M63.2,35.4h-3.3v2.2c0.4-0.4,0.6-0.7,0.6-0.8
				c0.3-0.3,0.5-0.4,0.8-0.5c0.4-0.1,0.7-0.2,0.9-0.1C62.4,36,62.7,35.8,63.2,35.4z"/>
		</g>
		<g>
			<path class="st0" d="M59.8,27.8v1.1h4.9l-0.5,0.5h-3c-0.2,0-0.4,0.1-0.7,0.3c-0.3,0.2-0.4,0.4-0.4,0.6c0,0.1,0,0.2,0.1,0.3
				c0.1,0.1,0.2,0.2,0.3,0.2c0.2-0.2,0.3-0.4,0.4-0.5c0.2-0.2,0.4-0.2,0.5-0.2c0.4,0,0.6,0.2,0.6,0.6c0,0.3-0.2,0.5-0.5,0.7
				c0.1,0.1,0.3,0.2,0.4,0.3c0.1,0.1,0.2,0.3,0.2,0.5c0,0.2-0.1,0.3-0.2,0.4c-0.1,0.1-0.3,0.2-0.5,0.2s-0.4-0.1-0.6-0.3
				c-0.2-0.2-0.4-0.4-0.4-0.5c-0.3,0.1-0.5,0.3-0.5,0.5c0,0.1,0,0.4,0,0.8l-0.5,0.5v-1c0-0.2,0.1-0.5,0.3-0.7s0.4-0.3,0.6-0.4
				c-0.4-0.2-0.7-0.5-0.8-1c0-0.1,0-0.2,0-0.2c0-0.2,0.2-0.4,0.7-0.7c0.4-0.3,0.7-0.5,0.9-0.5c-1,0.1-1.9,0.2-2.5,0.2
				c0.1-0.1,0.2-0.2,0.3-0.3c0.1,0,0.2-0.1,0.3-0.1c0.2,0,0.2-0.1,0.3-0.3v-0.4L59.8,27.8z"/>
		</g>
		<g>
			<path class="st0" d="M59.8,22.3v1.2h5l-0.2,0.2h-0.1c-0.6,0-1.2,0.2-1.8,0.5c-0.8,0.4-1.1,0.8-1.1,1.4c0,0.1,0,0.1,0,0.1
				c0.3-0.2,0.5-0.3,0.7-0.3c0.4,0,0.6,0.2,0.6,0.7c0,0.6-0.3,0.9-0.9,0.9c-0.3,0-0.6-0.1-0.8-0.3c-0.2-0.2-0.3-0.5-0.3-0.8
				c0-0.7,0.5-1.3,1.6-1.7h-2.6v3.3L59.4,28v-5L59.8,22.3z"/>
		</g>
	</g>
	<g>
		<g>
			<path class="st0" d="M51.3,22.4v37c0,2.3-1.9,4.2-4.2,4.2H24.8c-2.3,0-4.2-1.9-4.2-4.2v-37h-5.3V63c0,3.1,2.5,5.7,5.7,5.7h29.4
				c3.1,0,5.7-2.5,5.7-5.7V22.4H51.3z"/>
		</g>
		<path class="st0" d="M47.7,36.3v-9.6c0-2.3-1.9-4.2-4.2-4.2H27.2c-2.3,0-4.2,1.9-4.2,4.2v28.6c0,2.3,1.9,4.2,4.2,4.2h16.3
			c2.3,0,4.2-1.9,4.2-4.2V43.5v-3.9h-5.3h-3.6v3.9h3.6V50c0,2.3-1.9,4.2-4.2,4.2h-5.7c-2.3,0-4.2-1.9-4.2-4.2V32
			c0-2.3,1.9-4.2,4.2-4.2h5.7c2.3,0,4.2,1.9,4.2,4.2v4.3H47.7z"/>
		<g>
			<path class="st0" d="M37.5,47.1c-1.1,0-1.9-0.8-1.9-1.7v-7.5c0-0.9,0.9-1.7,1.9-1.7h2v-3.4c-0.4-0.2-0.7-0.2-1.1-0.2h-4.6
				c-1.6,0-2.8,1.3-2.8,2.8V48c0,1.6,1.3,2.8,2.8,2.8h4.6c0.4,0,0.8-0.1,1.1-0.2v-3.4L37.5,47.1L37.5,47.1z"/>
		</g>
	</g>
	<g>
		<path class="st0" d="M14.6,17.5V7.6h1.8v3.9H20V7.6h1.8v9.8H20v-4.3h-3.6v4.3h-1.8V17.5z"/>
		<path class="st0" d="M23.7,17.5V7.6h6.7v1.7h-4.9v2.2H30v1.7h-4.5v2.7h5v1.7h-6.8V17.5z"/>
		<path class="st0" d="M39.4,16.2c0.4,0.3,0.9,0.6,1.5,0.8l-0.7,1.4c-0.3-0.1-0.5-0.2-0.8-0.4c-0.1,0-0.5-0.3-1.2-0.9
			c-0.6,0.3-1.2,0.4-2,0.4c-1.4,0-2.5-0.4-3.3-1.3s-1.2-2.1-1.2-3.8c0-1.6,0.4-2.9,1.2-3.7c0.8-0.9,1.9-1.3,3.2-1.3s2.4,0.4,3.2,1.3
			s1.2,2.1,1.2,3.7c0,0.9-0.1,1.6-0.3,2.2C40,15.3,39.7,15.8,39.4,16.2z M37.9,15.1c0.2-0.3,0.4-0.7,0.5-1.1
			c0.1-0.4,0.2-0.9,0.2-1.5c0-1.1-0.2-2-0.7-2.5c-0.5-0.6-1.1-0.8-1.8-0.8s-1.3,0.3-1.8,0.8c-0.5,0.6-0.7,1.4-0.7,2.5
			c0,1.2,0.2,2,0.7,2.6s1,0.9,1.8,0.9c0.3,0,0.5,0,0.7-0.1c-0.4-0.3-0.7-0.5-1.1-0.6l0.5-1.1C36.8,14.3,37.4,14.7,37.9,15.1z"/>
		<path class="st0" d="M41.9,17.5V7.6h6.7v1.7h-4.9v2.2h4.5v1.7h-4.5v2.7h5v1.7h-6.8V17.5z"/>
		<path class="st0" d="M50.3,17.5V7.6h2.9c1.1,0,1.8,0,2.2,0.1c0.5,0.1,1,0.5,1.3,1s0.5,1.1,0.5,1.9c0,0.6-0.1,1.1-0.3,1.5
			s-0.5,0.7-0.8,1c-0.3,0.2-0.6,0.4-0.9,0.5c-0.4,0.1-1.1,0.1-1.9,0.1h-1.2v3.7h-1.8V17.5z M52.1,9.3v2.8h1c0.7,0,1.2-0.1,1.4-0.2
			c0.2-0.1,0.4-0.3,0.6-0.5c0.1-0.2,0.2-0.5,0.2-0.8c0-0.4-0.1-0.7-0.3-0.9s-0.4-0.4-0.7-0.4c-0.2,0-0.7-0.1-1.3-0.1L52.1,9.3
			L52.1,9.3z"/>
	</g>
</g>
</svg>
