<?xml version="1.0" encoding="utf-8"?>
<!-- Generator: Adobe Illustrator 24.3.0, SVG Export Plug-In . SVG Version: 6.00 Build 0)  -->
<svg version="1.1" id="Layer_1" xmlns="http://www.w3.org/2000/svg" xmlns:xlink="http://www.w3.org/1999/xlink" x="0px" y="0px"
	 viewBox="0 0 60.8 87.6" style="enable-background:new 0 0 60.8 87.6;" xml:space="preserve">
<style type="text/css">
	.st0{fill:#FFFFFF;}
	.st1{fill:#0059AA;}
</style>
<g>
	<g>
		<g>
			<g>
				<rect x="12" y="8.8" class="st1" width="36.8" height="70"/>
			</g>
		</g>
		<g>
			<g>
				<g>
					<path class="st0" d="M30.9,11.6c-5.5,0-9.9,4.2-9.9,9.5c0,2.5,1,4.8,2.7,6.5l0,0l0,0c0.1,0.1,0.2,0.2,0.3,0.3l0.3,0.3l0,0
						c1.7,1.4,4,2.3,6.5,2.3c5.4,0,9.8-4.3,9.8-9.5C40.8,15.9,36.4,11.6,30.9,11.6z M30,21.7l-2.3,2.2c-0.5-0.6-0.9-1.4-1-2.2h3.6
						v-0.9l0.6-0.5l-0.1-0.1h0.7l-0.4,0.4l0.7,0.7l0.1-0.1v0.4h3.2c-0.1,0.9-0.4,1.6-1,2.3l-2.3-2.2l-0.4,0.3h-0.7v3.3
						c-0.9,0-1.7-0.3-2.4-0.8l2.2-2.2L30,21.7z M28.5,18c0.6-0.4,1.4-0.7,2.2-0.7v2.8L28.5,18z M34.3,18.8c0.4,0.5,0.7,1.1,0.8,1.8
						h-2.7L34.3,18.8z M31.7,20v-2.8c0.8,0.1,1.4,0.4,2,0.9L31.7,20z M33.9,17.9c-0.6-0.5-1.4-0.8-2.2-1v-1.2c1.2,0.2,2.2,0.6,3,1.4
						L33.9,17.9z M30.7,16.9c-0.9,0-1.7,0.3-2.4,0.8l-0.9-0.8c0.9-0.7,2-1.1,3.3-1.2V16.9z M30,20.7h-3.2c0.1-0.8,0.5-1.6,1-2.1
						L30,20.7z M31.7,22.8l1.7,1.6c-0.5,0.4-1.1,0.6-1.7,0.8V22.8z M31.7,25.5c0.7-0.1,1.4-0.4,2-0.8l0.7,0.6
						c-0.7,0.5-1.6,0.9-2.6,1.1V25.5z M34.4,24.1c0.6-0.7,1-1.6,1.1-2.5h1c-0.1,1.2-0.6,2.3-1.4,3.1L34.4,24.1z M35.4,20.7
						c-0.1-0.8-0.4-1.5-0.9-2l0.8-0.8c0.6,0.8,1.1,1.8,1.2,2.8H35.4z M35,16.9c-0.9-0.8-2-1.3-3.3-1.5v-1.1c1.6,0.2,3,0.8,4.1,1.8
						L35,16.9z M30.7,15.4c-1.3,0-2.6,0.5-3.6,1.3l-0.9-0.8c1.2-0.9,2.8-1.5,4.4-1.5V15.4z M27.6,18.4c-0.6,0.6-1,1.4-1.1,2.4h-1.1
						c0.1-1.2,0.6-2.3,1.4-3.2L27.6,18.4z M26.5,21.6c0.1,0.9,0.5,1.8,1.1,2.4l-0.7,0.7c-0.8-0.8-1.3-1.9-1.4-3.1H26.5z M28.2,24.7
						c0.7,0.5,1.6,0.9,2.6,0.9v0.9c-1.2,0-2.3-0.4-3.3-1.1L28.2,24.7z M31.7,26.8c1.1-0.1,2.1-0.6,2.9-1.2l1,1
						c-1.1,0.9-2.4,1.5-3.9,1.7V26.8z M35.3,25c0.9-0.9,1.5-2.1,1.6-3.4h1.3c-0.1,1.7-0.8,3.2-1.8,4.4L35.3,25z M36.9,20.7
						c-0.1-1.2-0.6-2.3-1.3-3.1l0.8-0.8c1,1.1,1.6,2.4,1.7,3.9H36.9z M36.2,15.7c-1.2-1.1-2.8-1.8-4.5-1.9v-1.5
						c2.2,0.2,4.1,1,5.6,2.4L36.2,15.7z M30.7,13.8c-1.8,0.1-3.5,0.7-4.8,1.7l-1.1-1c1.6-1.3,3.6-2.1,5.8-2.2V13.8z M26.5,17.3
						c-0.9,0.9-1.4,2.1-1.5,3.4h-1.4c0.1-1.7,0.9-3.2,2-4.3L26.5,17.3z M25,21.6c0.1,1.3,0.7,2.4,1.6,3.4l-1.1,1
						c-1.1-1.2-1.8-2.7-1.9-4.4H25z M27.3,25.6c1,0.7,2.2,1.2,3.5,1.2v1.5c-1.8,0-3.4-0.6-4.6-1.7L27.3,25.6z M31.7,28.8
						c1.6-0.2,3.1-0.8,4.3-1.8l0.9,0.8c-1.4,1.2-3.2,1.9-5.2,2.1V28.8z M36.7,26.3c1.2-1.3,1.9-2.9,2-4.7h1.4
						c-0.1,2.2-1,4.1-2.5,5.6L36.7,26.3z M38.7,20.7c-0.1-1.6-0.8-3.1-1.9-4.3l1.1-1c1.3,1.4,2.1,3.3,2.2,5.3H38.7z M24.2,15.1
						l1.1,1c-1.2,1.2-2,2.8-2.1,4.6h-1.4C21.8,18.5,22.7,16.6,24.2,15.1z M21.7,21.6h1.4c0.1,1.8,0.8,3.5,2,4.7l-0.9,0.9
						C22.8,25.7,21.9,23.8,21.7,21.6z M25.8,27c1.3,1.1,3.1,1.8,5,1.8V30c-2.2,0-4.3-0.8-5.8-2.1L25.8,27z"/>
				</g>
			</g>
			<g>
				<g>
					<g>
						<path class="st0" d="M24.9,25.2c0,0,0-1.1-1.5-0.8c0,0-1.9-0.8,0.8-0.8c0,0,1.7,0.2,1.3-0.9c0,0-0.2-1.6,0.6-1.1
							c0,0,0.6-0.2,0.4,0.9c0,0,0.4,0.4,0.7-0.3c0,0-0.6-2.9,0.5-3.5c0,0,1.5-1.4,1.2,0.3c0,0-0.7,0.1-0.2,0.7c0,0,0.9-0.1,0.8-0.4
							c0,0,2.2-1,2.6,0.1c0,0,0.6,0.5,0.7-0.6c0,0,0.8-2.4,1.5-0.5c0,0,0.2,0.7,0.6,0.5c0,0,0.7-0.3,0.1,1c0,0,0.8,0.4,1.2,0.2
							c0,0,2.1,0.5-0.6,1.6c0,0-0.6-0.2-0.7,1c0,0-1.1,0.9,0.5,1.4c0,0,0.9-0.2,0.3,1.1c0,0,0.7,0.8,1.2,0.4c0,0,0.9,1.8-1.1,1.3
							c0,0-1.4,2.6-2.9,1.4c0,0,0.4-2.2-0.8-2c0,0-0.8,1.9-1.7,0.3c0,0-0.9-0.6-0.1-1.4c0,0,0-1.1,0.7-0.6c0,0,1-1.9-1.2-1.7
							c0,0-1.4,0.9-1-1.2c0,0-1.1-0.4-0.7,1.1c0,0-1,0-1.1,0.9c0,0,1.1,0.1,0.9,1c0,0,0.5,1.6-1,1.3c0,0,0.8,1-1.2,1.4
							c0,0-0.2,0.1-0.4,0.5c0,0-0.9,0.8-1.1,0c0,0-0.6-0.6,0.8-1.3L24.9,25.2z"/>
					</g>
				</g>
				<g>
					<g>
						<g>
							<g>
								<path class="st0" d="M20.6,27.4c0,0,0.1-1.2,0.5-1.6c0,0-0.1-2.9-0.5-3.7l0,0.1c0,0-1.3,1.8-0.5,3.1l0.1,0.4
									c0,0-0.2,0.2-1.5-1c0,0-1.2-1.5-2-1.8c0,0-0.3,2,2.1,3.3C18.9,26.3,20.4,26.9,20.6,27.4z"/>
							</g>
						</g>
						<g>
							<g>
								<path class="st0" d="M22.1,15.1c0.1-0.5,1.3-0.4,1.5-2.7c0,0-2.9,1.1-2.8,3.5C20.8,16,21.7,15.5,22.1,15.1z"/>
							</g>
						</g>
						<g>
							<g>
								<path class="st0" d="M19.3,18.3c0,0,2.4-1,3.1-2.9c0,0-1.6,0.3-2,1.5L20,17.3c0,0-0.1-0.3,0.3-1.4c0,0,0.6-1.6,0.5-2.6
									l-0.1,0.1c0,0-2.1,0.5-1.4,4C19.3,17.4,19.4,18.1,19.3,18.3z"/>
							</g>
						</g>
						<g>
							<g>
								<path class="st0" d="M18.5,21.7c0,0,2.2-1.5,2.4-3.5c0,0-1.4,0.7-1.6,1.9l-0.4,0.4c0,0-0.2-0.3-0.1-1.5c0,0,0.2-1.7-0.1-2.7
									l-0.1,0.1c0,0-1.9,1-0.4,4.2C18.3,20.7,18.6,21.5,18.5,21.7z"/>
							</g>
						</g>
						<g>
							<g>
								<path class="st0" d="M18.2,23.5c0,0,1,0.7,1,0.9c0,0,0.5-1,1.2-2c0,0,0.5-1.5,0.4-2.4c0,0-1.4,1.1-1.4,2.2l-0.3,1.1
									c0,0-1-0.6-1.1-1.4c0,0-0.2-2.7-1.2-3.2C16.9,18.5,16.1,21.8,18.2,23.5z"/>
							</g>
						</g>
						<g>
							<g>
								<path class="st0" d="M23,29.8c0,0,0.1-2.8-1.5-4.6c0,0-0.5,2,0.1,2.9c0,0,0.3,0.7,0.5,0.8c0,0-1.6-0.1-2.2-0.9
									c0,0-1.2-1.2-2-1.6c0,0,0.3,2.6,1.6,2.8C19.5,29.2,22.8,29.3,23,29.8z"/>
							</g>
						</g>
						<g>
							<g>
								<path class="st0" d="M24,31.8c0.6-0.4,2.2,0.1,2.2,0.1c-0.3-0.1-0.6-1.1-0.6-1.1c-0.9-2.1-2.4-2.8-2.4-2.8
									c-0.1,1,0.7,2,0.7,2c0.5,0.2,0.5,0.9,0.5,0.9c-0.5,0.5-2.1-0.3-2.1-0.3c-1.6-0.7-2.7-0.7-2.7-0.7C20.8,32.8,24,31.8,24,31.8
									z"/>
							</g>
						</g>
						<g>
							<g>
								<path class="st0" d="M32.8,32.2c-2-1.2-6-0.2-6-0.2c-0.5,0.3-2,0.4-2,0.4c-0.9-0.4-2.7,0.1-2.7,0.1c3.1,2.9,5.6,0.5,5.6,0.5
									c0.4-0.5,2.4-0.7,2.4-0.7c2.9-0.1,4.1,2.5,4.1,2.5l0.9-0.2C35.1,33.7,32.8,32.2,32.8,32.2z"/>
							</g>
						</g>
					</g>
					<g>
						<g>
							<g>
								<path class="st0" d="M41.8,27.2c0,0-0.1-1.2-0.6-1.6c0,0,0.1-2.9,0.5-3.7v0.1c0,0,1.3,1.8,0.5,3.1l-0.1,0.4
									c0,0,0.2,0.2,1.5-1c0,0,1.2-1.5,2-1.8c0,0,0.3,2-2.1,3.3C43.6,26.1,42.1,26.6,41.8,27.2z"/>
							</g>
						</g>
						<g>
							<g>
								<path class="st0" d="M40.4,14.9c-0.1-0.5-1.3-0.4-1.5-2.7c0,0,2.9,1.1,2.8,3.5C41.7,15.8,40.8,15.2,40.4,14.9z"/>
							</g>
						</g>
						<g>
							<g>
								<path class="st0" d="M43.1,18.1c0,0-2.5-1-3.1-2.9c0,0,1.6,0.3,2,1.5l0.5,0.3c0,0,0.1-0.3-0.3-1.4c0,0-0.6-1.6-0.5-2.6
									l0.1,0.1c0,0,2.1,0.5,1.4,4C43.1,17.1,43.1,17.9,43.1,18.1z"/>
							</g>
						</g>
						<g>
							<g>
								<path class="st0" d="M43.9,21.5c0,0-2.2-1.5-2.4-3.5c0,0,1.4,0.7,1.6,1.9l0.4,0.4c0,0,0.2-0.3,0.1-1.5c0,0-0.2-1.7,0.1-2.7
									l0,0.1c0,0,1.9,1,0.4,4.2C44.2,20.5,43.9,21.3,43.9,21.5z"/>
							</g>
						</g>
						<g>
							<g>
								<path class="st0" d="M44.3,23.3c0,0-0.9,0.7-1,0.8c0,0-0.5-1-1.1-2c0,0-0.6-1.5-0.4-2.4c0,0,1.4,1.1,1.4,2.2l0.3,1.1
									c0,0,0.9-0.6,1.1-1.4c0,0,0.2-2.7,1.2-3.2C45.6,18.3,46.3,21.6,44.3,23.3z"/>
							</g>
						</g>
						<g>
							<g>
								<path class="st0" d="M39.5,29.6c0,0-0.1-2.7,1.5-4.6c0,0,0.5,2-0.1,2.9c0,0-0.3,0.7-0.5,0.8c0,0,1.6-0.1,2.2-0.8
									c0,0,1.2-1.2,2-1.6c0,0-0.3,2.6-1.6,2.7C42.9,29,39.7,29.1,39.5,29.6z"/>
							</g>
						</g>
						<g>
							<g>
								<path class="st0" d="M38.4,31.6c-0.6-0.5-2.2,0.1-2.2,0.1c0.3-0.1,0.5-1,0.5-1c0.9-2.2,2.5-2.8,2.5-2.8c0.1,1.1-0.7,2-0.7,2
									C38,30,38,30.7,38,30.7c0.5,0.5,2.1-0.3,2.1-0.3c1.6-0.7,2.7-0.7,2.7-0.7C41.6,32.5,38.4,31.6,38.4,31.6z"/>
							</g>
						</g>
						<g>
							<g>
								<path class="st0" d="M29.7,32c2-1.2,6-0.2,6-0.2c0.6,0.3,2,0.4,2,0.4c0.9-0.4,2.7,0.1,2.7,0.1c-3.1,2.9-5.6,0.5-5.6,0.5
									c-0.4-0.5-2.4-0.7-2.4-0.7c-2.9-0.1-4.1,2.5-4.1,2.5l-0.9-0.2C27.3,33.5,29.7,32,29.7,32z"/>
							</g>
						</g>
					</g>
				</g>
			</g>
		</g>
		<g>
			<g>
				<g>
					<polygon class="st0" points="48.7,41.5 48.7,40.4 31.6,40.4 30.8,40.4 12.1,40.4 12.1,41.5 30.8,41.5 30.8,59 12.1,59 
						12.1,60.2 30.8,60.2 30.8,78.7 31.6,78.7 31.6,60.2 48.7,60.2 48.7,59 31.6,59 31.6,41.5 					"/>
				</g>
			</g>
		</g>
		<g>
			<g>
				<path class="st0" d="M26.2,44.3V52c0,2.4-1.6,4.4-4.9,4.4c-3.3,0-4.7-2-4.7-4.2v-7.9h1.7v7.4c0,2.6,1.6,3.3,3.1,3.3
					c1.5,0,3.2-0.7,3.2-3.2v-7.5H26.2z"/>
			</g>
		</g>
		<g>
			<g>
				<path class="st0" d="M43.9,45h1.6v11.4h-1.8l-6-9.2h0v9.2h-1.5V45H38l5.9,9.2h0V45z"/>
			</g>
		</g>
	</g>
	<g>
		<g>
			<path class="st0" d="M17.2,63.4H22c3.1,0,5.1,2.3,5.1,5.6c0,2.6-1.2,6-5.1,6h-4.8V63.4z M18.8,73.6h3.2c2.1,0,3.5-1.6,3.5-4.5
				c0-2.9-1.4-4.4-3.6-4.4h-3V73.6z"/>
		</g>
	</g>
	<g>
		<g>
			<path class="st0" d="M38.1,75.2h-1.6V63.6h5.4c2.2,0,3.6,1.4,3.6,3.3c0,1.6-1,3.4-3.6,3.4h-3.8V75.2z M38.1,68.9h3.2
				c1.5,0,2.5-0.5,2.5-2.1c0-1.5-1-1.9-2.4-1.9h-3.3V68.9z"/>
		</g>
	</g>
</g>
</svg>
