<?xml version="1.0" encoding="utf-8"?>
<!-- Generator: Adobe Illustrator 24.3.0, SVG Export Plug-In . SVG Version: 6.00 Build 0)  -->
<svg version="1.1" id="Layer_1" xmlns="http://www.w3.org/2000/svg" xmlns:xlink="http://www.w3.org/1999/xlink" x="0px" y="0px"
	 viewBox="0 0 92.6 81.4" style="enable-background:new 0 0 92.6 81.4;" xml:space="preserve">
<style type="text/css">
	.st0{fill:#009FE3;}
</style>
<g>
	<path class="st0" d="M42.2,7.4c-1.5,0.2-3,0.6-4.4,1.1c0.3,0.3,0.6,0.6,0.9,0.9C39.8,8.7,41,8,42.2,7.4z M67.4,18
		c-1.3-1.8-2.8-3.5-4.5-4.9c-0.8,0.7-1.7,1.4-2.7,2c1.3,1.6,2.4,3.3,3.3,5.1C64.9,19.6,66.2,18.8,67.4,18z M61.9,12.3
		C60.1,11,58.2,9.9,56.1,9c-0.3,0.4-0.7,0.8-1.1,1.1c1.6,1.2,3.1,2.5,4.4,4C60.3,13.6,61.1,13,61.9,12.3z M54.9,8.6
		c-1.4-0.5-2.9-0.9-4.4-1.1c1.2,0.6,2.4,1.3,3.5,2C54.3,9.2,54.6,8.9,54.9,8.6z M46.3,5.7c15.1,0,27.4,12.4,27.4,27.6
		c0,15.2-12.3,27.6-27.4,27.6S18.9,48.5,18.9,33.3C18.9,18.1,31.2,5.7,46.3,5.7z M50.9,11.3c0.7-0.3,1.4-0.7,2-1.1
		c-1.4-0.9-3-1.7-4.6-2.4C49.2,8.9,50.1,10.1,50.9,11.3z M46.9,12.2c1,0,1.9-0.2,2.8-0.4c-0.8-1.3-1.8-2.5-2.8-3.6V12.2z M50.4,12.8
		c-1.1,0.3-2.2,0.6-3.4,0.6v4.5c2,0,3.9-0.3,5.7-0.8C52,15.6,51.2,14.2,50.4,12.8z M54,11c-0.8,0.5-1.6,1-2.5,1.4
		c0.9,1.4,1.6,2.9,2.3,4.4c1.6-0.5,3.1-1.1,4.4-1.9C57,13.4,55.6,12.1,54,11z M41.8,11.3c0.8-1.2,1.6-2.4,2.6-3.5
		c-1.6,0.7-3.2,1.5-4.6,2.4C40.3,10.7,41,11,41.8,11.3z M45.7,8.1c-1,1.2-1.9,2.4-2.8,3.6c0.9,0.2,1.8,0.4,2.8,0.4V8.1z M31,54.4
		c0.6,0.2,1.5,0.5,2.5,0.4c1.4-0.1,3.2-0.8,5-1.4c1.8-0.7,6.4-1.8,7.4-2c1.1-0.2,1.4-0.7,1.6-1.2c0.3-0.5,0.1-1.2,0-2
		c-0.1-0.8-0.4-2.1-0.4-3.4c0-1.2-0.1-2.3-2-3.5c-1.9-1.2-3.2-2.7-3-3.8c0.1-1.1,1.4-2,1.4-2s-0.3-0.9-0.2-1.3
		c0.1-0.4,1.3-0.3,1.3-0.3s-0.2-1.3-0.1-1.7c0.1-0.4,0.7-0.2,0.7-0.2l0.6-0.4c0,0-0.4-0.9-0.6-1.5c-0.2-0.6,0.2-1.1,0.9-1.1
		c0.7,0,1.6-0.1,3.7-0.6c2.1-0.5,3-4.5,8-5.3c4.9-0.8,8.8,3,8.8,3s7.9,7.4,2.7,15.8C64.7,49.3,59,47.4,59,47.4s-1,0.5-0.5,2.6
		c0.5,2.1,3.5,3.9,3.5,3.9l0.2,0.1c6.1-4.8,10.1-12.3,10.1-20.7c0-5.3-1.6-10.2-4.2-14.3c-1.3,0.9-2.6,1.6-4,2.3
		c0.4,0.8,0.7,1.6,1,2.5c-0.5-0.3-1.1-0.6-1.6-0.8c-0.2-0.4-0.3-0.8-0.5-1.2c-0.4,0.2-0.9,0.4-1.3,0.6c-0.8-0.2-1.7-0.3-2.6-0.3
		c1.1-0.4,2.3-0.8,3.3-1.3c-0.9-1.8-2-3.5-3.3-5c-1.5,0.9-3.1,1.6-4.8,2.1c0.6,1.5,1.2,3.1,1.6,4.7c-0.4,0.1-0.8,0.3-1.2,0.4
		c-0.4-1.6-1-3.2-1.7-4.8c-2,0.5-4.1,0.8-6.2,0.9v5.1c2.4,0,4.7-0.3,7-0.7c-0.7,0.5-1.2,1-1.7,1.5c-1.7,0.3-3.5,0.4-5.3,0.4v1.8
		c-0.3,0-0.6,0-0.9,0c-0.1,0-0.2,0-0.4,0v-8.2c-1,0-1.9-0.1-2.9-0.2c-0.3-0.5-0.6-1-1-1.4c1.3,0.2,2.5,0.4,3.9,0.4v-4.5
		c-1.2-0.1-2.4-0.3-3.4-0.6c-0.7,1.1-1.3,2.2-1.8,3.3c-0.3-0.3-0.6-0.5-1-0.8c0.5-1,1.1-2,1.7-3c-0.9-0.4-1.7-0.8-2.5-1.4
		c-1.1,0.8-2.1,1.6-3.1,2.6c-0.5-0.1-1-0.2-1.5-0.3c1.1-1.1,2.3-2.2,3.6-3.1c-0.4-0.4-0.8-0.7-1.1-1.1c-2.1,0.9-4,2-5.8,3.3
		c-6.1,4.6-10.1,11.8-10.4,19.9c0.2-0.1,2.6-2.4,3.8-2.6c1.2-0.3,2.1-2.3,2.1-2.7c0-0.4-2.2-5.8,0.5-9.4c2.4-3.2,6-4.8,11.7-1.6
		c5.7,3.2,4.6,7.8,3.5,9.3c-1.1,1.5-1.6,2-1.4,2.7c0.2,0.7,0.7,1.2,0.5,1.6S39.7,30,39.7,30s0.3,0.7,0.2,1c0,0.3-0.7,0.2-0.7,0.2
		s0.1,0.4,0,0.7c-0.1,0.3-1.1,0.1-1.1,0.1s0.2,1.9-2.3,1.6c-2.5-0.3-3-1.1-3.8-0.5c-0.7,0.6-0.6,1.3-0.1,3.5
		c0.5,2.2,0.7,7.1,0.7,7.1l1.5,1.1c0,0,2.3,0.1,2.8,0.2c0.5,0,1.2,0.2,1.5,0.2c0.4,0,1.8-1.1,2.6-1.3c0.8-0.2,1,0,1,0.2
		c0,0.2-0.2,0.7-0.2,0.7s1.2-0.5,1.7-0.4c0.4,0.1,0.7,0.6,0.4,2.1c-0.3,1.6-1,2.6-2.4,2.7c-1.4,0.2-2.3-0.5-3.3-0.5
		c-1,0-3.9,1.4-6.2,1.2c-2.3-0.2-3-1.2-3-1.2s-0.8,1.5-0.9,2.1c-0.1,0.4,0,0.9,0,1.1C29.2,53,30,53.8,31,54.4z"/>
	<path class="st0" d="M33.2,63.2c-1.4,0.3-5-0.2-7.1-2.7c-1.8-2.2-2.8-7.4-2.5-7.6c0.3-0.2,3,1.9,5.7,4.4
		C32.1,59.7,34.7,62.9,33.2,63.2z M26.7,63.6c-0.2,0.3-4.1,1.4-8.2-1c-4.2-2.5-6.2-7-6.2-7.2c0.1-0.4,2.9,0.3,8.2,3.2
		C25.9,61.6,27,63.3,26.7,63.6z M23.1,58.4c-0.3,0.1-4.1-1.7-5.2-6.4c-1.1-4.7,0.3-7.9,0.7-8.1c0.5-0.2,2.2,2.5,3.4,6.8
		C23.3,55,23.6,58.3,23.1,58.4z M18.4,56.4c-0.5,0.2-4.6-1.6-7.5-5.1c-2.5-3-3.7-8.1-3.5-8.2c0.2-0.2,3.7,2.8,6.5,6
		C16.7,52.2,18.9,56.3,18.4,56.4z M15.8,49.6c-0.6-0.1-2.4-2.2-2.1-7.2c0.2-3.2,2.7-7.3,3.1-7.3c0.6,0,0.9,3,0.6,6.9
		C17.1,45.9,16.4,49.7,15.8,49.6z M6.5,30.8c0.5-0.4,2.6,3.3,3.9,6.3c1.1,2.6,2.6,8.1,2,8.3C12,45.5,9,43.6,7.2,39
		C5.9,35.3,6.2,31,6.5,30.8z M16.7,27c0.4,0.1,0.2,3.4-1,6.9c-1.2,3.5-3,6.5-3.3,6.3c-0.4-0.2-1.1-4.3,0.1-7.4
		C13.7,29.6,16.3,26.9,16.7,27z M12.3,29.7c-0.3-0.4-0.5-4.1,2-7.3c2.4-3.1,4.5-4,4.9-3.8c0.4,0.2-0.9,3.7-2.5,6.2
		C15.1,27.3,12.6,30.1,12.3,29.7z M11.6,23.6c-0.6-0.3-0.5-3.1,0.9-6.1c1.2-2.6,3.9-5.1,4.4-4.9c0.5,0.2-0.5,3.9-1.6,6.2
		C14.5,20.9,12.1,23.8,11.6,23.6z M9.4,19.3c0.4-0.1,1.6,3.2,1.8,7.5c0.2,4.4-0.2,7.8-0.5,7.8c-0.3,0-2.6-1.9-2.7-6.5
		C7.8,23.5,8.9,19.4,9.4,19.3z M54.9,75.7c-0.7,0.2-0.9-2.6-6.4-6.4c-0.9-0.6-1.7-1.1-2.4-1.5c-0.6,0.4-1.3,0.8-2,1.3
		c-5.5,3.7-5.7,6.6-6.4,6.4C37.1,75.2,36,74,36,74s3.7-4.6,8.2-7.2c-2.6-1.2-4.1-1.2-4.1-1.2s-1.9,3.2-7.8,2.8
		c-5.9-0.4-9-1.7-9.9-2.3c-0.2-0.2-1.2-1.2,6.2-1.9c7-0.7,12.5-0.2,17.4,1.7c5-2.1,10.7-2.6,17.9-1.9c7.4,0.7,6.5,1.7,6.2,1.9
		c-1,0.7-4.1,2-9.9,2.3c-5.9,0.3-7.8-2.8-7.8-2.8s-1.7,0-4.6,1.4c4.7,2.5,8.7,7.4,8.7,7.4S55.6,75.4,54.9,75.7z M59.4,62.9
		c-1.4-0.3,1.2-3.4,3.9-6c2.8-2.5,5.4-4.6,5.7-4.4c0.3,0.2-0.7,5.5-2.5,7.6C64.4,62.8,60.9,63.2,59.4,62.9z M65.9,63.4
		c-0.3-0.3,0.8-2,6.1-5c5.3-3,8.1-3.6,8.2-3.2c0.1,0.2-2,4.8-6.2,7.2C70,64.8,66.1,63.7,65.9,63.4z M69.5,58.2
		c-0.5-0.1-0.1-3.4,1.1-7.7c1.2-4.2,2.9-7,3.4-6.8c0.3,0.1,1.8,3.4,0.7,8.1C73.6,56.5,69.8,58.3,69.5,58.2z M74.2,56.2
		c-0.5-0.2,1.7-4.2,4.5-7.4c2.8-3.2,6.2-6.2,6.5-6c0.2,0.2-0.9,5.2-3.5,8.2C78.8,54.6,74.7,56.3,74.2,56.2z M76.8,49.4
		c-0.6,0.1-1.3-3.7-1.6-7.6c-0.3-3.9,0-6.9,0.6-6.9c0.5,0,3,4.1,3.1,7.3C79.2,47.2,77.4,49.2,76.8,49.4z M86.2,30.6
		c0.2,0.2,0.6,4.5-0.8,8.2c-1.7,4.6-4.8,6.5-5.1,6.4c-0.6-0.2,0.9-5.7,2-8.3C83.6,33.9,85.7,30.2,86.2,30.6z M75.9,26.8
		c0.4-0.1,3,2.6,4.2,5.8c1.2,3.1,0.5,7.2,0.1,7.4c-0.4,0.2-2.1-2.8-3.3-6.3C75.7,30.2,75.5,26.9,75.9,26.8z M80.3,29.5
		c-0.3,0.3-2.7-2.5-4.4-4.9c-1.6-2.5-2.9-6-2.5-6.2c0.4-0.2,2.5,0.8,4.9,3.8C80.8,25.4,80.6,29.1,80.3,29.5z M81,23.3
		c-0.5,0.2-2.8-2.7-3.7-4.7c-1-2.4-2-6.1-1.6-6.2c0.5-0.2,3.2,2.3,4.4,4.9C81.5,20.2,81.6,23,81,23.3z M83.3,19.1
		c0.4,0.1,1.6,4.2,1.4,8.8c-0.1,4.6-2.4,6.5-2.7,6.5c-0.3,0-0.7-3.4-0.5-7.8C81.7,22.3,82.8,19,83.3,19.1z"/>
</g>
</svg>
