<?xml version="1.0" encoding="utf-8"?>
<!-- Generator: Adobe Illustrator 24.3.0, SVG Export Plug-In . SVG Version: 6.00 Build 0)  -->
<svg version="1.1" id="Layer_1" xmlns="http://www.w3.org/2000/svg" xmlns:xlink="http://www.w3.org/1999/xlink" x="0px" y="0px"
	 viewBox="0 0 76.7 78" style="enable-background:new 0 0 76.7 78;" xml:space="preserve">
<style type="text/css">
	.st0{fill:#252525;}
</style>
<g>
	<path class="st0" d="M15.2,15.1c0,0-6.9,1.4-2.1,10.8s7.8,14.4,18.5,22.3c-0.2,5.2-0.1,5.8,0,7c-2.4-1.8-13.8-8.8-20.2-20.9
		S7.4,15.4,15.2,15.1z"/>
	<path class="st0" d="M15.2,15.1c0,0,11.4,1.2,9.9,16.5S16.1,56.9,4.8,74c7.5,0,11.9,0,14.8,0c1.5-3.4,10.9-24.8,10.8-38.1
		S26.7,15.7,15.2,15.1z"/>
	<path class="st0" d="M62,18.5c0,0,6.9,1.3,2.1,10.2s-7.8,13.5-18.5,21c0.2,4.9,0.1,5.4,0,6.6c2.4-1.7,13.9-8.2,20.2-19.6
		C71.3,26.7,69.9,19.3,62,18.5z"/>
	<path class="st0" d="M61.9,18.5c0,0-10.8,1.2-9.2,15.7S60.6,57.9,71.9,74c-7.5,0-11.4,0-14.3,0c-1.5-3.2-9.9-23.3-9.8-35.8
		S50.5,19.1,61.9,18.5z"/>
	<path class="st0" d="M28.4,74h8.2c0,0,6.5-11,7.6-17.6c1-6.4,0.2-11.6-5.5-11.8c2.7,1.9,3.6,6.3,0.2,12.9C35.4,64,28.4,74,28.4,74z
		"/>
	<path class="st0" d="M48.6,74h-8.2c0,0-6.5-11-7.6-17.6c-1-6.4-0.2-11.6,5.5-11.8c-2.7,1.9-3.6,6.3-0.2,12.9
		C41.6,64,48.6,74,48.6,74z"/>
	<circle class="st0" cx="38.8" cy="37.4" r="4.2"/>
	<circle class="st0" cx="16.4" cy="8.2" r="4.2"/>
	<circle class="st0" cx="61.4" cy="12" r="4.2"/>
</g>
</svg>
