<?xml version="1.0" encoding="utf-8"?>
<!-- Generator: Adobe Illustrator 24.3.0, SVG Export Plug-In . SVG Version: 6.00 Build 0)  -->
<svg version="1.1" id="Layer_1" xmlns="http://www.w3.org/2000/svg" xmlns:xlink="http://www.w3.org/1999/xlink" x="0px" y="0px"
	 viewBox="0 0 150 150" style="enable-background:new 0 0 150 150;" xml:space="preserve">
<style type="text/css">
	.st0{fill:#D7D7D7;}
	.st1{fill:#C8E0EE;}
	.st2{fill:#819EAE;}
	.st3{fill:#454F56;}
	.st4{fill:none;stroke:#454F56;stroke-width:0.2971;stroke-miterlimit:10;}
	.st5{fill:#E8F5FC;}
	.st6{fill:#FFCA00;}
	.st7{fill:#F8AC00;}
	.st8{fill:#E4CEC7;}
	.st9{fill:#C77700;}
	.st10{fill:#FCD2A4;}
	.st11{fill:none;stroke:#F8AC00;stroke-width:0.3235;stroke-linecap:round;stroke-linejoin:round;stroke-miterlimit:10;}
	.st12{fill:#D8C9C1;}
	.st13{fill:#10632D;}
	.st14{fill:#1D9239;}
	.st15{fill:#8EA927;}
</style>
<g>
	<path class="st0" d="M74.9,138.4c0,1.1,13.9,2,31.1,2s31.1-0.9,31.1-2c0-1.1-13.9-2-31.1-2S74.9,137.3,74.9,138.4z"/>
	<path class="st0" d="M23.4,136.2c0,1.1,24.9,2,55.6,2s55.6-0.9,55.6-2c0-1.1-24.9-2-55.6-2S23.4,135.1,23.4,136.2z"/>
	<g>
		<path class="st1" d="M105,12.7V16c0.8,0.5,1.4,1.3,1.4,2.3c0,1.5-1.2,2.7-2.7,2.7c-1.5,0-2.7-1.2-2.7-2.7c0-1,0.5-1.8,1.3-2.3
			v-3.4h-8.2v3.4c0.8,0.5,1.4,1.3,1.4,2.3c0,1.5-1.2,2.7-2.7,2.7c-1.5,0-2.7-1.2-2.7-2.7c0-1,0.5-1.8,1.3-2.3v-3.4h-8.3V16
			c0.8,0.5,1.4,1.3,1.4,2.3c0,1.5-1.2,2.7-2.7,2.7c-1.5,0-2.7-1.2-2.7-2.7c0-1,0.5-1.8,1.3-2.3v-3.4h-8.4V16
			c0.9,0.4,1.5,1.3,1.5,2.4c0,1.5-1.2,2.7-2.7,2.7c-1.5,0-2.7-1.2-2.7-2.7c0-0.9,0.5-1.7,1.2-2.2v-3.5h-8.1v3.4
			c0.8,0.5,1.4,1.3,1.4,2.3c0,1.5-1.2,2.7-2.7,2.7c-1.5,0-2.7-1.2-2.7-2.7c0-1,0.5-1.8,1.3-2.3v-3.4h-8.4V16
			c0.9,0.4,1.4,1.3,1.4,2.4c0,1.5-1.2,2.7-2.7,2.7c-1.5,0-2.7-1.2-2.7-2.7c0-0.9,0.5-1.8,1.2-2.2v-3.5h-8.2v3.4
			c0.8,0.5,1.4,1.3,1.4,2.3c0,1.5-1.2,2.7-2.7,2.7c-1.5,0-2.7-1.2-2.7-2.7c0-1,0.5-1.8,1.3-2.3v-3.4h-8.3V16
			c0.8,0.5,1.4,1.3,1.4,2.3c0,1.5-1.2,2.7-2.7,2.7c-1.5,0-2.7-1.2-2.7-2.7c0-1,0.5-1.8,1.3-2.3v-3.4h-5.1c0,0,0,86.4,0,100
			c0,13.6,3.9,23.1,13.7,23.1c9.8,0,83.1,0,88.4,0c-12.8,0-13.7-9-13.7-19.6c0-10.7,0-103.4,0-103.4H105z"/>
		<rect x="32.1" y="53.2" class="st2" width="67.2" height="3.6"/>
		<rect x="32.1" y="58.9" class="st2" width="67.2" height="3.6"/>
		<rect x="32.1" y="64.6" class="st2" width="35.8" height="3.6"/>
		<rect x="32.1" y="108.5" class="st2" width="67.2" height="3.6"/>
		<rect x="32.1" y="114.3" class="st2" width="67.2" height="3.6"/>
		<rect x="56" y="25.3" class="st2" width="43.2" height="4.1"/>
		<rect x="56" y="31.9" class="st2" width="43.2" height="4.1"/>
		<rect x="56" y="38.5" class="st2" width="26.1" height="4.1"/>
		<rect x="32.1" y="74.2" class="st3" width="67.2" height="8.2"/>
		<g>
			<path class="st3" d="M99,74.5v29.5H32.4V74.5H99 M99.3,74.2H32.1v30.1h67.2V74.2L99.3,74.2z"/>
		</g>
		<g>
			<path class="st3" d="M39.5,37.4v5.1c0,0.4-0.2,0.8-0.6,1.1c-0.4,0.3-0.8,0.4-1.3,0.4h-3.4c-0.3,0-0.5-0.1-0.5-0.4v-7.4
				c0-0.2,0.2-0.4,0.5-0.4h3.4c0.5,0,0.9,0.2,1.3,0.5C39.3,36.6,39.5,37,39.5,37.4z M37.7,42.5v-5.1h-2v5.1H37.7z"/>
			<path class="st3" d="M44.6,43.7l-0.4-1.5h-1.9L42,43.7c0,0.2-0.2,0.3-0.4,0.3h-0.9c-0.1,0-0.3,0-0.4-0.1
				c-0.1-0.1-0.1-0.2-0.1-0.3l1.8-7.4c0-0.2,0.2-0.3,0.4-0.3h1.8c0.2,0,0.4,0.1,0.4,0.3l1.8,7.4c0,0.1,0,0.2-0.1,0.3
				C46.3,43.9,46.1,44,46,44h-0.9C44.8,44,44.7,43.9,44.6,43.7z M43.9,40.7l-0.6-2.4l-0.6,2.4H43.9z"/>
			<path class="st3" d="M49.4,41v2.6c0,0.2-0.2,0.4-0.5,0.4H48c-0.3,0-0.5-0.1-0.5-0.4V41l-2-4.6c-0.1-0.1,0-0.2,0.1-0.3
				c0.1-0.1,0.2-0.2,0.4-0.2h0.9c0.2,0,0.4,0.1,0.4,0.3l1.1,2.8l1.1-2.8c0.1-0.2,0.2-0.3,0.4-0.3h1c0.2,0,0.3,0.1,0.4,0.2
				c0.1,0.1,0.1,0.2,0.1,0.3L49.4,41z"/>
		</g>
		<g>
			<path class="st3" d="M37.9,26.9h-1.4v6.6c0,0.3-0.2,0.4-0.5,0.4h-1c-0.3,0-0.5-0.1-0.5-0.4v-6.6h-1.4c-0.3,0-0.5-0.1-0.5-0.4
				v-0.8c0-0.3,0.2-0.4,0.5-0.4h4.8c0.3,0,0.5,0.1,0.5,0.4v0.8C38.3,26.8,38.2,26.9,37.9,26.9z"/>
			<path class="st3" d="M42.2,33.6L41.8,32h-2l-0.4,1.6c-0.1,0.2-0.2,0.3-0.5,0.3h-1c-0.2,0-0.3,0-0.4-0.1c-0.1-0.1-0.1-0.2-0.1-0.3
				l1.9-7.8c0-0.2,0.2-0.3,0.5-0.3h1.9c0.3,0,0.4,0.1,0.5,0.3l1.9,7.8c0,0.1,0,0.2-0.1,0.3C44,33.9,43.8,34,43.7,34h-1
				C42.4,34,42.3,33.8,42.2,33.6z M41.4,30.5l-0.6-2.6l-0.6,2.6H41.4z"/>
			<path class="st3" d="M50.9,34h-1.1c-0.2,0-0.4-0.1-0.4-0.2l-1.1-2.1l-1.1,2.1c-0.1,0.2-0.2,0.2-0.4,0.2h-1.1
				c-0.2,0-0.3-0.1-0.4-0.2c-0.1-0.1-0.1-0.2,0-0.4l2-3.9l-1.9-3.6c-0.1-0.1-0.1-0.3,0-0.4c0.1-0.1,0.2-0.2,0.4-0.2h1.1
				c0.2,0,0.3,0.1,0.4,0.2l1,1.9l1-1.9c0.1-0.2,0.2-0.2,0.4-0.2h1.1c0.2,0,0.3,0.1,0.4,0.2c0.1,0.1,0.1,0.2,0,0.4l-1.9,3.6l2,3.9
				c0.1,0.1,0,0.3,0,0.4C51.2,33.9,51.1,34,50.9,34z"/>
		</g>
		<line class="st4" x1="32.1" y1="85.9" x2="99.3" y2="85.9"/>
		<line class="st4" x1="32.1" y1="89.5" x2="99.3" y2="89.5"/>
		<line class="st4" x1="32.1" y1="93.2" x2="99.3" y2="93.2"/>
		<line class="st4" x1="32.1" y1="96.8" x2="99.3" y2="96.8"/>
		<line class="st4" x1="32.1" y1="100.4" x2="99.3" y2="100.4"/>
		<line class="st4" x1="38.7" y1="104.4" x2="38.7" y2="74.2"/>
		<line class="st4" x1="78.6" y1="104.4" x2="78.6" y2="74.2"/>
		<line class="st4" x1="89.2" y1="104.4" x2="89.2" y2="74.2"/>
		<path class="st5" d="M46.2,116.1v-9.3h88.4v5.9c0,13.6-3.9,23.1-13.7,23.1H32.6C45.4,135.7,46.2,126.8,46.2,116.1z"/>
	</g>
	<path class="st0" d="M87.9,147.8c0,0,0.1,0,0.1,0l-0.8-2.4l-3.4,0.3c0.2-0.4,0.4-0.9,0.5-1.3c-1.4-2.5-4.5-0.8-7.1-0.1
		c0.3-1.2-3.3-1.4-5.4-2l1.8-0.1l-1-3l-13,1l0.4,1.4l-3.7-0.6l-0.5,0.9c-0.2-0.3-0.5-0.6-0.7-0.9c-6.2-2.6-4.3,4.8-10.5,2.2
		c0.9,1.1,1.8,2.2,2.7,3.3c4.9,2.1,4.8-2,7.5-2.7l0,0.1l12.5,2l0.8-1.3c2.2,0.4,4.1,0.9,2.1,2.5c0.6-0.2,1.2-0.3,1.8-0.5
		c0,0.1-0.1,0.2-0.1,0.3c0.7,1.2,1.7,1.4,3,1.3l0.5,1.4l10.5-0.8c0.3-0.1,0.6-0.2,0.9-0.4c0.1,0,0.1-0.1,0.2-0.1
		C87.2,148,87.5,147.9,87.9,147.8z"/>
	<g>
		<g>
			<path class="st6" d="M97.9,105c0,7.2-5.8,13-13,13c-7.2,0-13-5.8-13-13c0-7.2,5.8-13,13-13C92,92,97.9,97.8,97.9,105z"/>
			<path class="st7" d="M95.9,105c0,6.1-5,11.1-11.1,11.1c-6.1,0-11.1-5-11.1-11.1c0-6.1,5-11.1,11.1-11.1
				C91,93.9,95.9,98.9,95.9,105z"/>
			<path class="st8" d="M85.8,115.3c-6.1,0-11.1-5-11.1-11.1c0-3.2,1.4-6.1,3.5-8.1c-2.7,2-4.5,5.3-4.5,8.9c0,6.1,5,11.1,11.1,11.1
				c2.9,0,5.6-1.1,7.6-3C90.6,114.5,88.3,115.3,85.8,115.3z"/>
			<g>
				<path class="st9" d="M85.9,96.6v1c0.7,0.1,1.2,0.2,1.7,0.4c0.5,0.2,0.9,0.5,1.2,0.9c0.3,0.3,0.5,0.6,0.6,1
					c0.1,0.3,0.2,0.6,0.2,0.9c0,0.3-0.1,0.6-0.3,0.8c-0.2,0.2-0.5,0.3-0.8,0.3c-0.6,0-1-0.3-1.2-1c-0.2-0.8-0.7-1.3-1.5-1.5v3.8
					c0.8,0.2,1.4,0.4,1.8,0.6c0.5,0.2,0.9,0.4,1.2,0.7c0.4,0.3,0.7,0.7,0.9,1.2c0.2,0.5,0.3,1,0.3,1.5c0,0.7-0.2,1.4-0.5,2
					c-0.3,0.6-0.8,1.1-1.4,1.5c-0.6,0.4-1.4,0.6-2.3,0.7v2.3c0,0.4,0,0.6-0.1,0.8c-0.1,0.2-0.2,0.2-0.5,0.2c-0.2,0-0.4-0.1-0.5-0.2
					c-0.1-0.1-0.1-0.3-0.1-0.6v-2.5c-0.7-0.1-1.3-0.2-1.9-0.5c-0.5-0.3-1-0.6-1.3-1c-0.4-0.4-0.6-0.8-0.8-1.2
					c-0.2-0.4-0.3-0.8-0.3-1.2c0-0.3,0.1-0.6,0.3-0.8c0.2-0.2,0.5-0.4,0.9-0.4c0.3,0,0.5,0.1,0.7,0.2c0.2,0.1,0.3,0.3,0.4,0.5
					c0.2,0.5,0.3,0.9,0.4,1.2c0.1,0.3,0.3,0.5,0.6,0.7c0.2,0.2,0.6,0.4,1,0.5v-4.3c-0.8-0.2-1.5-0.5-2.1-0.8c-0.6-0.3-1-0.7-1.3-1.2
					c-0.3-0.5-0.5-1.2-0.5-2c0-1.1,0.3-1.9,1-2.6c0.7-0.7,1.6-1.1,2.9-1.2v-1c0-0.5,0.2-0.8,0.6-0.8C85.7,95.8,85.9,96.1,85.9,96.6z
					 M84.7,102.9v-3.5c-0.5,0.2-0.9,0.4-1.2,0.6c-0.3,0.3-0.4,0.6-0.4,1.1c0,0.5,0.1,0.8,0.4,1.1C83.8,102.5,84.2,102.7,84.7,102.9z
					 M85.9,105.6v4c0.6-0.1,1.1-0.4,1.4-0.7c0.3-0.4,0.5-0.8,0.5-1.3c0-0.5-0.2-0.9-0.5-1.2C87,106.1,86.5,105.8,85.9,105.6z"/>
			</g>
			<path class="st10" d="M92.5,98.1c2.7,3,3,7.1,2.6,7.5c-0.4,0.4-1.4-3.1-4.2-6.1c-2.7-3-6.1-4.3-5.7-4.6
				C85.7,94.5,89.8,95.2,92.5,98.1z"/>
			<line class="st11" x1="75.8" y1="114.1" x2="76.8" y2="113.1"/>
			<line class="st11" x1="92.9" y1="97" x2="93.9" y2="96"/>
			<line class="st11" x1="75.8" y1="96" x2="76.8" y2="97"/>
			<line class="st11" x1="92.9" y1="113.1" x2="93.9" y2="114.1"/>
			<line class="st11" x1="84.8" y1="117.8" x2="84.8" y2="116.4"/>
			<line class="st11" x1="84.8" y1="93.7" x2="84.8" y2="92.2"/>
			<line class="st11" x1="72" y1="105" x2="73.5" y2="105"/>
			<line class="st11" x1="96.2" y1="105" x2="97.6" y2="105"/>
			<line class="st11" x1="72.9" y1="109.8" x2="74.3" y2="109.2"/>
			<line class="st11" x1="95.4" y1="100.8" x2="96.7" y2="100.3"/>
			<line class="st11" x1="80.1" y1="93.1" x2="80.6" y2="94.5"/>
			<line class="st11" x1="89" y1="115.6" x2="89.6" y2="116.9"/>
			<line class="st11" x1="79.8" y1="116.8" x2="80.4" y2="115.5"/>
			<line class="st11" x1="89.3" y1="94.6" x2="89.9" y2="93.3"/>
			<line class="st11" x1="73.1" y1="100" x2="74.4" y2="100.6"/>
			<line class="st11" x1="95.3" y1="109.5" x2="96.6" y2="110.1"/>
			<line class="st11" x1="74.3" y1="112.3" x2="75.5" y2="111.5"/>
			<line class="st11" x1="94.2" y1="98.6" x2="95.4" y2="97.8"/>
			<line class="st11" x1="77.6" y1="94.5" x2="78.4" y2="95.7"/>
			<line class="st11" x1="91.3" y1="114.4" x2="92.1" y2="115.6"/>
			<line class="st11" x1="82.5" y1="117.6" x2="82.8" y2="116.2"/>
			<line class="st11" x1="86.9" y1="93.9" x2="87.2" y2="92.4"/>
			<line class="st11" x1="72.2" y1="102.7" x2="73.7" y2="103"/>
			<line class="st11" x1="96" y1="107.1" x2="97.4" y2="107.4"/>
			<line class="st11" x1="72.3" y1="107.5" x2="73.7" y2="107.2"/>
			<line class="st11" x1="96" y1="102.8" x2="97.4" y2="102.5"/>
			<line class="st11" x1="82.3" y1="92.5" x2="82.6" y2="93.9"/>
			<line class="st11" x1="87" y1="116.2" x2="87.3" y2="117.6"/>
			<line class="st11" x1="77.7" y1="115.7" x2="78.5" y2="114.5"/>
			<line class="st11" x1="91.1" y1="95.6" x2="91.9" y2="94.4"/>
			<line class="st11" x1="74.2" y1="97.9" x2="75.4" y2="98.7"/>
			<line class="st11" x1="94.3" y1="111.3" x2="95.5" y2="112.1"/>
		</g>
		<g>
			<path class="st6" d="M134,88.4c3.1,6.5,0.4,14.3-6.1,17.4c-6.5,3.1-14.3,0.4-17.4-6.1c-3.1-6.5-0.4-14.3,6.1-17.4
				C123.1,79.2,130.9,81.9,134,88.4z"/>
			<path class="st7" d="M132.3,89.3c2.7,5.5,0.3,12.2-5.2,14.8c-5.5,2.7-12.2,0.3-14.8-5.2c-2.7-5.5-0.3-12.2,5.2-14.8
				C123,81.4,129.6,83.7,132.3,89.3z"/>
			<path class="st8" d="M127.6,102.9c-5.5,2.7-12.2,0.3-14.8-5.2c-1.4-2.9-1.4-6.1-0.3-8.9c-1.6,3-1.8,6.7-0.2,10
				c2.7,5.5,9.3,7.9,14.8,5.2c2.6-1.3,4.5-3.4,5.5-6C131.5,100.2,129.8,101.9,127.6,102.9z"/>
			<g>
				<path class="st9" d="M119.6,86l0.4,0.9c0.6-0.2,1.2-0.3,1.7-0.4c0.5,0,1,0.1,1.5,0.3c0.4,0.2,0.7,0.4,1,0.6
					c0.3,0.2,0.5,0.5,0.6,0.7c0.1,0.3,0.1,0.6,0,0.9c-0.1,0.3-0.3,0.5-0.6,0.7c-0.5,0.3-1,0.1-1.5-0.4c-0.5-0.6-1.2-0.9-2-0.7
					l1.7,3.4c0.8-0.1,1.4-0.2,1.9-0.3c0.5,0,1,0,1.4,0.1c0.5,0.1,0.9,0.4,1.3,0.7c0.4,0.3,0.7,0.8,0.9,1.3c0.3,0.6,0.4,1.3,0.4,2
					c0,0.7-0.3,1.3-0.7,2c-0.4,0.6-1,1.2-1.7,1.6l1,2.1c0.2,0.3,0.2,0.6,0.2,0.8c0,0.2-0.1,0.3-0.3,0.4c-0.2,0.1-0.4,0.1-0.5,0
					c-0.1-0.1-0.3-0.3-0.4-0.5l-1.1-2.2c-0.7,0.2-1.3,0.4-1.9,0.4c-0.6,0-1.1-0.1-1.6-0.3c-0.5-0.2-0.9-0.4-1.2-0.7
					c-0.3-0.3-0.6-0.6-0.8-1c-0.1-0.3-0.1-0.6,0-0.9c0.1-0.3,0.3-0.5,0.6-0.7c0.2-0.1,0.5-0.2,0.7-0.1c0.2,0,0.4,0.1,0.6,0.3
					c0.4,0.4,0.7,0.7,0.9,0.9c0.2,0.2,0.5,0.3,0.8,0.4c0.3,0.1,0.7,0.1,1.1,0l-1.8-3.9c-0.8,0.2-1.6,0.2-2.2,0.2
					c-0.6,0-1.2-0.2-1.7-0.5c-0.5-0.3-1-0.8-1.3-1.6c-0.5-0.9-0.5-1.9-0.2-2.8c0.3-0.9,1-1.7,2.1-2.3l-0.4-0.9
					c-0.2-0.5-0.2-0.8,0.2-0.9C119.1,85.4,119.4,85.6,119.6,86z M121.3,92.2l-1.5-3.2c-0.4,0.4-0.7,0.7-0.8,1.1
					c-0.2,0.4-0.1,0.8,0.1,1.2c0.2,0.4,0.5,0.7,0.8,0.8C120.2,92.2,120.7,92.3,121.3,92.2z M123.5,94.2l1.7,3.6
					c0.5-0.4,0.8-0.8,1-1.3c0.1-0.5,0.1-0.9-0.1-1.4c-0.2-0.5-0.6-0.8-1-0.9C124.7,94.1,124.1,94.1,123.5,94.2z"/>
			</g>
			<path class="st10" d="M126.2,84.5c3.7,1.5,5.8,5.1,5.6,5.6c-0.2,0.5-2.6-2.2-6.4-3.7c-3.7-1.5-7.4-1.2-7.2-1.7
				C118.5,84.2,122.5,83,126.2,84.5z"/>
			<line class="st11" x1="118" y1="106.2" x2="118.5" y2="104.8"/>
			<line class="st11" x1="126" y1="83.4" x2="126.5" y2="82"/>
			<line class="st11" x1="110.2" y1="89.8" x2="111.6" y2="90.3"/>
			<line class="st11" x1="133" y1="97.9" x2="134.3" y2="98.3"/>
			<line class="st11" x1="127.8" y1="105.6" x2="127.2" y2="104.3"/>
			<line class="st11" x1="117.4" y1="83.9" x2="116.7" y2="82.6"/>
			<line class="st11" x1="110.7" y1="99.6" x2="112" y2="99"/>
			<line class="st11" x1="132.5" y1="89.2" x2="133.8" y2="88.6"/>
			<line class="st11" x1="113.6" y1="103.5" x2="114.6" y2="102.4"/>
			<line class="st11" x1="129.9" y1="85.7" x2="130.9" y2="84.7"/>
			<line class="st11" x1="112.8" y1="85.4" x2="113.9" y2="86.4"/>
			<line class="st11" x1="130.6" y1="101.8" x2="131.7" y2="102.8"/>
			<line class="st11" x1="122.8" y1="106.9" x2="122.7" y2="105.4"/>
			<line class="st11" x1="121.8" y1="82.8" x2="121.7" y2="81.3"/>
			<line class="st11" x1="109.5" y1="94.6" x2="110.9" y2="94.6"/>
			<line class="st11" x1="133.6" y1="93.6" x2="135.1" y2="93.6"/>
			<line class="st11" x1="115.9" y1="105.2" x2="116.6" y2="103.9"/>
			<line class="st11" x1="127.9" y1="84.3" x2="128.6" y2="83"/>
			<line class="st11" x1="111.2" y1="87.7" x2="112.4" y2="88.4"/>
			<line class="st11" x1="132.1" y1="99.8" x2="133.4" y2="100.5"/>
			<line class="st11" x1="125.6" y1="106.5" x2="125.2" y2="105.1"/>
			<line class="st11" x1="119.3" y1="83.1" x2="118.9" y2="81.7"/>
			<line class="st11" x1="109.9" y1="97.4" x2="111.3" y2="97.1"/>
			<line class="st11" x1="133.2" y1="91.1" x2="134.6" y2="90.8"/>
			<line class="st11" x1="112" y1="101.8" x2="113.2" y2="100.9"/>
			<line class="st11" x1="131.3" y1="87.3" x2="132.5" y2="86.4"/>
			<line class="st11" x1="114.6" y1="83.9" x2="115.5" y2="85"/>
			<line class="st11" x1="129.1" y1="103.2" x2="129.9" y2="104.3"/>
			<line class="st11" x1="120.4" y1="106.8" x2="120.7" y2="105.3"/>
			<line class="st11" x1="123.9" y1="82.9" x2="124.1" y2="81.4"/>
			<line class="st11" x1="109.6" y1="92.3" x2="111" y2="92.5"/>
			<line class="st11" x1="133.5" y1="95.7" x2="134.9" y2="95.9"/>
		</g>
		<g>
			<path class="st6" d="M108.6,89.8c-4.3,5.8-12.5,7-18.3,2.7c-5.8-4.3-7-12.5-2.7-18.3c4.3-5.8,12.5-7,18.3-2.7
				C111.7,75.8,112.9,84,108.6,89.8z"/>
			<path class="st7" d="M107,88.7c-3.7,4.9-10.6,6-15.5,2.3c-4.9-3.7-6-10.6-2.3-15.5c3.7-4.9,10.6-6,15.5-2.3
				C109.7,76.8,110.7,83.7,107,88.7z"/>
			<path class="st8" d="M92.8,90.9c-4.9-3.7-6-10.6-2.3-15.5c1.9-2.6,4.7-4.1,7.7-4.4c-3.4,0-6.8,1.5-8.9,4.5
				c-3.7,4.9-2.6,11.9,2.3,15.5c2.3,1.7,5.2,2.4,7.9,2.1C97.1,93.1,94.7,92.4,92.8,90.9z"/>
			<g>
				<path class="st9" d="M104,75.9l-0.6,0.8c0.5,0.4,0.9,0.9,1.1,1.3c0.3,0.4,0.4,0.9,0.4,1.5c0,0.4,0,0.8-0.1,1.2
					c-0.1,0.4-0.2,0.6-0.4,0.9c-0.2,0.2-0.4,0.4-0.7,0.4c-0.3,0-0.6,0-0.9-0.2c-0.5-0.4-0.6-0.9-0.4-1.5c0.3-0.7,0.2-1.4-0.3-2.1
					l-2.3,3.1c0.5,0.6,0.9,1.1,1.1,1.5c0.3,0.4,0.4,0.8,0.5,1.3c0.1,0.5,0.1,1,0,1.5c-0.1,0.5-0.3,1-0.7,1.4c-0.4,0.6-0.9,1-1.6,1.3
					c-0.6,0.3-1.3,0.4-2.1,0.3c-0.7-0.1-1.5-0.3-2.2-0.8l-1.4,1.8c-0.2,0.3-0.4,0.5-0.6,0.6c-0.2,0.1-0.3,0.1-0.5-0.1
					c-0.2-0.1-0.3-0.3-0.3-0.4c0-0.2,0.1-0.4,0.3-0.6l1.5-2c-0.5-0.5-0.9-1-1.2-1.5c-0.3-0.5-0.4-1-0.5-1.6c-0.1-0.5,0-1,0.1-1.4
					c0.1-0.4,0.3-0.8,0.5-1.1c0.2-0.2,0.4-0.4,0.8-0.4c0.3-0.1,0.6,0,0.9,0.2c0.2,0.2,0.4,0.4,0.4,0.6c0.1,0.2,0.1,0.4,0,0.7
					c-0.2,0.5-0.3,0.9-0.3,1.2c-0.1,0.3-0.1,0.6,0,0.9c0.1,0.3,0.2,0.7,0.5,1l2.5-3.4c-0.5-0.7-0.9-1.3-1.2-1.8
					c-0.3-0.6-0.4-1.1-0.4-1.8c0-0.6,0.3-1.3,0.8-1.9c0.6-0.8,1.4-1.3,2.4-1.5c0.9-0.1,2,0.1,3,0.8l0.6-0.8c0.3-0.4,0.6-0.5,0.9-0.3
					C104.3,75.2,104.3,75.5,104,75.9z M98.6,83.2l-2.4,3.2c0.6,0.3,1.1,0.4,1.6,0.3c0.5-0.1,0.9-0.3,1.2-0.7
					c0.3-0.4,0.4-0.9,0.3-1.3C99.3,84.2,99,83.7,98.6,83.2z M99.3,80.3l2.1-2.8c-0.5-0.2-0.9-0.3-1.3-0.2c-0.4,0-0.7,0.2-1,0.7
					c-0.3,0.4-0.4,0.8-0.3,1.1C98.8,79.4,99,79.8,99.3,80.3z"/>
			</g>
			<path class="st10" d="M108.4,81.1c0.4,4-1.8,7.5-2.4,7.6c-0.6,0.1,0.7-3.4,0.3-7.4c-0.4-4-2.4-7.1-1.8-7.1
				C105.1,74.1,108,77.1,108.4,81.1z"/>
			<line class="st11" x1="85.4" y1="83.9" x2="86.9" y2="83.7"/>
			<line class="st11" x1="109.3" y1="80.4" x2="110.8" y2="80.2"/>
			<line class="st11" x1="96.2" y1="69.4" x2="96.4" y2="70.8"/>
			<line class="st11" x1="99.8" y1="93.3" x2="100" y2="94.7"/>
			<line class="st11" x1="90.5" y1="92.3" x2="91.3" y2="91.2"/>
			<line class="st11" x1="104.9" y1="72.9" x2="105.7" y2="71.8"/>
			<line class="st11" x1="87.8" y1="74.4" x2="89" y2="75.3"/>
			<line class="st11" x1="107.2" y1="88.8" x2="108.4" y2="89.7"/>
			<line class="st11" x1="85.7" y1="78.8" x2="87.1" y2="79.2"/>
			<line class="st11" x1="109.1" y1="85" x2="110.5" y2="85.3"/>
			<line class="st11" x1="101.4" y1="69.7" x2="101" y2="71.1"/>
			<line class="st11" x1="95.2" y1="93" x2="94.8" y2="94.4"/>
			<line class="st11" x1="87" y1="88.5" x2="88.3" y2="87.8"/>
			<line class="st11" x1="107.9" y1="76.4" x2="109.2" y2="75.6"/>
			<line class="st11" x1="91.7" y1="71" x2="92.4" y2="72.2"/>
			<line class="st11" x1="103.8" y1="91.9" x2="104.5" y2="93.1"/>
			<line class="st11" x1="85.3" y1="81.6" x2="86.8" y2="81.6"/>
			<line class="st11" x1="109.4" y1="82.5" x2="110.9" y2="82.5"/>
			<line class="st11" x1="98.6" y1="69.3" x2="98.5" y2="70.7"/>
			<line class="st11" x1="97.7" y1="93.4" x2="97.6" y2="94.9"/>
			<line class="st11" x1="88.7" y1="90.8" x2="89.8" y2="89.8"/>
			<line class="st11" x1="106.4" y1="74.3" x2="107.5" y2="73.3"/>
			<line class="st11" x1="89.4" y1="72.7" x2="90.4" y2="73.7"/>
			<line class="st11" x1="105.8" y1="90.4" x2="106.8" y2="91.4"/>
			<line class="st11" x1="86.5" y1="76.6" x2="87.8" y2="77.2"/>
			<line class="st11" x1="108.4" y1="86.9" x2="109.7" y2="87.5"/>
			<line class="st11" x1="103.6" y1="70.5" x2="103" y2="71.8"/>
			<line class="st11" x1="93.2" y1="92.3" x2="92.6" y2="93.6"/>
			<line class="st11" x1="86" y1="86.4" x2="87.4" y2="85.9"/>
			<line class="st11" x1="108.8" y1="78.2" x2="110.2" y2="77.7"/>
			<line class="st11" x1="93.8" y1="70" x2="94.3" y2="71.4"/>
			<line class="st11" x1="101.9" y1="92.7" x2="102.4" y2="94.1"/>
		</g>
		<g>
			<path class="st6" d="M127.5,137.3c0,0.8-0.7,1.4-1.5,1.4h-19.4c-0.9,0-1.5-0.6-1.5-1.4v-2.4c0-0.8,0.7-1.4,1.5-1.4H126
				c0.8,0,1.5,0.6,1.5,1.4V137.3z"/>
			<line class="st11" x1="106.6" y1="138.3" x2="106.6" y2="134.3"/>
			<line class="st11" x1="108.5" y1="138.3" x2="108.5" y2="134.3"/>
			<line class="st11" x1="110.3" y1="138.3" x2="110.3" y2="134.3"/>
			<line class="st11" x1="112.2" y1="138.3" x2="112.2" y2="134.3"/>
			<line class="st11" x1="114.1" y1="138.3" x2="114.1" y2="134.3"/>
			<line class="st11" x1="115.9" y1="138.3" x2="115.9" y2="134.3"/>
			<line class="st11" x1="117.8" y1="138.3" x2="117.8" y2="134.3"/>
			<line class="st11" x1="119.6" y1="138.3" x2="119.6" y2="134.3"/>
			<line class="st11" x1="121.5" y1="138.3" x2="121.5" y2="134.3"/>
			<line class="st11" x1="123.4" y1="138.3" x2="123.4" y2="134.3"/>
			<line class="st11" x1="125.2" y1="138.3" x2="125.2" y2="134.3"/>
			<line class="st11" x1="126.4" y1="138.3" x2="126.4" y2="134.3"/>
			<path class="st10" d="M126.1,134.7c0,0.2-0.2,0.4-0.4,0.4h-19.3c-0.2,0-0.4-0.2-0.4-0.4l0,0c0-0.2,0.2-0.4,0.4-0.4h19.3
				C125.9,134.3,126.1,134.4,126.1,134.7L126.1,134.7z"/>
			<path class="st12" d="M127,137h-19.4c-0.8,0-1.5-0.6-1.5-1.4v-2c-0.6,0.2-1,0.7-1,1.3v2.4c0,0.8,0.7,1.4,1.5,1.4H126
				c0.8,0,1.5-0.6,1.5-1.4v-0.5C127.3,136.9,127.2,137,127,137z"/>
		</g>
		<g>
			<path class="st6" d="M125.7,132.2c0,0.8-0.7,1.4-1.5,1.4h-19.4c-0.8,0-1.5-0.6-1.5-1.4v-2.4c0-0.8,0.7-1.4,1.5-1.4h19.4
				c0.8,0,1.5,0.6,1.5,1.4V132.2z"/>
			<line class="st11" x1="104.8" y1="133.1" x2="104.8" y2="129.1"/>
			<line class="st11" x1="106.7" y1="133.1" x2="106.7" y2="129.1"/>
			<line class="st11" x1="108.5" y1="133.1" x2="108.5" y2="129.1"/>
			<line class="st11" x1="110.4" y1="133.1" x2="110.4" y2="129.1"/>
			<line class="st11" x1="112.2" y1="133.1" x2="112.2" y2="129.1"/>
			<line class="st11" x1="114.1" y1="133.1" x2="114.1" y2="129.1"/>
			<line class="st11" x1="116" y1="133.1" x2="116" y2="129.1"/>
			<line class="st11" x1="117.8" y1="133.1" x2="117.8" y2="129.1"/>
			<line class="st11" x1="119.7" y1="133.1" x2="119.7" y2="129.1"/>
			<line class="st11" x1="121.5" y1="133.1" x2="121.5" y2="129.1"/>
			<line class="st11" x1="123.4" y1="133.1" x2="123.4" y2="129.1"/>
			<line class="st11" x1="124.6" y1="133.1" x2="124.6" y2="129.1"/>
			<path class="st10" d="M124.3,129.5c0,0.2-0.2,0.4-0.4,0.4h-19.3c-0.2,0-0.4-0.2-0.4-0.4l0,0c0-0.2,0.2-0.4,0.4-0.4h19.3
				C124.1,129.1,124.3,129.3,124.3,129.5L124.3,129.5z"/>
			<path class="st12" d="M125.1,131.8h-19.4c-0.8,0-1.5-0.6-1.5-1.4v-2c-0.6,0.2-1,0.7-1,1.3v2.4c0,0.8,0.7,1.4,1.5,1.4h19.4
				c0.8,0,1.5-0.6,1.5-1.4v-0.5C125.5,131.8,125.3,131.8,125.1,131.8z"/>
		</g>
		<g>
			<path class="st6" d="M127.5,127c0,0.8-0.7,1.4-1.5,1.4h-19.4c-0.9,0-1.5-0.6-1.5-1.4v-2.4c0-0.8,0.7-1.4,1.5-1.4H126
				c0.8,0,1.5,0.6,1.5,1.4V127z"/>
			<line class="st11" x1="106.6" y1="127.9" x2="106.6" y2="123.9"/>
			<line class="st11" x1="108.5" y1="127.9" x2="108.5" y2="123.9"/>
			<line class="st11" x1="110.3" y1="127.9" x2="110.3" y2="123.9"/>
			<line class="st11" x1="112.2" y1="127.9" x2="112.2" y2="123.9"/>
			<line class="st11" x1="114.1" y1="127.9" x2="114.1" y2="123.9"/>
			<line class="st11" x1="115.9" y1="127.9" x2="115.9" y2="123.9"/>
			<line class="st11" x1="117.8" y1="127.9" x2="117.8" y2="123.9"/>
			<line class="st11" x1="119.6" y1="127.9" x2="119.6" y2="123.9"/>
			<line class="st11" x1="121.5" y1="127.9" x2="121.5" y2="123.9"/>
			<line class="st11" x1="123.4" y1="127.9" x2="123.4" y2="123.9"/>
			<line class="st11" x1="125.2" y1="127.9" x2="125.2" y2="123.9"/>
			<line class="st11" x1="126.4" y1="127.9" x2="126.4" y2="123.9"/>
			<path class="st10" d="M126.1,124.4c0,0.2-0.2,0.4-0.4,0.4h-19.3c-0.2,0-0.4-0.2-0.4-0.4l0,0c0-0.2,0.2-0.4,0.4-0.4h19.3
				C125.9,123.9,126.1,124.1,126.1,124.4L126.1,124.4z"/>
			<path class="st12" d="M127,126.6h-19.4c-0.8,0-1.5-0.6-1.5-1.4v-2c-0.6,0.2-1,0.7-1,1.3v2.4c0,0.8,0.7,1.4,1.5,1.4H126
				c0.8,0,1.5-0.6,1.5-1.4v-0.5C127.3,126.6,127.2,126.6,127,126.6z"/>
		</g>
		<g>
			<path class="st6" d="M126.4,121.8c0,0.8-0.7,1.4-1.5,1.4h-19.4c-0.8,0-1.5-0.6-1.5-1.4v-2.4c0-0.8,0.7-1.4,1.5-1.4h19.4
				c0.8,0,1.5,0.6,1.5,1.4V121.8z"/>
			<line class="st11" x1="105.5" y1="122.8" x2="105.5" y2="118.8"/>
			<line class="st11" x1="107.4" y1="122.8" x2="107.4" y2="118.8"/>
			<line class="st11" x1="109.3" y1="122.8" x2="109.3" y2="118.8"/>
			<line class="st11" x1="111.1" y1="122.8" x2="111.1" y2="118.8"/>
			<line class="st11" x1="113" y1="122.8" x2="113" y2="118.8"/>
			<line class="st11" x1="114.8" y1="122.8" x2="114.8" y2="118.8"/>
			<line class="st11" x1="116.7" y1="122.8" x2="116.7" y2="118.8"/>
			<line class="st11" x1="118.6" y1="122.8" x2="118.6" y2="118.8"/>
			<line class="st11" x1="120.4" y1="122.8" x2="120.4" y2="118.8"/>
			<line class="st11" x1="122.3" y1="122.8" x2="122.3" y2="118.8"/>
			<line class="st11" x1="124.1" y1="122.8" x2="124.1" y2="118.8"/>
			<line class="st11" x1="125.4" y1="122.8" x2="125.4" y2="118.8"/>
			<path class="st10" d="M125,119.2c0,0.2-0.2,0.4-0.4,0.4h-19.3c-0.2,0-0.4-0.2-0.4-0.4l0,0c0-0.2,0.2-0.4,0.4-0.4h19.3
				C124.9,118.8,125,119,125,119.2L125,119.2z"/>
			<path class="st12" d="M125.9,121.5h-19.4c-0.8,0-1.5-0.6-1.5-1.4v-2c-0.6,0.2-1,0.7-1,1.3v2.4c0,0.8,0.7,1.4,1.5,1.4h19.4
				c0.8,0,1.5-0.6,1.5-1.4v-0.5C126.3,121.4,126.1,121.5,125.9,121.5z"/>
		</g>
		<g>
			<path class="st6" d="M127,116.8c0,0.8-0.7,1.4-1.5,1.4h-19.4c-0.8,0-1.5-0.6-1.5-1.4v-2.4c0-0.8,0.7-1.4,1.5-1.4h19.4
				c0.8,0,1.5,0.6,1.5,1.4V116.8z"/>
			<line class="st11" x1="106.1" y1="117.7" x2="106.1" y2="113.7"/>
			<line class="st11" x1="108" y1="117.7" x2="108" y2="113.7"/>
			<line class="st11" x1="109.8" y1="117.7" x2="109.8" y2="113.7"/>
			<line class="st11" x1="111.7" y1="117.7" x2="111.7" y2="113.7"/>
			<line class="st11" x1="113.5" y1="117.7" x2="113.5" y2="113.7"/>
			<line class="st11" x1="115.4" y1="117.7" x2="115.4" y2="113.7"/>
			<line class="st11" x1="117.3" y1="117.7" x2="117.3" y2="113.7"/>
			<line class="st11" x1="119.1" y1="117.7" x2="119.1" y2="113.7"/>
			<line class="st11" x1="121" y1="117.7" x2="121" y2="113.7"/>
			<line class="st11" x1="122.8" y1="117.7" x2="122.8" y2="113.7"/>
			<line class="st11" x1="124.7" y1="117.7" x2="124.7" y2="113.7"/>
			<line class="st11" x1="125.9" y1="117.7" x2="125.9" y2="113.7"/>
			<path class="st10" d="M125.6,114.1c0,0.2-0.2,0.4-0.4,0.4h-19.3c-0.2,0-0.4-0.2-0.4-0.4l0,0c0-0.2,0.2-0.4,0.4-0.4h19.3
				C125.4,113.7,125.6,113.9,125.6,114.1L125.6,114.1z"/>
			<path class="st12" d="M126.4,116.4H107c-0.9,0-1.5-0.6-1.5-1.4v-2c-0.6,0.2-1,0.7-1,1.3v2.4c0,0.8,0.7,1.4,1.5,1.4h19.4
				c0.8,0,1.5-0.6,1.5-1.4v-0.5C126.8,116.4,126.6,116.4,126.4,116.4z"/>
		</g>
		<g>
			<path class="st6" d="M135,116.4c0.7,0.2,1.2,1,1,1.8l-4.7,18.8c-0.2,0.8-1,1.3-1.7,1.2l-2.4-0.6c-0.7-0.2-1.2-1-1-1.8L131,117
				c0.2-0.8,1-1.3,1.7-1.2L135,116.4z"/>
			<line class="st11" x1="130.9" y1="136.9" x2="127" y2="136"/>
			<line class="st11" x1="131.4" y1="135.1" x2="127.5" y2="134.2"/>
			<line class="st11" x1="131.8" y1="133.3" x2="127.9" y2="132.3"/>
			<line class="st11" x1="132.3" y1="131.5" x2="128.4" y2="130.5"/>
			<line class="st11" x1="132.7" y1="129.7" x2="128.8" y2="128.7"/>
			<line class="st11" x1="133.2" y1="127.9" x2="129.3" y2="126.9"/>
			<line class="st11" x1="133.6" y1="126.1" x2="129.7" y2="125.1"/>
			<line class="st11" x1="134" y1="124.3" x2="130.2" y2="123.3"/>
			<line class="st11" x1="134.5" y1="122.5" x2="130.6" y2="121.5"/>
			<line class="st11" x1="134.9" y1="120.7" x2="131.1" y2="119.7"/>
			<line class="st11" x1="135.4" y1="118.9" x2="131.5" y2="117.9"/>
			<line class="st11" x1="135.7" y1="117.7" x2="131.8" y2="116.7"/>
			<path class="st10" d="M132.1,117.1c0.2,0.1,0.4,0.3,0.3,0.5l-4.6,18.7c-0.1,0.2-0.3,0.4-0.5,0.3l0,0c-0.2-0.1-0.4-0.3-0.3-0.5
				l4.6-18.7C131.7,117.2,131.9,117.1,132.1,117.1L132.1,117.1z"/>
			<path class="st12" d="M134.5,116.9l-4.7,18.8c-0.2,0.8-1,1.3-1.7,1.2l-1.9-0.5c0.1,0.6,0.4,1.1,1,1.2l2.4,0.6
				c0.7,0.2,1.5-0.3,1.7-1.2l4.7-18.8c0.2-0.8-0.2-1.6-1-1.8l-0.4-0.1C134.6,116.5,134.6,116.7,134.5,116.9z"/>
		</g>
		<g>
			<path class="st6" d="M138.5,100.2c0.7,0.4,0.8,1.3,0.4,2l-9.6,16.8c-0.4,0.7-1.3,1-1.9,0.7l-2.1-1.2c-0.7-0.4-0.8-1.3-0.4-2
				l9.6-16.8c0.4-0.7,1.3-1,2-0.7L138.5,100.2z"/>
			<line class="st11" x1="129" y1="118.8" x2="125.5" y2="116.8"/>
			<line class="st11" x1="129.9" y1="117.2" x2="126.4" y2="115.2"/>
			<line class="st11" x1="130.8" y1="115.6" x2="127.3" y2="113.6"/>
			<line class="st11" x1="131.7" y1="114" x2="128.3" y2="112"/>
			<line class="st11" x1="132.7" y1="112.4" x2="129.2" y2="110.4"/>
			<line class="st11" x1="133.6" y1="110.7" x2="130.1" y2="108.7"/>
			<line class="st11" x1="134.5" y1="109.1" x2="131" y2="107.1"/>
			<line class="st11" x1="135.4" y1="107.5" x2="132" y2="105.5"/>
			<line class="st11" x1="136.4" y1="105.9" x2="132.9" y2="103.9"/>
			<line class="st11" x1="137.3" y1="104.3" x2="133.8" y2="102.3"/>
			<line class="st11" x1="138.2" y1="102.7" x2="134.7" y2="100.7"/>
			<line class="st11" x1="138.8" y1="101.6" x2="135.3" y2="99.6"/>
			<path class="st10" d="M135.5,100.1c0.2,0.1,0.3,0.4,0.2,0.6l-9.6,16.7c-0.1,0.2-0.4,0.3-0.6,0.2l0,0c-0.2-0.1-0.3-0.4-0.2-0.6
				l9.6-16.7C135.1,100.1,135.3,100,135.5,100.1L135.5,100.1z"/>
			<path class="st12" d="M137.9,100.5l-9.6,16.8c-0.4,0.7-1.3,1-2,0.7l-1.7-1c-0.1,0.6,0.1,1.2,0.6,1.5l2.1,1.2
				c0.7,0.4,1.5,0.1,1.9-0.7l9.6-16.8c0.4-0.7,0.2-1.6-0.4-2l-0.4-0.2C138.1,100.2,138,100.3,137.9,100.5z"/>
		</g>
		<g>
			<path class="st6" d="M124.8,80.8c-0.4,0.7-1.3,0.9-2,0.5l-17-9.4c-0.7-0.4-1.1-1.3-0.7-1.9l1.2-2.1c0.4-0.7,1.3-0.9,2-0.5l17,9.4
				c0.7,0.4,1,1.3,0.7,1.9L124.8,80.8z"/>
			<line class="st11" x1="106.1" y1="71.5" x2="108" y2="68"/>
			<line class="st11" x1="107.7" y1="72.4" x2="109.6" y2="68.9"/>
			<line class="st11" x1="109.3" y1="73.3" x2="111.3" y2="69.8"/>
			<line class="st11" x1="111" y1="74.2" x2="112.9" y2="70.7"/>
			<line class="st11" x1="112.6" y1="75.1" x2="114.5" y2="71.6"/>
			<line class="st11" x1="114.2" y1="76" x2="116.2" y2="72.5"/>
			<line class="st11" x1="115.8" y1="76.9" x2="117.8" y2="73.4"/>
			<line class="st11" x1="117.5" y1="77.8" x2="119.4" y2="74.3"/>
			<line class="st11" x1="119.1" y1="78.7" x2="121" y2="75.2"/>
			<line class="st11" x1="120.7" y1="79.6" x2="122.7" y2="76.1"/>
			<line class="st11" x1="122.4" y1="80.5" x2="124.3" y2="77"/>
			<line class="st11" x1="123.4" y1="81.1" x2="125.4" y2="77.6"/>
			<path class="st10" d="M124.9,77.8c-0.1,0.2-0.4,0.3-0.6,0.2l-16.9-9.3c-0.2-0.1-0.3-0.4-0.2-0.6l0,0c0.1-0.2,0.4-0.3,0.6-0.2
				l16.9,9.3C124.9,77.4,125,77.6,124.9,77.8L124.9,77.8z"/>
			<path class="st12" d="M124.5,80.2l-17-9.4c-0.7-0.4-1.1-1.3-0.7-1.9l1-1.7c-0.6-0.1-1.2,0.1-1.5,0.6l-1.2,2.1
				c-0.4,0.7-0.1,1.5,0.7,1.9l17,9.4c0.7,0.4,1.6,0.2,2-0.5l0.2-0.4C124.9,80.4,124.7,80.3,124.5,80.2z"/>
		</g>
		<g>
			<path class="st6" d="M136.9,87.8c-0.5,0.5-1.4,0.5-2.1-0.1l-14-13.4c-0.6-0.6-0.7-1.5-0.2-2l1.7-1.8c0.5-0.5,1.4-0.5,2.1,0.1
				l14,13.4c0.6,0.6,0.7,1.5,0.2,2.1L136.9,87.8z"/>
			<line class="st11" x1="121.2" y1="74" x2="124" y2="71.1"/>
			<line class="st11" x1="122.5" y1="75.3" x2="125.3" y2="72.4"/>
			<line class="st11" x1="123.9" y1="76.6" x2="126.6" y2="73.7"/>
			<line class="st11" x1="125.2" y1="77.9" x2="128" y2="75"/>
			<line class="st11" x1="126.6" y1="79.2" x2="129.3" y2="76.3"/>
			<line class="st11" x1="127.9" y1="80.5" x2="130.7" y2="77.6"/>
			<line class="st11" x1="129.2" y1="81.7" x2="132" y2="78.9"/>
			<line class="st11" x1="130.6" y1="83" x2="133.4" y2="80.2"/>
			<line class="st11" x1="131.9" y1="84.3" x2="134.7" y2="81.4"/>
			<line class="st11" x1="133.3" y1="85.6" x2="136" y2="82.7"/>
			<line class="st11" x1="134.6" y1="86.9" x2="137.4" y2="84"/>
			<line class="st11" x1="135.5" y1="87.7" x2="138.2" y2="84.9"/>
			<path class="st10" d="M137.7,84.9c-0.2,0.2-0.4,0.2-0.6,0l-13.9-13.3c-0.2-0.2-0.2-0.4,0-0.6l0,0c0.2-0.2,0.4-0.2,0.6,0
				l13.9,13.3C137.9,84.5,137.9,84.8,137.7,84.9L137.7,84.9z"/>
			<path class="st12" d="M136.7,87.2l-14-13.4c-0.6-0.6-0.7-1.5-0.2-2.1l1.4-1.4c-0.5-0.2-1.2-0.2-1.6,0.2l-1.7,1.8
				c-0.5,0.5-0.4,1.5,0.2,2l14,13.4c0.6,0.6,1.5,0.6,2.1,0.1l0.3-0.3C137.1,87.4,136.9,87.3,136.7,87.2z"/>
		</g>
		<g>
			<path class="st6" d="M107.5,98.3c0.7,0.4,0.8,1.3,0.4,2l-9.6,16.8c-0.4,0.7-1.3,1-1.9,0.7l-2.1-1.2c-0.7-0.4-0.8-1.3-0.4-2
				l9.6-16.8c0.4-0.7,1.3-1,2-0.7L107.5,98.3z"/>
			<line class="st11" x1="97.9" y1="116.9" x2="94.4" y2="114.9"/>
			<line class="st11" x1="98.8" y1="115.3" x2="95.3" y2="113.3"/>
			<line class="st11" x1="99.7" y1="113.7" x2="96.3" y2="111.7"/>
			<line class="st11" x1="100.7" y1="112.1" x2="97.2" y2="110.1"/>
			<line class="st11" x1="101.6" y1="110.5" x2="98.1" y2="108.5"/>
			<line class="st11" x1="102.5" y1="108.8" x2="99" y2="106.9"/>
			<line class="st11" x1="103.4" y1="107.2" x2="100" y2="105.2"/>
			<line class="st11" x1="104.4" y1="105.6" x2="100.9" y2="103.6"/>
			<line class="st11" x1="105.3" y1="104" x2="101.8" y2="102"/>
			<line class="st11" x1="106.2" y1="102.4" x2="102.7" y2="100.4"/>
			<line class="st11" x1="107.1" y1="100.8" x2="103.7" y2="98.8"/>
			<line class="st11" x1="107.7" y1="99.7" x2="104.3" y2="97.7"/>
			<path class="st10" d="M104.5,98.2c0.2,0.1,0.3,0.4,0.2,0.6l-9.6,16.7c-0.1,0.2-0.4,0.3-0.6,0.2l0,0c-0.2-0.1-0.3-0.4-0.2-0.6
				l9.6-16.7C104,98.2,104.3,98.1,104.5,98.2L104.5,98.2z"/>
			<path class="st12" d="M106.9,98.6l-9.6,16.8c-0.4,0.7-1.3,1-1.9,0.7l-1.7-1c-0.1,0.6,0.1,1.2,0.6,1.5l2.1,1.2
				c0.7,0.4,1.5,0.1,1.9-0.7l9.6-16.8c0.4-0.7,0.2-1.6-0.4-2l-0.4-0.2C107,98.3,107,98.5,106.9,98.6z"/>
		</g>
		<g>
			<path class="st6" d="M125.2,111.6c0,0.8-0.7,1.4-1.5,1.4h-19.4c-0.9,0-1.5-0.6-1.5-1.4v-2.4c0-0.8,0.7-1.4,1.5-1.4h19.4
				c0.9,0,1.5,0.6,1.5,1.4V111.6z"/>
			<line class="st11" x1="104.3" y1="112.5" x2="104.3" y2="108.5"/>
			<line class="st11" x1="106.1" y1="112.5" x2="106.1" y2="108.5"/>
			<line class="st11" x1="108" y1="112.5" x2="108" y2="108.5"/>
			<line class="st11" x1="109.9" y1="112.5" x2="109.9" y2="108.5"/>
			<line class="st11" x1="111.7" y1="112.5" x2="111.7" y2="108.5"/>
			<line class="st11" x1="113.6" y1="112.5" x2="113.6" y2="108.5"/>
			<line class="st11" x1="115.4" y1="112.5" x2="115.4" y2="108.5"/>
			<line class="st11" x1="117.3" y1="112.5" x2="117.3" y2="108.5"/>
			<line class="st11" x1="119.2" y1="112.5" x2="119.2" y2="108.5"/>
			<line class="st11" x1="121" y1="112.5" x2="121" y2="108.5"/>
			<line class="st11" x1="122.9" y1="112.5" x2="122.9" y2="108.5"/>
			<line class="st11" x1="124.1" y1="112.5" x2="124.1" y2="108.5"/>
			<path class="st10" d="M123.8,109c0,0.2-0.2,0.4-0.4,0.4h-19.3c-0.2,0-0.4-0.2-0.4-0.4l0,0c0-0.2,0.2-0.4,0.4-0.4h19.3
				C123.6,108.5,123.8,108.7,123.8,109L123.8,109z"/>
			<path class="st12" d="M124.6,111.2h-19.4c-0.9,0-1.5-0.6-1.5-1.4v-2c-0.6,0.2-1,0.7-1,1.3v2.4c0,0.8,0.7,1.4,1.5,1.4h19.4
				c0.9,0,1.5-0.6,1.5-1.4v-0.5C125,111.2,124.8,111.2,124.6,111.2z"/>
		</g>
		<g>
			<path class="st6" d="M104,137.3c0,0.8-0.7,1.4-1.5,1.4H83c-0.8,0-1.5-0.6-1.5-1.4v-2.4c0-0.8,0.7-1.4,1.5-1.4h19.4
				c0.8,0,1.5,0.6,1.5,1.4V137.3z"/>
			<line class="st11" x1="83.1" y1="138.3" x2="83.1" y2="134.3"/>
			<line class="st11" x1="84.9" y1="138.3" x2="84.9" y2="134.3"/>
			<line class="st11" x1="86.8" y1="138.3" x2="86.8" y2="134.3"/>
			<line class="st11" x1="88.7" y1="138.3" x2="88.7" y2="134.3"/>
			<line class="st11" x1="90.5" y1="138.3" x2="90.5" y2="134.3"/>
			<line class="st11" x1="92.4" y1="138.3" x2="92.4" y2="134.3"/>
			<line class="st11" x1="94.2" y1="138.3" x2="94.2" y2="134.3"/>
			<line class="st11" x1="96.1" y1="138.3" x2="96.1" y2="134.3"/>
			<line class="st11" x1="98" y1="138.3" x2="98" y2="134.3"/>
			<line class="st11" x1="99.8" y1="138.3" x2="99.8" y2="134.3"/>
			<line class="st11" x1="101.7" y1="138.3" x2="101.7" y2="134.3"/>
			<line class="st11" x1="102.9" y1="138.3" x2="102.9" y2="134.3"/>
			<path class="st10" d="M102.6,134.7c0,0.2-0.2,0.4-0.4,0.4H82.9c-0.2,0-0.4-0.2-0.4-0.4l0,0c0-0.2,0.2-0.4,0.4-0.4h19.3
				C102.4,134.3,102.6,134.4,102.6,134.7L102.6,134.7z"/>
			<path class="st12" d="M103.4,137H84c-0.8,0-1.5-0.6-1.5-1.4v-2c-0.6,0.2-1,0.7-1,1.3v2.4c0,0.8,0.7,1.4,1.5,1.4h19.4
				c0.8,0,1.5-0.6,1.5-1.4v-0.5C103.8,136.9,103.6,137,103.4,137z"/>
		</g>
		<g>
			<path class="st6" d="M102.1,132.2c0,0.8-0.7,1.4-1.5,1.4H81.2c-0.8,0-1.5-0.6-1.5-1.4v-2.4c0-0.8,0.7-1.4,1.5-1.4h19.4
				c0.8,0,1.5,0.6,1.5,1.4V132.2z"/>
			<line class="st11" x1="81.2" y1="133.1" x2="81.2" y2="129.1"/>
			<line class="st11" x1="83.1" y1="133.1" x2="83.1" y2="129.1"/>
			<line class="st11" x1="85" y1="133.1" x2="85" y2="129.1"/>
			<line class="st11" x1="86.8" y1="133.1" x2="86.8" y2="129.1"/>
			<line class="st11" x1="88.7" y1="133.1" x2="88.7" y2="129.1"/>
			<line class="st11" x1="90.6" y1="133.1" x2="90.6" y2="129.1"/>
			<line class="st11" x1="92.4" y1="133.1" x2="92.4" y2="129.1"/>
			<line class="st11" x1="94.3" y1="133.1" x2="94.3" y2="129.1"/>
			<line class="st11" x1="96.1" y1="133.1" x2="96.1" y2="129.1"/>
			<line class="st11" x1="98" y1="133.1" x2="98" y2="129.1"/>
			<line class="st11" x1="99.9" y1="133.1" x2="99.9" y2="129.1"/>
			<line class="st11" x1="101.1" y1="133.1" x2="101.1" y2="129.1"/>
			<path class="st10" d="M100.7,129.5c0,0.2-0.2,0.4-0.4,0.4H81.1c-0.2,0-0.4-0.2-0.4-0.4l0,0c0-0.2,0.2-0.4,0.4-0.4h19.3
				C100.6,129.1,100.7,129.3,100.7,129.5L100.7,129.5z"/>
			<path class="st12" d="M101.6,131.8H82.2c-0.8,0-1.5-0.6-1.5-1.4v-2c-0.6,0.2-1,0.7-1,1.3v2.4c0,0.8,0.7,1.4,1.5,1.4h19.4
				c0.8,0,1.5-0.6,1.5-1.4v-0.5C102,131.8,101.8,131.8,101.6,131.8z"/>
		</g>
		<g>
			<path class="st6" d="M104,127c0,0.8-0.7,1.4-1.5,1.4H83c-0.8,0-1.5-0.6-1.5-1.4v-2.4c0-0.8,0.7-1.4,1.5-1.4h19.4
				c0.8,0,1.5,0.6,1.5,1.4V127z"/>
			<line class="st11" x1="83.1" y1="127.9" x2="83.1" y2="123.9"/>
			<line class="st11" x1="84.9" y1="127.9" x2="84.9" y2="123.9"/>
			<line class="st11" x1="86.8" y1="127.9" x2="86.8" y2="123.9"/>
			<line class="st11" x1="88.7" y1="127.9" x2="88.7" y2="123.9"/>
			<line class="st11" x1="90.5" y1="127.9" x2="90.5" y2="123.9"/>
			<line class="st11" x1="92.4" y1="127.9" x2="92.4" y2="123.9"/>
			<line class="st11" x1="94.2" y1="127.9" x2="94.2" y2="123.9"/>
			<line class="st11" x1="96.1" y1="127.9" x2="96.1" y2="123.9"/>
			<line class="st11" x1="98" y1="127.9" x2="98" y2="123.9"/>
			<line class="st11" x1="99.8" y1="127.9" x2="99.8" y2="123.9"/>
			<line class="st11" x1="101.7" y1="127.9" x2="101.7" y2="123.9"/>
			<line class="st11" x1="102.9" y1="127.9" x2="102.9" y2="123.9"/>
			<path class="st10" d="M102.6,124.4c0,0.2-0.2,0.4-0.4,0.4H82.9c-0.2,0-0.4-0.2-0.4-0.4l0,0c0-0.2,0.2-0.4,0.4-0.4h19.3
				C102.4,123.9,102.6,124.1,102.6,124.4L102.6,124.4z"/>
			<path class="st12" d="M103.4,126.6H84c-0.8,0-1.5-0.6-1.5-1.4v-2c-0.6,0.2-1,0.7-1,1.3v2.4c0,0.8,0.7,1.4,1.5,1.4h19.4
				c0.8,0,1.5-0.6,1.5-1.4v-0.5C103.8,126.6,103.6,126.6,103.4,126.6z"/>
		</g>
		<g>
			<path class="st6" d="M82.1,138.9c-0.7,0.2-1.5-0.2-1.8-1l-6-18.5c-0.3-0.8,0.1-1.6,0.8-1.9l2.3-0.7c0.7-0.2,1.5,0.2,1.8,1l6,18.5
				c0.3,0.8-0.1,1.7-0.8,1.9L82.1,138.9z"/>
			<line class="st11" x1="74.8" y1="119.3" x2="78.6" y2="118"/>
			<line class="st11" x1="75.4" y1="121" x2="79.2" y2="119.8"/>
			<line class="st11" x1="75.9" y1="122.8" x2="79.7" y2="121.6"/>
			<line class="st11" x1="76.5" y1="124.6" x2="80.3" y2="123.4"/>
			<line class="st11" x1="77.1" y1="126.4" x2="80.9" y2="125.1"/>
			<line class="st11" x1="77.7" y1="128.1" x2="81.5" y2="126.9"/>
			<line class="st11" x1="78.2" y1="129.9" x2="82" y2="128.7"/>
			<line class="st11" x1="78.8" y1="131.7" x2="82.6" y2="130.4"/>
			<line class="st11" x1="79.4" y1="133.4" x2="83.2" y2="132.2"/>
			<line class="st11" x1="80" y1="135.2" x2="83.8" y2="134"/>
			<line class="st11" x1="80.5" y1="137" x2="84.3" y2="135.7"/>
			<line class="st11" x1="80.9" y1="138.1" x2="84.7" y2="136.9"/>
			<path class="st10" d="M84.2,136.7c-0.2,0.1-0.5,0-0.5-0.3l-5.9-18.3c-0.1-0.2,0-0.5,0.3-0.5l0,0c0.2-0.1,0.5,0,0.5,0.3l5.9,18.3
				C84.5,136.4,84.4,136.6,84.2,136.7L84.2,136.7z"/>
			<path class="st12" d="M82.3,138.2l-6-18.5c-0.3-0.8,0.1-1.7,0.8-1.9l1.9-0.6c-0.4-0.5-1-0.7-1.5-0.5l-2.3,0.7
				c-0.7,0.2-1.1,1.1-0.8,1.9l6,18.5c0.3,0.8,1.1,1.3,1.8,1l0.4-0.1C82.5,138.6,82.4,138.4,82.3,138.2z"/>
		</g>
		<g>
			<path class="st6" d="M102.9,121.8c0,0.8-0.7,1.4-1.5,1.4H82c-0.8,0-1.5-0.6-1.5-1.4v-2.4c0-0.8,0.7-1.4,1.5-1.4h19.4
				c0.9,0,1.5,0.6,1.5,1.4V121.8z"/>
			<line class="st11" x1="82" y1="122.8" x2="82" y2="118.8"/>
			<line class="st11" x1="83.9" y1="122.8" x2="83.9" y2="118.8"/>
			<line class="st11" x1="85.7" y1="122.8" x2="85.7" y2="118.8"/>
			<line class="st11" x1="87.6" y1="122.8" x2="87.6" y2="118.8"/>
			<line class="st11" x1="89.4" y1="122.8" x2="89.4" y2="118.8"/>
			<line class="st11" x1="91.3" y1="122.8" x2="91.3" y2="118.8"/>
			<line class="st11" x1="93.2" y1="122.8" x2="93.2" y2="118.8"/>
			<line class="st11" x1="95" y1="122.8" x2="95" y2="118.8"/>
			<line class="st11" x1="96.9" y1="122.8" x2="96.9" y2="118.8"/>
			<line class="st11" x1="98.7" y1="122.8" x2="98.7" y2="118.8"/>
			<line class="st11" x1="100.6" y1="122.8" x2="100.6" y2="118.8"/>
			<line class="st11" x1="101.8" y1="122.8" x2="101.8" y2="118.8"/>
			<path class="st10" d="M101.5,119.2c0,0.2-0.2,0.4-0.4,0.4H81.8c-0.2,0-0.4-0.2-0.4-0.4l0,0c0-0.2,0.2-0.4,0.4-0.4h19.3
				C101.3,118.8,101.5,119,101.5,119.2L101.5,119.2z"/>
			<path class="st12" d="M102.3,121.5H82.9c-0.8,0-1.5-0.6-1.5-1.4v-2c-0.6,0.2-1,0.7-1,1.3v2.4c0,0.8,0.7,1.4,1.5,1.4h19.4
				c0.9,0,1.5-0.6,1.5-1.4v-0.5C102.7,121.4,102.5,121.5,102.3,121.5z"/>
		</g>
	</g>
	<g>
		<g>
			<polygon class="st13" points="71.3,138.4 55.8,133.6 57.9,126.5 73.4,131.3 			"/>
			<path class="st14" d="M71.2,136.8l1.2-4.2c-0.5-0.2-0.9-0.7-0.7-1.3l-12.4-3.8c-0.2,0.5-0.7,0.8-1.3,0.7l-1.2,4.2
				c0.5,0.2,0.9,0.7,0.7,1.3l12.4,3.8C70.1,136.9,70.6,136.6,71.2,136.8z"/>
			<path class="st13" d="M67.5,133.4c-0.5,1.6-2.1,2.5-3.7,2c-1.6-0.5-2.5-2.2-2.1-3.7c0.5-1.6,2.1-2.5,3.7-2
				C67,130.1,68,131.8,67.5,133.4z"/>
			<path class="st13" d="M70.3,134.2c-0.2,0.6-0.8,0.9-1.4,0.8l-9.2-2.9c-0.6-0.2-1-0.8-0.8-1.4l0,0c0.2-0.6,0.8-0.9,1.4-0.8
				l9.2,2.9C70.2,133,70.5,133.6,70.3,134.2L70.3,134.2z"/>
			<path class="st15" d="M67.2,133.3c-0.4,1.4-1.9,2.2-3.3,1.7c-1.4-0.4-2.2-1.9-1.8-3.3c0.4-1.4,1.9-2.2,3.3-1.7
				C66.8,130.4,67.6,131.9,67.2,133.3z"/>
			<g>
				<path class="st14" d="M59.6,131.6l0.1-0.2c0,0,0,0-0.1,0c0,0,0,0,0-0.1c0,0,0,0,0-0.1c0,0,0-0.1,0-0.1c0,0,0,0,0-0.1
					c0,0,0,0,0,0l0.1,0c0,0,0,0,0,0.1c0,0,0,0.1,0,0.1c0,0,0,0,0,0c0,0,0,0,0,0c0,0,0,0,0,0c0,0,0,0,0,0c0,0,0,0,0,0c0,0,0,0,0,0
					c0,0,0,0,0-0.1c0,0,0,0,0-0.1c0,0,0,0,0,0c0,0,0,0,0,0c0,0,0,0,0,0c0,0,0,0,0,0c0,0,0,0,0,0c0,0,0,0,0,0c0,0,0,0,0,0
					c0,0,0,0,0,0c0,0,0,0,0,0c0,0,0,0,0-0.1c0,0,0-0.1,0-0.1c0-0.1,0-0.1,0-0.1c0,0,0,0,0.1-0.1c0,0,0,0,0,0c0,0,0,0,0.1,0l0-0.2
					l0.1,0l0,0.2c0,0,0.1,0,0.1,0c0,0,0,0,0,0c0,0,0,0,0,0.1c0,0,0,0.1,0,0.1c0,0,0,0,0,0.1c0,0,0,0,0,0l-0.1,0c0,0,0,0,0,0
					c0,0,0,0,0,0c0,0,0-0.1,0-0.1c0,0,0,0,0,0c0,0,0,0,0,0c0,0,0,0,0,0c0,0,0,0,0,0c0,0,0,0,0,0c0,0,0,0,0,0c0,0,0,0,0,0.1
					c0,0,0,0,0,0c0,0,0,0,0,0c0,0,0,0,0,0c0,0,0,0,0,0c0,0,0,0,0,0c0,0,0,0,0,0c0,0,0,0,0.1,0.1c0,0,0,0,0.1,0.1c0,0,0,0,0,0
					c0,0,0,0,0,0c0,0,0,0,0,0c0,0,0,0,0,0c0,0,0,0,0,0.1c0,0,0,0,0,0.1c0,0,0,0.1,0,0.1c0,0,0,0,0,0.1c0,0,0,0,0,0c0,0,0,0,0,0
					c0,0,0,0-0.1,0c0,0,0,0-0.1,0L59.6,131.6L59.6,131.6z"/>
			</g>
			<g>
				<path class="st14" d="M69.3,134.6l0.1-0.2c0,0,0,0-0.1,0c0,0,0,0,0-0.1c0,0,0,0,0-0.1c0,0,0-0.1,0-0.1c0,0,0,0,0-0.1
					c0,0,0,0,0,0l0.1,0c0,0,0,0,0,0.1c0,0,0,0.1,0,0.1c0,0,0,0,0,0c0,0,0,0,0,0c0,0,0,0,0,0c0,0,0,0,0,0c0,0,0,0,0,0c0,0,0,0,0,0
					c0,0,0,0,0-0.1c0,0,0,0,0-0.1c0,0,0,0,0,0c0,0,0,0,0,0c0,0,0,0,0,0c0,0,0,0,0,0c0,0,0,0,0,0c0,0,0,0,0,0c0,0,0,0,0,0
					c0,0,0,0,0,0c0,0,0,0,0,0c0,0,0,0,0-0.1c0,0,0-0.1,0-0.1c0-0.1,0-0.1,0-0.1c0,0,0,0,0.1-0.1c0,0,0,0,0,0c0,0,0,0,0.1,0l0-0.2
					l0.1,0l0,0.2c0,0,0.1,0,0.1,0c0,0,0,0,0,0c0,0,0,0,0,0.1c0,0,0,0.1,0,0.1c0,0,0,0,0,0.1c0,0,0,0,0,0l-0.1,0c0,0,0,0,0,0
					c0,0,0,0,0,0c0,0,0-0.1,0-0.1c0,0,0,0,0,0c0,0,0,0,0,0c0,0,0,0,0,0c0,0,0,0,0,0c0,0,0,0,0,0c0,0,0,0,0,0c0,0,0,0,0,0.1
					c0,0,0,0,0,0c0,0,0,0,0,0c0,0,0,0,0,0c0,0,0,0,0,0c0,0,0,0,0,0c0,0,0,0,0,0c0,0,0,0,0.1,0.1c0,0,0,0,0.1,0.1c0,0,0,0,0,0
					c0,0,0,0,0,0c0,0,0,0,0,0c0,0,0,0,0,0c0,0,0,0,0,0.1c0,0,0,0,0,0.1c0,0,0,0.1,0,0.1c0,0,0,0,0,0.1c0,0,0,0,0,0c0,0,0,0,0,0
					c0,0,0,0-0.1,0c0,0,0,0-0.1,0L69.3,134.6L69.3,134.6z"/>
			</g>
			<g>
				<path class="st13" d="M63.7,135l0.2-0.8c-0.1,0-0.2-0.1-0.2-0.1c-0.1-0.1-0.1-0.1-0.1-0.2c0-0.1-0.1-0.2-0.1-0.3
					c0-0.1,0-0.3,0.1-0.5c0-0.1,0-0.2,0.1-0.2c0-0.1,0-0.1,0.1-0.2l0.5,0.2c0,0.1-0.1,0.2-0.1,0.3c0,0.1-0.1,0.2-0.1,0.3
					c0,0.1,0,0.1,0,0.2c0,0,0,0.1,0.1,0.1c0,0,0.1,0,0.1,0.1c0.1,0,0.1,0,0.2,0c0,0,0.1,0,0.1,0c0,0,0.1-0.1,0.1-0.2
					c0-0.1,0.1-0.2,0.1-0.3c0-0.1,0.1-0.2,0.1-0.2c0,0,0-0.1,0-0.1c0,0,0-0.1,0-0.1c0,0-0.1-0.1-0.1-0.1c0,0-0.1-0.1-0.1-0.1
					c-0.1-0.1-0.1-0.1-0.2-0.2c-0.1-0.1-0.1-0.1-0.2-0.1c0,0-0.1-0.1-0.1-0.1c0,0-0.1-0.1-0.1-0.1c0-0.1,0-0.1,0-0.2
					c0-0.1,0-0.2,0-0.3c0-0.1,0.1-0.2,0.1-0.4c0.1-0.2,0.1-0.3,0.2-0.4c0.1-0.1,0.1-0.2,0.2-0.2c0.1,0,0.1,0,0.2,0
					c0.1,0,0.1,0,0.3,0l0.2-0.7l0.4,0.1l-0.2,0.7c0.1,0,0.2,0.1,0.3,0.1c0.1,0,0.1,0.1,0.2,0.2c0,0.1,0.1,0.2,0,0.3
					c0,0.1,0,0.2-0.1,0.4c0,0.1-0.1,0.2-0.1,0.2c0,0.1,0,0.1-0.1,0.2l-0.5-0.1c0,0,0-0.1,0-0.1c0,0,0-0.1,0.1-0.2
					c0-0.1,0.1-0.2,0.1-0.3c0-0.1,0-0.1,0-0.2c0,0,0-0.1-0.1-0.1c0,0-0.1,0-0.1-0.1c-0.1,0-0.1,0-0.1,0c0,0-0.1,0-0.1,0
					c0,0-0.1,0.1-0.1,0.1c0,0.1-0.1,0.1-0.1,0.3c0,0.1,0,0.1-0.1,0.2c0,0,0,0.1,0,0.1c0,0,0,0.1,0,0.1c0,0,0,0,0,0.1
					c0,0,0,0.1,0,0.1c0,0,0,0.1,0.1,0.1c0.1,0.1,0.1,0.1,0.2,0.2c0.1,0.1,0.2,0.2,0.3,0.2c0.1,0.1,0.1,0.1,0.1,0.2
					c0,0,0.1,0.1,0.1,0.1c0,0,0,0.1,0,0.1c0,0,0,0.1,0,0.1c0,0.1,0,0.1,0,0.2c0,0.1,0,0.2-0.1,0.3c0,0.1-0.1,0.2-0.1,0.3
					c0,0.1-0.1,0.2-0.1,0.2c0,0.1-0.1,0.1-0.1,0.2c0,0-0.1,0.1-0.1,0.1c-0.1,0-0.1,0.1-0.2,0.1c-0.1,0-0.2,0-0.3,0l-0.2,0.8
					L63.7,135z"/>
			</g>
		</g>
		<g>
			<path class="st13" d="M90.7,143.6c-2.8-9.5-11,6.8-13.8-2.9c0.6-2.8,1.2-5.7,1.8-8.5c2.8,9.5,11-6.7,13.8,2.9
				C91.9,137.9,91.3,140.7,90.7,143.6z"/>
			<path class="st14" d="M90.8,140.8c0.3-1.7,0.7-3.3,1-5c-0.3-0.8-0.6-1.7-0.4-2.4c-3-3.9-8.8,5.3-11.8,1.5c-0.1,0.6-0.6,0.8-0.9,0
				c-0.3,1.7-0.7,3.3-1,5c0.3,0.8,0.6,1.7,0.4,2.4c3,3.9,8.8-5.3,11.8-1.5C90,140.2,90.4,140,90.8,140.8z"/>
			<path class="st13" d="M87.7,136.3c-0.4,1.9-2,3.9-3.7,5c-1.7,1.1-2.7,0-2.3-1.9c0.4-1.9,2-3.9,3.7-5
				C87.1,133.3,88.1,134.4,87.7,136.3z"/>
			<path class="st13" d="M90.3,136.8c-0.2,0.7-0.7,0.9-1.2,0.8c-2.7-0.7-6.5,4-9.2,3.3c-0.5-0.1-0.8-1.1-0.6-1.8l0,0
				c0.2-0.7,0.7-0.9,1.2-0.8c2.7,0.7,6.5-4,9.2-3.3C90.1,135.1,90.4,136,90.3,136.8L90.3,136.8z"/>
			<path class="st15" d="M87.4,136.4c-0.3,1.7-1.8,3.5-3.3,4.5c-1.5,1-2.4,0.1-2-1.6c0.3-1.7,1.8-3.5,3.3-4.5
				C86.9,133.9,87.7,134.7,87.4,136.4z"/>
			<g>
				<path class="st14" d="M79.8,140.2c0-0.1,0-0.2,0-0.2c0,0,0,0-0.1,0c0,0,0,0,0-0.1c0,0,0-0.1,0-0.1c0,0,0-0.1,0-0.1
					c0,0,0,0,0-0.1c0,0,0,0,0,0c0,0,0.1,0,0.1,0c0,0,0,0,0,0.1c0,0,0,0.1,0,0.1c0,0,0,0,0,0.1c0,0,0,0,0,0c0,0,0,0,0,0c0,0,0,0,0,0
					c0,0,0,0,0,0c0,0,0,0,0,0c0,0,0-0.1,0-0.1c0,0,0-0.1,0-0.1c0,0,0,0,0,0c0,0,0,0,0,0c0,0,0,0,0,0c0,0,0,0,0,0c0,0,0,0,0,0
					c0,0,0,0,0,0c0,0,0,0,0,0c0,0,0,0,0,0c0,0,0,0,0-0.1c0,0,0-0.1,0-0.1c0,0,0-0.1,0-0.1c0-0.1,0-0.1,0-0.1c0,0,0,0,0-0.1
					c0,0,0,0,0,0c0,0,0,0,0.1,0c0-0.1,0-0.1,0-0.2c0,0,0.1,0,0.1,0c0,0.1,0,0.1,0,0.2c0,0,0,0,0.1,0c0,0,0,0,0,0c0,0,0,0,0,0.1
					c0,0,0,0.1,0,0.1c0,0,0,0.1,0,0.1c0,0,0,0,0,0c0,0-0.1,0-0.1,0c0,0,0,0,0,0c0,0,0,0,0-0.1c0,0,0-0.1,0-0.1c0,0,0,0,0,0
					c0,0,0,0,0,0c0,0,0,0,0,0c0,0,0,0,0,0c0,0,0,0,0,0c0,0,0,0,0,0c0,0,0,0,0,0.1c0,0,0,0,0,0.1c0,0,0,0,0,0c0,0,0,0,0,0
					c0,0,0,0,0,0c0,0,0,0,0,0c0,0,0,0,0,0c0,0,0,0,0.1,0.1c0,0,0,0,0.1,0.1c0,0,0,0,0,0c0,0,0,0,0,0c0,0,0,0,0,0c0,0,0,0,0,0
					c0,0,0,0,0,0.1c0,0,0,0.1,0,0.1c0,0,0,0.1,0,0.1c0,0,0,0.1,0,0.1c0,0,0,0,0,0.1c0,0,0,0,0,0c0,0,0,0,0,0c0,0,0,0-0.1,0
					C79.9,140,79.9,140.1,79.8,140.2C79.8,140.2,79.8,140.2,79.8,140.2z"/>
			</g>
			<g>
				<path class="st14" d="M89.4,137c0-0.1,0-0.2,0-0.2c0,0,0,0-0.1,0c0,0,0,0,0-0.1c0,0,0-0.1,0-0.1c0,0,0-0.1,0-0.1c0,0,0,0,0-0.1
					c0,0,0,0,0,0c0,0,0.1,0,0.1,0c0,0,0,0,0,0.1c0,0,0,0.1,0,0.1c0,0,0,0,0,0.1c0,0,0,0,0,0c0,0,0,0,0,0c0,0,0,0,0,0c0,0,0,0,0,0
					c0,0,0,0,0,0c0,0,0-0.1,0-0.1c0,0,0-0.1,0-0.1c0,0,0,0,0,0c0,0,0,0,0,0c0,0,0,0,0,0c0,0,0,0,0,0c0,0,0,0,0,0c0,0,0,0,0,0
					c0,0,0,0,0,0c0,0,0,0,0,0c0,0,0,0,0-0.1c0,0,0-0.1,0-0.1c0,0,0-0.1,0-0.1c0-0.1,0-0.1,0-0.1c0,0,0-0.1,0-0.1c0,0,0,0,0,0
					c0,0,0,0,0.1,0c0-0.1,0-0.1,0-0.2c0,0,0.1,0,0.1,0c0,0.1,0,0.1,0,0.2c0,0,0,0,0.1,0c0,0,0,0,0,0.1c0,0,0,0.1,0,0.1
					c0,0,0,0.1,0,0.1c0,0,0,0.1,0,0.1c0,0,0,0,0,0c0,0-0.1,0-0.1-0.1c0,0,0,0,0,0c0,0,0,0,0-0.1c0,0,0-0.1,0-0.1c0,0,0,0,0,0
					c0,0,0,0,0,0c0,0,0,0,0,0c0,0,0,0,0,0c0,0,0,0,0,0c0,0,0,0,0,0c0,0,0,0,0,0.1c0,0,0,0,0,0.1c0,0,0,0,0,0c0,0,0,0,0,0
					c0,0,0,0,0,0c0,0,0,0,0,0c0,0,0,0,0,0c0,0,0,0,0,0.1c0,0,0,0,0.1,0.1c0,0,0,0,0,0.1c0,0,0,0,0,0c0,0,0,0,0,0c0,0,0,0,0,0
					c0,0,0,0,0,0.1c0,0,0,0.1,0,0.1c0,0,0,0.1,0,0.1c0,0,0,0,0,0.1c0,0,0,0,0,0c0,0,0,0,0,0c0,0,0,0,0,0c0,0,0,0-0.1,0
					C89.5,136.9,89.5,137,89.4,137C89.5,137,89.4,137,89.4,137z"/>
			</g>
			<g>
				<path class="st13" d="M83.9,141c0.1-0.3,0.1-0.6,0.2-0.9c-0.1,0.1-0.2,0.1-0.3,0.1c-0.1,0-0.1,0-0.2-0.1c0,0-0.1-0.1-0.1-0.2
					c0-0.1,0-0.3,0.1-0.5c0-0.1,0-0.2,0.1-0.3c0-0.1,0-0.2,0.1-0.2c0.2-0.1,0.3-0.2,0.5-0.3c0,0.1-0.1,0.2-0.1,0.4
					c0,0.2-0.1,0.3-0.1,0.3c0,0.1,0,0.1,0,0.2c0,0,0,0,0.1,0c0,0,0.1,0,0.2-0.1c0.1-0.1,0.1-0.1,0.2-0.1c0,0,0.1-0.1,0.1-0.2
					c0-0.1,0.1-0.2,0.1-0.2c0-0.1,0.1-0.2,0.1-0.4c0-0.1,0-0.2,0.1-0.3c0-0.1,0-0.1,0-0.2c0,0,0-0.1,0-0.1c0,0-0.1,0-0.1,0
					c-0.1,0-0.1,0-0.2,0c-0.1,0-0.1,0-0.2,0c-0.1,0-0.1,0-0.2,0c-0.1,0-0.1,0-0.1,0c0,0-0.1,0-0.1-0.1c0,0,0-0.1,0-0.2
					c0-0.1,0-0.2,0-0.3c0-0.1,0-0.3,0.1-0.5c0.1-0.2,0.1-0.4,0.2-0.6c0.1-0.1,0.1-0.3,0.2-0.4c0.1-0.1,0.1-0.2,0.2-0.2
					c0.1-0.1,0.2-0.1,0.3-0.2c0.1-0.3,0.1-0.5,0.2-0.8c0.1-0.1,0.3-0.2,0.4-0.3c-0.1,0.3-0.1,0.5-0.2,0.8c0.1-0.1,0.2-0.1,0.3-0.1
					c0.1,0,0.1,0,0.2,0c0,0,0.1,0.1,0.1,0.2c0,0.1,0,0.2-0.1,0.4c0,0.1,0,0.2-0.1,0.3c0,0.1,0,0.2-0.1,0.2c-0.2,0.1-0.3,0.2-0.5,0.3
					c0,0,0-0.1,0-0.2c0-0.1,0-0.1,0-0.2c0-0.1,0-0.2,0.1-0.3c0-0.1,0-0.1,0-0.1c0,0,0,0-0.1,0c0,0-0.1,0-0.2,0.1
					c-0.1,0-0.1,0.1-0.1,0.1c0,0-0.1,0.1-0.1,0.1c0,0.1-0.1,0.1-0.1,0.2c0,0.1-0.1,0.2-0.1,0.3c0,0.1,0,0.2,0,0.2c0,0.1,0,0.1,0,0.1
					c0,0,0,0.1,0,0.1c0,0,0,0,0,0.1c0,0,0,0.1,0,0.1c0,0,0.1,0,0.1,0c0.1,0,0.2,0,0.3,0c0.1,0,0.2,0,0.3,0c0.1,0,0.1,0,0.1,0
					c0,0,0.1,0,0.1,0.1c0,0,0,0.1,0,0.1c0,0,0,0.1,0,0.1c0,0.1,0,0.1,0,0.2c0,0.1,0,0.2-0.1,0.4c0,0.2-0.1,0.3-0.1,0.4
					c0,0.1-0.1,0.2-0.1,0.3c0,0.1-0.1,0.2-0.1,0.3c0,0.1-0.1,0.2-0.1,0.2c-0.1,0.1-0.1,0.2-0.2,0.3c-0.1,0.1-0.2,0.2-0.3,0.2
					c-0.1,0.3-0.1,0.6-0.2,0.9C84.2,140.9,84.1,141,83.9,141z"/>
			</g>
		</g>
		<g>
			<path class="st13" d="M59.7,134.6c-7.7-6.3-5.3,11.7-13.1,5.4c-1.1-2.7-2.2-5.4-3.3-8.1c7.7,6.3,5.3-11.7,13.1-5.4
				C57.5,129.2,58.6,131.9,59.7,134.6z"/>
			<path class="st14" d="M58.1,132.3c-0.6-1.6-1.3-3.2-1.9-4.7c-0.7-0.5-1.4-1.1-1.7-1.7c-4.7-1.5-4.3,9.3-9,7.8
				c0.2,0.6,0,1-0.8,0.5c0.6,1.6,1.3,3.2,1.9,4.7c0.7,0.5,1.4,1.1,1.7,1.7c4.7,1.5,4.3-9.3,8.9-7.8
				C57.1,132.2,57.4,131.8,58.1,132.3z"/>
			<path class="st13" d="M53.1,130.3c0.7,1.8,0.5,4.3-0.3,6.2c-0.8,1.9-2.2,1.5-3-0.3c-0.7-1.8-0.5-4.3,0.3-6.2
				C50.9,128.1,52.3,128.5,53.1,130.3z"/>
			<path class="st13" d="M55.4,129.2c0.3,0.7,0,1.1-0.5,1.3c-2.6,0.9-3.2,7-5.8,7.9c-0.5,0.2-1.3-0.5-1.6-1.2l0,0
				c-0.3-0.7,0-1.1,0.5-1.3c2.6-0.9,3.2-7,5.8-7.9C54.4,127.9,55.2,128.5,55.4,129.2L55.4,129.2z"/>
			<path class="st15" d="M52.9,130.6c0.6,1.6,0.5,3.9-0.2,5.6c-0.7,1.6-1.9,1.4-2.6-0.2c-0.6-1.6-0.5-3.9,0.2-5.6
				C51,128.7,52.2,129,52.9,130.6z"/>
			<g>
				<path class="st14" d="M48.7,137.9c0-0.1-0.1-0.1-0.1-0.2c0,0,0,0-0.1,0c0,0,0,0-0.1,0c0,0,0,0-0.1-0.1c0,0,0-0.1-0.1-0.1
					c0,0,0,0,0-0.1c0,0,0,0,0,0c0,0,0.1,0,0.1,0c0,0,0,0,0,0.1c0,0,0,0.1,0,0.1c0,0,0,0,0,0c0,0,0,0,0,0c0,0,0,0,0,0c0,0,0,0,0,0
					c0,0,0,0,0,0c0,0,0,0,0-0.1c0,0,0-0.1,0-0.1c0,0,0-0.1,0-0.1c0,0,0,0,0,0c0,0,0,0,0,0c0,0,0,0,0,0c0,0,0,0,0,0c0,0,0,0-0.1,0
					c0,0,0,0-0.1,0c0,0,0,0,0,0c0,0,0,0,0,0c0,0,0,0,0,0c0,0,0,0,0-0.1c0,0,0-0.1,0-0.1c0-0.1,0-0.1,0-0.1c0,0,0-0.1,0-0.1
					c0,0,0,0,0,0c0,0,0,0,0,0c0-0.1-0.1-0.1-0.1-0.2c0,0,0.1,0,0.1,0c0,0.1,0.1,0.1,0.1,0.2c0,0,0,0,0.1,0c0,0,0,0,0.1,0
					c0,0,0,0,0.1,0.1c0,0,0,0.1,0.1,0.1c0,0,0,0.1,0,0.1c0,0,0,0,0,0c0,0-0.1,0-0.1,0c0,0,0,0,0,0c0,0,0,0,0,0c0,0,0-0.1,0-0.1
					c0,0,0,0,0,0c0,0,0,0,0,0c0,0,0,0,0,0c0,0,0,0,0,0c0,0,0,0,0,0c0,0,0,0,0,0c0,0,0,0,0,0.1c0,0,0,0,0,0.1c0,0,0,0,0,0
					c0,0,0,0,0,0c0,0,0,0,0,0c0,0,0,0,0,0c0,0,0,0,0,0c0,0,0,0,0.1,0c0,0,0.1,0,0.1,0c0,0,0,0,0,0c0,0,0,0,0,0c0,0,0,0,0,0
					c0,0,0,0,0,0c0,0,0,0,0,0.1c0,0,0,0.1,0,0.1c0,0,0,0.1,0,0.1c0,0,0,0,0,0.1c0,0,0,0,0,0.1c0,0,0,0,0,0c0,0,0,0,0,0
					c0,0,0,0-0.1,0C48.7,137.7,48.7,137.8,48.7,137.9C48.7,137.9,48.7,137.9,48.7,137.9z"/>
			</g>
			<g>
				<path class="st14" d="M54.9,129.9c0-0.1-0.1-0.1-0.1-0.2c0,0,0,0-0.1,0c0,0,0,0-0.1,0c0,0,0,0-0.1-0.1c0,0,0-0.1-0.1-0.1
					c0,0,0,0,0-0.1c0,0,0,0,0,0c0,0,0.1,0,0.1,0c0,0,0,0,0,0.1c0,0,0,0.1,0,0.1c0,0,0,0,0,0c0,0,0,0,0,0c0,0,0,0,0,0c0,0,0,0,0,0
					c0,0,0,0,0,0c0,0,0,0,0-0.1c0,0,0-0.1,0-0.1c0,0,0-0.1,0-0.1c0,0,0,0,0,0c0,0,0,0,0,0c0,0,0,0,0,0c0,0,0,0,0,0c0,0,0,0-0.1,0
					c0,0,0,0-0.1,0c0,0,0,0,0,0c0,0,0,0,0,0c0,0,0,0,0,0c0,0,0,0,0-0.1c0,0,0-0.1,0-0.1c0-0.1,0-0.1,0-0.1c0,0,0-0.1,0-0.1
					c0,0,0,0,0,0c0,0,0,0,0.1,0c0-0.1-0.1-0.1-0.1-0.2c0,0,0.1,0,0.1,0c0,0.1,0.1,0.1,0.1,0.2c0,0,0.1,0,0.1,0c0,0,0,0,0.1,0
					c0,0,0,0,0.1,0.1c0,0,0,0.1,0.1,0.1c0,0,0,0.1,0,0.1c0,0,0,0,0,0c0,0-0.1,0-0.1,0c0,0,0,0,0,0c0,0,0,0,0,0c0,0,0-0.1,0-0.1
					c0,0,0,0,0,0c0,0,0,0,0,0c0,0,0,0,0,0c0,0,0,0,0,0c0,0,0,0,0,0c0,0,0,0,0,0c0,0,0,0,0,0.1c0,0,0,0,0,0.1c0,0,0,0,0,0
					c0,0,0,0,0,0c0,0,0,0,0,0c0,0,0,0,0,0c0,0,0,0,0,0c0,0,0,0,0.1,0c0,0,0.1,0,0.1,0c0,0,0,0,0.1,0c0,0,0,0,0,0c0,0,0,0,0,0
					c0,0,0,0,0,0c0,0,0,0,0,0.1c0,0,0,0.1,0,0.1c0,0,0,0.1,0,0.1c0,0,0,0,0,0.1c0,0,0,0,0,0.1c0,0,0,0,0,0c0,0,0,0,0,0
					c0,0,0,0-0.1,0C54.9,129.7,55,129.8,54.9,129.9C55,129.9,54.9,129.9,54.9,129.9z"/>
			</g>
			<g>
				<path class="st13" d="M52.6,136.3c-0.1-0.3-0.2-0.6-0.4-0.9c-0.1,0.1-0.1,0.2-0.2,0.2c-0.1,0-0.1,0.1-0.2,0
					c-0.1,0-0.1-0.1-0.2-0.1c-0.1-0.1-0.1-0.2-0.2-0.5c0-0.1-0.1-0.2-0.1-0.3c0-0.1,0-0.2-0.1-0.2c0.1-0.2,0.2-0.4,0.3-0.6
					c0,0.1,0.1,0.2,0.1,0.3c0.1,0.2,0.1,0.3,0.1,0.3c0,0.1,0.1,0.1,0.1,0.1c0,0,0.1,0,0.1,0c0,0,0.1-0.1,0.1-0.1
					c0-0.1,0.1-0.2,0.1-0.2c0-0.1,0-0.1,0-0.2c0-0.1,0-0.2-0.1-0.3c0-0.1-0.1-0.2-0.1-0.4c-0.1-0.1-0.1-0.2-0.1-0.3
					c0-0.1,0-0.1-0.1-0.1c0,0,0,0-0.1,0c0,0-0.1,0-0.1,0.1c0,0-0.1,0.1-0.1,0.1c0,0-0.1,0.1-0.1,0.1c0,0-0.1,0.1-0.1,0.1
					c0,0-0.1,0-0.1,0.1c0,0-0.1,0-0.1,0c0,0-0.1-0.1-0.1-0.1c0-0.1-0.1-0.2-0.1-0.3c-0.1-0.1-0.1-0.3-0.2-0.4
					c-0.1-0.2-0.2-0.4-0.2-0.6c0-0.2,0-0.3,0-0.5c0-0.1,0-0.2,0-0.3c0-0.1,0.1-0.2,0.1-0.3c-0.1-0.3-0.2-0.5-0.3-0.8
					c0.1-0.1,0.1-0.3,0.2-0.4c0.1,0.3,0.2,0.5,0.3,0.8c0.1-0.1,0.1-0.2,0.2-0.3c0-0.1,0.1-0.1,0.2-0.1c0.1,0,0.1,0.1,0.2,0.1
					c0.1,0.1,0.1,0.2,0.2,0.4c0,0.1,0.1,0.2,0.1,0.3c0,0.1,0,0.2,0.1,0.2c-0.1,0.2-0.2,0.4-0.2,0.5c0,0,0-0.1,0-0.1
					c0-0.1,0-0.1-0.1-0.2c-0.1-0.1-0.1-0.2-0.1-0.3c0-0.1-0.1-0.1-0.1-0.1c0,0,0,0-0.1,0c0,0,0,0.1-0.1,0.2c0,0.1-0.1,0.1-0.1,0.2
					c0,0,0,0.1,0,0.2c0,0.1,0,0.1,0,0.2c0,0.1,0.1,0.2,0.1,0.3c0,0.1,0.1,0.2,0.1,0.2c0,0.1,0,0.1,0.1,0.1c0,0,0,0.1,0,0.1
					c0,0,0,0,0,0c0,0,0,0,0.1,0c0,0,0.1,0,0.1-0.1c0.1,0,0.1-0.1,0.2-0.2c0.1-0.1,0.1-0.1,0.2-0.2c0.1,0,0.1-0.1,0.1-0.1
					c0,0,0.1,0,0.1,0c0,0,0,0,0.1,0.1c0,0,0,0.1,0.1,0.1c0,0.1,0.1,0.1,0.1,0.2c0,0.1,0.1,0.2,0.1,0.3c0.1,0.1,0.1,0.3,0.2,0.4
					c0,0.1,0.1,0.2,0.1,0.3c0,0.1,0,0.2,0,0.3c0,0.1,0,0.2,0,0.3c0,0.1,0,0.2,0,0.3c0,0.1-0.1,0.2-0.1,0.4c0.1,0.3,0.2,0.6,0.4,0.9
					C52.7,136,52.7,136.2,52.6,136.3z"/>
			</g>
		</g>
		<g>
			<path class="st13" d="M74.9,141.1c5.6-8.2-12.2-4.2-6.5-12.5c2.6-1.3,5.1-2.7,7.7-4c-5.6,8.2,12.2,4.2,6.5,12.5
				C80,138.5,77.4,139.8,74.9,141.1z"/>
			<path class="st14" d="M77,139.4c1.5-0.8,3-1.6,4.5-2.4c0.4-0.8,1-1.5,1.6-1.8c1.1-4.8-9.7-3.4-8.6-8.2c-0.6,0.3-1,0.1-0.6-0.7
				c-1.5,0.8-3,1.6-4.5,2.4c-0.4,0.8-1,1.5-1.6,1.8c-1.1,4.8,9.7,3.4,8.6,8.2C77,138.4,77.4,138.7,77,139.4z"/>
			<path class="st13" d="M78.5,134.2c-1.7,0.9-4.3,0.9-6.2,0.3c-1.9-0.6-1.7-2.1,0-3c1.7-0.9,4.3-0.9,6.2-0.3
				C80.5,131.9,80.3,133.3,78.5,134.2z"/>
			<path class="st13" d="M79.8,136.5c-0.7,0.3-1.1,0.1-1.4-0.4c-1.2-2.6-7.2-2.5-8.4-5.1c-0.2-0.5,0.4-1.3,1-1.7l0,0
				c0.7-0.3,1.1-0.1,1.4,0.4c1.2,2.6,7.2,2.5,8.4,5.1C81.1,135.3,80.5,136.1,79.8,136.5L79.8,136.5z"/>
			<path class="st15" d="M78.2,134c-1.5,0.8-3.8,0.8-5.5,0.3c-1.7-0.6-1.6-1.8,0-2.6c1.5-0.8,3.8-0.8,5.5-0.3
				C79.9,132,79.8,133.2,78.2,134z"/>
			<g>
				<path class="st14" d="M70.6,130.5c0.1,0,0.1-0.1,0.2-0.1c0,0,0,0,0-0.1c0,0,0,0,0-0.1c0,0,0,0,0.1-0.1c0,0,0.1,0,0.1-0.1
					c0,0,0,0,0.1,0c0,0,0,0,0,0c0,0,0,0.1,0,0.1c0,0,0,0-0.1,0c0,0-0.1,0-0.1,0c0,0,0,0,0,0c0,0,0,0,0,0c0,0,0,0,0,0c0,0,0,0,0,0
					c0,0,0,0,0,0c0,0,0,0,0.1,0c0,0,0.1,0,0.1,0c0,0,0.1,0,0.1,0c0,0,0,0,0,0c0,0,0,0,0,0c0,0,0,0,0,0c0,0,0,0,0,0c0,0,0,0,0-0.1
					c0,0,0,0,0-0.1c0,0,0,0,0,0c0,0,0,0,0,0c0,0,0,0,0,0c0,0,0,0,0.1,0c0,0,0.1,0,0.1-0.1c0.1,0,0.1,0,0.1-0.1c0,0,0.1,0,0.1,0
					c0,0,0,0,0,0c0,0,0,0,0,0c0.1,0,0.1-0.1,0.2-0.1c0,0,0,0.1,0,0.1c-0.1,0-0.1,0.1-0.2,0.1c0,0,0,0,0,0.1c0,0,0,0,0,0.1
					c0,0,0,0-0.1,0.1c0,0-0.1,0-0.1,0.1c0,0-0.1,0-0.1,0c0,0,0,0,0,0c0,0,0-0.1,0-0.1c0,0,0,0,0,0c0,0,0,0,0,0c0,0,0.1,0,0.1,0
					c0,0,0,0,0,0c0,0,0,0,0,0c0,0,0,0,0,0c0,0,0,0,0,0c0,0,0,0,0,0c0,0,0,0,0,0c0,0,0,0-0.1,0c0,0,0,0,0,0c0,0,0,0,0,0c0,0,0,0,0,0
					c0,0,0,0,0,0c0,0,0,0,0,0c0,0,0,0,0,0c0,0,0,0,0,0.1c0,0,0,0.1,0,0.1c0,0,0,0,0,0.1c0,0,0,0,0,0c0,0,0,0,0,0c0,0,0,0,0,0
					c0,0,0,0-0.1,0c0,0,0,0-0.1,0c0,0-0.1,0-0.1,0c0,0,0,0-0.1,0c0,0,0,0-0.1,0c0,0,0,0,0,0c0,0,0,0,0,0c0,0,0,0,0,0
					C70.7,130.5,70.7,130.6,70.6,130.5C70.6,130.6,70.6,130.5,70.6,130.5z"/>
			</g>
			<g>
				<path class="st14" d="M79.1,136c0.1,0,0.1-0.1,0.2-0.1c0,0,0,0,0-0.1c0,0,0,0,0-0.1c0,0,0,0,0.1-0.1c0,0,0.1,0,0.1-0.1
					c0,0,0,0,0.1,0c0,0,0,0,0,0c0,0,0,0.1,0,0.1c0,0,0,0-0.1,0c0,0-0.1,0-0.1,0c0,0,0,0,0,0c0,0,0,0,0,0c0,0,0,0,0,0c0,0,0,0,0,0
					c0,0,0,0,0,0c0,0,0,0,0.1,0c0,0,0,0,0.1,0c0,0,0.1,0,0.1,0c0,0,0,0,0,0c0,0,0,0,0,0c0,0,0,0,0,0c0,0,0,0,0-0.1c0,0,0,0,0-0.1
					c0,0,0,0,0-0.1c0,0,0,0,0,0c0,0,0,0,0,0c0,0,0,0,0,0c0,0,0,0,0.1,0c0,0,0.1,0,0.1-0.1c0.1,0,0.1,0,0.1-0.1c0,0,0.1,0,0.1,0
					c0,0,0,0,0,0c0,0,0,0,0,0c0.1,0,0.1-0.1,0.2-0.1c0,0,0,0.1,0,0.1c-0.1,0-0.1,0.1-0.2,0.1c0,0,0,0.1,0,0.1c0,0,0,0,0,0.1
					c0,0,0,0-0.1,0.1c0,0-0.1,0-0.1,0.1c0,0-0.1,0-0.1,0c0,0,0,0,0,0c0,0,0-0.1,0-0.1c0,0,0,0,0,0c0,0,0,0,0,0c0,0,0.1,0,0.1,0
					c0,0,0,0,0,0c0,0,0,0,0,0c0,0,0,0,0,0c0,0,0,0,0,0c0,0,0,0,0,0c0,0,0,0,0,0c0,0,0,0-0.1,0c0,0,0,0-0.1,0c0,0,0,0,0,0
					c0,0,0,0,0,0c0,0,0,0,0,0c0,0,0,0,0,0c0,0,0,0,0,0c0,0,0,0.1,0,0.1c0,0,0,0.1,0,0.1c0,0,0,0,0,0.1c0,0,0,0,0,0c0,0,0,0,0,0
					c0,0,0,0,0,0c0,0,0,0-0.1,0c0,0,0,0-0.1,0c0,0-0.1,0-0.1,0c0,0,0,0-0.1,0c0,0,0,0-0.1,0c0,0,0,0,0,0c0,0,0,0,0,0c0,0,0,0,0-0.1
					C79.3,136,79.2,136,79.1,136C79.1,136,79.1,136,79.1,136z"/>
			</g>
			<g>
				<path class="st13" d="M72.5,134.3c0.3-0.1,0.6-0.3,0.8-0.4c-0.1-0.1-0.2-0.1-0.2-0.1c0,0-0.1-0.1,0-0.2c0-0.1,0.1-0.1,0.1-0.2
					c0.1-0.1,0.2-0.2,0.5-0.3c0.1,0,0.2-0.1,0.2-0.1c0.1,0,0.1-0.1,0.2-0.1c0.2,0.1,0.4,0.1,0.6,0.2c-0.1,0-0.2,0.1-0.3,0.2
					c-0.2,0.1-0.3,0.1-0.3,0.2c-0.1,0-0.1,0.1-0.1,0.1c0,0,0,0.1,0,0.1c0,0,0.1,0,0.2,0.1c0.1,0,0.2,0.1,0.2,0.1c0.1,0,0.1,0,0.2,0
					c0.1,0,0.2,0,0.2-0.1c0.1,0,0.2-0.1,0.4-0.2c0.1-0.1,0.2-0.1,0.3-0.1c0,0,0.1-0.1,0.1-0.1c0,0,0-0.1,0-0.1c0,0,0-0.1-0.1-0.1
					c0,0-0.1-0.1-0.1-0.1c0,0-0.1-0.1-0.1-0.1c0,0-0.1-0.1-0.1-0.1c0,0-0.1-0.1-0.1-0.1c0,0,0-0.1,0-0.1c0,0,0.1-0.1,0.1-0.1
					c0.1,0,0.1-0.1,0.3-0.2c0.1-0.1,0.2-0.1,0.4-0.2c0.2-0.1,0.4-0.2,0.6-0.2c0.2,0,0.3-0.1,0.5-0.1c0.1,0,0.2,0,0.3,0
					c0.1,0,0.2,0,0.3,0.1c0.2-0.1,0.5-0.3,0.7-0.4c0.1,0.1,0.3,0.1,0.5,0.2c-0.2,0.1-0.5,0.3-0.7,0.4c0.1,0.1,0.2,0.1,0.3,0.1
					c0.1,0,0.1,0.1,0.1,0.1c0,0.1,0,0.1-0.1,0.2c-0.1,0.1-0.2,0.1-0.4,0.2c-0.1,0.1-0.2,0.1-0.3,0.1c-0.1,0-0.1,0.1-0.2,0.1
					c-0.2-0.1-0.4-0.1-0.6-0.2c0,0,0.1,0,0.1-0.1c0,0,0.1-0.1,0.2-0.1c0.1-0.1,0.2-0.1,0.3-0.2c0.1,0,0.1-0.1,0.1-0.1c0,0,0,0,0-0.1
					c0,0-0.1,0-0.2-0.1c-0.1,0-0.1,0-0.2,0c0,0-0.1,0-0.2,0c-0.1,0-0.1,0-0.2,0.1c-0.1,0-0.2,0.1-0.3,0.1c-0.1,0-0.2,0.1-0.2,0.1
					c-0.1,0-0.1,0-0.1,0.1c0,0-0.1,0-0.1,0c0,0,0,0,0,0c0,0,0,0,0,0.1c0,0,0,0.1,0.1,0.1c0,0.1,0.1,0.1,0.2,0.2
					c0.1,0.1,0.1,0.1,0.2,0.2c0,0.1,0.1,0.1,0.1,0.1c0,0,0,0.1,0,0.1c0,0,0,0-0.1,0.1c0,0-0.1,0.1-0.1,0.1c-0.1,0-0.1,0.1-0.2,0.1
					c-0.1,0-0.2,0.1-0.3,0.2c-0.1,0.1-0.3,0.1-0.4,0.2c-0.1,0-0.2,0.1-0.3,0.1c-0.1,0-0.2,0.1-0.3,0.1c-0.1,0-0.2,0-0.3,0
					c-0.1,0-0.2,0-0.3,0c-0.1,0-0.2,0-0.4-0.1c-0.3,0.1-0.6,0.3-0.8,0.4C72.8,134.4,72.7,134.3,72.5,134.3z"/>
			</g>
		</g>
		<g>
			<path class="st13" d="M96.9,143.4c0,0,0.1,0,0.1,0l-1-5.9L80,139.9l1.2,7.3l13-1.9C95,144.6,95.9,144,96.9,143.4z"/>
			<path class="st14" d="M95.5,144.3c0.1-0.4,0.4-0.8,0.9-0.8l-0.7-4.3c-0.6,0.1-1.1-0.3-1.2-0.8l-12.8,1.9c0.1,0.6-0.3,1.1-0.9,1.2
				l0.7,4.3c0.6-0.1,1.1,0.3,1.2,0.9l12.3-1.8C95.2,144.5,95.4,144.4,95.5,144.3z"/>
			<path class="st13" d="M91.6,141.9c0.3,1.6-0.9,3.1-2.5,3.4c-1.7,0.2-3.2-0.9-3.5-2.5c-0.3-1.6,0.9-3.1,2.5-3.4
				C89.8,139.2,91.3,140.3,91.6,141.9z"/>
			<path class="st13" d="M94.5,141.5c0.1,0.6-0.3,1.2-1,1.3l-9.6,1.4c-0.6,0.1-1.2-0.3-1.3-1l0,0c-0.1-0.6,0.3-1.2,1-1.3l9.6-1.4
				C93.8,140.5,94.4,140.9,94.5,141.5L94.5,141.5z"/>
			<path class="st15" d="M91.2,142c0.2,1.4-0.8,2.8-2.2,3c-1.5,0.2-2.8-0.8-3.1-2.2c-0.2-1.4,0.8-2.8,2.2-3
				C89.6,139.6,91,140.6,91.2,142z"/>
			<g>
				<path class="st14" d="M83.7,143.7l0-0.2c0,0-0.1,0-0.1,0c0,0,0,0-0.1,0c0,0,0,0,0-0.1c0,0,0-0.1,0-0.1c0,0,0,0,0-0.1
					c0,0,0,0,0,0l0.1,0c0,0,0,0,0,0.1c0,0,0,0.1,0,0.1c0,0,0,0,0,0c0,0,0,0,0,0c0,0,0,0,0,0c0,0,0,0,0,0c0,0,0,0,0,0c0,0,0,0,0,0
					c0,0,0,0,0-0.1c0,0,0,0,0-0.1c0,0,0,0,0,0c0,0,0,0,0,0c0,0,0,0,0,0c0,0,0,0-0.1,0c0,0,0,0-0.1,0c0,0,0,0,0,0c0,0,0,0,0,0
					c0,0,0,0,0,0c0,0,0,0,0,0c0,0,0,0,0-0.1c0,0,0-0.1,0-0.1c0-0.1,0-0.1,0-0.1c0,0,0-0.1,0-0.1c0,0,0,0,0,0c0,0,0,0,0.1,0l0-0.2
					l0.1,0l0,0.2c0,0,0.1,0,0.1,0c0,0,0,0,0.1,0c0,0,0,0,0,0.1c0,0,0,0.1,0,0.1c0,0,0,0,0,0.1c0,0,0,0,0,0l-0.1,0c0,0,0,0,0,0
					c0,0,0,0,0,0c0,0,0-0.1,0-0.1c0,0,0,0,0,0c0,0,0,0,0,0c0,0,0,0,0,0c0,0,0,0,0,0c0,0,0,0,0,0c0,0,0,0,0,0c0,0,0,0,0,0.1
					c0,0,0,0,0,0c0,0,0,0,0,0c0,0,0,0,0,0c0,0,0,0,0,0c0,0,0,0,0,0c0,0,0,0,0,0c0,0,0,0,0.1,0c0,0,0.1,0,0.1,0c0,0,0,0,0,0
					c0,0,0,0,0,0c0,0,0,0,0,0c0,0,0,0,0,0c0,0,0,0,0,0.1c0,0,0,0,0,0.1c0,0,0,0.1,0,0.1c0,0,0,0,0,0.1c0,0,0,0,0,0c0,0,0,0,0,0
					c0,0,0,0,0,0c0,0,0,0-0.1,0l0,0.2L83.7,143.7z"/>
			</g>
			<g>
				<path class="st14" d="M93.8,142.2l0-0.2c0,0-0.1,0-0.1,0c0,0,0,0-0.1,0c0,0,0,0,0-0.1c0,0,0-0.1,0-0.1c0,0,0,0,0-0.1
					c0,0,0,0,0,0l0.1,0c0,0,0,0,0,0.1c0,0,0,0.1,0,0.1c0,0,0,0,0,0c0,0,0,0,0,0c0,0,0,0,0,0c0,0,0,0,0,0c0,0,0,0,0,0c0,0,0,0,0,0
					c0,0,0,0,0-0.1c0,0,0,0,0-0.1c0,0,0,0,0,0c0,0,0,0,0,0c0,0,0,0,0,0c0,0,0,0-0.1,0c0,0,0,0-0.1,0c0,0,0,0-0.1,0c0,0,0,0,0,0
					c0,0,0,0,0,0c0,0,0,0,0,0c0,0,0,0,0-0.1c0,0,0-0.1,0-0.1c0-0.1,0-0.1,0-0.1c0,0,0-0.1,0-0.1c0,0,0,0,0,0c0,0,0,0,0.1,0l0-0.2
					l0.1,0l0,0.2c0,0,0.1,0,0.1,0c0,0,0,0,0.1,0c0,0,0,0,0,0.1c0,0,0,0.1,0,0.1c0,0,0,0,0,0.1c0,0,0,0,0,0l-0.1,0c0,0,0,0,0,0
					c0,0,0,0,0,0c0,0,0-0.1,0-0.1c0,0,0,0,0,0c0,0,0,0,0,0c0,0,0,0,0,0c0,0,0,0,0,0c0,0,0,0,0,0c0,0,0,0,0,0c0,0,0,0,0,0.1
					c0,0,0,0,0,0c0,0,0,0,0,0c0,0,0,0,0,0c0,0,0,0,0,0c0,0,0,0,0,0c0,0,0,0,0,0c0,0,0,0,0.1,0c0,0,0.1,0,0.1,0c0,0,0,0,0,0
					c0,0,0,0,0,0c0,0,0,0,0,0c0,0,0,0,0,0c0,0,0,0,0,0.1c0,0,0,0,0,0.1c0,0,0,0.1,0,0.1c0,0,0,0,0,0.1c0,0,0,0,0,0.1c0,0,0,0,0,0
					c0,0,0,0,0,0c0,0,0,0-0.1,0l0,0.2L93.8,142.2z"/>
			</g>
			<g>
				<path class="st13" d="M88.9,145l-0.1-0.8c-0.1,0-0.2,0-0.3,0c-0.1,0-0.1-0.1-0.2-0.1c-0.1-0.1-0.1-0.1-0.2-0.2
					c0-0.1-0.1-0.2-0.1-0.5c0-0.1,0-0.2,0-0.2c0-0.1,0-0.1,0-0.2l0.5-0.1c0,0.1,0,0.2,0,0.3c0,0.1,0,0.2,0.1,0.3
					c0,0.1,0,0.1,0.1,0.1c0,0,0.1,0,0.1,0.1c0,0,0.1,0,0.2,0c0.1,0,0.1,0,0.2,0c0,0,0.1-0.1,0.1-0.1c0-0.1,0-0.1,0-0.2
					c0-0.1,0-0.2,0-0.3c0-0.1,0-0.2,0-0.2c0,0,0-0.1-0.1-0.1c0,0,0-0.1-0.1-0.1c0,0-0.1,0-0.1-0.1c-0.1,0-0.1,0-0.2-0.1
					c-0.1,0-0.1,0-0.2-0.1c-0.1,0-0.1,0-0.2-0.1c-0.1,0-0.1,0-0.2-0.1c0,0-0.1-0.1-0.1-0.1c0,0-0.1-0.1-0.1-0.2
					c0-0.1-0.1-0.2-0.1-0.3c0-0.1-0.1-0.2-0.1-0.4c0-0.2,0-0.4,0-0.5c0-0.1,0.1-0.2,0.1-0.3c0-0.1,0.1-0.1,0.2-0.1
					c0.1,0,0.1-0.1,0.2-0.1l-0.1-0.7l0.4-0.1l0.1,0.7c0.1,0,0.2,0,0.3,0c0.1,0,0.1,0,0.2,0.1c0.1,0.1,0.1,0.1,0.2,0.2
					c0,0.1,0.1,0.2,0.1,0.4c0,0.1,0,0.2,0,0.3c0,0.1,0,0.1,0,0.2l-0.5,0.1c0,0,0-0.1,0-0.1c0,0,0-0.1,0-0.2c0-0.1,0-0.2-0.1-0.3
					c0-0.1-0.1-0.1-0.1-0.1c0,0-0.1,0-0.1,0c0,0-0.1,0-0.2,0c-0.1,0-0.1,0-0.1,0c0,0,0,0-0.1,0.1c0,0,0,0.1,0,0.2c0,0.1,0,0.2,0,0.3
					c0,0.1,0,0.1,0,0.2c0,0,0,0.1,0,0.1c0,0,0,0.1,0,0.1c0,0,0,0,0,0.1c0,0,0,0.1,0.1,0.1c0,0,0.1,0,0.2,0.1c0.1,0,0.2,0.1,0.3,0.1
					c0.1,0,0.2,0.1,0.3,0.1c0.1,0,0.1,0.1,0.2,0.1c0,0,0.1,0.1,0.1,0.1c0,0,0,0.1,0.1,0.1c0,0,0,0.1,0,0.1c0,0.1,0,0.1,0.1,0.2
					c0,0.1,0,0.2,0.1,0.3c0,0.1,0,0.2,0,0.3c0,0.1,0,0.2,0,0.3c0,0.1,0,0.1,0,0.2c0,0.1-0.1,0.1-0.1,0.2c0,0.1-0.1,0.1-0.2,0.2
					c-0.1,0-0.1,0.1-0.3,0.1l0.1,0.8L88.9,145z"/>
			</g>
		</g>
		<g>
			<polygon class="st13" points="79.2,129.6 63.1,131.9 61.9,124.6 78,122.2 			"/>
			<path class="st14" d="M78.3,128.1l-0.7-4.3c-0.6,0.1-1.1-0.3-1.2-0.9l-12.8,1.9c0.1,0.6-0.3,1.1-0.9,1.2l0.7,4.3
				c0.6-0.1,1.1,0.3,1.2,0.9l12.8-1.9C77.4,128.7,77.8,128.2,78.3,128.1z"/>
			<path class="st13" d="M73.6,126.6c0.3,1.6-0.9,3.1-2.5,3.4c-1.7,0.2-3.2-0.9-3.5-2.5c-0.3-1.6,0.9-3.1,2.5-3.4
				C71.7,123.9,73.3,125,73.6,126.6z"/>
			<path class="st13" d="M76.5,126.2c0.1,0.6-0.3,1.2-1,1.3l-9.6,1.4c-0.6,0.1-1.2-0.3-1.3-1l0,0c-0.1-0.6,0.3-1.2,1-1.3l9.6-1.4
				C75.8,125.2,76.4,125.6,76.5,126.2L76.5,126.2z"/>
			<path class="st15" d="M73.2,126.7c0.2,1.4-0.8,2.8-2.2,3c-1.5,0.2-2.8-0.8-3.1-2.2c-0.2-1.4,0.8-2.8,2.2-3
				C71.6,124.3,73,125.3,73.2,126.7z"/>
			<g>
				<path class="st14" d="M65.7,128.4l0-0.2c0,0-0.1,0-0.1,0c0,0,0,0-0.1,0c0,0,0,0,0-0.1c0,0,0-0.1,0-0.1c0,0,0,0,0-0.1
					c0,0,0,0,0,0l0.1,0c0,0,0,0,0,0.1c0,0,0,0.1,0,0.1c0,0,0,0,0,0c0,0,0,0,0,0c0,0,0,0,0,0c0,0,0,0,0,0c0,0,0,0,0,0c0,0,0,0,0,0
					c0,0,0,0,0-0.1c0,0,0,0,0-0.1c0,0,0,0,0,0c0,0,0,0,0,0c0,0,0,0,0,0c0,0,0,0,0,0c0,0,0,0-0.1,0c0,0,0,0-0.1,0c0,0,0,0,0,0
					c0,0,0,0,0,0c0,0,0,0,0,0c0,0,0,0,0-0.1c0,0,0-0.1,0-0.1c0-0.1,0-0.1,0-0.1c0,0,0-0.1,0-0.1c0,0,0,0,0,0c0,0,0,0,0.1,0l0-0.2
					l0.1,0l0,0.2c0,0,0.1,0,0.1,0c0,0,0,0,0.1,0c0,0,0,0,0,0.1c0,0,0,0.1,0,0.1c0,0,0,0,0,0.1c0,0,0,0,0,0l-0.1,0c0,0,0,0,0,0
					c0,0,0,0,0,0c0,0,0-0.1,0-0.1c0,0,0,0,0,0c0,0,0,0,0,0c0,0,0,0,0,0c0,0,0,0,0,0c0,0,0,0,0,0c0,0,0,0,0,0c0,0,0,0,0,0.1
					c0,0,0,0,0,0c0,0,0,0,0,0c0,0,0,0,0,0c0,0,0,0,0,0c0,0,0,0,0,0c0,0,0,0,0,0c0,0,0,0,0.1,0c0,0,0.1,0,0.1,0c0,0,0,0,0,0
					c0,0,0,0,0,0c0,0,0,0,0,0c0,0,0,0,0,0c0,0,0,0,0,0.1c0,0,0,0,0,0.1c0,0,0,0.1,0,0.1c0,0,0,0,0,0.1c0,0,0,0,0,0c0,0,0,0,0,0
					c0,0,0,0,0,0c0,0,0,0-0.1,0l0,0.2L65.7,128.4z"/>
			</g>
			<g>
				<path class="st14" d="M75.7,126.9l0-0.2c0,0-0.1,0-0.1,0c0,0,0,0-0.1,0c0,0,0,0,0-0.1c0,0,0-0.1,0-0.1c0,0,0,0,0-0.1
					c0,0,0,0,0,0l0.1,0c0,0,0,0,0,0.1c0,0,0,0.1,0,0.1c0,0,0,0,0,0c0,0,0,0,0,0c0,0,0,0,0,0c0,0,0,0,0,0c0,0,0,0,0,0c0,0,0,0,0,0
					c0,0,0,0,0-0.1c0,0,0,0,0-0.1c0,0,0,0,0,0c0,0,0,0,0,0c0,0,0,0,0,0c0,0,0,0,0,0c0,0,0,0-0.1,0c0,0,0,0-0.1,0c0,0,0,0,0,0
					c0,0,0,0,0,0c0,0,0,0,0,0c0,0,0,0,0-0.1c0,0,0-0.1,0-0.1c0-0.1,0-0.1,0-0.1c0,0,0-0.1,0-0.1c0,0,0,0,0,0c0,0,0,0,0.1,0l0-0.2
					l0.1,0l0,0.2c0,0,0.1,0,0.1,0c0,0,0,0,0.1,0c0,0,0,0,0,0.1c0,0,0,0.1,0,0.1c0,0,0,0,0,0.1c0,0,0,0,0,0l-0.1,0c0,0,0,0,0,0
					c0,0,0,0,0,0c0,0,0-0.1,0-0.1c0,0,0,0,0,0c0,0,0,0,0,0c0,0,0,0,0,0c0,0,0,0,0,0c0,0,0,0,0,0c0,0,0,0,0,0c0,0,0,0,0,0.1
					c0,0,0,0,0,0c0,0,0,0,0,0c0,0,0,0,0,0c0,0,0,0,0,0c0,0,0,0,0,0c0,0,0,0,0,0c0,0,0,0,0.1,0c0,0,0.1,0,0.1,0c0,0,0,0,0,0
					c0,0,0,0,0,0c0,0,0,0,0,0c0,0,0,0,0,0c0,0,0,0,0,0.1c0,0,0,0,0,0.1c0,0,0,0.1,0,0.1c0,0,0,0,0,0.1c0,0,0,0,0,0c0,0,0,0,0,0
					c0,0,0,0,0,0c0,0,0,0-0.1,0l0,0.2L75.7,126.9z"/>
			</g>
			<g>
				<path class="st13" d="M70.9,129.7l-0.1-0.8c-0.1,0-0.2,0-0.3,0c-0.1,0-0.1-0.1-0.2-0.1c-0.1-0.1-0.1-0.1-0.2-0.2
					c0-0.1-0.1-0.2-0.1-0.5c0-0.1,0-0.2,0-0.2c0-0.1,0-0.1,0-0.2l0.5-0.1c0,0.1,0,0.2,0,0.3c0,0.1,0,0.2,0.1,0.3
					c0,0.1,0,0.1,0.1,0.1c0,0,0.1,0,0.1,0.1c0,0,0.1,0,0.2,0c0.1,0,0.1,0,0.2,0c0,0,0.1-0.1,0.1-0.1c0-0.1,0-0.1,0-0.2
					c0-0.1,0-0.2,0-0.3c0-0.1,0-0.2,0-0.2c0,0,0-0.1-0.1-0.1c0,0,0-0.1-0.1-0.1c0,0-0.1,0-0.2-0.1c-0.1,0-0.1,0-0.2-0.1
					c-0.1,0-0.1,0-0.2-0.1c-0.1,0-0.1,0-0.2-0.1c-0.1,0-0.1,0-0.2-0.1c0,0-0.1-0.1-0.1-0.1c0,0-0.1-0.1-0.1-0.2
					c0-0.1-0.1-0.2-0.1-0.3c0-0.1-0.1-0.2-0.1-0.4c0-0.2,0-0.4,0-0.5c0-0.1,0.1-0.2,0.1-0.3c0-0.1,0.1-0.1,0.2-0.1
					c0.1,0,0.1-0.1,0.2-0.1l-0.1-0.7l0.4-0.1l0.1,0.7c0.1,0,0.2,0,0.3,0c0.1,0,0.1,0,0.2,0.1c0.1,0.1,0.1,0.1,0.2,0.2
					c0,0.1,0.1,0.2,0.1,0.4c0,0.1,0,0.2,0,0.3c0,0.1,0,0.1,0,0.2l-0.5,0.1c0,0,0-0.1,0-0.1c0,0,0-0.1,0-0.2c0-0.1,0-0.2-0.1-0.3
					c0-0.1-0.1-0.1-0.1-0.1c0,0-0.1,0-0.1,0c0,0-0.1,0-0.2,0c-0.1,0-0.1,0-0.1,0c0,0,0,0-0.1,0.1c0,0,0,0.1,0,0.2c0,0.1,0,0.2,0,0.3
					c0,0.1,0,0.1,0,0.2c0,0,0,0.1,0,0.1c0,0,0,0.1,0,0.1c0,0,0,0,0,0.1c0,0,0,0.1,0.1,0.1c0,0,0.1,0,0.2,0.1c0.1,0,0.2,0.1,0.3,0.1
					c0.1,0,0.2,0.1,0.3,0.1c0.1,0,0.1,0.1,0.2,0.1c0,0,0.1,0.1,0.1,0.1c0,0,0,0.1,0.1,0.1c0,0,0,0.1,0,0.1c0,0.1,0,0.1,0.1,0.2
					c0,0.1,0,0.2,0.1,0.3c0,0.1,0,0.2,0,0.3c0,0.1,0,0.2,0,0.3c0,0.1,0,0.1,0,0.2c0,0.1,0,0.1-0.1,0.2c0,0.1-0.1,0.1-0.2,0.2
					c-0.1,0-0.1,0.1-0.3,0.1l0.1,0.8L70.9,129.7z"/>
			</g>
		</g>
	</g>
</g>
</svg>
