<?xml version="1.0" encoding="utf-8"?>
<!-- Generator: Adobe Illustrator 24.3.0, SVG Export Plug-In . SVG Version: 6.00 Build 0)  -->
<svg version="1.1" id="Layer_1" xmlns="http://www.w3.org/2000/svg" xmlns:xlink="http://www.w3.org/1999/xlink" x="0px" y="0px"
	 viewBox="0 0 150 150" style="enable-background:new 0 0 150 150;" xml:space="preserve">
<style type="text/css">
	.st0{fill:#CBE5F6;}
	.st1{fill:#7AC9EF;}
	.st2{fill:#475DA8;}
	.st3{fill:#ABBADF;}
	.st4{fill:#F18625;}
	.st5{fill:#E8F1F8;}
	.st6{fill:#FED018;}
	.st7{fill:#494849;}
	.st8{fill:#EA504B;}
</style>
<g>
	<path class="st0" d="M104.2,131.7H36.9c-5.4,0-9.8-4.4-9.8-9.8V21.7c0-5.4,4.4-9.8,9.8-9.8h67.3c5.4,0,9.8,4.4,9.8,9.8v100.2
		C114,127.3,109.6,131.7,104.2,131.7z"/>
	<path class="st1" d="M112.6,119.9v2.3c0,5.4-4.4,9.8-9.8,9.8H27c-5.4,0-9.8-4.4-9.8-9.8c-0.1-2.1-0.1-4.2-0.2-6.2
		c1.3,1.1,3.8,2.7,7.2,3.5c2.6,0.6,4.9,0.6,6.4,0.5C58,119.9,85.3,119.9,112.6,119.9z"/>
	<path class="st2" d="M128.6,138.1H81.4c-2.4,0-4.3-1.9-4.3-4.3V73.9c0-2.4,1.9-4.3,4.3-4.3h47.2c2.4,0,4.3,1.9,4.3,4.3v59.9
		C132.9,136.1,131,138.1,128.6,138.1z"/>
	<path class="st3" d="M122,93.9H88c-2.9,0-5.3-2.4-5.3-5.3v-8.3c0-2.9,2.4-5.3,5.3-5.3H122c2.9,0,5.3,2.4,5.3,5.3v8.3
		C127.3,91.6,124.9,93.9,122,93.9z"/>
	<path class="st4" d="M95.5,106.3H84.2c-0.8,0-1.5-0.7-1.5-1.5v-7.3c0-0.8,0.7-1.5,1.5-1.5h11.3c0.8,0,1.5,0.7,1.5,1.5v7.3
		C97,105.6,96.3,106.3,95.5,106.3z"/>
	<path class="st5" d="M111.1,106.3H99.8c-0.8,0-1.5-0.7-1.5-1.5v-7.3c0-0.8,0.7-1.5,1.5-1.5h11.3c0.8,0,1.5,0.7,1.5,1.5v7.3
		C112.6,105.6,111.9,106.3,111.1,106.3z"/>
	<path class="st5" d="M126.6,106.3h-11.3c-0.8,0-1.5-0.7-1.5-1.5v-7.3c0-0.8,0.7-1.5,1.5-1.5h11.3c0.8,0,1.5,0.7,1.5,1.5v7.3
		C128.2,105.6,127.5,106.3,126.6,106.3z"/>
	<path class="st5" d="M95.5,118.3H84.2c-0.8,0-1.5-0.7-1.5-1.5v-7.3c0-0.8,0.7-1.5,1.5-1.5h11.3c0.8,0,1.5,0.7,1.5,1.5v7.3
		C97,117.6,96.3,118.3,95.5,118.3z"/>
	<path class="st5" d="M111.1,118.3H99.8c-0.8,0-1.5-0.7-1.5-1.5v-7.3c0-0.8,0.7-1.5,1.5-1.5h11.3c0.8,0,1.5,0.7,1.5,1.5v7.3
		C112.6,117.6,111.9,118.3,111.1,118.3z"/>
	<path class="st5" d="M95.5,130.4H84.2c-0.8,0-1.5-0.7-1.5-1.5v-7.3c0-0.8,0.7-1.5,1.5-1.5h11.3c0.8,0,1.5,0.7,1.5,1.5v7.3
		C97,129.7,96.3,130.4,95.5,130.4z"/>
	<path class="st5" d="M111.1,130.4H99.8c-0.8,0-1.5-0.7-1.5-1.5v-7.3c0-0.8,0.7-1.5,1.5-1.5h11.3c0.8,0,1.5,0.7,1.5,1.5v7.3
		C112.6,129.7,111.9,130.4,111.1,130.4z"/>
	<path class="st6" d="M126.6,130.4h-11.3c-0.8,0-1.5-0.7-1.5-1.5v-19.4c0-0.8,0.7-1.5,1.5-1.5h11.3c0.8,0,1.5,0.7,1.5,1.5v19.4
		C128.2,129.7,127.5,130.4,126.6,130.4z"/>
	<path class="st7" d="M65.3,112.7h-29c-1.2,0-2.2-1-2.2-2.2v-5.1c0-1.2,1-2.2,2.2-2.2h29c1.2,0,2.2,1,2.2,2.2v5.1
		C67.5,111.7,66.5,112.7,65.3,112.7z"/>
	<path class="st7" d="M65.3,95.7h-29c-1.2,0-2.2-1-2.2-2.2v-5.1c0-1.2,1-2.2,2.2-2.2h29c1.2,0,2.2,1,2.2,2.2v5.1
		C67.5,94.7,66.5,95.7,65.3,95.7z"/>
	<path class="st7" d="M65.3,78.8h-29c-1.2,0-2.2-1-2.2-2.2v-5.1c0-1.2,1-2.2,2.2-2.2h29c1.2,0,2.2,1,2.2,2.2v5.1
		C67.5,77.8,66.5,78.8,65.3,78.8z"/>
	<g>
		<g>
			<rect x="39.2" y="26.2" class="st8" width="9.9" height="33.3"/>
			<rect x="52.4" y="29.8" class="st8" width="9.9" height="29.7"/>
			<rect x="65.6" y="35.1" class="st8" width="9.9" height="24.4"/>
			<rect x="78.9" y="40.9" class="st8" width="9.9" height="18.6"/>
			<rect x="92.1" y="49.7" class="st8" width="9.9" height="9.9"/>
		</g>
	</g>
	<g>
		<path d="M123.8,84.3c0,4.1-1.6,6.4-4.2,6.4c-2.4,0-4-2.2-4-6.3c0-4.1,1.8-6.3,4.3-6.3C122.4,78.2,123.8,80.5,123.8,84.3z
			 M117.2,84.5c0,3.2,1,5,2.5,5c1.7,0,2.5-2,2.5-5.1c0-3-0.7-5-2.5-5C118.3,79.5,117.2,81.2,117.2,84.5z"/>
	</g>
</g>
</svg>
