<?xml version="1.0" encoding="utf-8"?>
<!-- Generator: Adobe Illustrator 24.3.0, SVG Export Plug-In . SVG Version: 6.00 Build 0)  -->
<svg version="1.1" id="Layer_1" xmlns="http://www.w3.org/2000/svg" xmlns:xlink="http://www.w3.org/1999/xlink" x="0px" y="0px"
	 viewBox="0 0 150 150" style="enable-background:new 0 0 150 150;" xml:space="preserve">
<g>
	<g>
		<path d="M112.5,110.9H46.2c-2.1,0-4-1.2-4.9-3.1L18.5,60.2c-0.8-1.7-0.7-3.6,0.3-5.2c1-1.6,2.7-2.5,4.6-2.5h103.1L112.5,110.9z
			 M23.4,55.1c-1,0-1.8,0.5-2.3,1.3c-0.5,0.8-0.6,1.8-0.2,2.6l22.9,47.7c0.5,0.9,1.4,1.6,2.5,1.6h64.1l12.7-53.1H23.4z"/>
	</g>
	<g>
		<path d="M101.5,119.9H34.3c-1.1,0-2-0.9-2-2s0.9-2,2-2h67.2c4.1,0,7.6-2.8,8.6-6.8l16.1-66.4c0.6-2.4,2.2-4.3,4.4-5.4l10.6-4.9
			c1-0.5,2.2,0,2.7,1c0.5,1,0,2.2-1,2.7L132.3,41c-1.1,0.5-1.9,1.5-2.2,2.7L114,110.1C112.6,115.8,107.5,119.9,101.5,119.9z"/>
	</g>
	<path d="M88.4,126.1c0,3,2.4,5.4,5.4,5.4c3,0,5.4-2.4,5.4-5.4s-2.4-5.4-5.4-5.4C90.9,120.6,88.4,123.1,88.4,126.1z M90,126.1
		c0-2.1,1.7-3.9,3.9-3.9c2.1,0,3.9,1.7,3.9,3.9c0,2.1-1.7,3.9-3.9,3.9C91.7,129.9,90,128.2,90,126.1z"/>
	<path d="M40.6,126.1c0,3,2.4,5.4,5.4,5.4s5.4-2.4,5.4-5.4s-2.4-5.4-5.4-5.4S40.6,123.1,40.6,126.1z M42.2,126.1
		c0-2.1,1.7-3.9,3.9-3.9c2.1,0,3.9,1.7,3.9,3.9c0,2.1-1.7,3.9-3.9,3.9C43.9,129.9,42.2,128.2,42.2,126.1z"/>
	<g>
		<g>
			<path d="M37.8,53.8c0,4.5,0.9,8.9,2.6,12.9c0.2,0.5,0.5,1.1,0.7,1.6C46.9,80.3,59.6,88.8,74.4,89c0.2,0,0.4,0,0.5,0
				c0.2,0,0.4,0,0.5,0c14.8-0.2,27.5-8.7,33.3-20.8c0.3-0.5,0.5-1.1,0.7-1.6c1.7-4,2.6-8.3,2.6-12.9c0-4.5-0.9-8.9-2.6-12.9
				c-0.2-0.5-0.5-1.1-0.7-1.6C103,27.2,90.3,18.7,75.5,18.5c-0.2,0-0.4,0-0.5,0c-0.2,0-0.4,0-0.5,0c-14.8,0.2-27.5,8.7-33.3,20.8
				c-0.3,0.5-0.5,1.1-0.7,1.6C38.7,44.9,37.8,49.2,37.8,53.8z M39.5,53.8c0-4.6,1-8.9,2.7-12.9c0.2-0.6,0.5-1.1,0.8-1.6
				c4.7-9.2,13.7-16.2,24.5-18.4c2.3-0.5,4.6-0.7,7-0.8c0.2,0,0.3,0,0.5,0s0.3,0,0.5,0c2.4,0,4.8,0.3,7,0.8
				c10.8,2.2,19.8,9.1,24.5,18.4c0.3,0.5,0.5,1.1,0.8,1.6c1.7,4,2.7,8.3,2.7,12.9c0,4.6-1,8.9-2.7,12.9c-0.2,0.5-0.5,1.1-0.8,1.6
				c-4.7,9.2-13.7,16.2-24.5,18.4c-2.3,0.5-4.6,0.7-7,0.8c-0.2,0-0.3,0-0.5,0s-0.3,0-0.5,0c-2.4,0-4.8-0.3-7-0.8
				c-10.8-2.2-19.8-9.1-24.5-18.4c-0.3-0.5-0.5-1.1-0.8-1.6C40.4,62.7,39.5,58.3,39.5,53.8z"/>
		</g>
		<g>
			<path d="M54.1,53.8c0,4.5,0.5,8.9,1.4,12.9c0.1,0.6,0.3,1.1,0.4,1.6c2.2,8.4,6.4,15,11.4,18.4c2.2,1.4,4.5,2.3,7,2.4
				c0.2,0,0.4,0,0.5,0c0.2,0,0.4,0,0.5,0c2.5-0.1,4.8-0.9,7-2.4c5.1-3.3,9.2-10,11.4-18.4c0.1-0.5,0.3-1.1,0.4-1.6
				c0.9-4,1.4-8.3,1.4-12.9c0-4.5-0.5-8.9-1.4-12.9c-0.1-0.6-0.3-1.1-0.4-1.6c-2.2-8.4-6.4-15-11.4-18.4c-2.2-1.4-4.5-2.3-7-2.4
				c-0.2,0-0.4,0-0.5,0c-0.2,0-0.4,0-0.5,0c-2.5,0.1-4.8,0.9-7,2.4c-5.1,3.3-9.2,10-11.4,18.4c-0.1,0.5-0.3,1.1-0.4,1.6
				C54.6,44.9,54.1,49.2,54.1,53.8z M57.2,66.6c-0.9-4-1.5-8.3-1.5-12.9c0-4.6,0.5-8.9,1.5-12.9c0.1-0.6,0.3-1.1,0.4-1.6
				c3-11.1,9.4-18.8,16.8-19.1c0.2,0,0.3,0,0.5,0s0.3,0,0.5,0c7.4,0.3,13.8,8.1,16.8,19.1c0.1,0.5,0.3,1.1,0.4,1.6
				c0.9,4,1.5,8.3,1.5,12.9c0,4.6-0.5,8.9-1.5,12.9c-0.1,0.5-0.3,1.1-0.4,1.6c-3,11.1-9.4,18.8-16.8,19.1c-0.2,0-0.3,0-0.5,0
				s-0.3,0-0.5,0c-7.4-0.3-13.8-8.1-16.8-19.1C57.5,67.7,57.3,67.2,57.2,66.6z"/>
		</g>
		<g>
			<g>
				<path d="M40.4,40.9h69.1c-0.2-0.5-0.5-1.1-0.7-1.6H41.1C40.9,39.8,40.6,40.3,40.4,40.9z"/>
			</g>
			<g>
				<path d="M40.4,66.6c0.2,0.5,0.5,1.1,0.7,1.6h67.6c0.3-0.5,0.5-1.1,0.7-1.6H40.4z"/>
			</g>
		</g>
	</g>
</g>
</svg>
