<?xml version="1.0" encoding="utf-8"?>
<!-- Generator: Adobe Illustrator 24.3.0, SVG Export Plug-In . SVG Version: 6.00 Build 0)  -->
<svg version="1.1" id="Layer_1" xmlns="http://www.w3.org/2000/svg" xmlns:xlink="http://www.w3.org/1999/xlink" x="0px" y="0px"
	 viewBox="0 0 150 150" style="enable-background:new 0 0 150 150;" xml:space="preserve">
<g>
	<g>
		<path d="M20.1,120.8c-1.7,0-3.5-0.5-4.9-1.6c-3.1-2.2-4.2-5.9-2.9-10c0.4-1.2,0.8-2.3,1.1-3.5c0.6-1.7,1.2-3.5,1.6-5.2
			c0.1-0.6,0-1.5-0.4-2.1c-2.6-3.8-2.3-7.3,1.1-10.4c0.5-0.5,0.9-1.5,0.9-2.3c0.1-8.8,0.1-17.6,0-26.4c-0.1-4.2,1.7-7.3,5.6-9.3
			C39,41.5,55.9,32.6,72.6,23.7c3.2-1.7,6.3-1.8,9.6-0.1c8.4,4.4,16.8,8.8,25.2,13.2c8.6,4.5,17.1,9,25.6,13.5
			c3.3,1.7,5,4.3,5.1,7.6c0.1,3.5-1.6,6.3-5,8c-8.5,4.5-17.1,8.9-25.6,13.4c-8.6,4.5-17.1,9-25.7,13.5c-3,1.6-6,1.5-9.6-0.4
			c-7.8-4.1-15.7-8.3-23.5-12.4c-7.9-4.1-15.7-8.3-23.6-12.4c-0.5-0.2-1.1-0.5-1.7-0.9c0,6.9,0,13.5,0.1,20c0,0.2,0.3,0.8,0.8,1.3
			c3.5,3.3,3.8,6.8,1,10.6c-0.3,0.4-0.5,1.2-0.3,1.8c0.6,2.2,1.4,4.5,2.1,6.7c0.3,0.8,0.5,1.5,0.8,2.3c1.3,4.2,0.3,7.7-3,10
			C23.4,120.3,21.7,120.8,20.1,120.8z M77.5,24.4c-1.3,0-2.6,0.4-4,1.1c-16.7,8.9-33.7,17.7-50.4,26.4c-3.2,1.7-4.6,4-4.6,7.5
			c0.1,8.8,0.1,17.7,0,26.4c0,1.3-0.6,2.8-1.5,3.7c-2.6,2.4-2.9,4.9-0.8,7.8c0.7,1.1,0.9,2.5,0.7,3.7c-0.5,1.8-1.1,3.6-1.7,5.3
			c-0.4,1.2-0.8,2.3-1.1,3.5c-1.1,3.3-0.3,6.1,2.1,7.8c2.2,1.6,5.2,1.7,7.4,0.1c2.5-1.8,3.3-4.5,2.2-7.8c-0.2-0.7-0.5-1.5-0.8-2.2
			c-0.8-2.2-1.5-4.5-2.2-6.8c-0.3-1.1,0-2.5,0.7-3.4c2.2-3,2-5.3-0.8-8c-0.5-0.5-1.4-1.6-1.4-2.7c-0.1-7-0.1-14.1-0.1-21.6v-1.6
			l1.4,0.7c0.5,0.3,1,0.5,1.4,0.7c0.7,0.3,1.2,0.6,1.8,0.9c7.9,4.2,15.8,8.3,23.6,12.4c7.8,4.1,15.7,8.2,23.5,12.4
			c3,1.5,5.4,1.7,7.8,0.4c8.6-4.5,17.1-9,25.7-13.5c8.5-4.5,17.1-8.9,25.6-13.4c2.8-1.4,4-3.4,4-6.2c-0.1-2.6-1.4-4.5-4.1-5.8
			c-8.5-4.5-17.1-9-25.6-13.5c-8.4-4.4-16.8-8.8-25.2-13.2C80,24.7,78.8,24.4,77.5,24.4z"/>
	</g>
	<g>
		<path d="M77.5,127.7c-1.6,0-3.2-0.4-4.9-1.3c-12-6.5-24-12.7-35.1-18.5c-3.9-2-5.6-4.9-5.6-9.1C32,91.9,32,85.1,32,78
			c0-0.6,0.1-1.2,0.1-1.8l0.2-2.2l1.3,0.7c0.5,0.3,1,0.5,1.5,0.8c0.5,0.2,0.9,0.5,1.4,0.7c11.6,5.9,23.3,12.1,34.7,18.1l0.2,0.1
			c4.2,2.2,8,2.2,11.9,0C95.1,88.2,107,82,118.5,76c0.8-0.4,1.6-0.8,2.9-1.4l1.3-0.6l0.2,2.2c0.1,0.8,0.1,1.4,0.1,2.2
			c0,2.2,0,4.5,0,6.7c0,4.3,0,8.8,0,13.3c0.1,4.4-1.8,7.6-5.7,9.6l-0.3,0.2c-11.4,5.9-23.2,12.1-34.8,18.2
			C80.7,127.2,79.1,127.7,77.5,127.7z M34,77.2c0,0.3,0,0.6,0,0.8c0,7.2,0,13.9-0.1,20.8c0,3.4,1.4,5.6,4.6,7.3
			c11.2,5.8,23.1,12,35.1,18.5c2.8,1.4,5.1,1.4,7.8,0c11.6-6.1,23.4-12.3,34.8-18.2l0.3-0.2c3.3-1.7,4.8-4.1,4.7-7.8
			c-0.1-4.5,0-9,0-13.3c0-2.2,0-4.4,0-6.7c0-0.5,0-0.9-0.1-1.4c-0.6,0.3-1.1,0.5-1.6,0.8C108,83.8,96.1,90,84.4,96.2
			c-4.5,2.5-9,2.5-13.8,0l-0.2-0.1c-11.3-6-23-12.1-34.7-18.1c-0.5-0.3-0.9-0.5-1.4-0.7C34.2,77.2,34.1,77.2,34,77.2z"/>
	</g>
</g>
</svg>
