<?xml version="1.0" encoding="utf-8"?>
<!-- Generator: Adobe Illustrator 24.3.0, SVG Export Plug-In . SVG Version: 6.00 Build 0)  -->
<svg version="1.1" id="Layer_1" xmlns="http://www.w3.org/2000/svg" xmlns:xlink="http://www.w3.org/1999/xlink" x="0px" y="0px"
	 viewBox="0 0 150 150" style="enable-background:new 0 0 150 150;" xml:space="preserve">
<style type="text/css">
	.st0{fill:#E2DEE2;}
	.st1{fill:#A1D9F0;}
	.st2{fill:#EF7D87;}
</style>
<g>
	<path class="st0" d="M81.8,104.2c-16.5,0-29.9-13-29.9-29.1C51.9,59,65.3,46,81.8,46c0.2,0,0.7,0,1.1,0V7.8h-5.5
		c-1.3,0-2.3,1.1-2.3,2.4v5.5c0,1.1-0.8,2.1-1.9,2.3c-8.7,1.5-16.7,4.9-23.6,9.8c-0.9,0.7-2.2,0.6-3-0.3l-3.9-3.9
		c-0.9-0.9-2.4-0.9-3.3,0l-7.8,7.8c-0.9,0.9-0.9,2.4,0,3.3l3.9,3.9c0.8,0.8,0.9,2.1,0.3,3c-4.9,6.9-8.3,14.9-9.8,23.6
		c-0.2,1.1-1.2,1.9-2.3,1.9h-5.5c-1.3,0-2.4,1-2.4,2.3v11c0,1.3,1.1,2.4,2.4,2.4h5.5c1.1,0,2.1,0.8,2.3,1.9
		c1.5,8.7,4.9,16.7,9.8,23.6c0.7,0.9,0.5,2.2-0.3,3l-3.9,3.9c-0.9,0.9-0.9,2.4,0,3.3l7.8,7.8c0.9,0.9,2.4,0.9,3.3,0l3.9-3.9
		c0.8-0.8,2.1-0.9,3-0.3c6.9,4.9,14.9,8.3,23.6,9.8c1.1,0.2,1.9,1.2,1.9,2.3v5.5c0,1.3,1,2.3,2.3,2.3h5.5v-38
		C82.5,104.2,82.1,104.2,81.8,104.2z"/>
	<path class="st1" d="M116.8,91H72.3c-7.1,0-12.9-5.8-12.9-12.9v-6.3c0-7.1,5.8-12.9,12.9-12.9h44.6c7.1,0,12.9,5.8,12.9,12.9v6.3
		C129.7,85.3,123.9,91,116.8,91z"/>
	<g>
		<path d="M78.4,76.4h-5c-0.4,0-0.7,0.3-0.7,0.7v2.8c0,0.4,0.3,0.7,0.7,0.7h5.8c0.4,0,0.7,0.3,0.7,0.7V83c0,0.4-0.3,0.7-0.7,0.7
			h-9.6c-0.4,0-0.7-0.3-0.7-0.7V67.1c0-0.4,0.3-0.7,0.7-0.7h9.3c0.4,0,0.7,0.3,0.7,0.7V69c0,0.4-0.3,0.7-0.7,0.7h-5.4
			c-0.4,0-0.7,0.3-0.7,0.7v2.3c0,0.4,0.3,0.7,0.7,0.7h5c0.4,0,0.7,0.3,0.7,0.7v1.8C79.1,76.1,78.8,76.4,78.4,76.4z"/>
		<path d="M87.6,67.3c0-0.3,0.2-0.6,0.6-0.7c1.2-0.2,2.8-0.3,4.6-0.3c2.6,0,4.3,0.4,5.6,1.4c1,0.8,1.6,2,1.6,3.6
			c0,2.2-1.6,3.7-3,4.2v0.1c1.2,0.5,1.9,1.6,2.3,3.2c0.4,1.4,0.8,3,1.1,4c0.1,0.4-0.2,0.8-0.6,0.8h-2.6c-0.3,0-0.5-0.2-0.6-0.4
			c-0.3-0.7-0.6-1.9-1-3.6c-0.5-2.2-1.2-2.7-2.8-2.8h-0.5c-0.4,0-0.7,0.3-0.7,0.7V83c0,0.4-0.3,0.7-0.7,0.7h-2.5
			c-0.4,0-0.7-0.3-0.7-0.7V67.3z M91.5,73.4c0,0.4,0.3,0.7,0.7,0.7H93c1.9,0,3.1-1,3.1-2.5c0-1.6-1.1-2.4-2.9-2.4
			c-0.5,0-0.9,0-1.2,0c-0.3,0-0.6,0.3-0.6,0.7V73.4z"/>
		<path d="M107.9,67.3c0-0.3,0.2-0.6,0.6-0.7c1.1-0.2,2.7-0.3,4.7-0.3c2.4,0,4.1,0.5,5.3,1.4c1.1,0.9,1.8,2.3,1.8,4
			c0,1.7-0.5,3.1-1.6,4.1c-1.3,1.2-3.3,1.8-5.6,1.8c-0.2,0-0.4,0-0.6,0c-0.4,0-0.7,0.3-0.7,0.7V83c0,0.4-0.3,0.7-0.7,0.7h-2.5
			c-0.4,0-0.7-0.3-0.7-0.7V67.3z M111.7,73.9c0,0.3,0.3,0.6,0.6,0.7c0.2,0,0.4,0,0.7,0c2.1,0,3.3-1,3.3-2.8c0-1.6-1.1-2.5-3.1-2.5
			c-0.4,0-0.7,0-1,0c-0.3,0-0.6,0.3-0.6,0.7V73.9z"/>
	</g>
	<g>
		<g>
			<rect x="82.9" y="14.6" width="32.6" height="1.8"/>
		</g>
		<circle class="st2" cx="119.4" cy="15.5" r="3.9"/>
	</g>
	<g>
		<g>
			<rect x="82.9" y="37.2" width="32.6" height="1.8"/>
		</g>
		<circle class="st2" cx="119.4" cy="38.1" r="3.9"/>
	</g>
	<g>
		<g>
			<rect x="82.9" y="25.9" width="43.6" height="1.8"/>
		</g>
		<circle class="st2" cx="130.3" cy="26.8" r="3.9"/>
	</g>
	<g>
		<g>
			<rect x="82.9" y="134.5" width="32.6" height="1.8"/>
		</g>
		<circle class="st2" cx="119.4" cy="135.4" r="3.9"/>
	</g>
	<g>
		<g>
			<rect x="82.9" y="110.4" width="32.6" height="1.8"/>
		</g>
		<circle class="st2" cx="119.4" cy="111.3" r="3.9"/>
	</g>
	<g>
		<g>
			<rect x="82.9" y="122.4" width="43.6" height="1.8"/>
		</g>
		<circle class="st2" cx="130.3" cy="123.3" r="3.9"/>
	</g>
</g>
</svg>
