<?xml version="1.0" encoding="utf-8"?>
<!-- Generator: Adobe Illustrator 24.3.0, SVG Export Plug-In . SVG Version: 6.00 Build 0)  -->
<svg version="1.1" id="Layer_1" xmlns="http://www.w3.org/2000/svg" xmlns:xlink="http://www.w3.org/1999/xlink" x="0px" y="0px"
	 viewBox="0 0 150 150" style="enable-background:new 0 0 150 150;" xml:space="preserve">
<style type="text/css">
	.st0{fill:#020202;}
	.st1{fill:none;stroke:#020202;stroke-width:3;stroke-miterlimit:10;}
	.st2{fill:none;stroke:#020202;stroke-width:4;stroke-linecap:round;stroke-miterlimit:10;}
	.st3{fill:none;stroke:#020202;stroke-miterlimit:10;}
</style>
<g>
	<g>
		<path class="st0" d="M52.1,127.1h-8.7v-5.8h-2.6v5.8H32c-1,0-1.8,0.8-1.8,1.8s0.8,1.8,1.8,1.8h20.1c1,0,1.8-0.8,1.8-1.8
			S53.1,127.1,52.1,127.1z"/>
		<path class="st0" d="M31.3,50.2h9.4v21.4h2.6V50.2h9.4c0.4,0,0.7-0.2,1-0.4c0.2-0.3,0.4-0.7,0.3-1l-1.8-17.2
			c-0.1-0.7-0.6-1.2-1.3-1.2H33.5c-0.7,0-1.2,0.5-1.3,1.2L30,48.7c0,0.4,0.1,0.8,0.3,1.1C30.6,50,31,50.2,31.3,50.2z M33.1,31.6
			c0-0.2,0.2-0.4,0.5-0.4H51c0.2,0,0.4,0.2,0.5,0.4l1.8,17.2c0,0.1,0,0.3-0.1,0.4c-0.1,0.1-0.2,0.1-0.3,0.1H31.3
			c-0.1,0-0.3-0.1-0.3-0.1c-0.1-0.1-0.1-0.2-0.1-0.4L33.1,31.6z"/>
	</g>
	<path class="st0" d="M86.8,103.4v-2.5c0-4.3-2.7-7.9-6.6-9.3l0.1-0.6l0-0.2l0.3-2.4l0-0.2l1.2-10.6c0.2-2.2-0.5-4.4-1.9-6
		c-1.5-1.6-3.6-2.6-5.8-2.6h-4.9H27.6c-2.2,0-4.2,0.9-5.7,2.5c-1.5,1.6-2.2,3.7-2,5.9L21,91.6c-3.8,1.4-6.6,5-6.6,9.3v2.5
		c0,1.6,0.7,3.1,1.8,4c-1.1,1-1.8,2.4-1.8,4v7.1c0,3,2.4,5.4,5.4,5.4h0.1v7.5h8.9l2.6-7.5h37.8h2.1l1.1,3.2l0.9,2.6l0.6,1.8h8.9
		v-7.7c2.3-0.6,3.9-2.7,3.9-5.2v-7.1c0-0.4-0.1-0.8-0.2-1.2c-0.2-1-0.8-1.9-1.5-2.6c-0.1-0.1-0.1-0.1-0.2-0.2
		C86.1,106.5,86.8,105,86.8,103.4z M23.9,73.2c1-1.1,2.3-1.6,3.8-1.6h41.6h4.9c1.5,0,2.9,0.6,3.8,1.7c1,1.1,1.4,2.5,1.3,4L78,88.2
		l0,0.2l-0.3,2.4l0,0.2v0h-0.8h-7.7H43.4H24.3h-0.8l-1.1-13.9C22.4,75.6,22.9,74.3,23.9,73.2z M26.9,128.9h-4.4V124h6.1L26.9,128.9z
		 M80.3,128.9h-4.4l-0.6-1.8l-1.1-3.2h6.1V128.9z M84.2,118.6c0,1.5-1.2,2.7-2.7,2.7h-11h-1.2H32.3H19.9h-0.1
		c-1.5,0-2.7-1.2-2.7-2.7v-7.1c0-1.4,1.1-2.6,2.5-2.7h0c0.1,0,0.2,0,0.2,0h61.7c0.1,0,0.2,0,0.2,0h0c0.9,0.1,1.8,0.7,2.2,1.5
		c0.2,0.4,0.3,0.8,0.3,1.2V118.6z M84.2,103.4c0,1.4-1.1,2.6-2.5,2.7c-0.1,0-0.2,0-0.2,0H19.8c-0.1,0-0.2,0-0.2,0
		c-1.4-0.1-2.5-1.3-2.5-2.7v-2.5c0-4,3.3-7.3,7.3-7.3h19.1h25.8h7.7c4,0,7.3,3.3,7.3,7.3V103.4z"/>
	<g>
		<rect x="93.1" y="94.4" class="st0" width="14.7" height="2.4"/>
		<rect x="93.1" y="115.7" class="st0" width="14.7" height="2.4"/>
		<path class="st0" d="M66.6,18.5v10.7v2.6v39.7h2.6V31.8h30.6v56.3H78l0,0.2L77.7,91h22.1h2.6H133v16.7H81.1v1.2c0,0,0.5,0,0.6,0h0
			c0.9,0.1,1.8,0.7,2.2,1.5H133v16.8H80.3v1.8h-4.4l-0.6-1.8h-6v-5.8h-2.6v8.4h69v-19.5v-2.6V91v-2.8V31.8v-2.6V18.5H66.6z
			 M133,88.2h-30.6V31.8H133V88.2z M102.4,29.2h-2.6H69.2v-8.1H133v8.1H102.4z"/>
		<rect x="92" y="52.5" class="st0" width="2.6" height="9"/>
		<rect x="108.4" y="52.5" class="st0" width="2.6" height="9"/>
	</g>
</g>
<g>
	<line class="st1" x1="546.5" y1="129.4" x2="546.5" y2="38.7"/>
	<line class="st2" x1="535" y1="129.4" x2="557.9" y2="129.4"/>
	<path class="st3" d="M556.6,17.3h-19.9c-0.5,0-0.9,0.4-1,0.9l-2.5,19.6c-0.1,0.6,0.4,1.1,1,1.1h24.5c0.6,0,1.1-0.5,1-1.1l-2.1-19.6
		C557.6,17.7,557.2,17.3,556.6,17.3z"/>
</g>
<path class="st1" d="M591.4,122.3H521c-2.6,0-4.6-2.1-4.6-4.6v-8.1c0-2.6,2.1-4.6,4.6-4.6h70.4c2.6,0,4.6,2.1,4.6,4.6v8.1
	C596,120.2,594,122.3,591.4,122.3z"/>
<path class="st1" d="M591.4,105H521c-2.6,0-4.6-2.1-4.6-4.6v-2.9c0-5.4,4.4-9.8,9.8-9.8h60c5.4,0,9.8,4.4,9.8,9.8v2.9
	C596,102.9,594,105,591.4,105z"/>
<path class="st1" d="M588.5,87.6h-64.5l-1.3-17.3c-0.3-4.3,3.1-7.9,7.3-7.9h53.1c4.4,0,7.8,3.8,7.3,8.2L588.5,87.6z"/>
<polygon class="st1" points="530.2,130.9 522.6,130.9 522.6,122.3 533.2,122.3 "/>
<polygon class="st1" points="583.9,130.9 591.6,130.9 591.6,122.3 581,122.3 "/>
<g>
	<rect x="576" y="7.8" class="st1" width="75.8" height="124.1"/>
	<rect x="576" y="109.7" class="st1" width="75.8" height="22.3"/>
	<rect x="576" y="87.4" class="st1" width="75.8" height="22.3"/>
	<rect x="604.8" y="93" class="st0" width="16.8" height="2.8"/>
	<rect x="604.8" y="117.4" class="st0" width="16.8" height="2.8"/>
	<rect x="576" y="7.8" class="st1" width="75.8" height="12.2"/>
	<rect x="576" y="20" class="st1" width="37.9" height="67.6"/>
	<rect x="613.9" y="20" class="st1" width="37.9" height="67.6"/>
	<rect x="603.5" y="45.2" class="st0" width="2.9" height="10.3"/>
	<rect x="622.2" y="45.2" class="st0" width="2.9" height="10.3"/>
</g>
</svg>
