<?xml version="1.0" encoding="utf-8"?>
<!-- Generator: Adobe Illustrator 24.3.0, SVG Export Plug-In . SVG Version: 6.00 Build 0)  -->
<svg version="1.1" id="Layer_1" xmlns="http://www.w3.org/2000/svg" xmlns:xlink="http://www.w3.org/1999/xlink" x="0px" y="0px"
	 viewBox="0 0 150 150" style="enable-background:new 0 0 150 150;" xml:space="preserve">
<style type="text/css">
	.st0{fill:#9B1923;}
	.st1{fill:#414851;}
	.st2{fill:#C2C4C7;}
	.st3{fill:#E5D459;}
	.st4{fill:#83878C;}
	.st5{fill:#E1E1E2;}
	.st6{fill:#636770;}
</style>
<g>
	<polygon class="st0" points="92.2,18.1 85.6,18.1 85.6,11.5 77,11.5 77,18.1 70.4,18.1 70.4,26.7 77,26.7 77,33.3 85.6,33.3 
		85.6,26.7 92.2,26.7 	"/>
	<g>
		<g>
			<g>
				<path class="st1" d="M53.5,97.5h-4.4v4.9c0,1.8-1.5,3.3-3.3,3.3h-0.9c-1.8,0-3.3-1.5-3.3-3.3v-4.9h-4.7c-0.2,0-0.5,0-0.7,0v4.9
					c0,4.8,3.9,8.7,8.7,8.7h0.9c4.8,0,8.7-3.9,8.7-8.7v-4.9C54.2,97.4,53.8,97.5,53.5,97.5z"/>
			</g>
		</g>
		<g>
			<path class="st2" d="M69.5,40.1v30.1h-4V40.1c0-1.5-1.2-2.8-2.8-2.8h-2.3c0.2-0.6,0.4-1.3,0.4-2c0-0.7-0.1-1.3-0.3-1.9h2.3
				C66.5,33.4,69.5,36.4,69.5,40.1z"/>
			<path class="st2" d="M30.1,37.4h-2.9c-1.5,0-2.8,1.2-2.8,2.8v30.1h-4V40.1c0-3.7,3-6.7,6.7-6.7h2.9c-0.2,0.6-0.3,1.3-0.3,1.9
				C29.8,36,29.9,36.7,30.1,37.4z"/>
			<path class="st3" d="M61.1,35.3c0,0.5-0.1,1-0.2,1.4c-0.6,1.6-2.1,2.7-3.8,2.7c-1.8,0-3.2-1.1-3.8-2.7c-0.2-0.4-0.2-0.9-0.2-1.4
				c0-0.5,0.1-0.9,0.2-1.3c0.6-1.6,2.1-2.7,3.8-2.7c1.8,0,3.3,1.1,3.8,2.7C61,34.4,61.1,34.9,61.1,35.3z"/>
			<path class="st3" d="M37.7,35.3c0,0.5-0.1,1-0.2,1.4c-0.6,1.6-2.1,2.7-3.8,2.7c-1.8,0-3.2-1.1-3.8-2.7c-0.2-0.4-0.2-0.9-0.2-1.4
				c0-0.5,0.1-0.9,0.2-1.3c0.6-1.6,2.1-2.7,3.8-2.7c1.8,0,3.3,1.1,3.8,2.7C37.6,34.4,37.7,34.9,37.7,35.3z"/>
		</g>
		<g>
			<path class="st1" d="M63.3,138.5c-4.8,0-9.6-2.2-13.2-6.1c-4.5-4.9-6.8-12.3-6.8-21.4c0-0.9,0.7-1.6,1.6-1.6c0,0,0,0,0,0
				c0.9,0,1.6,0.7,1.6,1.6c0,8.3,2.1,15,6,19.3c4.2,4.5,9,5,10.8,5c5.9,0,16.2-2.4,18.7-18.5c1.5-9.5,0.5-17.7-0.3-24.9
				c-1.1-9.9-2.1-18.5,4-26c3.9-4.9,11-8.1,19-8.7c8-0.6,15.5,1.7,20.1,6c4.4,4.2,6.9,10.7,7,18.4c0.1,11.8-5.6,24-15.5,33.6
				c-0.6,0.6-1.6,0.6-2.2,0c-0.6-0.6-0.6-1.6,0-2.2c9.3-8.9,14.6-20.3,14.5-31.2c0-6.7-2.2-12.5-6-16c-4-3.7-10.6-5.6-17.7-5.1
				c-7.1,0.5-13.4,3.3-16.8,7.5c-5.3,6.5-4.4,14.1-3.3,23.7c0.8,7.4,1.8,15.8,0.2,25.7C82.2,136.5,68.9,138.5,63.3,138.5z"/>
		</g>
		<circle class="st4" cx="109.5" cy="119.8" r="8.5"/>
		<circle class="st5" cx="109.5" cy="119.8" r="4.1"/>
		<g>
			<g>
				<g>
					<path class="st4" d="M26.8,74c4.6,6.1,11.1,9.9,18.2,9.9c6.8,0,12.9-3.4,17.4-8.9l-0.3,4.7c-4.8,4.5-10.7,7.2-17.1,7.2
						c-6.8,0-13-3-17.9-7.9L26.8,74z"/>
				</g>
			</g>
			<path class="st6" d="M71.8,69.8C71.5,86.5,59.5,101,44.9,101c-0.2,0-0.3,0-0.5,0c-14.8-0.3-26.5-14.3-26.2-31.2l9.3,0
				C27.3,81.6,35,91.5,44.6,91.7c9.7,0.2,17.7-10.1,17.9-21.9H71.8z"/>
		</g>
	</g>
</g>
</svg>
