<?xml version="1.0" encoding="utf-8"?>
<!-- Generator: Adobe Illustrator 24.3.0, SVG Export Plug-In . SVG Version: 6.00 Build 0)  -->
<svg version="1.1" id="Layer_1" xmlns="http://www.w3.org/2000/svg" xmlns:xlink="http://www.w3.org/1999/xlink" x="0px" y="0px"
	 viewBox="0 0 150 150" style="enable-background:new 0 0 150 150;" xml:space="preserve">
<style type="text/css">
	.st0{display:none;}
	.st1{display:inline;}
	.st2{fill:#36A9E1;}
	.st3{fill:#3092C0;}
	.st4{fill:#426078;}
	.st5{fill:#82ADDD;}
	.st6{fill:#EBECED;}
	.st7{fill:#FACCC0;}
	.st8{fill:#FFFFFF;}
</style>
<g class="st0">
	<path class="st1" d="M11.9,95.4c0.7-0.8,1.5-1.1,2.6-1.1c4.8,0,9.6,0,14.4,0c2.1,0,2.7,0.6,2.7,2.7c0,0.4,0,0.7,0,1.2
		c2,0,4,0,6.1,0c0-0.3,0-0.7,0-1.1c0-2.8,0.1-5.7,0-8.5c-0.1-4,2.5-8.7,7.5-10.4c0.3-0.1,0.7-0.2,1.1-0.3c-5.9-7-2.9-15.8,3.6-19
		c-0.9-1.8-1.9-3.5-2.7-5.4C40,36.1,50.4,16.5,68.8,12.6c6.6-1.4,12.9-0.6,18.9,2.2c0.3,0.1,0.6,0.3,0.9,0.5
		c0.9,0.6,1.1,1.6,0.7,2.5c-0.5,0.9-1.4,1.2-2.4,0.9c-1.9-0.7-3.8-1.6-5.8-2.1c-14.8-3.6-28.9,6-31.8,20c-1.5,7.3-0.1,14,4,20.2
		c0.5,0.7,1,1,1.9,1c3.7,0.1,6.8,1.6,9.2,4.5c0.2,0.2,0.4,0.5,0.5,0.7c1.3-1.2,2.6-2.4,3.9-3.7C68.4,58,68,56.6,67.5,55
		c-1,0.2-2,0.4-3,0.6c-2.8,0.6-4.4-0.1-5.8-2.5c-0.6-1-1.1-1.9-1.7-2.9c-1.2-2.2-1-3.9,0.6-5.7c0.7-0.8,1.5-1.6,2.3-2.5
		c-0.7-0.8-1.4-1.6-2.2-2.4c-1.8-2.1-2-3.7-0.7-6c0.6-1.1,1.2-2.1,1.9-3.2c1.2-1.9,2.9-2.6,5.1-2.1c1.1,0.2,2.2,0.5,3.4,0.7
		c0.4-1.1,0.7-2.2,1.1-3.2c0.6-2.1,2-3.3,4.2-3.4c1.6-0.1,3.3-0.1,4.9,0.1c1.9,0.1,3.1,1.3,3.7,3.1c0.4,1.1,0.7,2.2,1.1,3.5
		c1.1-0.2,2.2-0.4,3.2-0.7c2.5-0.6,4.1,0.1,5.4,2.3c0.7,1.1,1.3,2.3,2,3.4c1,1.9,0.8,3.6-0.6,5.2c-0.8,0.9-1.6,1.8-2.5,2.8
		c0.7,0.8,1.5,1.6,2.2,2.4c1.8,2,2,3.6,0.6,5.9c-0.6,1-1.1,2-1.7,3c-1.3,2.2-3,2.9-5.4,2.3c-1-0.2-2.1-0.5-3.2-0.7
		c-0.5,1.5-1,2.9-1.4,4.3c1.3,1.3,2.6,2.5,3.9,3.7c0.3-0.4,0.7-0.9,1.1-1.3c2.3-2.6,5.3-3.8,8.7-3.9c0.8,0,1.3-0.3,1.7-0.9
		c3.1-4.6,4.7-9.6,4.6-15.2c-0.1-7-2.6-13-7.5-18.1c-0.2-0.2-0.5-0.5-0.6-0.7c-0.5-0.8-0.4-1.7,0.2-2.4c0.6-0.6,1.6-0.8,2.4-0.3
		c0.2,0.2,0.5,0.3,0.7,0.6c4.9,5.1,7.8,11,8.5,18.1c0.7,7-0.9,13.4-4.6,19.3c-0.1,0.1-0.2,0.3-0.2,0.4c0,0,0,0.1,0,0.1
		c7,3.5,9.3,12.4,3.7,19c0.7,0.3,1.5,0.5,2.2,0.8c4.1,2,6.3,5.2,6.4,9.8c0,0.5,0,1,0,1.5c-0.1,1.1-0.8,1.9-1.9,1.9
		c-1.1,0-1.8-0.7-1.9-1.8c-0.1-0.9-0.1-1.8-0.2-2.7c-0.5-3.2-3.2-5.6-6.4-5.7c-3.9-0.1-7.9,0-11.8,0c0,0.2,0,0.3,0.1,0.4
		c1.6,2.1,2.3,4.5,2.2,7.1c0,2.9,0,5.7,0,8.6c0,0.6,0.1,1,0.7,1.2c3.9,1.6,6,6.4,4,10.6c-0.1,0.1-0.1,0.3-0.2,0.5
		c0.3,0,0.6,0.1,0.8,0.1c2.6,0,5.3,0,7.9,0c1.4,0,2.9-1.5,2.9-2.9c0-2.6,0-5.3,0-7.9c0-0.3,0-0.7,0-1c0.1-1.1,0.9-1.9,1.9-1.8
		c1,0,1.8,0.8,1.8,1.8c0,1.4,0,2.9,0,4.3c0,0.5,0,1,0,1.7c0.4-0.3,0.7-0.6,0.9-0.8c3.7-3.7,7.5-7.5,11.2-11.2
		c1.6-1.6,3.4-2.6,5.7-2.6c3.3,0,5.9,1.5,7.3,4.5c1.4,3.1,1,6-1.2,8.6c-0.3,0.3-0.6,0.7-0.9,1c-6.5,6.5-13,13-19.5,19.5
		c-1.6,1.6-3.4,2.8-5.6,3.4c-9.3,2.9-18.6,5.7-27.9,8.6c-3,0.9-6.1,1.2-9.2,0.8c-0.4,0-0.7,0-1.1-0.1c-1.4-0.1-2.3-0.8-2.2-2
		c0.1-1,0.7-2,2.4-1.8c1.6,0.1,3.2,0.1,4.8,0.1c2.5,0,4.9-0.9,7.3-1.6c8.2-2.5,16.3-5.1,24.5-7.6c1.6-0.5,3.1-1.3,4.3-2.5
		c6.6-6.6,13.2-13.2,19.9-19.9c1.2-1.2,1.8-2.6,1.3-4.3c-0.8-2.6-3.9-3.8-6.2-2.2c-0.4,0.3-0.8,0.7-1.2,1.1
		c-5.8,5.8-11.6,11.6-17.4,17.4c-0.9,0.9-1.9,1.4-3.3,1.3c-11.9,0-23.7,0-35.6,0c-0.9,0-1.6,0.2-2.1,0.9c-0.4,0.4-0.8,0.8-1.2,1.2
		c-0.8,0.6-1.9,0.6-2.6-0.1c-0.7-0.7-0.8-1.8-0.1-2.6c0.9-1,1.8-2,2.9-2.8c0.5-0.4,1.4-0.5,2.1-0.5c6.4,0,12.9,0,19.3,0
		c0.5,0,1,0,1.5,0c1.9-0.1,3.5-1.7,3.7-3.5c0.2-2.1-1-3.9-3-4.4c-0.6-0.1-1.3-0.2-1.9-0.2c-5.7,0-11.4,0-17.1,0c-1.1,0-2-0.3-2.9-1
		c-1.2-1-2.4-2-3.7-2.9c-6.2-4.6-14.5-4.6-20.8-0.1c-1.2,0.9-2.4,1.8-3.5,2.7c-0.3,0.2-0.5,0.7-0.5,1c0,9.4,0,18.7,0,28.1
		c0,0.1,0.1,0.2,0.1,0.4c1.4,0.1,2.8,0.2,4.1,0.3c3.1,0.2,6.1,0.4,9.2,0.5c2.9,0.2,5.8,0.3,8.7,0.5c0.9,0.1,1.6,0.4,2,1.2
		c0.3,0.7,0.2,1.3-0.2,1.8c-0.4,0.6-1.1,0.9-1.8,0.8c-2.9-0.2-5.9-0.4-8.8-0.6c-1.6-0.1-3.1-0.3-4.7-0.3c-5.4-0.2-10.8-0.4-16.2-0.6
		c-0.4,0-0.7,0-1.2,0.1c-0.1,1.5,0.3,3.2-1.5,3.9c-6.1,0-12.2,0-18.2,0C11.9,123.9,11.9,109.6,11.9,95.4z M74.9,57.8
		c0.5,0,1,0,1.5,0c0.8,0.1,1.3-0.2,1.5-1.1c0.4-1.4,0.8-2.7,1.3-4.1c0.5-1.5,1.4-2,2.9-1.7c1.4,0.3,2.9,0.6,4.3,1
		c0.8,0.2,1.1,0,1.5-0.7c0.5-0.9,1-1.8,1.5-2.7c0.4-0.7,0.3-1.2-0.2-1.7c-1-1.1-2-2.2-3-3.3c-1-1.1-1-2.1,0-3.3c1-1.1,2-2.2,3-3.3
		c0.5-0.5,0.6-1,0.2-1.6c-0.6-0.9-1.1-1.8-1.6-2.8c-0.3-0.6-0.6-0.8-1.4-0.6c-1.4,0.4-2.9,0.7-4.3,1c-1.6,0.3-2.5-0.2-3-1.7
		c-0.5-1.4-0.9-2.8-1.3-4.2c-0.2-0.6-0.5-0.9-1.2-0.9c-1.1,0.1-2.1,0.1-3.2,0c-0.8,0-1.1,0.3-1.3,1c-0.4,1.3-0.8,2.7-1.2,4
		c-0.6,1.8-1.4,2.3-3.2,1.9c-1.4-0.3-2.8-0.6-4.2-0.9c-0.7-0.2-1,0-1.3,0.6c-0.5,1-1.1,1.9-1.7,2.9c-0.4,0.6-0.3,1,0.2,1.5
		c1,1,1.9,2.2,2.9,3.1c1.1,1,1.2,2.5,0,3.7c-1,1-1.9,2.1-2.9,3.2c-0.4,0.5-0.5,0.9-0.2,1.4c0.6,0.9,1.1,1.9,1.7,2.9
		c0.4,0.7,0.8,0.8,1.5,0.6c1.4-0.4,2.9-0.7,4.3-1c1.4-0.3,2.4,0.2,2.9,1.6c0.3,0.9,0.5,1.9,0.9,2.8C72.6,58.2,71.8,57.7,74.9,57.8z
		 M27.6,134.1c0-12,0-23.9,0-35.8c-4,0-8,0-12,0c0,12,0,23.8,0,35.8C19.6,134.1,23.6,134.1,27.6,134.1z M88.3,98.4
		c0.1-0.2,0.1-0.3,0.1-0.4c0-3.3,0.1-6.6,0-9.8c-0.1-3.6-3-6.4-6.6-6.5c-4.6-0.1-9.2-0.1-13.8,0c-3.2,0.1-5.8,2.3-6.4,5.4
		c-0.3,1.6-0.2,3.2-0.3,4.5c2.1,1.2,4,2.1,5.9,3.3c1.3,0.8,2.5,1.9,3.7,2.9c0.5,0.5,1.1,0.6,1.8,0.6c2.7,0,5.5,0,8.2,0
		C83.4,98.4,85.8,98.4,88.3,98.4z M55,61.7c-3.9-0.2-8,3.2-8,7.9c0,4.5,3.5,8.1,8,8.1c4.4,0,8.1-3.6,8-8C63,64.5,58.7,61.5,55,61.7z
		 M75.1,61.7c-3.6-0.2-8.1,2.7-8.1,7.9c0,5.3,4.3,8,7.9,8.1c3.6,0.1,8.1-2.6,8.1-8C83,64.3,78.5,61.5,75.1,61.7z M102.9,69.7
		c0-4.5-3.5-7.9-7.9-8c-3.8-0.1-8.1,2.9-8.1,8c0,5.1,4.3,8.1,8.1,8C99.3,77.6,102.9,74.1,102.9,69.7z M60.2,81.6
		c-4.3,0-8.2-0.1-12.1,0c-3.2,0.1-5.9,2.5-6.3,5.7c-0.3,2.6-0.2,5.3-0.3,8.3c5-3.8,10.3-5.1,16.3-4.6C57.4,87.6,57.8,84.4,60.2,81.6
		z M31.7,130.1c1.7,0,3.4,0,5,0c0-9.3,0-18.6,0-27.9c-1.7,0-3.3,0-5,0C31.7,111.5,31.7,120.8,31.7,130.1z"/>
	<path class="st1" d="M75,47.9c-3.2,0-6-2.7-6-5.9c0-3.2,2.7-5.9,5.9-5.9c3.2,0,6,2.7,6,5.9C80.9,45.2,78.2,47.9,75,47.9z M75,40
		c-1.2,0-2,0.8-2,2c0,1.2,0.8,2,2,2c1.2,0,2-0.8,2-2C77,40.8,76.1,40,75,40z"/>
	<path class="st1" d="M21.7,106.3c-1.1,0-2-0.9-2-2c0-1.1,0.9-2,2-2.1c1.2,0,2.1,0.9,2.1,2.1C23.7,105.4,22.8,106.3,21.7,106.3z"/>
	<path class="st1" d="M21.7,110.2c1.1,0,2,0.9,2,2c0,1.2-0.9,2-2.1,2c-1.1,0-2-0.9-1.9-2.1C19.7,111,20.6,110.2,21.7,110.2z"/>
</g>
<g>
	<g>
		<path class="st2" d="M75.8,50.3c-9.9,0-17.9-8-17.9-17.9c0-9.9,8-17.9,17.9-17.9s17.9,8,17.9,17.9C93.7,42.3,85.7,50.3,75.8,50.3z
			 M75.8,16.6c-8.7,0-15.9,7.1-15.9,15.9s7.1,15.9,15.9,15.9s15.9-7.1,15.9-15.9S84.6,16.6,75.8,16.6z"/>
	</g>
	<path class="st2" d="M29.6,128.5H15.8c-1.7,0-3-1.3-3-3V87.6c0-1.7,1.3-3,3-3h13.8c1.7,0,3,1.3,3,3v37.9
		C32.6,127.1,31.2,128.5,29.6,128.5z"/>
	<path class="st3" d="M17.6,128.5h-1.9c-1.7,0-3-1.3-3-3V87.6c0-1.7,1.3-3,3-3h1.9V128.5z"/>
	<rect x="32.6" y="88.8" class="st4" width="5.8" height="35.7"/>
	<circle class="st5" cx="95.7" cy="60.1" r="9.7"/>
	<path class="st5" d="M104.7,103.9H86.8c-3.8,0-6.9-3.1-6.9-6.9V78.1c0-3.8,3.1-6.9,6.9-6.9h17.9c3.8,0,6.9,3.1,6.9,6.9v18.9
		C111.5,100.9,108.5,103.9,104.7,103.9z"/>
	<circle class="st5" cx="55.9" cy="60.1" r="9.7"/>
	<path class="st5" d="M64.9,103.9H47c-3.8,0-6.9-3.1-6.9-6.9V78.1c0-3.8,3.1-6.9,6.9-6.9h17.9c3.8,0,6.9,3.1,6.9,6.9v18.9
		C71.8,100.9,68.7,103.9,64.9,103.9z"/>
	<circle class="st6" cx="75.8" cy="60.1" r="9.7"/>
	<path class="st6" d="M84.8,103.9H66.9c-3.8,0-6.9-3.1-6.9-6.9V78.1c0-3.8,3.1-6.9,6.9-6.9h17.9c3.8,0,6.9,3.1,6.9,6.9v18.9
		C91.6,100.9,88.5,103.9,84.8,103.9z"/>
	<path class="st7" d="M37.5,91c10.5-8.9,17.1-9.4,21.2-8.3c6.4,1.8,10.4,8.7,18.2,8.3c1.2-0.1,3-0.3,6.3-0.4c3.5,0,6.4,0.2,8.3,0.4
		c2.6,0.5,4.7,2.5,5.1,4.9c0.5,3-1.7,6.1-5.1,6.8c4.5,0,8.9,0,13.4-0.1c2,0,3.9-0.8,5.3-2.2l16.1-16.6c1.9-1.9,4.8-2.6,7.2-1.4
		c0.9,0.4,1.7,1.1,2.4,1.9c0.1,0.2,0.2,0.3,0.3,0.5c1.6,2.5,1,5.7-1,7.8c-6,6-11.9,11.9-17.9,17.9c-1.9,1.9-4.3,3.4-6.9,4.2
		l-26.2,8.7c-2.2,0.7-4.6,1-7,0.9l-39.8-2.7V91z"/>
	<circle class="st8" cx="22.7" cy="120.5" r="3.5"/>
	<circle class="st8" cx="22.7" cy="111.1" r="3.5"/>
	<path class="st2" d="M88.6,29.2h-0.8c-0.3-1-0.7-1.9-1.2-2.8l0.6-0.6c0.4-0.4,0.4-1,0-1.3l-3.4-3.4c-0.4-0.4-1-0.4-1.3,0L82,21.6
		c-0.9-0.5-1.8-0.9-2.8-1.2v-0.8c0-0.5-0.4-0.9-0.9-0.9h-4.8c-0.5,0-0.9,0.4-0.9,0.9v0.8c-1,0.3-1.9,0.7-2.8,1.2l-0.6-0.6
		c-0.4-0.4-1-0.4-1.3,0l-3.4,3.4c-0.4,0.4-0.4,1,0,1.3l0.6,0.6c-0.5,0.9-0.9,1.8-1.2,2.8H63c-0.5,0-0.9,0.4-0.9,0.9v4.8
		c0,0.5,0.4,0.9,0.9,0.9h0.8c0.3,1,0.7,1.9,1.2,2.8l-0.6,0.6c-0.4,0.4-0.4,1,0,1.3l3.4,3.4c0.4,0.4,1,0.4,1.3,0l0.6-0.6
		c0.9,0.5,1.8,0.9,2.8,1.2v0.8c0,0.5,0.4,0.9,0.9,0.9h4.8c0.5,0,0.9-0.4,0.9-0.9v-0.8c1-0.3,1.9-0.7,2.8-1.2l0.6,0.6
		c0.4,0.4,1,0.4,1.3,0l3.4-3.4c0.4-0.4,0.4-1,0-1.3l-0.6-0.6c0.5-0.9,0.9-1.8,1.2-2.8h0.8c0.5,0,0.9-0.4,0.9-0.9v-4.8
		C89.6,29.6,89.1,29.2,88.6,29.2z M75.8,38.5c-3.3,0-6-2.7-6-6s2.7-6,6-6c3.3,0,6,2.7,6,6S79.1,38.5,75.8,38.5z"/>
</g>
</svg>
