<?xml version="1.0" encoding="utf-8"?>
<!-- Generator: Adobe Illustrator 24.3.0, SVG Export Plug-In . SVG Version: 6.00 Build 0)  -->
<svg version="1.1" id="Layer_1" xmlns="http://www.w3.org/2000/svg" xmlns:xlink="http://www.w3.org/1999/xlink" x="0px" y="0px"
	 viewBox="0 0 150 150" style="enable-background:new 0 0 150 150;" xml:space="preserve">
<style type="text/css">
	.st0{fill:#263239;}
	.st1{opacity:0.5;fill:#FFFFFF;enable-background:new    ;}
	.st2{opacity:0.1;fill:#FFFFFF;enable-background:new    ;}
	.st3{opacity:0.2;fill:#FFFFFF;enable-background:new    ;}
	.st4{opacity:5.000000e-02;fill:#FFFFFF;enable-background:new    ;}
	.st5{opacity:0.7;fill:#FFFFFF;enable-background:new    ;}
	.st6{fill:#4B6FB5;}
</style>
<g>
	<path class="st0" d="M67.6,64.9l-6,9.1l5.5,3.7l7.3-8.9C74.3,68.8,71.5,63.9,67.6,64.9z"/>
	<path class="st0" d="M64.2,52.4l-13.9,4.8l1.7,6.3l13.3-2.9C65.3,60.7,67.5,55.7,64.2,52.4z"/>
	<polygon class="st0" points="69.2,56 70.9,61.6 77.4,66.6 85,67.2 105.2,40.3 106.9,38.1 105.2,33 120.9,11.9 111.4,4.8 96.2,26.5 
		90.5,27 89.2,28.8 	"/>
	<polygon class="st1" points="69.2,56 70.9,61.6 77.4,66.6 85,67.2 105.2,40.3 106.9,38.1 105.2,33 120.9,11.9 111.4,4.8 96.2,26.5 
		90.5,27 89.2,28.8 	"/>
	<polygon class="st0" points="89.2,28.8 105.2,40.3 106.9,38.1 105.2,33 120.9,11.9 111.4,4.8 96.2,26.5 90.5,27 	"/>
	<polygon class="st0" points="71.9,66.1 66.5,65.3 64,61.5 66.2,53.7 	"/>
	<polygon class="st2" points="71.9,66.1 66.5,65.3 64,61.5 66.2,53.7 	"/>
	<polygon class="st0" points="78.8,68.1 66.9,47.8 62.1,50.6 74.1,71.6 	"/>
	<polygon class="st3" points="78.8,68.1 66.9,47.8 62.1,50.6 74.1,71.6 	"/>
	<polygon class="st0" points="65.2,131.2 35.7,114.2 34,117.4 62.8,134 	"/>
	<polygon class="st2" points="65.2,131.2 35.7,114.2 34,117.4 62.8,134 	"/>
	<polygon class="st0" points="50.7,89.9 47.7,95.3 61.9,103.1 65.7,97.9 	"/>
	<polygon class="st4" points="50.7,89.9 47.7,95.3 61.9,103.1 65.7,97.9 	"/>
	<polygon class="st0" points="84.6,101.1 80.2,108.4 31.7,81.6 36.8,74.2 	"/>
	<polygon class="st0" points="64.8,103.5 46.9,93.6 44.6,97.8 62.2,107.6 	"/>
	<polygon class="st3" points="84.6,101.1 80.2,108.4 31.7,81.6 36.8,74.2 	"/>
	<polygon class="st2" points="64.8,103.5 46.9,93.6 44.6,97.8 62.2,107.6 	"/>
	<path class="st0" d="M111.6,56.9l-15.7-7.5l-15,28.2l13.8,8l0.4-0.2c2.4-1.3,5.4-1.3,7.7,0.1l2.6,1.5c1.7,1,2.4,2.9,1.9,4.7l0,0
		c-2.7,9.3-8.2,17.5-15.8,23.5l0,0c-1.1,0.9-2.8,1-4,0.3l-3.9-2.6c-1.8-1.2-2.9-3.2-2.9-5.4l0,0L59.8,96.1l-1.5,2.7l10,5.7V117
		l-8.7,17.7l8.7,5c0,0,33-6,45.1-31S111.6,56.9,111.6,56.9z"/>
	<path class="st5" d="M111.6,56.9l-15.7-7.5l-15,28.2l13.8,8l0.4-0.2c2.4-1.3,5.4-1.3,7.7,0.1l2.6,1.5c1.7,1,2.4,2.9,1.9,4.7l0,0
		c-2.7,9.3-8.2,17.5-15.8,23.5l0,0c-1.1,0.9-2.8,1-4,0.3l-3.9-2.6c-1.8-1.2-2.9-3.2-2.9-5.4l0,0L59.8,96.1l-1.5,2.7l10,5.7V117
		l-8.7,17.7l8.7,5c0,0,33-6,45.1-31S111.6,56.9,111.6,56.9z"/>
	<polygon class="st3" points="89.8,82.8 116.9,72.8 117.3,74.7 92.1,84.2 	"/>
	<path class="st3" d="M80.9,77.6l33.5-14.1c0.8,2.3,1.5,4.6,2.1,7L88.3,82L80.9,77.6z"/>
	<path class="st0" d="M88,74.5c-0.4,2.5,1.4,4.9,3.9,5.3c2.5,0.4,4.9-1.4,5.3-3.9c0.4-2.5-1.4-4.9-3.9-5.3
		C90.8,70.2,88.4,72,88,74.5z"/>
	<polygon class="st0" points="53.6,122.8 50.1,128 32.6,118.1 35.8,113 	"/>
	<path class="st0" d="M87.1,55c-0.6,4.3,2.4,8.4,6.7,9c4.3,0.6,8.4-2.4,9-6.7c0.6-4.3-2.4-8.4-6.7-9c0,0,0,0,0,0
		C91.7,47.7,87.7,50.7,87.1,55z"/>
	<polygon class="st3" points="53.6,122.8 50.1,128 32.6,118.1 35.8,113 	"/>
	<path class="st1" d="M91,55.6c-0.3,2.2,1.2,4.2,3.3,4.5c2.2,0.3,4.2-1.2,4.5-3.3c0.3-2.2-1.2-4.2-3.3-4.5c0,0,0,0,0,0
		C93.3,51.9,91.3,53.4,91,55.6z"/>
	<path class="st0" d="M122.1,145.2H27.9l0,0c0-2.8,4.4-5,9.9-5H117C119.8,140.2,122.1,142.5,122.1,145.2L122.1,145.2z"/>
	<path class="st0" d="M99.2,145.2L85.9,122c-1.5-2.5-4.2-4.1-7.2-3.9l0,0c-4,0.2-7.2,3.5-7.4,7.5l-0.8,19.6L99.2,145.2z"/>
	<path class="st1" d="M99.2,145.2L85.9,122c-1.5-2.5-4.2-4.1-7.2-3.9l0,0c-4,0.2-7.2,3.5-7.4,7.5l-0.8,19.6L99.2,145.2z"/>
	<path class="st0" d="M74.8,126.7c0,2.6,2.1,4.7,4.7,4.7c2.6,0,4.7-2.1,4.7-4.7c0-2.6-2.1-4.7-4.7-4.7c0,0,0,0,0,0
		C76.9,122,74.8,124.1,74.8,126.7z"/>
	<rect x="51.8" y="65.5" transform="matrix(0.4842 -0.875 0.875 0.4842 -43.0962 89.5295)" class="st6" width="5.2" height="31.7"/>
</g>
</svg>
