<?xml version="1.0" encoding="utf-8"?>
<!-- Generator: Adobe Illustrator 24.3.0, SVG Export Plug-In . SVG Version: 6.00 Build 0)  -->
<svg version="1.1" id="Layer_1" xmlns="http://www.w3.org/2000/svg" xmlns:xlink="http://www.w3.org/1999/xlink" x="0px" y="0px"
	 viewBox="0 0 150 150" style="enable-background:new 0 0 150 150;" xml:space="preserve">
<style type="text/css">
	.st0{fill:#EDEBED;}
	.st1{fill:#BDD8FC;}
	.st2{fill:#F7F6F7;}
	.st3{fill:#9DC7FB;}
	.st4{fill:#766D78;}
	.st5{fill:#544F56;}
	.st6{fill:#E1E1E2;}
	.st7{fill:#9B1923;}
	.st8{fill:#636770;}
</style>
<g>
	<g>
		<path class="st0" d="M135,66v65.5H94.6V55h29.5C130.1,55,135,60,135,66z"/>
		<g>
			<path class="st1" d="M126.6,78.8h-20.1c-1,0-1.9-0.8-1.9-1.9v-6.1c0-1,0.8-1.9,1.9-1.9h20.1c1,0,1.9,0.8,1.9,1.9v6.1
				C128.5,77.9,127.7,78.8,126.6,78.8z"/>
			<path class="st1" d="M126.6,98.2h-20.1c-1,0-1.9-0.8-1.9-1.9v-6.1c0-1,0.8-1.9,1.9-1.9h20.1c1,0,1.9,0.8,1.9,1.9v6.1
				C128.5,97.4,127.7,98.2,126.6,98.2z"/>
			<path class="st1" d="M126.6,117.6h-20.1c-1,0-1.9-0.8-1.9-1.9v-6.1c0-1,0.8-1.9,1.9-1.9h20.1c1,0,1.9,0.8,1.9,1.9v6.1
				C128.5,116.8,127.7,117.6,126.6,117.6z"/>
		</g>
	</g>
	<g>
		<path class="st0" d="M25.9,55h29.6v76.5H15V66C15,60,19.9,55,25.9,55z"/>
		<g>
			<path class="st1" d="M43.5,78.8H23.4c-1,0-1.9-0.8-1.9-1.9v-6.1c0-1,0.8-1.9,1.9-1.9h20.1c1,0,1.9,0.8,1.9,1.9v6.1
				C45.4,77.9,44.5,78.8,43.5,78.8z"/>
			<path class="st1" d="M43.5,98.2H23.4c-1,0-1.9-0.8-1.9-1.9v-6.1c0-1,0.8-1.9,1.9-1.9h20.1c1,0,1.9,0.8,1.9,1.9v6.1
				C45.4,97.4,44.5,98.2,43.5,98.2z"/>
			<path class="st1" d="M43.5,117.6H23.4c-1,0-1.9-0.8-1.9-1.9v-6.1c0-1,0.8-1.9,1.9-1.9h20.1c1,0,1.9,0.8,1.9,1.9v6.1
				C45.4,116.8,44.5,117.6,43.5,117.6z"/>
		</g>
	</g>
	<g>
		<path class="st2" d="M110.5,131.5H39.6V39.4c0-3.8,3.1-6.9,6.9-6.9h57.2c3.8,0,6.9,3.1,6.9,6.9V131.5z"/>
		<g>
			<path class="st3" d="M68.1,63.2H48c-1,0-1.9-0.8-1.9-1.9v-9c0-1,0.8-1.9,1.9-1.9h20.1c1,0,1.9,0.8,1.9,1.9v9
				C70,62.4,69.1,63.2,68.1,63.2z"/>
			<path class="st3" d="M102.1,63.2H82c-1,0-1.9-0.8-1.9-1.9v-9c0-1,0.8-1.9,1.9-1.9h20.1c1,0,1.9,0.8,1.9,1.9v9
				C104,62.4,103.2,63.2,102.1,63.2z"/>
			<path class="st3" d="M68.1,88.4H48c-1,0-1.9-0.8-1.9-1.9v-9c0-1,0.8-1.9,1.9-1.9h20.1c1,0,1.9,0.8,1.9,1.9v9
				C70,87.6,69.1,88.4,68.1,88.4z"/>
			<path class="st3" d="M102.1,88.4H82c-1,0-1.9-0.8-1.9-1.9v-9c0-1,0.8-1.9,1.9-1.9h20.1c1,0,1.9,0.8,1.9,1.9v9
				C104,87.6,103.2,88.4,102.1,88.4z"/>
		</g>
		<path class="st4" d="M94,101.1H57.9c-0.6,0-1.1-0.5-1.1-1.1v-4.2c0-0.6,0.5-1.1,1.1-1.1H94c0.6,0,1.1,0.5,1.1,1.1v4.2
			C95.1,100.6,94.6,101.1,94,101.1z"/>
		<path class="st5" d="M77.6,100.3v31.1h14.5v-31.1H77.6z M84.1,117.5c0,1-0.8,1.7-1.7,1.7c-1,0-1.7-0.8-1.7-1.7v-3.3
			c0-1,0.8-1.7,1.7-1.7c1,0,1.7,0.8,1.7,1.7V117.5z"/>
		<path class="st5" d="M59.8,100.3v31.1h14.6v-31.1H59.8z M71.2,117.5c0,1-0.8,1.7-1.7,1.7s-1.7-0.8-1.7-1.7v-3.3
			c0-1,0.8-1.7,1.7-1.7s1.7,0.8,1.7,1.7V117.5z"/>
	</g>
	<g>
		<circle class="st6" cx="75.1" cy="33" r="14.5"/>
		<polygon class="st7" points="82.8,29.9 78.1,29.9 78.1,25.2 72,25.2 72,29.9 67.3,29.9 67.3,36.1 72,36.1 72,40.8 78.1,40.8 
			78.1,36.1 82.8,36.1 		"/>
	</g>
	<rect x="15" y="128.8" class="st8" width="120.1" height="2.6"/>
</g>
</svg>
