<?xml version="1.0" encoding="utf-8"?>
<!-- Generator: Adobe Illustrator 24.3.0, SVG Export Plug-In . SVG Version: 6.00 Build 0)  -->
<svg version="1.1" id="Layer_1" xmlns="http://www.w3.org/2000/svg" xmlns:xlink="http://www.w3.org/1999/xlink" x="0px" y="0px"
	 viewBox="0 0 150 150" style="enable-background:new 0 0 150 150;" xml:space="preserve">
<style type="text/css">
	.st0{fill:#020202;}
</style>
<g>
	<g>
		<path class="st0" d="M82.2,85.7c-0.2-0.1-0.5-0.1-0.7-0.1c-1.3,0-2.6,0.7-3.3,1.9L75,93l-3.2-5.5c-0.7-1.2-1.9-1.9-3.3-1.9
			c-0.2,0-0.5,0-0.7,0.1c-21.3,4.4-37.3,23.2-37.3,45.8h43.7h1.5h43.7C119.5,108.9,103.5,90.1,82.2,85.7z M72.7,128.4h-39
			c0.9-13.4,8-25.4,18.6-32.8l1.1,5.1c-2.3,1.2-3.7,3.7-3.4,6.3l1.2,11.5c0.2,2.2,1.6,4.1,3.5,5.1c0.5,0.8,1.5,1.3,2.7,1.3
			c1.6,0,3-1,3-2.2c0-1.2-1.3-2.2-3-2.2c-0.5,0-1,0.1-1.5,0.3c-0.9-0.5-1.6-1.5-1.7-2.6l-1.2-11.5c-0.2-1.6,0.9-3.2,2.5-3.6
			c1.6-0.4,3.3,0.4,3.9,1.9l4.5,10.7c0.4,0.8,0.3,1.8,0,2.6c-0.7,0.2-1.3,0.6-1.9,1.2c-1.1,1.3-1.2,3-0.2,3.9c1,0.8,2.7,0.4,3.8-0.9
			c0.6-0.7,0.9-1.6,0.9-2.4c0.9-1.7,1.1-3.7,0.3-5.6l-4.5-10.7c-1-2.4-3.4-3.9-5.9-3.9l-1.4-6.1c4.1-2.4,8.6-4.2,13.4-5.2
			c0,0,0.1,0,0.1,0c0.2,0,0.5,0.1,0.6,0.4l3.5,6.1V128.4z M97.2,113.7c1.8,0,3.2,1.4,3.2,3.2c0,1.8-1.4,3.2-3.2,3.2
			c-1.8,0-3.2-1.5-3.2-3.2C94,115.2,95.4,113.7,97.2,113.7z M77.3,95.2l3.5-6.1c0.1-0.2,0.4-0.4,0.6-0.4c0,0,0.1,0,0.1,0
			c5.1,1,9.8,3,14.1,5.6v16.5c-2.7,0.7-4.8,3.2-4.8,6.1c0,3.5,2.8,6.3,6.3,6.3s6.3-2.8,6.3-6.3c0-2.9-2-5.4-4.8-6.1V96.4
			c10,7.5,16.7,19.1,17.6,32h-39V95.2z"/>
		<circle class="st0" cx="97.2" cy="117" r="2.2"/>
	</g>
	<path class="st0" d="M98.3,45c0.6-6.9-1.3-13.8-5.5-19c-3.9-4.9-9.2-7.5-14.9-7.5h-5.8c-5.7,0-11,2.7-14.9,7.5
		c-4.7,5.8-6.5,13.8-5.1,21.6c0,0.1,0,0.1,0,0.2c0.1,0.3,0.1,0.6,0.2,0.9l2.9,13c2.4,10.6,10.5,18,19.8,18c9.3,0,17.4-7.4,19.8-18
		l2.9-13c0.2-1.1,0.4-2.2,0.5-3.3C98.3,45.2,98.3,45.1,98.3,45z M59.6,27.9c3.3-4.1,7.7-6.4,12.5-6.4h5.8c4.8,0,9.2,2.3,12.5,6.4
		c2.7,3.4,4.4,7.6,4.8,12.1l-1.5-2.2c-2.2-3.3-5.8-5.2-9.7-5.2H67.9c-3.8,0-7.4,1.9-9.7,5.2l-3.5,5.2C54.6,37.5,56.3,32.1,59.6,27.9
		z M94.7,48l-2.9,13c-2,9.2-9,15.6-16.8,15.6h0c-7.9,0-14.8-6.4-16.8-15.6l-2.9-13c0-0.1,0-0.2,0-0.3l5.5-8.1
		c1.6-2.4,4.3-3.9,7.1-3.9h16.2c2.8,0,5.5,1.4,7.1,3.9l4,5.8C95.1,46.3,94.9,47.1,94.7,48z"/>
</g>
</svg>
