<?xml version="1.0" encoding="utf-8"?>
<!-- Generator: Adobe Illustrator 24.3.0, SVG Export Plug-In . SVG Version: 6.00 Build 0)  -->
<svg version="1.1" id="Layer_1" xmlns="http://www.w3.org/2000/svg" xmlns:xlink="http://www.w3.org/1999/xlink" x="0px" y="0px"
	 viewBox="0 0 150 150" style="enable-background:new 0 0 150 150;" xml:space="preserve">
<style type="text/css">
	.st0{fill:#020202;}
</style>
<g>
	<path class="st0" d="M100.2,104.5L74.6,59.7V29.8c2.2-0.2,3.9-2,3.9-4.2v-5.8c0-2.3-1.9-4.2-4.2-4.2l-29.3,0
		c-2.3,0-4.2,1.9-4.2,4.2v5.8c0,2.2,1.7,4,3.9,4.2v29.9L32.5,80.9c0,0-0.1,0.1-0.1,0.1l0,0.1l-13.4,23.5c-3.2,5.5-3.2,12,0,17.5
		c3.2,5.5,8.8,8.7,15.1,8.7H85c6.3,0,12-3.3,15.1-8.7C103.3,116.5,103.3,110,100.2,104.5z M43,25.6v-5.8c0-1.1,0.9-2,2-2l29.3,0
		c1.1,0,2,0.9,2,2v5.8c0,1.1-0.9,2-2,2H45C43.9,27.6,43,26.7,43,25.6z M46.6,60.2V29.9h26v30.4l11.9,20.9c-4.9,0.9-9.8,1-14.5,0.2
		c-4.5-0.7-7.9-2.1-10.9-3.3c-3.8-1.6-7.5-3-12.4-2.7c-3.5,0.2-7,1.3-10.4,3.2L46.6,60.2z M98.4,121c-2.8,4.8-7.8,7.7-13.4,7.7H34.2
		c-5.6,0-10.6-2.9-13.4-7.7c-2.8-4.8-2.8-10.6,0-15.4l12.9-22.7l0,0c4.3-3.2,8.6-5,13-5.3c4.4-0.3,7.7,1,11.4,2.6
		c3.1,1.3,6.6,2.7,11.4,3.5c2.3,0.4,4.5,0.6,6.9,0.5c3,0,6.1-0.3,9.2-0.9l12.7,22.4C101.2,110.4,101.2,116.1,98.4,121z"/>
	<g>
		<circle class="st0" cx="80.7" cy="98.4" r="8"/>
	</g>
	<g>
		<circle class="st0" cx="68.9" cy="117.2" r="4.9"/>
	</g>
	<g>
		<circle class="st0" cx="38.7" cy="105.3" r="4.3"/>
	</g>
	<g>
		<circle class="st0" cx="48.6" cy="87.9" r="5.5"/>
	</g>
	<g>
		<g>
			<path class="st0" d="M131.4,71.2c2-4,0.4-8.8-3.6-10.8l0,0c-4-2-8.8-0.4-10.8,3.6l-4.1,8.2l14.4,7.2L131.4,71.2z"/>
		</g>
		<g>
			<path class="st0" d="M112.9,75l12.2,6.1l-3.5,7c-1.2,2.3-3.5,3.8-6.1,3.8c-1.1,0-2.1-0.2-3-0.7c-1.6-0.8-2.8-2.2-3.4-3.9
				c-0.6-1.7-0.4-3.6,0.4-5.2L112.9,75 M112.3,73.3l-4.1,8.2c-2,4-0.4,8.8,3.6,10.8l0,0c1.2,0.6,2.4,0.9,3.6,0.9
				c3,0,5.8-1.6,7.2-4.5l4.1-8.2L112.3,73.3L112.3,73.3z"/>
		</g>
	</g>
	<g>
		<g>
			<path class="st0" d="M89.9,51.4c-2,4-0.4,8.8,3.6,10.8l0,0c4,2,8.8,0.4,10.8-3.6l4.1-8.2L94,43.3L89.9,51.4z"/>
		</g>
		<g>
			<path class="st0" d="M105.9,30.7c1.1,0,2.1,0.2,3,0.7c1.6,0.8,2.8,2.2,3.4,3.9c0.6,1.7,0.4,3.6-0.4,5.2l-3.5,7l-12.2-6.1l3.5-7
				C101,32.2,103.3,30.7,105.9,30.7 M105.9,29.5c-3,0-5.8,1.6-7.2,4.5l-4.1,8.2l14.4,7.2l4.1-8.2c2-4,0.4-8.8-3.6-10.8l0,0
				C108.4,29.8,107.1,29.5,105.9,29.5L105.9,29.5z"/>
		</g>
	</g>
</g>
</svg>
