<?xml version="1.0" encoding="utf-8"?>
<!-- Generator: Adobe Illustrator 24.3.0, SVG Export Plug-In . SVG Version: 6.00 Build 0)  -->
<svg version="1.1" id="Layer_1" xmlns="http://www.w3.org/2000/svg" xmlns:xlink="http://www.w3.org/1999/xlink" x="0px" y="0px"
	 viewBox="0 0 150 150" style="enable-background:new 0 0 150 150;" xml:space="preserve">
<style type="text/css">
	.st0{fill:#F2F2F2;}
	.st1{fill:#BFBFBF;}
	.st2{fill:#FFFFFF;}
	.st3{fill:#0F2F47;}
	.st4{fill:#262626;}
	.st5{fill:#E6E6E6;}
	.st6{clip-path:url(#SVGID_2_);}
	.st7{opacity:0.82;fill:#A7CBED;}
	.st8{fill:#7D7D7D;}
	.st9{opacity:0.77;fill:#5D90C6;}
	.st10{fill:#383838;}
	.st11{opacity:0.77;fill:#25527B;}
</style>
<g>
	<path class="st0" d="M128.6,132.2h-18.9V27.3c0-5.2,4.2-9.5,9.5-9.5h0c5.2,0,9.5,4.2,9.5,9.5V132.2z"/>
	<rect x="95.1" y="83.3" class="st0" width="1.8" height="19.3"/>
	<path class="st0" d="M129,42.9h-19.7c-1.5,0-2.7-1.2-2.7-2.7l0,0c0-1.5,1.2-2.7,2.7-2.7H129c1.5,0,2.7,1.2,2.7,2.7l0,0
		C131.7,41.7,130.5,42.9,129,42.9z"/>
	<rect x="109.7" y="42.9" class="st0" width="18.9" height="2.3"/>
	<rect x="109.7" y="35.2" class="st0" width="18.9" height="2.3"/>
	<path class="st1" d="M125.7,41.9h-15.4c-0.9,0-1.6-0.7-1.6-1.6l0,0c0-0.9,0.7-1.6,1.6-1.6h15.4c0.9,0,1.6,0.7,1.6,1.6l0,0
		C127.3,41.2,126.6,41.9,125.7,41.9z"/>
	<path class="st0" d="M128.6,132.2h-9.5V58.9c0-5.2,4.2-9.5,9.5-9.5l0,0V132.2z"/>
	<g>
		<rect x="94" y="64.7" class="st0" width="18.8" height="19.3"/>
		<rect x="104.4" y="64.7" class="st0" width="1.8" height="19.3"/>
		<g>
			<path class="st2" d="M117,89.1h-6.7c-2.3,0-4.1-1.8-4.1-4.1V63.6c0-2.3,1.8-4.1,4.1-4.1h6.7c2.3,0,4.1,1.8,4.1,4.1V85
				C121.1,87.3,119.3,89.1,117,89.1z"/>
			<g>
				<path class="st0" d="M109.9,84.1L109.9,84.1c-0.6,0-1.1-0.5-1.1-1.1V66.3c0-0.6,0.5-1.1,1.1-1.1l0,0c0.6,0,1.1,0.5,1.1,1.1v16.8
					C111,83.7,110.5,84.1,109.9,84.1z"/>
				<path class="st0" d="M113.6,84.1L113.6,84.1c-0.6,0-1.1-0.5-1.1-1.1V66.3c0-0.6,0.5-1.1,1.1-1.1l0,0c0.6,0,1.1,0.5,1.1,1.1v16.8
					C114.7,83.7,114.2,84.1,113.6,84.1z"/>
				<path class="st0" d="M117.5,84.1L117.5,84.1c-0.6,0-1.1-0.5-1.1-1.1V66.3c0-0.6,0.5-1.1,1.1-1.1l0,0c0.6,0,1.1,0.5,1.1,1.1v16.8
					C118.5,83.7,118,84.1,117.5,84.1z"/>
			</g>
		</g>
	</g>
	<g>
		<path class="st0" d="M92,111.9H27c-4.8,0-8.7-3.9-8.7-8.7V39.7c0-4.8,3.9-8.7,8.7-8.7h65c4.8,0,8.7,3.9,8.7,8.7v63.5
			C100.7,108,96.8,111.9,92,111.9z"/>
		<path class="st3" d="M92,46.3v51.2c0,3.9-3.1,7-7,7H34c-3.9,0-7-3.1-7-7V46.3c0-3.9,3.1-7,7-7h51C88.9,39.3,92,42.4,92,46.3z"/>
		<path class="st4" d="M92,46.3v51.2c0,3.9-3.1,7-7,7H34c-3.9,0-7-3.1-7-7V46.3c0-3.9,3.1-7,7-7h51C88.9,39.3,92,42.4,92,46.3z"/>
		<g>
			<path class="st4" d="M31.6,85.8L31.6,85.8c-1.3,0-2.4-1.1-2.4-2.4V43.6c0-1.3,1.1-2.4,2.4-2.4l0,0c1.3,0,2.4,1.1,2.4,2.4v39.7
				C34,84.7,32.9,85.8,31.6,85.8z"/>
			<path class="st4" d="M31.6,99.1L31.6,99.1c-1.3,0-2.4-1.1-2.4-2.4v-4.3c0-1.3,1.1-2.4,2.4-2.4l0,0c1.3,0,2.4,1.1,2.4,2.4v4.3
				C34,98,32.9,99.1,31.6,99.1z"/>
			<path class="st4" d="M31.6,75L31.6,75c-1.3,0-2.4-1.1-2.4-2.4V43.6c0-1.3,1.1-2.4,2.4-2.4l0,0c1.3,0,2.4,1.1,2.4,2.4v28.9
				C34,73.9,32.9,75,31.6,75z"/>
		</g>
		<g>
			<path class="st4" d="M89.2,87.5L89.2,87.5c-1.3,0-2.4-1.1-2.4-2.4V45.4c0-1.3,1.1-2.4,2.4-2.4l0,0c1.3,0,2.4,1.1,2.4,2.4v39.7
				C91.6,86.5,90.5,87.5,89.2,87.5z"/>
			<path class="st4" d="M89.2,100.9L89.2,100.9c-1.3,0-2.4-1.1-2.4-2.4v-4.3c0-1.3,1.1-2.4,2.4-2.4l0,0c1.3,0,2.4,1.1,2.4,2.4v4.3
				C91.6,99.8,90.5,100.9,89.2,100.9z"/>
			<path class="st4" d="M89.2,76.8L89.2,76.8c-1.3,0-2.4-1.1-2.4-2.4V45.4c0-1.3,1.1-2.4,2.4-2.4l0,0c1.3,0,2.4,1.1,2.4,2.4v28.9
				C91.6,75.7,90.5,76.8,89.2,76.8z"/>
		</g>
		<path class="st5" d="M93,108.4H26c-0.6,0-1.1-0.5-1.1-1.1l0,0c0-0.6,0.5-1.1,1.1-1.1H93c0.6,0,1.1,0.5,1.1,1.1l0,0
			C94.1,107.9,93.6,108.4,93,108.4z"/>
		<path class="st5" d="M93,36.8H26c-0.6,0-1.1-0.5-1.1-1.1l0,0c0-0.6,0.5-1.1,1.1-1.1H93c0.6,0,1.1,0.5,1.1,1.1l0,0
			C94.1,36.3,93.6,36.8,93,36.8z"/>
		<g>
			<defs>
				<path id="SVGID_1_" d="M86.7,105.6H32.3c-4.1,0-7.4-3.3-7.4-7.4V44.7c0-4.1,3.3-7.4,7.4-7.4h54.3c4.1,0,7.4,3.3,7.4,7.4v53.5
					C94.1,102.3,90.8,105.6,86.7,105.6z"/>
			</defs>
			<clipPath id="SVGID_2_">
				<use xlink:href="#SVGID_1_"  style="overflow:visible;"/>
			</clipPath>
			<g class="st6">
				<path class="st7" d="M94.1,64.1c0,0-6.2-12.1-12.1-14.8c-3.7-1.8-10.3-1.8-14.5-1.6c-2.2,0.1-4-1.6-4-3.8l0.1-6.5h-4H57h-4
					l0.1,6.5c0,2.2-1.8,3.9-4,3.8c-4.2-0.2-10.7-0.2-14.5,1.6C28.8,52,23.7,62.6,23.7,62.6v11.3L36,64.7c0,0-1.6,8.1-5.6,40.9
					l27.9-0.1l28.9,0.1c-4.5-24.6-7.8-40.7-7.8-40.7l14.7,10.8V64.1z"/>
				<path class="st8" d="M104.6,82.4c0,0-9.2-12.5-13.9-19.3c-4.8-6.8-9.5-12.8-12.3-11.6c-0.3,0.1-0.5,0.3-0.7,0.5
					c-0.2,0-0.4,0-0.6,0c-2-0.4-4.9-0.4-7.8-0.2c0-0.3-0.1-0.6-0.3-0.8c2.3-0.2,5.9,0.1,8.1,0.5c2.5,0.5,3.2-2,2-2.3
					c-1.1-0.3-7.3-0.6-11.1,0.8c-2-1.3-5.3-0.8-7.1-0.3c-0.1,0-0.1-0.1-0.2-0.1c0.6-0.2,1-0.7,1-1.4v-0.7c0-0.8-0.7-1.5-1.5-1.5h0.2
					c0.2,0,0.4-0.2,0.4-0.4v0c0-0.2-0.2-0.4-0.4-0.4h-0.2c0.8,0,1.5-0.7,1.5-1.5v-0.7c0-0.8-0.7-1.5-1.5-1.5h0.2
					c0.2,0,0.4-0.2,0.4-0.4v0c0-0.2-0.2-0.4-0.4-0.4h-0.2c0.8,0,1.5-0.7,1.5-1.5v-0.7c0-0.8-0.7-1.5-1.5-1.5h-4.7
					c-0.8,0-1.5,0.7-1.5,1.5v0.7c0,0.8,0.7,1.5,1.5,1.5h-0.2c-0.2,0-0.4,0.2-0.4,0.4v0c0,0.2,0.2,0.4,0.4,0.4h0.2
					c-0.8,0-1.5,0.7-1.5,1.5v0.7c0,0.8,0.7,1.5,1.5,1.5h-0.2c-0.2,0-0.4,0.2-0.4,0.4v0c0,0.2,0.2,0.4,0.4,0.4h0.2
					c-0.8,0-1.5,0.7-1.5,1.5v0.7c0,0.6,0.4,1.2,1,1.4c-0.1,0-0.2,0-0.2,0.1c-1.9-0.5-5.4-1-7.3,0.5c0,0,0,0,0,0
					c-3.7-1.6-10.4-1.3-11.6-1c-1.1,0.3-0.5,2.8,2,2.3c2.4-0.4,6.5-0.8,8.8-0.4c-0.1,0.3-0.2,0.5-0.3,0.8c-3.1-0.3-6.4-0.3-8.6,0.1
					c-0.5,0-1,0-1.4,0c-0.1-0.1-0.3-0.2-0.5-0.3c-2.8-1.1-7.4,5.1-11.9,12.1c-4.5,7-13.3,19.8-13.3,19.8L3.1,93.6l1.1,1.2l24.8-28.7
					c0,0,5-2.1,6.2-4.8c0.3-0.7,0.7-1.6,1.1-2.6c0.1,0.1,0.3,0.1,0.4,0.2c0.5,1.1-0.6,3.8,1.4,6.5c0.3,0.4,0.8,0.7,1.3,1
					c0,0.4,0.1,0.8,0.3,1.2c-1.1,1.4-1.6,2.8-2,4c-0.3,1.1,0.1,2.3,0.9,2.9c-3.1,4.2-3.6,8.1-1.7,9.1c-1.7,3.8-1.4,7.1-0.8,8.9
					c0.1,0.2,0.2,0.4,0.4,0.6c-0.6,2.3-0.6,4.2-0.5,5.5c0.1,1.2,1,2.1,2.1,2.1c6.3,0.1,12.5-9.4,16.4-16.9c0.1,0.8,0.3,1.6,0.7,2.4
					H55c-0.8,0-1.5,0.7-1.5,1.5v0.7c0,0.8,0.7,1.5,1.5,1.5h-0.2c-0.2,0-0.4,0.2-0.4,0.4v0c0,0.2,0.2,0.4,0.4,0.4H55
					c-0.8,0-1.5,0.7-1.5,1.5v0.7c0,0.8,0.7,1.5,1.5,1.5h-0.2c-0.2,0-0.4,0.2-0.4,0.4v0c0,0.2,0.2,0.4,0.4,0.4H55
					c-0.8,0-1.5,0.7-1.5,1.5v0.7c0,0.8,0.7,1.5,1.5,1.5h-0.2c-0.2,0-0.4,0.2-0.4,0.4v0c0,0.2,0.2,0.4,0.4,0.4H55
					c-0.8,0-1.5,0.7-1.5,1.5v0.7c0,0.8,0.7,1.5,1.5,1.5h-0.2c-0.2,0-0.4,0.2-0.4,0.4v0c0,0.1,0,0.2,0.1,0.3c-0.6,0.2-1,0.7-1,1.4
					v0.7c0,0.8,0.7,1.5,1.5,1.5h-0.2c-0.2,0-0.4,0.2-0.4,0.4v0c0,0.2,0.2,0.4,0.4,0.4H55c-0.8,0-1.5,0.7-1.5,1.5v0.7
					c0,0.8,0.7,1.5,1.5,1.5h-0.2c-0.2,0-0.4,0.2-0.4,0.4v0c0,0.2,0.2,0.4,0.4,0.4H60c0.2,0,0.4-0.2,0.4-0.4v0c0-0.2-0.2-0.4-0.4-0.4
					h-0.2c0.8,0,1.5-0.7,1.5-1.5v-0.7c0-0.8-0.7-1.5-1.5-1.5H60c0.2,0,0.4-0.2,0.4-0.4v0c0-0.2-0.2-0.4-0.4-0.4h-0.2
					c0.8,0,1.5-0.7,1.5-1.5V105c0-0.6-0.4-1.2-1-1.4c0.1-0.1,0.1-0.2,0.1-0.3v0c0-0.2-0.2-0.4-0.4-0.4h-0.2c0.8,0,1.5-0.7,1.5-1.5
					v-0.7c0-0.8-0.7-1.5-1.5-1.5H60c0.2,0,0.4-0.2,0.4-0.4v0c0-0.2-0.2-0.4-0.4-0.4h-0.2c0.8,0,1.5-0.7,1.5-1.5v-0.7
					c0-0.8-0.7-1.5-1.5-1.5H60c0.2,0,0.4-0.2,0.4-0.4v0c0-0.2-0.2-0.4-0.4-0.4h-0.2c0.8,0,1.5-0.7,1.5-1.5v-0.7
					c0-0.8-0.7-1.5-1.5-1.5H60c0.2,0,0.4-0.2,0.4-0.4v0c0-0.2-0.2-0.4-0.4-0.4h-0.2c0.8,0,1.5-0.7,1.5-1.5v-0.7
					c0-0.7-0.6-1.4-1.3-1.4c0.4-0.9,0.7-2,0.8-3c0.4,0.7,0.7,1.4,1.1,2.1c0,0,0,0,0,0s4.5,8.7,9.4,12.7c0,0,0,0,0,0
					c0,0,0.1,0.1,0.1,0.1c0,0,0,0,0,0c2,1.6,4,2.6,6.1,2.6c0.3,0,0.6-0.1,0.9-0.2c0,0,0,0,0,0c2.1-0.9,1.2-4.5,1.2-4.5l0,0
					c-0.1-0.9-0.2-1.8-0.5-2.8c0.2-0.2,0.3-0.4,0.4-0.6c0.7-1.8,0.9-5.1-0.8-8.9c2-1,1.4-4.9-1.7-9.1c0.3-0.3,0.6-0.7,0.8-1.1
					c0,0,0,0,0,0c0,0,0,0,0,0c0.2-0.6,0.3-1.2,0.1-1.8c-0.4-1.2-0.9-2.6-2-4c0.1-0.1,0.1-0.2,0.1-0.3c0,0,0,0,0,0h0
					c0.2-0.4,0.2-0.9,0.1-1.4c0.2-0.2,0.4-0.3,0.6-0.5c1.9-2.7,0.9-5.4,1.4-6.5c0.1,0,0.1-0.1,0.2-0.1c0.3,0.8,0.7,1.6,1,2.3
					c1.3,2.7,6.4,4.6,6.4,4.6l25.6,27.9l1.1-1.3L104.6,82.4z M67.7,90.5c-0.4-0.5-0.8-0.9-1.2-1.4c2.6,2.1,6,3.8,10.3,4.6
					c0.2,0.8,0.4,1.6,0.5,2.4c0.1,1.2-1,2-1.9,1.4c-1.2-0.7-2.5-1.8-4-3.1C70.2,93,68.9,91.7,67.7,90.5z M39.5,91.5
					c0.3-0.6,1.1-2.3,2.5-4.3c2-2.8,4.6-5.3,7.2-7.6c1.3-0.9,2.4-1.8,3.4-2.8c0.7-0.6,1.4-1.1,2.1-1.7c0,0.8-0.1,1.6-0.1,2.3
					C50.1,85.6,43.2,90,39.5,91.7C39.5,91.6,39.5,91.6,39.5,91.5z M51.4,72.2C51.4,72.2,51.4,72.2,51.4,72.2L51.4,72.2
					c0.8-0.6,1.6-1.1,2.4-1.6c-4.6,7.3-9.8,10.1-13,11C43.5,77.9,47.6,74.7,51.4,72.2z M72.3,72.5c0.1,0.1,0.3,0.3,0.4,0.4
					c-3.5-0.7-8.4-3-11.9-8.9c0.3,0.1,0.5,0.2,0.8,0.4c1.7,1,3.3,2.1,4.9,3.3C69,69.6,71.3,71.6,72.3,72.5z M64.2,72.2
					c3.8,2.6,7.9,5.7,10.6,9.4c-3.3-0.9-8.5-3.7-13-11C62.5,71.1,63.3,71.6,64.2,72.2L64.2,72.2L64.2,72.2z M73.6,87.2
					c1.4,2,2.2,3.7,2.5,4.3c0,0.1,0,0.1,0.1,0.2c-3.9-1.7-11.3-6.5-15.7-15.4c0-0.5-0.1-1.1-0.1-1.6c0.9,0.7,1.8,1.4,2.7,2.2
					c0.9,1,2.1,1.9,3.4,2.8C69,81.9,71.6,84.4,73.6,87.2z M54.8,64.1c0,0-0.1,0-0.1,0c0.1,0,0.1-0.1,0.2-0.1
					C54.9,64,54.8,64,54.8,64.1z M63.6,70.5c0.1,0.1,0.2,0.2,0.3,0.3c-0.9-0.4-1.8-0.8-2.7-1.2c-0.4-0.7-0.8-1.4-1.2-2.1
					c-0.1-1.2-0.1-2.4-0.2-3.5C60.6,66.1,61.7,68.4,63.6,70.5C63.6,70.5,63.6,70.5,63.6,70.5C63.6,70.5,63.6,70.5,63.6,70.5z
					 M54.4,55.9c0.1-0.2,0.1-0.4,0.1-0.5c0.4,0.3,0.4,0.7,0.5,1.2c-0.3-0.1-0.5-0.1-0.8-0.2L54.4,55.9z M54.7,57.3
					c0.2,0,0.4,0,0.6,0c-0.5,0.7-1.2,1.5-2.1,2.2l0.6-1.9C54.1,57.5,54.4,57.4,54.7,57.3z M60.5,56.1l0.1,0.4
					c-0.1,0-0.2,0.1-0.3,0.1C60.4,56.4,60.4,56.3,60.5,56.1z M62.3,61.5C62.3,61.5,62.3,61.6,62.3,61.5c-0.1-0.1-0.3-0.3-0.4-0.5
					c0.1,0.1,0.2,0.2,0.3,0.3L62.3,61.5z M59.6,59.2c0-0.2,0-0.4,0-0.7c0,0.1,0.1,0.2,0.1,0.3c0.1,0.3,0.1,0.6,0.2,0.9
					c-0.1,0-0.3-0.1-0.4-0.1C59.7,59.4,59.6,59.3,59.6,59.2z M61.3,58.5c-0.4-0.4-0.7-0.8-1-1.2c0.2,0,0.4,0,0.6,0c0,0,0,0,0,0
					L61.3,58.5z M60.3,73.1c0.2,0.3,0.4,0.6,0.6,0.9c-0.2-0.1-0.4-0.2-0.5-0.3C60.3,73.5,60.3,73.3,60.3,73.1z M60.7,63.9
					c0.1,0,0.1,0.1,0.2,0.1c0,0-0.1,0-0.1,0C60.7,64,60.7,64,60.7,63.9z M60.4,63.4c-0.2-0.4-0.4-0.8-0.6-1.2c0-0.9-0.1-1.7-0.1-2.5
					c0.2,0.1,0.3,0.1,0.5,0.2c0.1,0.2,0.2,0.5,0.3,0.7c0,0,0,0,0,0c0.2,0.7,0.6,1.4,1,2.1c0.2,0.4,0.5,0.8,0.9,1.2c0,0,0,0,0,0
					s0,0,0,0C61.6,63.8,61,63.6,60.4,63.4z M52.3,62c0.5-0.3,0.9-0.6,1.4-0.9c-0.7,0.9-1.3,1.6-2,2.3C51.9,62.9,52.1,62.4,52.3,62z
					 M53.3,64C53.3,64,53.3,64,53.3,64c1.1-1.4,1.7-2.8,2.1-4c-0.1,1-0.1,2.1-0.2,3.4c0,0,0,0,0,0C54.6,63.6,53.9,63.8,53.3,64
					C53.3,64,53.3,64,53.3,64z M43.3,72.5c1-0.9,3.3-2.9,5.7-4.8c1.6-1.1,3.3-2.2,4.9-3.3c0.3-0.1,0.6-0.3,0.8-0.4
					c-3.5,5.9-8.4,8.1-11.9,8.9C43,72.8,43.2,72.7,43.3,72.5z M55.1,65.7c-0.1,1-0.1,2-0.2,3.1c-0.2,0.3-0.4,0.6-0.5,0.9
					c-1,0.4-1.9,0.8-2.7,1.2C53.2,69.2,54.3,67.4,55.1,65.7z M78,90C78,90,78,90,78,90c-0.2-0.6-0.5-1.2-0.9-1.7
					c-1-1.7-2.3-3.5-4.1-5.4c0,0-0.1-0.1-0.1-0.1s0,0,0,0c0,0,0,0,0,0c0.9,0.3,1.8,0.6,2.8,0.9c0.2,0.1,0.3,0.1,0.5,0.1
					C77.4,85.8,78,87.9,78,90z M77.1,80.3c0,0.2,0,0.3,0,0.5c-0.4-0.7-1-1.5-1.8-2.2c-1.2-1.3-2.6-2.5-4.3-3.8c0,0-0.1,0-0.1-0.1
					c0,0,0,0,0,0c0,0,0,0,0,0c1.1,0.3,2.3,0.4,3.7,0.4C75.8,76.8,76.7,78.5,77.1,80.3z M62.5,52.6C62.5,52.6,62.5,52.6,62.5,52.6
					c0-0.2,0-0.3,0-0.4c1.8-0.2,3.6-0.6,4.9-0.9c0.1,0.1,0.1,0.3,0.2,0.5c0,0.1,0,0.2,0,0.3C65.7,52.2,63.9,52.4,62.5,52.6z
					 M66.6,50.5c-1.3,0.5-2.8,0.8-4.2,1c-0.2-0.7-0.6-1.3-1.2-1.7C62.9,49.7,65.3,49.7,66.6,50.5z M54.3,49.8c-0.6,0.4-1,1-1.1,1.8
					c-1.4-0.2-3-0.4-4.5-0.9C49.9,49.7,52.6,49.7,54.3,49.8z M48,51.7c0-0.1,0.1-0.2,0.1-0.3c1.4,0.3,3.2,0.7,4.9,0.8
					c0,0.1,0,0.3,0,0.5c0,0,0,0.1,0,0.1c-0.1-0.1-0.3-0.1-0.5-0.1c-1.3-0.2-2.9-0.4-4.6-0.6C48,52,48,51.9,48,51.7z M39.5,71.6
					c0.3-1,0.7-1.9,1.4-2.8c0.1,0,0.3,0.1,0.4,0.1c1.1,0,2.2,0,3.1-0.1c-0.8,0.6-1.6,1.2-2.3,1.9c-0.1,0.1-0.2,0.2-0.3,0.3
					c-0.1,0.1-0.2,0.2-0.3,0.3c-0.6,0.6-1.2,1.1-1.7,1.8c0,0,0,0,0,0c0,0,0,0,0,0C39.6,72.5,39.4,72.1,39.5,71.6z M38.5,80.3
					c0.4-1.8,1.3-3.5,2.5-5.1c1.3,0,2.6-0.2,3.7-0.4c0,0,0,0,0,0c0,0,0,0,0,0c0,0-0.1,0-0.1,0.1c-1.7,1.2-3.2,2.5-4.3,3.8
					c-0.7,0.7-1.3,1.5-1.8,2.2C38.4,80.7,38.4,80.5,38.5,80.3z M39.3,83.8c0.2,0,0.3-0.1,0.5-0.1c1-0.3,1.9-0.5,2.8-0.9c0,0,0,0,0,0
					c0,0,0,0,0,0s0,0-0.1,0.1c-1.8,1.9-3.1,3.7-4.1,5.4c-0.4,0.6-0.7,1.2-0.9,1.7c0,0,0,0,0,0.1C37.6,87.9,38.2,85.8,39.3,83.8z
					 M40.2,97.4c-0.9,0.6-2.1-0.3-1.9-1.4c0.1-0.8,0.3-1.6,0.5-2.4c4.3-0.8,7.7-2.4,10.3-4.6C45.7,93.1,42.6,96,40.2,97.4z
					 M75.7,72.9C75.7,72.9,75.7,72.9,75.7,72.9C75.7,72.8,75.7,72.8,75.7,72.9c-0.6-0.7-1.2-1.3-1.8-1.8c-0.1-0.1-0.2-0.2-0.3-0.3
					c-0.1-0.1-0.2-0.2-0.3-0.3c-0.5-0.5-1.1-1-1.7-1.4c1.4,0.2,2.3,0,3-0.3c0.7,0.9,1.1,1.8,1.4,2.8C76.2,72.1,76,72.5,75.7,72.9z"
					/>
				<path class="st9" d="M52.3,58c0,0-8.2,0.4-10,9.7C40.5,77,40,84.2,40,84.2s-0.5,3.7,6.2,1c6.6-2.7,7.3-9.5,7.3-9.5l0.9-16.3
					C54.4,59.4,54,57.7,52.3,58z"/>
				<path class="st9" d="M63.2,57.9c0,0,8.3,0.4,10.1,9.7c1.8,9.4,2.4,16.7,2.4,16.7s0.5,3.7-6.2,1c-6.7-2.7-7.4-9.6-7.4-9.6
					l-0.9-16.4C61.2,59.3,61.6,57.6,63.2,57.9z"/>
				<path class="st8" d="M65.1,87c0,0,5,5.9,12.1,6.4c1,0.1,2-0.5,2.2-1.5c0.3-0.9,0.4-2.4,0.1-4.7c-0.1,2.4,0.1,5.6-2.6,5.5
					C75.2,92.6,68.8,90.7,65.1,87z"/>
				<path class="st8" d="M64.3,88.6c0,0,6.1,11.8,13.3,11.6c1.6-0.3,2.4-2.1,1.5-6c-0.2,3.7-0.5,4.7-2.2,5
					C75.2,99.5,68.4,95.7,64.3,88.6z"/>
				<ellipse class="st10" cx="57.4" cy="91.2" rx="2.8" ry="0.4"/>
				<ellipse class="st10" cx="57.4" cy="88.6" rx="2.8" ry="0.4"/>
				<ellipse class="st10" cx="57.7" cy="49" rx="2.8" ry="0.4"/>
				<ellipse class="st10" cx="57.7" cy="46.5" rx="2.8" ry="0.4"/>
				<ellipse class="st10" cx="57.7" cy="44.7" rx="2.8" ry="0.4"/>
				<path class="st10" d="M60.5,42.2c0,0.2-1.2,0.4-2.8,0.4S55,42.5,55,42.2c0-0.2,1.2-0.4,2.8-0.4S60.5,42,60.5,42.2z"/>
				<ellipse class="st10" cx="57.7" cy="40.3" rx="2.8" ry="0.4"/>
				<path class="st10" d="M60.5,37.8c0,0.2-1.2,0.4-2.8,0.4S55,38,55,37.8c0-0.2,1.2-0.4,2.8-0.4S60.5,37.5,60.5,37.8z"/>
				<path class="st10" d="M60.2,93.6c0,0.2-1.2,0.4-2.8,0.4c-1.5,0-2.8-0.2-2.8-0.4c0-0.2,1.2-0.4,2.8-0.4
					C59,93.1,60.2,93.3,60.2,93.6z"/>
				<ellipse class="st10" cx="57.4" cy="95.6" rx="2.8" ry="0.4"/>
				<path class="st10" d="M60.2,98c0,0.2-1.2,0.4-2.8,0.4c-1.5,0-2.8-0.2-2.8-0.4c0-0.2,1.2-0.4,2.8-0.4C59,97.6,60.2,97.8,60.2,98z
					"/>
				<ellipse class="st10" cx="57.4" cy="99.9" rx="2.8" ry="0.4"/>
				<path class="st10" d="M60.2,102.4c0,0.2-1.2,0.4-2.8,0.4c-1.5,0-2.8-0.2-2.8-0.4c0-0.2,1.2-0.4,2.8-0.4
					C59,101.9,60.2,102.1,60.2,102.4z"/>
				<path class="st10" d="M60.2,104.2c0,0.2-1.2,0.4-2.8,0.4c-1.5,0-2.8-0.2-2.8-0.4c0-0.2,1.2-0.4,2.8-0.4
					C59,103.8,60.2,104,60.2,104.2z"/>
				<path class="st8" d="M60.2,106.6c0,0.2-1.2,0.4-2.8,0.4c-1.5,0-2.8-0.2-2.8-0.4c0-0.2,1.2-0.4,2.8-0.4
					C59,106.2,60.2,106.4,60.2,106.6z"/>
				<path class="st8" d="M52.6,53.4c0,0-10.3-1.7-14.7-0.4c-1.8,0.1-2.5-0.4-2.6-0.6c-0.1-0.2-2.2-0.1-4.3,2.7
					c-2.1,2.8-9,12.4-9,12.4l9.9-12c0,0,1-2,3-2.3c0.3,0.1,0.7,1.3,3.4,0.7c2.7-0.6,9.2-0.9,12.2-0.4C53.6,53.9,52.6,53.4,52.6,53.4
					z"/>
				<path class="st8" d="M53.1,51.8c0,0-3-0.5-5.7-1.3c-2.7-0.8-5.1-1.2-8.3-1.2c-3.2,0-3.6,0.3-3.6,0.8c0,0.5,3.7-0.4,5.7-0.3
					c2.1,0.1,11.9,2.2,11.9,2.2C53.1,51.9,53.1,51.8,53.1,51.8z"/>
				<path class="st8" d="M62.2,53.4c0,0,10.3-1.7,14.7-0.4c1.8,0.1,2.5-0.4,2.6-0.6c0.1-0.2,2.2-0.1,4.3,2.7c2.1,2.8,9,12.4,9,12.4
					l-9.9-12c0,0-1-2-3-2.3c-0.3,0.1-0.7,1.3-3.4,0.7c-2.7-0.6-9.2-0.9-12.2-0.4C61.2,53.9,62.2,53.4,62.2,53.4z"/>
				<path class="st8" d="M61.6,51.8c0,0,3-0.5,5.7-1.3c2.7-0.8,5.1-1.2,8.3-1.2c3.2,0,3.6,0.3,3.6,0.8c0,0.5-3.7-0.4-5.7-0.3
					c-2.1,0.1-11.9,2.2-11.9,2.2C61.7,51.9,61.6,51.8,61.6,51.8z"/>
				<path class="st8" d="M46.4,53.5c0,0,1.7,4.4,8.9,3.8C52.9,56.8,50,56.1,46.4,53.5z"/>
				<g>
					<path class="st8" d="M75.6,70.4c0.7,2-0.7,2.5-0.7,2.5c-7.6,0.7-12.3-2.5-14.4-4.4C60,68,59.1,68.3,59.1,69l0,0
						c0,0.3,0.1,0.5,0.3,0.7c8.5,8,15.9,5.3,15.9,5.3C77.4,74,76.8,72,75.6,70.4z"/>
					<path class="st8" d="M74.7,68.2C74.7,68.2,74.7,68.2,74.7,68.2c0.2-0.2,1.3-1.6-1.6-3.2c0,0,0.7,1.2,0.4,1.3
						c-4.6,1.7-10.8-1.5-13.6-3.1c-0.7-0.4-1.6,0.1-1.6,1c0,0,0,0,0,0.1c0,0.3,0.2,0.6,0.5,0.8C70.3,72.4,74.6,68.3,74.7,68.2
						C74.6,68.3,74.6,68.3,74.7,68.2C74.6,68.3,74.7,68.3,74.7,68.2z"/>
					<path class="st8" d="M69.1,59.2c0,0,1.3,0.7,1.3,1.3c-4.9,1.6-8.7-0.2-10.4-1.4c-0.5-0.3-1.2,0-1.2,0.6l0,0
						c0,0.3,0.1,0.5,0.3,0.7c8.1,6.6,13.7,2,13.7,2h-0.2c0,0,0,0,0,0l0.2,0C72.7,62.4,74.2,60.4,69.1,59.2z"/>
					<path class="st8" d="M76.4,78.2c0,0,2.1,3.5-0.6,3.5C70,82.4,63.5,76.9,60.5,74c-0.6-0.5-1.5-0.1-1.4,0.7c0,0,0,0,0,0
						c0,0.2,0.1,0.4,0.2,0.5c12.7,14.2,19.3,7.8,19.3,7.8S80.2,80.1,76.4,78.2z"/>
				</g>
				<g>
					<path class="st8" d="M40,70.4c-0.7,2,0.7,2.5,0.7,2.5c7.6,0.7,12.3-2.5,14.4-4.4c0.5-0.5,1.4-0.1,1.4,0.6l0,0
						c0,0.3-0.1,0.5-0.3,0.7c-8.5,8-15.9,5.3-15.9,5.3C38.1,74,38.7,72,40,70.4z"/>
					<path class="st8" d="M40.9,68.2C40.9,68.2,40.9,68.2,40.9,68.2c-0.2-0.2-1.3-1.6,1.6-3.2c0,0-0.7,1.2-0.4,1.3
						c4.6,1.7,10.8-1.5,13.6-3.1c0.7-0.4,1.6,0.1,1.6,1c0,0,0,0,0,0.1c0,0.3-0.2,0.6-0.5,0.8C45.3,72.4,40.9,68.3,40.9,68.2
						C40.9,68.3,40.9,68.3,40.9,68.2C40.9,68.3,40.9,68.3,40.9,68.2z"/>
					<path class="st8" d="M46.5,59.2c0,0-1.3,0.7-1.3,1.3c4.9,1.6,8.7-0.2,10.4-1.4c0.5-0.3,1.2,0,1.2,0.6l0,0
						c0,0.3-0.1,0.5-0.3,0.7c-8.1,6.6-13.7,2-13.7,2h0.2c0,0,0,0,0,0l-0.2,0C42.8,62.4,41.4,60.4,46.5,59.2z"/>
					<path class="st8" d="M39.2,78.2c0,0-2.1,3.5,0.6,3.5c5.8,0.7,12.3-4.8,15.3-7.7c0.6-0.5,1.5-0.1,1.4,0.7c0,0,0,0,0,0
						c0,0.2-0.1,0.4-0.2,0.5C43.6,89.5,37,83.1,37,83.1S35.3,80.1,39.2,78.2z"/>
				</g>
				<path class="st8" d="M60,49.7c-0.6,0-1.2,0.2-1.7,0.5c-0.4,0.3-0.9,0.3-1.3,0c-0.5-0.3-1-0.5-1.7-0.5c-1.6,0-2.4,1.5-2.4,3.2
					c0,1.1,0.5,2,1.3,2.5c0.6,0.4,0.4,0.8,0.8,1.5c0,0,0,0,0,0c0.3,0.6,0.4,1.3,0.3,2c-0.4,5.4-1.1,17.1-1.1,23.9
					c0,1.9,0.6,3.7,1.8,5.2l0,0.1c0.7,0.9,2,0.9,2.7,0c0,0,0.1-0.1,0.1-0.1c1.2-1.6,1.8-3.6,1.7-5.6c-0.3-5.6-0.8-17.3-1.1-23
					c0-0.8,0.2-1.6,0.5-2.3c0,0,0,0,0,0c0.4-0.7,0.4-1.3,1.1-1.8c0.8-0.6,1.2-1.5,1.2-2.5C62.4,51.1,61.6,49.7,60,49.7z"/>
			</g>
		</g>
		<path class="st11" d="M86.7,37.3H32.3c-4.1,0-7.4,3.3-7.4,7.4v53.5c0,4.1,3.3,7.4,7.4,7.4h54.3c4.1,0,7.4-3.3,7.4-7.4V44.7
			C94.1,40.6,90.8,37.3,86.7,37.3z M92,97.5c0,3.9-3.1,7-7,7H34c-3.9,0-7-3.1-7-7V46.3c0-3.9,3.1-7,7-7h51c3.9,0,7,3.1,7,7V97.5z"/>
	</g>
</g>
</svg>
