<?xml version="1.0" encoding="utf-8"?>
<!-- Generator: Adobe Illustrator 24.3.0, SVG Export Plug-In . SVG Version: 6.00 Build 0)  -->
<svg version="1.1" id="Layer_1" xmlns="http://www.w3.org/2000/svg" xmlns:xlink="http://www.w3.org/1999/xlink" x="0px" y="0px"
	 viewBox="0 0 150 150" style="enable-background:new 0 0 150 150;" xml:space="preserve">
<style type="text/css">
	.st0{opacity:0.4;}
	.st1{fill:url(#SVGID_1_);}
	.st2{fill:url(#SVGID_2_);}
	.st3{fill:url(#SVGID_3_);}
	.st4{opacity:0.4;fill:#5E5E77;}
	.st5{opacity:0.4;fill:url(#SVGID_4_);}
	.st6{fill:url(#SVGID_5_);}
	.st7{fill:url(#SVGID_6_);}
	.st8{fill:url(#SVGID_7_);}
	.st9{fill:#2C2948;}
	.st10{opacity:0.8;fill:url(#SVGID_8_);}
	.st11{fill:url(#SVGID_9_);}
	.st12{fill:url(#SVGID_10_);}
	.st13{opacity:0.5;fill:url(#SVGID_11_);}
	.st14{opacity:0.2;}
	.st15{fill:#72728A;}
	.st16{fill:url(#SVGID_12_);}
	.st17{fill:url(#SVGID_13_);}
	.st18{opacity:0.3;}
	.st19{opacity:0.5;fill:#AD9369;}
	.st20{fill:#F9C21D;}
	.st21{fill:#FCCF5F;}
	.st22{opacity:0.6;fill:#FFF3C0;}
	.st23{fill:#F5A727;}
	.st24{fill:url(#SVGID_14_);}
	.st25{fill:url(#SVGID_15_);}
	.st26{opacity:0.4;fill:url(#SVGID_16_);}
	.st27{fill:url(#SVGID_17_);}
	.st28{fill:url(#SVGID_18_);}
	.st29{fill:url(#SVGID_19_);}
	.st30{fill:url(#SVGID_20_);}
	.st31{opacity:0.6;fill:#F2F2F2;}
	.st32{fill:url(#SVGID_21_);}
	.st33{opacity:0.1;fill:#F2F2F2;}
	.st34{fill:url(#SVGID_22_);}
	.st35{opacity:0.3;fill:#E83C48;}
	.st36{opacity:0.5;fill:#FFFFFF;}
</style>
<g>
	<g>
		<g class="st0">
			
				<image style="overflow:visible;" width="650" height="411" xlink:href="C20B8E23.png"  transform="matrix(0.24 0 0 0.24 0 58.32)">
			</image>
		</g>
		<g class="st0">
			
				<image style="overflow:visible;" width="374" height="329" xlink:href="C20B8E21.png"  transform="matrix(0.24 0 0 0.24 72.24 79.68)">
			</image>
		</g>
		<g>
			<g>
				<linearGradient id="SVGID_1_" gradientUnits="userSpaceOnUse" x1="116.9123" y1="88.642" x2="44.4255" y2="89.0082">
					<stop  offset="0.4007" style="stop-color:#403D5B"/>
					<stop  offset="0.557" style="stop-color:#363153"/>
					<stop  offset="0.6751" style="stop-color:#312D4D"/>
					<stop  offset="0.8849" style="stop-color:#26233E"/>
					<stop  offset="0.9683" style="stop-color:#211F38"/>
				</linearGradient>
				<path class="st1" d="M112.4,64.1H52.9c-2.4,0-4.3,2.4-4.3,5.4v24.3c0,0,0,9.8,0,9.8c0,3.1,8.8,5.9,10.8,6.5
					c15.7,4.8,35.2,5.1,49.7-1.7c1.3-0.6,7.6-3.7,7.6-5.5v-9.1V69.5C116.7,66.5,114.8,64.1,112.4,64.1z"/>
			</g>
			<linearGradient id="SVGID_2_" gradientUnits="userSpaceOnUse" x1="50.9783" y1="85.066" x2="77.7611" y2="85.066">
				<stop  offset="0" style="stop-color:#211F38"/>
				<stop  offset="1" style="stop-color:#363153"/>
			</linearGradient>
			<path class="st2" d="M67.6,88.7c0.8,9.6,3.1,16.7,7.1,19.6c-9.9-1.1-22.3-4.7-24.8-7.6c-2.3-2.6-0.2-27.2,0.3-38.9l18.6,1.9
				C68.8,63.7,67,80.8,67.6,88.7z"/>
			<linearGradient id="SVGID_3_" gradientUnits="userSpaceOnUse" x1="102.6571" y1="88.345" x2="123.939" y2="85.4901">
				<stop  offset="0" style="stop-color:#4D4D67;stop-opacity:0"/>
				<stop  offset="0.3209" style="stop-color:#54546D;stop-opacity:0.3255"/>
				<stop  offset="0.8051" style="stop-color:#686780;stop-opacity:0.8165"/>
				<stop  offset="0.9859" style="stop-color:#72728A"/>
			</linearGradient>
			<path class="st3" d="M112.6,64.1c0.3,20.2-1.2,36.5-11.8,47.4c1.4-0.5,7-2.4,8.3-3c1.3-0.6,7.6-3.7,7.6-5.5v-9.1V69.5
				C116.7,66.6,114.9,64.2,112.6,64.1z"/>
			<path class="st4" d="M48.6,101.5c10.7,5.1,45.6,13.3,68-2.7c0,0,0.4,1.1-0.8,2.2c-1.1,1-5.3,3.6-9.6,5
				C99.3,108.3,72,114.2,48.6,101.5z"/>
			
				<linearGradient id="SVGID_4_" gradientUnits="userSpaceOnUse" x1="89.7438" y1="114.5594" x2="113.1597" y2="114.5594" gradientTransform="matrix(0.9992 4.090000e-02 -4.090000e-02 0.9992 4.1716 -13.5931)">
				<stop  offset="0" style="stop-color:#4D4D67;stop-opacity:0"/>
				<stop  offset="0.221" style="stop-color:#54546D;stop-opacity:0.3255"/>
				<stop  offset="0.5544" style="stop-color:#686780;stop-opacity:0.8165"/>
				<stop  offset="0.6789" style="stop-color:#72728A"/>
			</linearGradient>
			<path class="st5" d="M89,108.3c0,0,7.8,0.6,19.3-4.1c1.6-0.6,4.5-2.3,4.4-2.5c-0.3-0.3-1.5,0.7-5.3,2.3
				C102.3,106.1,97.3,107.4,89,108.3z"/>
			<g>
				<linearGradient id="SVGID_5_" gradientUnits="userSpaceOnUse" x1="103.8195" y1="67.1484" x2="64.7777" y2="77.0424">
					<stop  offset="0" style="stop-color:#211F38"/>
					<stop  offset="1" style="stop-color:#363153;stop-opacity:0"/>
				</linearGradient>
				<path class="st6" d="M83.8,88.3c7.7-2.1,23.4-11,32.9-16.8v-2c0-3-1.9-5.4-4.3-5.4H52.9c-2.4,0-4.3,2.4-4.3,5.4v21
					C59.9,90.2,73.9,91,83.8,88.3z"/>
			</g>
			<linearGradient id="SVGID_6_" gradientUnits="userSpaceOnUse" x1="17.3955" y1="63.3844" x2="130.2209" y2="62.0004">
				<stop  offset="0" style="stop-color:#3D3857"/>
				<stop  offset="0.2934" style="stop-color:#292541"/>
				<stop  offset="0.4544" style="stop-color:#211F38"/>
				<stop  offset="1" style="stop-color:#403D5B"/>
			</linearGradient>
			<path class="st7" d="M141.7,60.7c0,0-59.2,24.1-60.2,24.2c-0.2,0-33.8-14.1-35.1-14.7c-1.3-0.5-2.6-1.1-3.9-1.6
				c-1.2-0.5-2.5-1-3.7-1.5c-1.2-0.5-2.3-1-3.5-1.4c-1.1-0.4-2.1-0.9-3.2-1.3c-0.9-0.4-1.8-0.7-2.7-1.1c-0.7-0.3-1.4-0.6-2.2-0.9
				c-0.5-0.2-1.1-0.4-1.6-0.7c-0.4-0.2-0.8-0.3-1.2-0.5C24.2,61,24,61,24,60.6l0.1-2.5l59.2-17.9l58.4,17.8
				C141.7,58.1,141.7,60.6,141.7,60.7z"/>
			<linearGradient id="SVGID_7_" gradientUnits="userSpaceOnUse" x1="116.7314" y1="68.0235" x2="39.6213" y2="52.6737">
				<stop  offset="0.2822" style="stop-color:#4D4D67"/>
				<stop  offset="0.6994" style="stop-color:#403D5B"/>
				<stop  offset="1" style="stop-color:#363153"/>
			</linearGradient>
			<polygon class="st8" points="141.7,58.1 81.4,82.3 24.1,58.2 83.5,40.1 			"/>
			<path class="st9" d="M37.9,54c0,0-3.6,3.7-2.4,4.9c0.8,0.8,1.6,1.5,2.4,2.2c0.9,0.7,2.2,1.1,2.8,2.1c0.5,0.7,0.9,2.4-0.5,1.7
				l-15.8-6.7L37.9,54z"/>
			<linearGradient id="SVGID_8_" gradientUnits="userSpaceOnUse" x1="48.7388" y1="74.7095" x2="81.0595" y2="74.7095">
				<stop  offset="0.2707" style="stop-color:#4D4D67"/>
				<stop  offset="0.7398" style="stop-color:#363153"/>
			</linearGradient>
			<path class="st10" d="M81.1,81.5c0,0-2-0.8-5.1-2c-1.5-0.6-3.3-1.3-5.2-2.1c-1.9-0.8-3.9-1.6-5.9-2.5c-2-0.9-4-1.7-5.9-2.5
				c-1.9-0.8-3.6-1.6-5.2-2.2c-3-1.3-5-2.2-5-2.2s2,0.8,5.1,2c1.5,0.6,3.3,1.3,5.2,2.1c1.9,0.8,3.9,1.6,5.9,2.5c2,0.9,4,1.7,5.9,2.5
				c1.9,0.8,3.6,1.6,5.2,2.2C79.1,80.6,81.1,81.5,81.1,81.5z"/>
			<linearGradient id="SVGID_9_" gradientUnits="userSpaceOnUse" x1="41.1411" y1="53.6853" x2="102.5486" y2="64.873">
				<stop  offset="0" style="stop-color:#363153"/>
				<stop  offset="0.8831" style="stop-color:#403D5B"/>
			</linearGradient>
			<path class="st11" d="M106.8,47.3l-23.4-7.2l-5.9,1.8L76,42.3l0,0L24.1,58.2c0.5,0.2,57.2,24.1,57.2,24.1l2.1-0.8
				C71.5,77,46,62.2,46.6,59.7c0.7-2.6,34.3-16.5,36.6-16.8c2.3-0.4,8.9,1.3,12.7,2.2C99.7,45.9,105.5,47.3,106.8,47.3z"/>
			<linearGradient id="SVGID_10_" gradientUnits="userSpaceOnUse" x1="69.9108" y1="70.0092" x2="132.2819" y2="59.2703">
				<stop  offset="0" style="stop-color:#4D4D67;stop-opacity:0"/>
				<stop  offset="0.3059" style="stop-color:#52526B;stop-opacity:0.3103"/>
				<stop  offset="0.6883" style="stop-color:#616079;stop-opacity:0.6981"/>
				<stop  offset="0.9859" style="stop-color:#72728A"/>
			</linearGradient>
			<path class="st12" d="M111.1,48.7c0,0-1.5,19.3-39.7,29.5l9.9,4.2l60.4-24.2L111.1,48.7z"/>
			<linearGradient id="SVGID_11_" gradientUnits="userSpaceOnUse" x1="63.8204" y1="78.8073" x2="130.5927" y2="58.7856">
				<stop  offset="0" style="stop-color:#4D4D67;stop-opacity:0"/>
				<stop  offset="0.3094" style="stop-color:#5A5A73;stop-opacity:0.3094"/>
				<stop  offset="0.8977" style="stop-color:#818097;stop-opacity:0.8977"/>
				<stop  offset="1" style="stop-color:#89899E"/>
			</linearGradient>
			<path class="st13" d="M81.4,82.3l60.3-24.2l-18.8-5.8c0,0,5.5,2.3,6,5C129.5,61.2,77.9,81.5,81.4,82.3z"/>
			<g class="st14">
				
					<image style="overflow:visible;" width="360" height="321" xlink:href="C20B8E27.png"  transform="matrix(0.24 0 0 0.24 41.76 21.6)">
				</image>
			</g>
			<path class="st15" d="M88.2,56.1c0,0,2.2,0.3,2.2,1c0,0.5-1,0.9-2.8,1c1.4-0.2,2.1-0.4,2.1-0.9C89.8,56.5,88.2,56.1,88.2,56.1z"
				/>
			<g>
				<linearGradient id="SVGID_12_" gradientUnits="userSpaceOnUse" x1="104.8182" y1="62.9961" x2="104.3177" y2="64.9392">
					<stop  offset="0" style="stop-color:#9A9999"/>
					<stop  offset="1" style="stop-color:#363153;stop-opacity:0"/>
				</linearGradient>
				<path class="st16" d="M118.5,66.3l-29.3-6.9l-0.5,1.7c0,0,26.4,6.5,28,6.8c1.8,0.4,3,2.4,3,2.4C120.1,68.2,119.4,67,118.5,66.3z
					"/>
			</g>
			<g>
				<g>
					<g>
						<linearGradient id="SVGID_13_" gradientUnits="userSpaceOnUse" x1="87.8654" y1="43.1989" x2="123.832" y2="87.3212">
							<stop  offset="0" style="stop-color:#3D3857"/>
							<stop  offset="0.6457" style="stop-color:#292541"/>
							<stop  offset="1" style="stop-color:#211F38"/>
						</linearGradient>
						<path class="st17" d="M121.2,95.7h-1.8V71.2c0.1-3.9-1.6-4.2-1.7-4.2l-0.2,0l-28.6-6.5l0.5-1.7l28.6,6.5
							c0.7,0.1,3.4,0.8,3.3,6V95.7z"/>
					</g>
					<g class="st18">
						
							<image style="overflow:visible;" width="432" height="375" xlink:href="C20B8E20.png"  transform="matrix(0.24 0 0 0.24 53.52 22.8)">
						</image>
					</g>
					<path class="st19" d="M121.2,90.9c-0.2,0.1-0.3,0.3-0.5,0.4c-0.4,0.2-1.2,0.3-1.3,0.8c0-0.1,0.7-0.1,0.8-0.1
						c0.4,0,0.7-0.1,0.9-0.4c0.1-0.1,0.1-0.2,0.1-0.3C121.2,91.2,121.1,91,121.2,90.9z"/>
					<path class="st19" d="M121.2,89.3c-0.2,0.1-0.3,0.3-0.5,0.4c-0.4,0.2-1.2,0.3-1.3,0.8c0-0.1,0.7-0.1,0.8-0.1
						c0.4,0,0.7-0.1,0.9-0.4c0.1-0.1,0.1-0.2,0.1-0.3C121.2,89.6,121.1,89.4,121.2,89.3z"/>
					<path class="st19" d="M121.2,87.7c-0.2,0.1-0.3,0.3-0.5,0.4c-0.4,0.2-1.2,0.3-1.3,0.8c0-0.1,0.7-0.1,0.8-0.1
						c0.4,0,0.7-0.1,0.9-0.4c0.1-0.1,0.1-0.2,0.1-0.3C121.2,88,121.1,87.8,121.2,87.7z"/>
					<path class="st19" d="M121.2,86.2c-0.2,0.1-0.3,0.3-0.5,0.4c-0.4,0.2-1.2,0.3-1.3,0.8c0-0.1,0.7-0.1,0.8-0.1
						c0.4,0,0.7-0.1,0.9-0.4c0.1-0.1,0.1-0.2,0.1-0.3C121.2,86.4,121.1,86.2,121.2,86.2z"/>
					<path class="st19" d="M121.2,84.6c-0.2,0.1-0.3,0.3-0.5,0.4c-0.4,0.2-1.2,0.3-1.3,0.8c0-0.1,0.7-0.1,0.8-0.1
						c0.4,0,0.7-0.1,0.9-0.4c0.1-0.1,0.1-0.2,0.1-0.3C121.2,84.9,121.1,84.6,121.2,84.6z"/>
					<path class="st19" d="M121.2,83c-0.2,0.1-0.3,0.3-0.5,0.4c-0.4,0.2-1.2,0.3-1.3,0.8c0-0.1,0.7-0.1,0.8-0.1
						c0.4,0,0.7-0.1,0.9-0.4c0.1-0.1,0.1-0.2,0.1-0.3C121.2,83.3,121.1,83,121.2,83z"/>
					<path class="st19" d="M121.2,81.4c-0.2,0.1-0.3,0.3-0.5,0.4c-0.4,0.2-1.2,0.3-1.3,0.8c0-0.1,0.7-0.1,0.8-0.1
						c0.4,0,0.7-0.1,0.9-0.4c0.1-0.1,0.1-0.2,0.1-0.3C121.2,81.7,121.1,81.4,121.2,81.4z"/>
					<path class="st19" d="M121.2,79.8c-0.2,0.1-0.3,0.3-0.5,0.4c-0.4,0.2-1.2,0.3-1.3,0.8c0-0.1,0.7-0.1,0.8-0.1
						c0.4,0,0.7-0.1,0.9-0.4c0.1-0.1,0.1-0.2,0.1-0.3C121.2,80.1,121.1,79.8,121.2,79.8z"/>
				</g>
				<path class="st19" d="M121.2,92.5c-0.2,0.1-0.3,0.3-0.5,0.4c-0.4,0.2-1.2,0.3-1.3,0.8c0-0.1,0.7-0.1,0.8-0.1
					c0.4,0,0.7-0.1,0.9-0.4c0.1-0.1,0.1-0.2,0.1-0.3C121.2,92.8,121.1,92.5,121.2,92.5z"/>
			</g>
			<g>
				<path class="st20" d="M122.2,104.7c1-1,1.6-2.8,1.6-4.8c0-3.1-1.5-5.7-3.3-5.7c-1.8,0-3.3,2.5-3.3,5.7c0,2.1,0.6,3.8,1.6,4.8
					H122.2z"/>
				<path class="st20" d="M118.1,103.8c0,0-5,3.7-1.6,16.3c0,0,4.5,2.1,9.5-0.1c0,0,2.2-12.9-3.1-16.2L118.1,103.8z"/>
				<path class="st21" d="M121,94.6c0.6,0.4,0.9,0.7,1.4,1.8c0.9,1.8,1.3,4.7,0.5,6.5c-0.5,1.1-1.3,0.6-0.8-0.7
					C122.6,101,123.7,98.6,121,94.6z"/>
				<path class="st22" d="M121.2,94.7c0,0,1.4,0.9,1.7,2.3c0.1,0.5-0.5,1-0.7,0.1C122.1,96.2,121.7,95.1,121.2,94.7z"/>
				<path class="st23" d="M120.1,94.4c-0.3-0.2-2.4,1.4-2.7,4.4c-0.2,1.2,0,3.9,0.7,5c-4.8,4.6-1.6,16.3-1.6,16.3
					c1,0.4,2.5,0.7,2.5,0.7c0.2-1.6-0.2-7.9-0.2-7.9c0,7-0.8,7-0.8,7c-0.7-1.3-0.8-2.6-1-4c-0.3-2.2-0.1-4.5,0.3-6.6
					c0.4-2.1,1-4.3,2.9-5.5C120,103.8,116.3,98.9,120.1,94.4z"/>
				<path class="st23" d="M120,109.1c0.1,2.3,0.9,8.9-0.7,11.2c0,0,0.7,0.3,1.1,0.1C121.3,117,120.4,111.7,120,109.1z"/>
				<path class="st23" d="M125.8,112.8c0.3,2.4-0.6,7.1-1.7,7.7c0,0,1-0.3,1.4-0.4C125.8,119.4,126.2,115.4,125.8,112.8z"/>
				<path class="st23" d="M122.1,105.9c0,0,1.5,5.3,0.3,14.4c0,0,0.6,0.1,1.2,0C123.6,120.3,123.3,109.1,122.1,105.9z"/>
				<path class="st21" d="M122.7,104c2.2,2.4,2.7,3.7,2.9,5.3c0.1,0.8,0,2.6-0.8,2.2c-0.4-0.2-0.3-1.1-0.4-2
					C124.3,106.5,123.5,105.7,122.7,104z"/>
			</g>
			<path class="st23" d="M116.5,120.1c0,0,4.3-0.4,9.5-0.1C126,120,121.4,122.1,116.5,120.1z"/>
			<g>
				
					<radialGradient id="SVGID_14_" cx="86.808" cy="56.1692" r="10.3865" gradientTransform="matrix(1 4.942124e-03 -2.771252e-03 0.5607 0.1567 24.2442)" gradientUnits="userSpaceOnUse">
					<stop  offset="2.066410e-02" style="stop-color:#4D4D67"/>
					<stop  offset="0.5442" style="stop-color:#403D5B"/>
					<stop  offset="1" style="stop-color:#211F38"/>
				</radialGradient>
				<path class="st24" d="M90.3,56.7c-1.8-1.1-5.5-1-5.5-1s-3.6-0.1-5.4,1c-1.3,0.7-1.9,3.1-0.6,3.9c1.8,1,4.7,1.2,5.9,1.2
					c1.7,0,4.3-0.1,6-1.2C92.2,59.8,91.6,57.5,90.3,56.7z"/>
				<linearGradient id="SVGID_15_" gradientUnits="userSpaceOnUse" x1="79.5611" y1="57.0509" x2="90.6613" y2="57.0509">
					<stop  offset="4.845080e-02" style="stop-color:#4D4D67;stop-opacity:0"/>
					<stop  offset="0.3536" style="stop-color:#54546D;stop-opacity:0.3255"/>
					<stop  offset="0.8139" style="stop-color:#686780;stop-opacity:0.8165"/>
					<stop  offset="0.9859" style="stop-color:#72728A"/>
				</linearGradient>
				<path class="st25" d="M90.6,57.1c0,0.7-2.5,1.3-5.5,1.3c-3.1,0-5.6-0.6-5.6-1.3c0-0.7,2.5-1.3,5.6-1.3
					C88.1,55.8,90.6,56.3,90.6,57.1z"/>
			</g>
		</g>
	</g>
	<g>
		<g class="st0">
			
				<image style="overflow:visible;" width="418" height="344" xlink:href="C20B8E2E.png"  transform="matrix(0.24 0 0 0.24 -27.84 78.24)">
			</image>
		</g>
		<g>
			<linearGradient id="SVGID_16_" gradientUnits="userSpaceOnUse" x1="52.6391" y1="65.9261" x2="69.7533" y2="38.3829">
				<stop  offset="0" style="stop-color:#414142"/>
				<stop  offset="0.1059" style="stop-color:#595658"/>
				<stop  offset="0.3123" style="stop-color:#888586"/>
				<stop  offset="0.5108" style="stop-color:#B3B0B1"/>
				<stop  offset="0.6966" style="stop-color:#D4D3D3"/>
				<stop  offset="0.8649" style="stop-color:#EAEAEA"/>
				<stop  offset="1" style="stop-color:#F2F3F2"/>
			</linearGradient>
			<polygon class="st26" points="52.2,68.4 70.2,44.3 60.3,47 			"/>
			<g>
				
					<linearGradient id="SVGID_17_" gradientUnits="userSpaceOnUse" x1="-28.2308" y1="440.7069" x2="-7.5771" y2="440.7069" gradientTransform="matrix(0.9479 0.3185 -0.3185 0.9479 198.8557 -340.0587)">
					<stop  offset="0" style="stop-color:#AEB0B3"/>
					<stop  offset="0.3622" style="stop-color:#E7E8E9"/>
					<stop  offset="0.4816" style="stop-color:#DFE0E1"/>
					<stop  offset="0.6644" style="stop-color:#CBCBCD"/>
					<stop  offset="0.887" style="stop-color:#A9ABAD"/>
					<stop  offset="0.898" style="stop-color:#A7A9AB"/>
				</linearGradient>
				<path class="st27" d="M48.6,79.8c1.1-3.2,2.1-6.5,3.3-9.7c-2.3-1.1-10.6-4.9-18-6c-1.1,3.4-2.2,6.7-3.3,10.1
					C33.4,75.2,44.4,79.2,48.6,79.8z"/>
				
					<linearGradient id="SVGID_18_" gradientUnits="userSpaceOnUse" x1="-37.113" y1="454.7423" x2="-21.8442" y2="437.3593" gradientTransform="matrix(0.9479 0.3185 -0.3185 0.9479 198.8559 -340.0587)">
					<stop  offset="4.759720e-02" style="stop-color:#E52628"/>
					<stop  offset="0.3728" style="stop-color:#D6222E"/>
					<stop  offset="1" style="stop-color:#BB1A35"/>
				</linearGradient>
				<path class="st28" d="M38.5,66.3c0,0-17.4,10.5-23.1,8.9c0,0,2.7,3.3,6.8,3.7l-5.3,6.5c0,0,15.6-6.1,20.5-12.8L38.5,66.3z"/>
				
					<linearGradient id="SVGID_19_" gradientUnits="userSpaceOnUse" x1="-922.4426" y1="443.4977" x2="-938.0286" y2="453.3867" gradientTransform="matrix(-0.9479 -0.3185 -0.3185 0.9479 -689.5907 -638.2417)">
					<stop  offset="9.891040e-02" style="stop-color:#BB1A35"/>
					<stop  offset="0.8378" style="stop-color:#E52628"/>
				</linearGradient>
				<path class="st29" d="M46.5,69c0,0,7.6,18.9,13.1,21.1c0,0-4.2,1-7.6-1.2l0.3,8.4c0,0-8.7-14.3-8.6-22.6L46.5,69z"/>
				
					<linearGradient id="SVGID_20_" gradientUnits="userSpaceOnUse" x1="-28.2328" y1="442.6477" x2="-7.5791" y2="442.6477" gradientTransform="matrix(0.9479 0.3185 -0.3185 0.9479 198.8559 -340.0587)">
					<stop  offset="0.179" style="stop-color:#AEB0B3"/>
					<stop  offset="0.4611" style="stop-color:#E7E8E9"/>
					<stop  offset="0.5631" style="stop-color:#E3E3E4"/>
					<stop  offset="0.6763" style="stop-color:#D5D6D7"/>
					<stop  offset="0.7944" style="stop-color:#C0C1C3"/>
					<stop  offset="0.898" style="stop-color:#A7A9AB"/>
				</linearGradient>
				<path class="st30" d="M36.4,119.6c3.3-10.8,6.7-21.6,9.9-32.5c4.8-16.2,11.1-32,16.9-47.8c0.1-0.2,1.7-4.7,1.7-4.7
					c0,0-2-4.1-8.7-6.4c-5.1-1.7-9.8-1.7-10.6-0.1L45.4,28c-8,26.1-27.2,84.2-28.6,85c-0.4,0.2,3.1,4.6,8.7,6.5
					C31.2,121.4,36.6,120,36.4,119.6z"/>
				<path class="st31" d="M60.1,29.9C55.3,49.1,34,116,31.2,120.5c3.1,0.1,5.3-0.6,5.2-0.8c3.3-10.8,6.7-21.6,9.9-32.5
					c4.8-16.2,11.1-32,16.9-47.8c0.1-0.2,1.7-4.7,1.7-4.7C65,34.6,63.8,32.1,60.1,29.9z"/>
				
					<linearGradient id="SVGID_21_" gradientUnits="userSpaceOnUse" x1="137.2232" y1="438.2681" x2="103.4224" y2="454.3091" gradientTransform="matrix(0.6872 0.7265 -0.7265 0.6872 276.8459 -323.1051)">
					<stop  offset="0.4434" style="stop-color:#E7E8E9"/>
					<stop  offset="0.5113" style="stop-color:#DFE0E1"/>
					<stop  offset="0.6155" style="stop-color:#CBCBCD"/>
					<stop  offset="0.7423" style="stop-color:#A9ABAD"/>
					<stop  offset="0.7485" style="stop-color:#A7A9AB"/>
				</linearGradient>
				<path class="st32" d="M53.4,25.6l-31.2,92.7c0,0-4.8-0.8-5.3-5.8c0,0,10.1-28.9,14.4-41.1c0,0,13.9-41,14.2-44
					C45.4,27.4,49.6,24.8,53.4,25.6z"/>
				<path class="st33" d="M53.4,25.6c-1.2-0.3-1.9-0.1-3.1,0c-9.4,28-20.1,58.4-30,92.1c1.1,0.6,1.8,0.6,1.8,0.6L53.4,25.6z"/>
				
					<linearGradient id="SVGID_22_" gradientUnits="userSpaceOnUse" x1="-26.4687" y1="440.7414" x2="-8.7898" y2="440.7414" gradientTransform="matrix(0.9479 0.3185 -0.3185 0.9479 198.8559 -340.0587)">
					<stop  offset="5.612240e-02" style="stop-color:#BB1A35"/>
					<stop  offset="0.1784" style="stop-color:#CA1E31"/>
					<stop  offset="0.3718" style="stop-color:#DE242B"/>
					<stop  offset="0.4972" style="stop-color:#E52628"/>
					<stop  offset="0.711" style="stop-color:#D5222E"/>
					<stop  offset="0.9837" style="stop-color:#BB1A35"/>
				</linearGradient>
				<path class="st34" d="M48.6,79.8c0.9-1.7,2.4-6.2,3.3-9.7c-2.3-1.1-10.9-4.9-18.2-6c-1.1,2.6-2.7,7.1-3.4,10
					C33.1,75.2,44.4,79.2,48.6,79.8z"/>
				<path class="st35" d="M33.9,64.8c0.7-0.6,14.5,2.4,16.2,5.7c0.3,0.7-5.6-1.6-9.5-1.6c-3.8,0-4.6,1.2-0.8,2.8
					c0,0,1.8,2.4-1.4,2.2c0,0-5.6-1.1-7.1-2.2C31.2,71.7,33.1,65.4,33.9,64.8z"/>
				<path class="st36" d="M34.1,65.1c0,0,3.3-0.5,12.4,3c1.1,0.4-1.1,0.4-5.9-0.6c-4.1-0.8-7.2-0.8-8,0.6
					C32.6,68.1,33.5,65.1,34.1,65.1z"/>
			</g>
		</g>
	</g>
</g>
</svg>
